<svg width="54" height="54" viewBox="0 0 54 54" fill="none" xmlns="http://www.w3.org/2000/svg">
<path d="M26.9709 19.6938H24.4464L26.9481 17.1701C27.7961 16.3145 28.0467 15.032 27.5869 13.9023C27.143 12.8113 26.1483 12.1219 24.9375 12.1025C23.0846 12.1025 21.5777 13.6095 21.5777 15.4615C21.5777 15.9273 21.9557 16.3053 22.4214 16.3053C22.8872 16.3053 23.2652 15.9273 23.2652 15.4615C23.2652 14.5401 24.0153 13.79 24.9645 13.79C25.6496 13.801 25.9323 14.3174 26.0225 14.5384C26.1854 14.9384 26.1989 15.5273 25.7483 15.9813L21.8207 19.9427C21.581 20.1848 21.5102 20.5468 21.641 20.8615C21.7717 21.1762 22.0789 21.3804 22.4197 21.3804H26.9692C27.435 21.3804 27.813 21.0024 27.813 20.5367C27.813 20.0709 27.435 19.6929 26.9692 19.6929L26.9709 19.6938Z" fill="#0C2544"/>
<path d="M31.3872 20.5367C31.3872 21.0024 31.7652 21.3804 32.231 21.3804C32.6967 21.3804 33.0747 21.0024 33.0747 20.5367V12.9438C33.0747 12.5818 32.8435 12.2595 32.5001 12.1439C32.1567 12.0283 31.7779 12.1439 31.5593 12.4325L27.4359 17.8561C27.2419 18.1118 27.209 18.4543 27.3516 18.742C27.4941 19.0298 27.7869 19.2112 28.1076 19.2112H31.3872V20.5367ZM29.8086 17.5237L31.3872 15.448V17.5237H29.8086Z" fill="#0C2544"/>
<path d="M41.6378 22.5537H36.5196C36.0539 22.5537 35.6759 22.9317 35.6759 23.3975C35.6759 23.8632 36.0539 24.2412 36.5196 24.2412H40.0516L35.8202 30.5196C35.5594 30.906 35.6615 31.4308 36.048 31.6907C36.1923 31.7886 36.3568 31.835 36.5188 31.835C36.7896 31.835 37.0563 31.7042 37.2191 31.4629L42.3373 23.8691C42.5119 23.6101 42.5297 23.2768 42.3829 23.0009C42.2369 22.7258 41.95 22.5537 41.6378 22.5537Z" fill="#0C2544"/>
<path d="M39.1078 13.1174C38.6961 12.9006 38.1856 13.06 37.9688 13.4718L29.4232 29.7385C29.2064 30.151 29.365 30.6607 29.7776 30.8775C29.9025 30.9433 30.0367 30.9745 30.1691 30.9745C30.4729 30.9745 30.7665 30.8109 30.9167 30.5231L39.4622 14.2565C39.679 13.8439 39.5204 13.3343 39.1078 13.1174Z" fill="#0C2544"/>
<path d="M31.4721 1.6875C21.7749 1.6875 13.5129 8.26453 11.244 17.5348L10.3606 16.6514C9.18108 15.471 7.12233 15.471 5.94108 16.6514L4.92352 17.669C4.85348 17.739 4.79442 17.8149 4.72692 17.8867C4.70752 17.9027 4.68305 17.9094 4.66448 17.928C4.63411 17.9584 4.62061 17.998 4.5953 18.0326C0.631359 22.3619 0.732609 29.1018 4.92352 33.2927L20.7084 49.0776C22.8616 51.2317 25.6907 52.3083 28.5198 52.3083C31.3489 52.3083 34.178 51.2317 36.3313 49.0776L37.3488 48.06C37.9395 47.4694 38.2643 46.6847 38.2643 45.8502C38.2643 45.0158 37.9395 44.2311 37.3488 43.6404L36.4654 42.757C45.7357 40.4882 52.3127 32.227 52.3127 22.529C52.3127 11.0371 42.9631 1.6875 31.4721 1.6875ZM36.1558 46.8661L35.1382 47.8837C31.4881 51.5337 25.5507 51.5329 21.9015 47.8837L6.11658 32.0988C2.75761 28.7398 2.49858 23.447 5.32261 19.7792L10.8821 25.3387C11.0466 25.5032 11.2626 25.5859 11.4786 25.5859C11.6946 25.5859 11.9106 25.5032 12.0751 25.3387C12.405 25.0088 12.405 24.4755 12.0751 24.1456L6.45408 18.5245L7.13414 17.8445C7.40583 17.5728 7.76695 17.4234 8.15086 17.4234C8.53477 17.4234 8.89589 17.5728 9.16758 17.8445L14.4258 23.1019C14.9861 23.663 14.9861 24.5751 14.4258 25.1353L13.1518 26.4094C11.655 27.9062 11.655 30.3413 13.1518 31.8381L22.1554 40.8417C23.4455 42.1327 25.4317 42.3039 26.9142 41.3691L32.5943 47.0492C32.7588 47.2137 32.9748 47.2964 33.1908 47.2964C33.4068 47.2964 33.6228 47.2137 33.7874 47.0492C34.1173 46.7193 34.1173 46.186 33.7874 45.8561L28.1781 40.2469L28.8582 39.5668C29.4184 39.0066 30.3314 39.0066 30.8916 39.5668L36.1558 44.8318C36.4275 45.1035 36.5768 45.4646 36.5768 45.8485C36.5768 46.2324 36.4275 46.5944 36.1558 46.8661ZM35.0445 41.3353L32.0847 38.3754C30.8671 37.1571 28.8843 37.1579 27.6651 38.3754L26.391 39.6495C25.5515 40.489 24.1872 40.4882 23.3485 39.6495L14.3448 30.6458C13.5061 29.8072 13.5061 28.442 14.3448 27.6033L15.6189 26.3292C16.8373 25.1108 16.8373 23.128 15.6189 21.9097L12.6649 18.9565C14.3744 9.90647 22.2086 3.37584 31.4721 3.37584C42.0333 3.37584 50.6252 11.9677 50.6252 22.529C50.6252 31.7917 44.0946 39.6259 35.0445 41.3353Z" fill="#0C2544"/>
</svg>
