<svg width="169" height="169" viewBox="0 0 169 159" fill="none" xmlns="http://www.w3.org/2000/svg">
<path d="M42.995 158.104C-0.54978 132.894 -12.751 75.5798 16.9418 34.9372C35.5226 9.19983 68.8263 -4.16439 100.013 1.8677C132.619 7.68941 158.968 32.8289 166.57 65.0265C171.908 87.3315 167.541 111.724 154.74 130.764C167.397 111.687 171.628 87.3476 166.17 65.1226C158.441 33.242 132.213 8.425 99.8358 2.84246C68.4111 -3.00023 35.3979 10.8385 17.2879 37.0997C0.269037 61.5646 -2.31224 93.9532 10.9689 120.684C18.1623 135.467 29.9377 147.919 44.1852 156.03C45.526 156.81 44.4168 158.868 42.9961 158.104L42.995 158.104Z" fill="#0C2544"/>
</svg>
