<svg width="134" height="134" viewBox="0 0 143 131" fill="none" xmlns="http://www.w3.org/2000/svg">
<path d="M18.2466 118.325C-17.8654 75.9779 5.49566 10.8686 60.4356 1.54527C78.0731 -1.42029 96.7825 2.70518 111.563 12.7671C136.626 29.643 148.241 61.1747 139.973 90.252C135.479 106.535 124.85 120.966 110.688 130.155C124.757 120.882 135.259 106.435 139.63 90.157C148.136 59.3669 134.361 26.4431 106.529 10.8007C95.7841 4.81411 83.4466 1.63717 71.136 1.88823C30.3801 2.49664 -1.266 38.5663 3.37546 79.0441C4.18154 85.9828 6.06612 92.7816 8.8506 99.1783C11.7005 105.555 15.5075 111.49 20.0639 116.772C21.0698 117.964 19.3174 119.52 18.2473 118.327L18.2466 118.325Z" fill="#0C2544"/>
</svg>
