<svg width="174" height="79" viewBox="0 0 174 79" fill="none" xmlns="http://www.w3.org/2000/svg">
<path d="M15.5425 41.8208C10.9184 41.8543 6.29428 41.8543 1.63667 41.8543C1.06703 41.8543 0.128804 41.1841 0.0282798 40.715C-0.172768 39.6427 0.731948 39.3747 1.67017 39.4082C2.27332 39.4417 2.90997 39.4082 3.51311 39.4082C9.98016 39.3747 16.4807 39.4082 22.9478 39.2741C30.353 39.1401 37.7583 38.9056 45.1636 38.6375C53.1385 38.3359 61.1134 38.1014 69.0883 37.5987C77.9009 37.0291 86.7136 36.1579 95.5262 35.4542C98.6759 35.1862 101.859 35.0521 104.975 34.6835C108.896 34.2479 112.783 33.6783 116.703 33.1422C120.858 32.5725 125.047 32.0029 129.202 31.3327C132.586 30.7966 135.97 30.1264 139.321 29.3893C139.857 29.2552 140.527 28.4175 140.628 27.8144C141.399 22.4866 142.873 17.3934 145.453 12.6688C148.67 6.80486 153.495 3.08547 160.029 1.41007C163.447 0.538857 166.362 1.00797 169.21 2.8174C174.672 6.30224 175.644 14.2436 171.187 18.9683C167.635 22.7547 163.145 25.0667 158.354 26.7421C155.338 27.8144 152.255 28.6856 149.173 29.5568C147.397 30.0594 143.878 30.361 142.873 32.1034C142.504 32.7401 142.504 33.5108 142.504 34.2479C142.571 43.5297 142.638 52.8114 142.705 62.1266C142.705 62.7633 142.705 63.4669 142.37 64.0366C142.035 64.6062 141.231 64.9078 140.695 64.5392C140.293 64.2376 140.226 63.6345 140.192 63.1319C139.656 53.448 139.522 43.4291 139.824 33.6113C139.824 33.2762 139.824 32.9076 139.623 32.6396C139.288 32.271 138.718 32.338 138.215 32.4385C111.476 37.7663 83.9994 39.5422 56.8244 40.782C47.5762 41.2176 38.2944 41.5192 29.0127 41.6867C24.5562 41.7202 20.0661 41.7872 15.5425 41.8208ZM171.522 12.5347C171.556 8.6478 168.674 4.79438 165.86 4.02369C162.877 3.2195 160.13 3.95668 157.449 5.06244C152.59 7.07292 149.34 10.6248 147.129 15.3829C145.42 19.1023 144.213 22.9222 143.577 26.9097C143.409 28.0825 143.811 28.451 144.984 28.116C148.167 27.1442 151.384 26.34 154.534 25.3013C159.459 23.6929 164.218 21.6489 168.205 18.2311C170.149 16.5892 171.355 14.5452 171.522 12.5347Z" fill="#F89A20"/>
<path d="M150.412 64.1365C151.015 64.4716 151.115 65.3428 150.579 65.7784C147.095 68.6601 145.52 72.7481 143.576 76.6015C142.537 78.7125 141.499 78.8465 140.058 76.9366C138.986 75.4957 138.181 73.8203 137.143 72.3125C135.903 70.503 134.529 68.7606 133.289 66.9512C133.122 66.7166 133.021 66.4151 132.954 66.1135C132.787 65.5103 133.222 64.9072 133.825 64.8402C134.294 64.8067 134.697 64.7732 134.931 64.9742C136.305 66.3145 137.511 67.8224 138.651 69.3638C139.354 70.3355 139.79 71.5418 140.46 72.547C140.728 72.9491 141.231 73.3847 141.666 73.4182C142.068 73.4517 142.671 72.2455 142.839 71.9774C143.308 71.2737 143.777 70.5365 144.246 69.8329C145.285 68.2915 146.357 66.7837 147.363 65.2423C147.832 64.5721 148.736 64.0695 149.541 63.8685C149.775 63.8349 150.077 63.969 150.412 64.1365Z" fill="#F89A20"/>
</svg>
