<svg width="47" height="47" viewBox="0 0 47 47" fill="none" xmlns="http://www.w3.org/2000/svg">
<g clip-path="url(#clip0_1130_1471)">
<path d="M16.9346 25.0422C16.8896 25.2083 16.879 25.3818 16.9034 25.5522C16.9277 25.7225 16.9866 25.8861 17.0764 26.0329L18.0222 27.5993C18.2041 27.8916 18.4909 28.1033 18.8238 28.1908C19.1567 28.2783 19.5105 28.2351 19.8126 28.0701L20.0888 27.9173C20.4435 28.1722 20.8261 28.3858 21.2292 28.554V28.8103C21.2331 29.1581 21.3748 29.4902 21.6231 29.7337C21.8715 29.9773 22.2062 30.1124 22.5541 30.1094H24.4473C24.7945 30.1116 25.1284 29.9762 25.3761 29.7329C25.6238 29.4897 25.7651 29.1582 25.7691 28.811V28.5548C26.1722 28.3864 26.5548 28.1728 26.9096 27.918L27.1858 28.0708C27.4877 28.2357 27.8413 28.2789 28.174 28.1915C28.5068 28.1041 28.7935 27.8928 28.9754 27.6008L29.9228 26.0336C30.0122 25.8867 30.0709 25.7231 30.0951 25.5528C30.1193 25.3825 30.1087 25.209 30.0638 25.043C30.0175 24.8738 29.9377 24.7156 29.8292 24.5777C29.7208 24.4398 29.5858 24.3251 29.4322 24.2403L29.1906 24.1074C29.2376 23.7039 29.2376 23.2962 29.1906 22.8927L29.4322 22.7598C29.5858 22.675 29.7208 22.5602 29.8292 22.4224C29.9377 22.2845 30.0175 22.1263 30.0638 21.9571C30.1088 21.791 30.1194 21.6175 30.095 21.4472C30.0706 21.2768 30.0118 21.1133 29.922 20.9665L28.9791 19.4C28.7974 19.1076 28.5106 18.8958 28.1776 18.8083C27.8446 18.7208 27.4907 18.764 27.1887 18.9293L26.9126 19.082C26.5578 18.8272 26.1752 18.6135 25.7721 18.4453V18.189C25.768 17.8414 25.6263 17.5095 25.378 17.2661C25.1296 17.0227 24.795 16.8877 24.4473 16.8907H22.5541C22.2069 16.8885 21.8729 17.0239 21.6253 17.2672C21.3776 17.5104 21.2362 17.8419 21.2322 18.189V18.4453C20.8291 18.6137 20.4465 18.8273 20.0917 19.082L19.8156 18.9293C19.5136 18.7644 19.1601 18.7212 18.8273 18.8086C18.4946 18.896 18.2078 19.1073 18.0259 19.3993L17.0786 20.9665C16.9891 21.1134 16.9305 21.277 16.9062 21.4473C16.882 21.6176 16.8926 21.7911 16.9376 21.9571C16.9839 22.1263 17.0636 22.2845 17.1721 22.4224C17.2806 22.5602 17.4156 22.675 17.5691 22.7598L17.8107 22.8927C17.7637 23.2962 17.7637 23.7039 17.8107 24.1074L17.5691 24.2403C17.4151 24.3247 17.2796 24.4392 17.1706 24.577C17.0616 24.7147 16.9814 24.8729 16.9346 25.0422ZM19.2413 23.5C19.2412 23.3187 19.2544 23.1375 19.2809 22.9581C19.3164 22.7005 19.2721 22.4382 19.1539 22.2066C19.0357 21.975 18.8494 21.7851 18.62 21.6626L18.4357 21.5606L19.2119 20.2747L19.4498 20.4061C19.6786 20.5292 19.9376 20.5846 20.1967 20.5658C20.4557 20.5471 20.7041 20.455 20.9127 20.3004C21.2034 20.087 21.52 19.9113 21.8549 19.7775C22.101 19.6838 22.3131 19.5183 22.4639 19.3025C22.6146 19.0867 22.6969 18.8305 22.7002 18.5673V18.3594H24.3055V18.5673C24.3088 18.8305 24.3911 19.0867 24.5419 19.3025C24.6926 19.5183 24.9048 19.6838 25.1508 19.7775C25.486 19.9114 25.8029 20.0873 26.0937 20.3011C26.3022 20.4559 26.5505 20.548 26.8095 20.5666C27.0685 20.5852 27.3274 20.5296 27.5559 20.4061L27.7938 20.2747L28.5679 21.5606L28.3843 21.6619C28.1544 21.7846 27.9678 21.975 27.8496 22.2072C27.7314 22.4394 27.6873 22.7022 27.7233 22.9603C27.7486 23.1391 27.7609 23.3195 27.76 23.5C27.7602 23.6814 27.7469 23.8626 27.7204 24.042C27.6849 24.2996 27.7293 24.5619 27.8474 24.7935C27.9656 25.0251 28.1519 25.215 28.3813 25.3375L28.5656 25.4395L27.7894 26.7254L27.5515 26.594C27.3227 26.4711 27.0637 26.4158 26.8047 26.4345C26.5457 26.4532 26.2973 26.5452 26.0886 26.6997C25.7979 26.9131 25.4813 27.0888 25.1464 27.2226C24.9004 27.3163 24.6882 27.4818 24.5375 27.6976C24.3867 27.9134 24.3044 28.1696 24.3011 28.4328V28.6407H22.698V28.4328C22.6947 28.1696 22.6124 27.9134 22.4617 27.6976C22.3109 27.4818 22.0988 27.3163 21.8527 27.2226C21.5175 27.0887 21.2006 26.9128 20.9098 26.699C20.7011 26.5447 20.4528 26.4529 20.194 26.4343C19.9351 26.4157 19.6762 26.4711 19.4476 26.594L19.2097 26.7254L18.4335 25.4395L18.6171 25.3382C18.8469 25.2154 19.0335 25.0251 19.1517 24.7929C19.2699 24.5607 19.314 24.2979 19.278 24.0398C19.2527 23.861 19.2405 23.6806 19.2413 23.5Z" fill="#0C2544"/>
<path d="M23.5 26.4375C24.081 26.4375 24.6489 26.2652 25.132 25.9424C25.6151 25.6197 25.9916 25.1609 26.2139 24.6241C26.4362 24.0874 26.4944 23.4967 26.3811 22.9269C26.2677 22.3571 25.9879 21.8337 25.5771 21.4229C25.1663 21.0121 24.6429 20.7323 24.0731 20.6189C23.5033 20.5056 22.9126 20.5638 22.3759 20.7861C21.8391 21.0084 21.3803 21.3849 21.0576 21.868C20.7348 22.3511 20.5625 22.919 20.5625 23.5C20.5625 24.2791 20.872 25.0262 21.4229 25.5771C21.9738 26.128 22.7209 26.4375 23.5 26.4375ZM23.5 22.0313C23.7905 22.0313 24.0745 22.1174 24.316 22.2788C24.5575 22.4402 24.7458 22.6696 24.8569 22.9379C24.9681 23.2063 24.9972 23.5016 24.9405 23.7865C24.8839 24.0715 24.744 24.3332 24.5386 24.5386C24.3332 24.744 24.0715 24.8839 23.7865 24.9405C23.5016 24.9972 23.2063 24.9681 22.9379 24.857C22.6696 24.7458 22.4402 24.5575 22.2788 24.316C22.1174 24.0745 22.0313 23.7905 22.0313 23.5C22.0313 23.1105 22.186 22.7369 22.4614 22.4614C22.7369 22.186 23.1105 22.0313 23.5 22.0313Z" fill="#0C2544"/>
<path d="M23.5 12.4844C24.662 12.4844 25.7978 12.1398 26.764 11.4943C27.7301 10.8487 28.4831 9.93116 28.9278 8.85764C29.3725 7.78413 29.4888 6.60286 29.2621 5.46322C29.0354 4.32358 28.4759 3.27676 27.6543 2.45513C26.8326 1.63349 25.7858 1.07395 24.6462 0.847264C23.5065 0.620576 22.3253 0.736921 21.2517 1.18159C20.1782 1.62625 19.2607 2.37926 18.6151 3.3454C17.9696 4.31154 17.625 5.44741 17.625 6.60938C17.6267 8.16699 18.2463 9.6603 19.3477 10.7617C20.4491 11.8631 21.9424 12.4826 23.5 12.4844ZM23.5 2.20313C24.3715 2.20313 25.2234 2.46155 25.948 2.94571C26.6726 3.42988 27.2373 4.11804 27.5708 4.92318C27.9043 5.72832 27.9916 6.61427 27.8216 7.469C27.6516 8.32372 27.2319 9.10884 26.6157 9.72507C25.9995 10.3413 25.2143 10.7609 24.3596 10.931C23.5049 11.101 22.6189 11.0137 21.8138 10.6802C21.0087 10.3467 20.3205 9.78196 19.8363 9.05736C19.3522 8.33276 19.0938 7.48085 19.0938 6.60938C19.0949 5.44113 19.5595 4.32106 20.3856 3.49498C21.2117 2.6689 22.3317 2.20429 23.5 2.20313Z" fill="#0C2544"/>
<path d="M46.2656 23.5C46.2656 22.338 45.9211 21.2022 45.2755 20.236C44.63 19.2699 43.7124 18.5169 42.6389 18.0722C41.5654 17.6275 40.3841 17.5112 39.2445 17.7379C38.1048 17.9646 37.058 18.5241 36.2364 19.3458C35.4147 20.1674 34.8552 21.2142 34.6285 22.3538C34.4018 23.4935 34.5182 24.6748 34.9628 25.7483C35.4075 26.8218 36.1605 27.7393 37.1267 28.3849C38.0928 29.0304 39.2287 29.375 40.3906 29.375C41.9482 29.3733 43.4416 28.7537 44.543 27.6523C45.6443 26.5509 46.2639 25.0576 46.2656 23.5ZM40.3906 27.9063C39.5192 27.9063 38.6673 27.6478 37.9426 27.1637C37.218 26.6795 36.6533 25.9913 36.3198 25.1862C35.9863 24.3811 35.899 23.4951 36.069 22.6404C36.2391 21.7857 36.6587 21.0005 37.2749 20.3843C37.8912 19.7681 38.6763 19.3484 39.531 19.1784C40.3857 19.0084 41.2717 19.0957 42.0768 19.4292C42.882 19.7627 43.5701 20.3274 44.0543 21.052C44.5385 21.7766 44.7969 22.6285 44.7969 23.5C44.7957 24.6683 44.3311 25.7883 43.505 26.6144C42.679 27.4405 41.5589 27.9051 40.3906 27.9063Z" fill="#0C2544"/>
<path d="M6.60938 29.375C7.77134 29.375 8.90721 29.0304 9.87335 28.3849C10.8395 27.7393 11.5925 26.8218 12.0372 25.7483C12.4818 24.6748 12.5982 23.4935 12.3715 22.3538C12.1448 21.2142 11.5853 20.1674 10.7636 19.3458C9.94199 18.5241 8.89517 17.9646 7.75553 17.7379C6.61589 17.5112 5.43463 17.6275 4.36111 18.0722C3.28759 18.5169 2.37004 19.2699 1.72449 20.236C1.07894 21.2022 0.734375 22.338 0.734375 23.5C0.736124 25.0576 1.35566 26.5509 2.45705 27.6523C3.55845 28.7537 5.05177 29.3733 6.60938 29.375ZM6.60938 19.0938C7.48085 19.0938 8.33275 19.3522 9.05736 19.8363C9.78196 20.3205 10.3467 21.0087 10.6802 21.8138C11.0137 22.6189 11.101 23.5049 10.931 24.3596C10.7609 25.2144 10.3413 25.9995 9.72507 26.6157C9.10884 27.2319 8.32372 27.6516 7.46899 27.8216C6.61426 27.9916 5.72831 27.9043 4.92318 27.5708C4.11804 27.2374 3.42988 26.6726 2.94571 25.948C2.46155 25.2234 2.20313 24.3715 2.20313 23.5C2.20429 22.3318 2.66889 21.2117 3.49497 20.3856C4.32105 19.5595 5.44112 19.0949 6.60938 19.0938Z" fill="#0C2544"/>
<path d="M29.375 40.3906C29.375 39.2287 29.0304 38.0928 28.3849 37.1267C27.7393 36.1605 26.8218 35.4075 25.7483 34.9628C24.6748 34.5182 23.4935 34.4018 22.3538 34.6285C21.2142 34.8552 20.1674 35.4147 19.3458 36.2364C18.5241 37.058 17.9646 38.1048 17.7379 39.2445C17.5112 40.3841 17.6275 41.5654 18.0722 42.6389C18.5169 43.7124 19.2699 44.63 20.236 45.2755C21.2022 45.9211 22.338 46.2656 23.5 46.2656C25.0576 46.2639 26.5509 45.6443 27.6523 44.543C28.7537 43.4416 29.3733 41.9482 29.375 40.3906ZM19.0938 40.3906C19.0938 39.5192 19.3522 38.6673 19.8363 37.9426C20.3205 37.218 21.0087 36.6533 21.8138 36.3198C22.6189 35.9863 23.5049 35.899 24.3596 36.069C25.2144 36.2391 25.9995 36.6587 26.6157 37.2749C27.2319 37.8912 27.6516 38.6763 27.8216 39.531C27.9916 40.3857 27.9043 41.2717 27.5708 42.0768C27.2374 42.882 26.6726 43.5701 25.948 44.0543C25.2234 44.5385 24.3715 44.7969 23.5 44.7969C22.3318 44.7957 21.2117 44.3311 20.3856 43.505C19.5595 42.679 19.0949 41.5589 19.0938 40.3906Z" fill="#0C2544"/>
<path d="M5.875 10.2809C5.87617 9.30738 6.2634 8.3741 6.95176 7.68574C7.64011 6.99738 8.57339 6.61015 9.54688 6.60898H12.4844L11.3094 7.49023L12.1906 8.66523L15.1281 6.46211C15.2193 6.3937 15.2934 6.305 15.3443 6.20303C15.3953 6.10106 15.4219 5.98862 15.4219 5.87461C15.4219 5.7606 15.3953 5.64816 15.3443 5.54619C15.2934 5.44422 15.2193 5.35551 15.1281 5.28711L12.1906 3.08398L11.3094 4.25898L12.4844 5.14023H9.54688C8.18397 5.14179 6.87734 5.68389 5.91362 6.64761C4.9499 7.61132 4.4078 8.91796 4.40625 10.2809V15.4215H5.875V10.2809Z" fill="#0C2544"/>
<path d="M41.125 10.2812V12.4844L40.2437 11.3094L39.0688 12.1906L41.2719 15.1281C41.3403 15.2193 41.429 15.2934 41.531 15.3443C41.6329 15.3953 41.7454 15.4219 41.8594 15.4219C41.9734 15.4219 42.0858 15.3953 42.1878 15.3443C42.2898 15.2934 42.3785 15.2193 42.4469 15.1281L44.65 12.1906L43.475 11.3094L42.5938 12.4844V10.2812C42.5922 8.91835 42.0501 7.61171 41.0864 6.648C40.1227 5.68428 38.816 5.14218 37.4531 5.14062H31.5781V6.60938H37.4531C38.4266 6.61054 39.3599 6.99777 40.0482 7.68613C40.7366 8.37449 41.1238 9.30777 41.125 10.2812Z" fill="#0C2544"/>
<path d="M34.8094 43.9156L35.6906 42.7406L34.5156 41.8594H37.4531C38.816 41.8578 40.1227 41.3157 41.0864 40.352C42.0501 39.3883 42.5922 38.0817 42.5938 36.7188V31.5781H41.125V36.7188C41.1238 37.6922 40.7366 38.6255 40.0482 39.3139C39.3599 40.0022 38.4266 40.3895 37.4531 40.3906H34.5156L35.6906 39.5094L34.8094 38.3344L31.8719 40.5375C31.7807 40.6059 31.7066 40.6946 31.6557 40.7966C31.6047 40.8986 31.5781 41.011 31.5781 41.125C31.5781 41.239 31.6047 41.3514 31.6557 41.4534C31.7066 41.5554 31.7807 41.6441 31.8719 41.7125L34.8094 43.9156Z" fill="#0C2544"/>
<path d="M6.75586 35.6909L7.93086 34.8096L5.72773 31.8721C5.65636 31.7854 5.56666 31.7155 5.46508 31.6676C5.36351 31.6196 5.25257 31.5947 5.14023 31.5947C5.0279 31.5947 4.91696 31.6196 4.81538 31.6676C4.71381 31.7155 4.62411 31.7854 4.55273 31.8721L2.34961 34.8096L3.52461 35.6909L4.40586 34.5159V36.719C4.40741 38.0819 4.94951 39.3885 5.91323 40.3523C6.87695 41.316 8.18358 41.8581 9.54648 41.8596H15.4215V40.3909H9.54648C8.573 40.3897 7.63972 40.0025 6.95136 39.3141C6.26301 38.6258 5.87578 37.6925 5.87461 36.719V34.5159L6.75586 35.6909Z" fill="#0C2544"/>
<path d="M22.7656 5.875H24.2344V7.34375H22.7656V5.875Z" fill="#0C2544"/>
<path d="M38.1875 22.7656H39.6562V24.2344H38.1875V22.7656Z" fill="#0C2544"/>
<path d="M41.125 22.7656H42.5938V24.2344H41.125V22.7656Z" fill="#0C2544"/>
<path d="M21.2969 41.125H22.7656V42.5938H21.2969V41.125Z" fill="#0C2544"/>
<path d="M24.2344 41.125H25.7031V42.5938H24.2344V41.125Z" fill="#0C2544"/>
<path d="M22.7656 38.1875H24.2344V39.6562H22.7656V38.1875Z" fill="#0C2544"/>
<path d="M4.40625 24.2344H5.875V25.7031H4.40625V24.2344Z" fill="#0C2544"/>
<path d="M7.34375 24.2344H8.8125V25.7031H7.34375V24.2344Z" fill="#0C2544"/>
<path d="M4.40625 21.2969H5.875V22.7656H4.40625V21.2969Z" fill="#0C2544"/>
<path d="M7.34375 21.2969H8.8125V22.7656H7.34375V21.2969Z" fill="#0C2544"/>
</g>
<defs>
<clipPath id="clip0_1130_1471">
<rect width="47" height="47" fill="white"/>
</clipPath>
</defs>
</svg>
