<svg width="22" height="14" viewBox="0 0 22 14" fill="none" xmlns="http://www.w3.org/2000/svg">
<path d="M7.99216 6.04888C8.1201 6.15586 8.25217 6.25793 8.37454 6.37156C8.47792 6.46755 8.58032 6.56352 8.65976 6.68008C8.71194 6.75663 8.74509 6.8407 8.74928 6.93343C8.75073 6.96556 8.76564 6.98557 8.79211 7.00045C8.79713 7.0094 8.80219 7.01832 8.80723 7.02726C8.81799 7.03737 8.82934 7.03636 8.84103 7.02885C8.94147 6.86203 9.06254 6.70922 9.17821 6.55286C9.44612 6.19065 9.72316 5.83509 10.0123 5.4889C10.2184 5.24209 10.4305 5.00012 10.6459 4.76086C10.852 4.53203 11.06 4.30408 11.2825 4.09179C11.5141 3.87087 11.7364 3.64054 11.9771 3.42845C12.1697 3.25877 12.3577 3.08379 12.5568 2.92151C12.9207 2.62498 13.2856 2.32948 13.6738 2.0632C14.0993 1.76961 14.5336 1.49 14.9914 1.24583C15.2335 1.11666 15.4794 0.995172 15.7261 0.874913C16.0008 0.758426 16.2738 0.638154 16.5549 0.536889C16.7603 0.462905 16.9708 0.405414 17.1812 0.347744C17.1948 0.342674 17.2083 0.337521 17.2217 0.332148C17.2286 0.329192 17.2357 0.32701 17.243 0.3252C17.4485 0.270458 17.6554 0.220993 17.8623 0.170892C18.0329 0.128624 18.2075 0.108581 18.3812 0.0856646C18.5787 0.0596128 18.7766 0.0358401 18.9758 0.0240989C19.1534 0.0136422 19.3308 0.000878756 19.5088 0.000519611C19.7348 -0.00414927 19.9586 0.0237809 20.1834 0.0388235C20.5304 0.0620574 20.8722 0.116109 21.2118 0.185811C21.4287 0.232058 21.6416 0.29332 21.8552 0.351764C21.862 0.353048 21.8687 0.355106 21.8752 0.357496C21.8845 0.361004 21.8935 0.365466 21.9024 0.370038C21.9084 0.372732 21.9141 0.375881 21.9197 0.379127C21.9285 0.383768 21.937 0.388921 21.9451 0.394792C21.9772 0.423496 21.9983 0.457601 21.9997 0.501444C22.0026 0.55439 21.9841 0.600016 21.9503 0.640433C21.9223 0.668129 21.8856 0.678945 21.849 0.689249C21.2902 0.846527 20.7492 1.04895 20.2227 1.29058C19.6852 1.53725 19.1702 1.82217 18.671 2.13588C18.2098 2.42567 17.7677 2.74109 17.3406 3.07647C17.0438 3.30952 16.7553 3.55237 16.4747 3.80431C16.3223 3.94122 16.1678 4.07585 16.0228 4.22045C15.9684 4.2672 15.9232 4.32352 15.8651 4.36653C15.8603 4.37057 15.8552 4.37444 15.8504 4.37852C15.8483 4.38089 15.8459 4.38303 15.8438 4.3854C15.8399 4.39062 15.8359 4.39561 15.8319 4.40075C15.7624 4.48092 15.683 4.55155 15.6075 4.62582C15.2987 4.92949 15.0046 5.24627 14.7146 5.56711C14.2177 6.11684 13.7488 6.68861 13.3008 7.27677C12.7542 7.99444 12.2413 8.73483 11.7575 9.49453C11.522 9.8643 11.2916 10.237 11.0681 10.6139C11.0526 10.6401 11.0397 10.6677 11.0256 10.6946C11.0241 10.6975 11.0224 10.7004 11.0209 10.7033C11.0192 10.7061 11.0173 10.7088 11.0156 10.7116C10.9929 10.7394 10.978 10.7716 10.9623 10.8033C10.9592 10.8093 10.9556 10.8149 10.9518 10.8204C10.8181 11.0427 10.6918 11.2692 10.567 11.4963C10.3308 11.9261 10.0998 12.3588 9.88041 12.7972C9.86682 12.8244 9.85226 12.851 9.84101 12.8791C9.83911 12.8849 9.83657 12.8905 9.83377 12.8959C9.82975 12.9034 9.82447 12.9102 9.81867 12.9165C9.81365 12.9224 9.80881 12.9286 9.805 12.9355C9.80291 12.9402 9.80045 12.9447 9.798 12.9492C9.79582 12.9538 9.7934 12.9583 9.79102 12.9629C9.78896 12.9677 9.78651 12.9722 9.78404 12.9767C9.78185 12.9813 9.7794 12.9859 9.77702 12.9904C9.77498 12.9951 9.77256 12.9995 9.77011 13.004C9.76796 13.0085 9.76554 13.0128 9.76321 13.0172C9.76123 13.0217 9.75885 13.0261 9.75643 13.0303C9.75298 13.0367 9.74953 13.0432 9.74653 13.0498C9.74481 13.0544 9.74279 13.0589 9.7408 13.0634C9.73803 13.0709 9.73562 13.0785 9.73323 13.0862C9.72983 13.0977 9.72539 13.1087 9.71997 13.1192C9.71641 13.1264 9.71216 13.1334 9.70828 13.1404C9.70618 13.1449 9.70365 13.1494 9.70107 13.1537C9.69734 13.1601 9.6936 13.1666 9.69032 13.1733C9.6884 13.178 9.68607 13.1825 9.68367 13.1869C9.68151 13.1916 9.67911 13.1961 9.67675 13.2006C9.67469 13.2053 9.67227 13.2099 9.66978 13.2144C9.66758 13.219 9.66514 13.2235 9.66275 13.2281C9.66071 13.2327 9.65829 13.2372 9.65584 13.2416C9.65368 13.2461 9.65125 13.2505 9.64892 13.2549C9.64693 13.2594 9.64455 13.2637 9.64213 13.268C9.63863 13.2744 9.63519 13.2809 9.63217 13.2876C9.63043 13.2924 9.6284 13.2969 9.62644 13.3016C9.62387 13.3092 9.62173 13.3169 9.61974 13.3247C9.61771 13.3335 9.6148 13.3419 9.61113 13.3502C9.53652 13.4844 9.48716 13.6286 9.43591 13.772C9.42268 13.809 9.40594 13.8449 9.37941 13.8752C9.34573 13.9153 9.32436 13.9673 9.26866 13.9866C9.25258 13.9929 9.23598 13.9973 9.21877 13.9996C9.2117 14.0003 9.20465 14.0001 9.19761 13.9993C9.10138 13.9882 9.05586 13.9246 9.02592 13.8429C8.93201 13.5866 8.82553 13.3353 8.71188 13.0868C8.52916 12.6873 8.32701 12.2975 8.10234 11.919C8.03786 11.8103 7.97432 11.7012 7.90199 11.5973C7.8814 11.5574 7.85583 11.5204 7.83053 11.4832C7.821 11.4677 7.81099 11.4525 7.80056 11.4375C7.79128 11.4227 7.78123 11.4083 7.7712 11.394C7.76384 11.3788 7.7496 11.3796 7.73558 11.3795C7.7031 11.3643 7.68965 11.3329 7.6716 11.3061C7.40679 10.9128 7.1159 10.5385 6.8055 10.179C6.51501 9.84242 6.2006 9.52718 5.87337 9.22548C5.50283 8.88383 5.1114 8.56534 4.69654 8.27544C4.672 8.2583 4.64257 8.24429 4.63151 8.21305C4.63122 8.16538 4.58259 8.16358 4.55784 8.13914C4.51276 8.10293 4.46324 8.07295 4.41478 8.04147C4.32004 7.97258 4.22197 7.90857 4.12074 7.84925C4.10462 7.83889 4.08913 7.82759 4.07256 7.81786C4.03572 7.79363 3.9995 7.76844 3.95968 7.74887C3.92269 7.7249 3.88666 7.69945 3.84695 7.67974C3.82378 7.66361 3.79898 7.6501 3.77409 7.63673C3.75057 7.62043 3.72519 7.6072 3.69999 7.59358C3.66951 7.57297 3.63608 7.55725 3.60465 7.53812C3.32728 7.38392 3.04871 7.23189 2.76122 7.09651C2.32357 6.89043 1.87762 6.70362 1.41959 6.54458C1.00666 6.4012 0.588771 6.27554 0.160125 6.18497C-0.00259457 6.15059 -0.0466687 6.02834 0.0527273 5.89867C0.138843 5.82755 0.239058 5.77778 0.337395 5.72677C0.905447 5.4321 1.50236 5.21115 2.12813 5.06608C2.29698 5.02693 2.4665 4.99027 2.63875 4.96774C2.65633 4.9674 2.67376 4.96559 2.69071 4.96045C2.70424 4.95707 2.71802 4.95542 2.73193 4.95476C2.75279 4.95436 2.7734 4.95234 2.79336 4.94556C2.80049 4.94346 2.80769 4.94217 2.81504 4.94124C2.84602 4.93992 2.87662 4.9368 2.90591 4.92574C3.04837 4.89846 3.19346 4.89236 3.33731 4.88434C3.49576 4.8755 3.65438 4.85858 3.8139 4.8678C4.03132 4.88037 4.24928 4.88456 4.46578 4.90973C4.47421 4.90959 4.48267 4.90942 4.4911 4.90901C4.72317 4.92969 4.95225 4.96988 5.18096 5.01201C5.56974 5.0944 5.94907 5.20655 6.31552 5.35922C6.57596 5.46773 6.82738 5.59394 7.07566 5.72635C7.27337 5.82339 7.45586 5.94462 7.63811 6.06623C7.91423 6.25978 8.17649 6.47063 8.43811 6.68225C8.47831 6.71588 8.51355 6.75521 8.55886 6.78304C8.58827 6.80561 8.60719 6.84074 8.65038 6.85523C8.66198 6.81474 8.63753 6.78815 8.61754 6.76268C8.49831 6.61079 8.35717 6.47958 8.20944 6.35504C7.91297 6.1051 7.59203 5.88935 7.25155 5.70102C7.22276 5.68509 7.1929 5.66975 7.17009 5.64492C6.98564 5.54231 6.79392 5.45436 6.60061 5.36956C6.24373 5.213 5.87432 5.09141 5.4959 4.99652C5.21706 4.92659 4.93418 4.87805 4.6474 4.8488C4.38947 4.82248 4.13156 4.80819 3.87226 4.8079C3.50779 4.8075 3.14673 4.84286 2.78684 4.89446C2.44269 4.94382 2.10605 5.02635 1.77321 5.12289C1.40076 5.23093 1.0406 5.37137 0.690708 5.53645C0.678585 5.5413 0.665714 5.54413 0.653238 5.54769C0.648059 5.54964 0.642598 5.5513 0.637277 5.55296C0.630037 5.55565 0.622628 5.55827 0.615558 5.56151C0.611281 5.56387 0.606765 5.5659 0.602263 5.56783C0.595658 5.57084 0.588997 5.57384 0.582534 5.57732C0.578215 5.57997 0.573756 5.58224 0.569197 5.58445C0.562155 5.58822 0.555211 5.59203 0.54824 5.59605C0.5433 5.5992 0.538248 5.60191 0.533054 5.60458C0.50799 5.61669 0.485692 5.63313 0.461658 5.64675C0.456337 5.65002 0.450749 5.65285 0.445104 5.65551C0.413661 5.66906 0.382754 5.68353 0.355601 5.70475C0.350238 5.70867 0.344565 5.71199 0.338722 5.71514C0.270021 5.74659 0.206331 5.78641 0.141652 5.82472C0.121231 5.8368 0.0974789 5.86612 0.0720477 5.8289C0.082604 5.78496 0.121555 5.76756 0.155214 5.74718C0.392449 5.60361 0.643303 5.48611 0.898165 5.3761C1.2975 5.20376 1.70944 5.06714 2.13179 4.96113C2.41044 4.89118 2.69331 4.84069 2.97794 4.79918C3.42457 4.73405 3.87443 4.7306 4.32337 4.74623C4.78528 4.76233 5.23933 4.84099 5.68458 4.96606C6.1987 5.11046 6.69215 5.30439 7.16621 5.54637C7.42179 5.67683 7.67068 5.8177 7.89887 5.99107C7.90453 5.99495 7.91085 5.99774 7.91759 5.9993C7.92085 5.99954 7.92425 5.9998 7.92752 6.00005C7.93373 6.00161 7.93977 6.00392 7.94547 6.00686C7.94801 6.00857 7.95063 6.01038 7.95322 6.01205C7.95791 6.01584 7.96244 6.01996 7.96685 6.02409C7.96906 6.02606 7.97122 6.02816 7.9734 6.03016C7.97968 6.0363 7.98596 6.04255 7.99216 6.04888Z" fill="#2FB651"/>
</svg>
