<svg width="27" height="28" viewBox="0 0 27 28" fill="none" xmlns="http://www.w3.org/2000/svg">
<g clip-path="url(#clip0_1130_355)">
<path d="M3.58594 2.52048V25.4682C3.58594 26.3696 4.3234 27.107 5.2248 27.107H21.1614C22.0631 27.107 22.8008 26.3693 22.8008 25.4676V6.91795C22.8008 6.41467 22.6009 5.932 22.245 5.57611L18.1058 1.43689C17.7499 1.08103 17.2672 0.881111 16.7639 0.881104L5.22531 0.881104C4.32366 0.881104 3.58594 1.61882 3.58594 2.52048Z" fill="url(#paint0_linear_1130_355)"/>
<path d="M7.95531 13.5328H18.4343C18.5597 13.5328 18.68 13.483 18.7686 13.3943C18.8573 13.3056 18.9072 13.1853 18.9072 13.0599V11.9067C18.9072 11.7813 18.8573 11.661 18.7686 11.5723C18.68 11.4837 18.5597 11.4338 18.4343 11.4338H7.95531C7.82989 11.4338 7.70961 11.4837 7.62093 11.5723C7.53224 11.661 7.48242 11.7813 7.48242 11.9067V13.0599C7.48242 13.1853 7.53224 13.3056 7.62093 13.3943C7.70961 13.483 7.82989 13.5328 7.95531 13.5328ZM7.95531 16.8092H18.4343C18.5597 16.8092 18.68 16.7594 18.7686 16.6707C18.8573 16.582 18.9072 16.4618 18.9072 16.3363V15.1832C18.9072 15.0578 18.8573 14.9375 18.7686 14.8488C18.68 14.7601 18.5597 14.7103 18.4343 14.7103H7.95531C7.82989 14.7103 7.70961 14.7601 7.62093 14.8488C7.53224 14.9375 7.48242 15.0578 7.48242 15.1832V16.3363C7.48242 16.4618 7.53224 16.582 7.62093 16.6707C7.70961 16.7594 7.82989 16.8092 7.95531 16.8092ZM7.95531 20.0856H18.4343C18.5597 20.0856 18.68 20.0358 18.7686 19.9471C18.8573 19.8584 18.9072 19.7381 18.9072 19.6127V18.4596C18.9072 18.3342 18.8573 18.2139 18.7686 18.1252C18.68 18.0365 18.5597 17.9867 18.4343 17.9867H7.95531C7.82989 17.9867 7.70961 18.0365 7.62093 18.1252C7.53224 18.2139 7.48242 18.3342 7.48242 18.4596V19.6128C7.48244 19.7382 7.53226 19.8585 7.62095 19.9471C7.70963 20.0358 7.8299 20.0856 7.95531 20.0856ZM7.8248 23.3621H13.1294C13.2202 23.3621 13.3073 23.326 13.3715 23.2618C13.4357 23.1976 13.4718 23.1105 13.4718 23.0197V21.6055C13.4718 21.5147 13.4357 21.4276 13.3715 21.3634C13.3073 21.2992 13.2202 21.2632 13.1294 21.2632H7.8248C7.73399 21.2632 7.64691 21.2992 7.5827 21.3634C7.51849 21.4276 7.48242 21.5147 7.48242 21.6055V23.0197C7.48242 23.1105 7.51849 23.1976 7.5827 23.2618C7.64691 23.326 7.73399 23.3621 7.8248 23.3621Z" fill="#EBEFF0"/>
<path d="M18.1042 1.43727C17.8624 1.19557 17.5599 1.02366 17.2285 0.939697V6.28372L22.7992 11.8544V6.91828C22.7992 6.415 22.5993 5.93233 22.2434 5.57644L18.1042 1.43727Z" fill="url(#paint1_linear_1130_355)"/>
<path d="M22.7442 6.458C22.7502 6.48433 22.7558 6.50999 22.7609 6.53473H17.7395C17.384 6.53473 17.0957 6.2465 17.0957 5.89091V0.911377C17.1369 0.918723 17.1779 0.926919 17.2187 0.935957C17.593 1.01875 17.9343 1.21123 18.2054 1.48228L22.1987 5.47556C22.469 5.74547 22.658 6.08589 22.7442 6.458Z" fill="url(#paint2_linear_1130_355)"/>
<path d="M22.8008 23.8772V25.4672C22.8008 26.3688 22.0631 27.1065 21.1614 27.1065H5.2248C4.3234 27.1065 3.58594 26.369 3.58594 25.4677V23.8772H22.8008Z" fill="url(#paint3_linear_1130_355)"/>
</g>
<defs>
<linearGradient id="paint0_linear_1130_355" x1="8.16174" y1="11.1065" x2="20.6368" y2="23.5815" gradientUnits="userSpaceOnUse">
<stop stop-color="#7FAEF4"/>
<stop offset="1" stop-color="#4C8DF1"/>
</linearGradient>
<linearGradient id="paint1_linear_1130_355" x1="17.2285" y1="0.939697" x2="22.7992" y2="0.939697" gradientUnits="userSpaceOnUse">
<stop stop-color="#4C8DF1" stop-opacity="0"/>
<stop offset="1" stop-color="#4256AC"/>
</linearGradient>
<linearGradient id="paint2_linear_1130_355" x1="17.7322" y1="3.90149" x2="20.0319" y2="6.20125" gradientUnits="userSpaceOnUse">
<stop stop-color="#A7C5FD"/>
<stop offset="1" stop-color="#7FAEF4"/>
</linearGradient>
<linearGradient id="paint3_linear_1130_355" x1="3.58594" y1="23.8772" x2="22.8008" y2="23.8772" gradientUnits="userSpaceOnUse">
<stop stop-color="#4C8DF1" stop-opacity="0"/>
<stop offset="1" stop-color="#4256AC"/>
</linearGradient>
<clipPath id="clip0_1130_355">
<rect width="26.2259" height="26.2259" fill="white" transform="translate(0.0800781 0.880859)"/>
</clipPath>
</defs>
</svg>
