<svg width="25" height="25" viewBox="0 0 25 25" fill="none" xmlns="http://www.w3.org/2000/svg">
<g clip-path="url(#clip0_1130_87)">
<path d="M23.2453 10.8992C23.1496 8.17227 22.0453 5.62227 20.1062 3.6832C18.0738 1.65039 15.3727 0.53125 12.5008 0.53125C6.70039 0.53125 1.96094 5.14805 1.75664 10.8992C0.871484 11.2926 0.251953 12.1785 0.251953 13.2082V16.0449C0.251953 17.4379 1.38516 18.5715 2.77852 18.5715C3.68008 18.5715 4.41328 17.8383 4.41328 16.9367V12.316C4.41328 11.4695 3.76406 10.7793 2.93867 10.6973C3.24336 5.68672 7.41445 1.70312 12.5008 1.70312C15.0602 1.70312 17.4668 2.70078 19.2781 4.51211C20.9414 6.17539 21.9148 8.34336 22.0613 10.6977C21.2367 10.7805 20.5887 11.4703 20.5887 12.316V16.9363C20.5887 17.7898 21.248 18.4844 22.0832 18.5566V19.7242C22.0832 21.0391 21.0133 22.1086 19.6984 22.1086H17.9324C17.8457 21.8609 17.7098 21.632 17.5191 21.4422C17.1852 21.1066 16.7398 20.9219 16.2656 20.9219H14.4453C14.184 20.9219 13.9332 20.9773 13.7035 21.0844C13.077 21.3723 12.6723 22.0043 12.6723 22.6945C12.6723 23.1687 12.857 23.6141 13.1918 23.9473C13.5266 24.2828 13.9719 24.4676 14.4453 24.4676H16.2656C17.0203 24.4676 17.6855 23.9797 17.9336 23.2805H19.6984C21.6598 23.2805 23.2551 21.6852 23.2551 19.7242V18.348C24.1348 17.9523 24.7496 17.0695 24.7496 16.0441V13.2074C24.7496 12.1785 24.1301 11.2926 23.2453 10.8992ZM3.24102 12.316V16.9363C3.24102 17.1914 3.03359 17.3992 2.77812 17.3992C2.03125 17.3992 1.42344 16.7914 1.42344 16.0445V13.2078C1.42344 12.4605 2.03125 11.8531 2.77812 11.8531C3.03359 11.8531 3.24102 12.0609 3.24102 12.316ZM16.8535 22.8203C16.7953 23.0961 16.5477 23.2965 16.2652 23.2965H14.4449C14.2848 23.2965 14.1344 23.234 14.0195 23.1191C13.9062 23.0063 13.8437 22.8555 13.8437 22.6953C13.8437 22.4613 13.9809 22.2477 14.1957 22.1488C14.2723 22.1129 14.3562 22.0945 14.4449 22.0945H16.2652C16.4254 22.0945 16.5758 22.1566 16.6902 22.2715C16.8035 22.3844 16.866 22.5352 16.866 22.6953C16.8664 22.7383 16.8617 22.7812 16.8535 22.8203ZM23.5777 16.0445C23.5777 16.7914 22.9699 17.3992 22.223 17.3992C21.968 17.3992 21.7602 17.1918 21.7602 16.9363V12.316C21.7602 12.0609 21.9676 11.8531 22.223 11.8531C22.9699 11.8531 23.5777 12.4609 23.5777 13.2078V16.0445Z" fill="#158BD4"/>
<path d="M16.2957 16.2463C17.6648 16.2463 18.7785 15.1322 18.7785 13.7635V8.70449C18.7785 8.04277 18.5199 7.41934 18.0504 6.9498C17.5809 6.48027 16.9578 6.22168 16.2957 6.22168H8.70742C7.33828 6.22168 6.22461 7.33535 6.22461 8.70449V13.7635C6.22461 15.1326 7.33828 16.2463 8.70742 16.2463H8.75391V17.5572C8.75391 18.0572 9.05195 18.501 9.51289 18.6881C9.66172 18.7479 9.81641 18.7775 9.96953 18.7775C10.2887 18.7775 10.5996 18.651 10.8273 18.4154L13.0082 16.2463H16.2957ZM12.3539 15.2447L9.99375 17.592C9.9832 17.6029 9.97539 17.6111 9.95313 17.6014C9.92617 17.5904 9.92617 17.5729 9.92617 17.5572V15.6604C9.92617 15.3369 9.66406 15.0744 9.34023 15.0744H8.70781C7.98477 15.0744 7.39687 14.4861 7.39687 13.7635V8.70449C7.39687 7.98145 7.98477 7.39356 8.70781 7.39356H16.2961C16.6453 7.39356 16.9738 7.53027 17.2223 7.77832C17.4707 8.02676 17.607 8.35566 17.607 8.70449V13.7635C17.607 14.4865 17.0188 15.0744 16.2961 15.0744H12.7672C12.6121 15.0744 12.4637 15.1357 12.3539 15.2447Z" fill="#158BD4"/>
<path d="M9.65352 10.4629C9.17695 10.4629 8.78906 10.8512 8.78906 11.3273C8.78906 11.8035 9.17734 12.1918 9.65352 12.1918C10.1305 12.1918 10.5187 11.8035 10.5187 11.3273C10.5187 10.8512 10.1309 10.4629 9.65352 10.4629Z" fill="#158BD4"/>
<path d="M12.5012 10.4629C12.0246 10.4629 11.6367 10.8512 11.6367 11.3273C11.6367 11.8035 12.025 12.1918 12.5012 12.1918C12.9785 12.1918 13.3664 11.8035 13.3664 11.3273C13.3664 10.8512 12.9785 10.4629 12.5012 10.4629Z" fill="#158BD4"/>
<path d="M15.3469 10.4629C14.8703 10.4629 14.4824 10.8512 14.4824 11.3273C14.4824 11.8035 14.8707 12.1918 15.3469 12.1918C15.8238 12.1918 16.2121 11.8035 16.2121 11.3273C16.2121 10.8512 15.8238 10.4629 15.3469 10.4629Z" fill="#158BD4"/>
</g>
<defs>
<clipPath id="clip0_1130_87">
<rect width="25" height="25" fill="white"/>
</clipPath>
</defs>
</svg>
