<svg width="35" height="34" viewBox="0 0 35 34" fill="none" xmlns="http://www.w3.org/2000/svg">
<path d="M17.4821 0.360352C26.6588 0.360352 34.1028 7.80436 34.1028 16.9811C34.1028 26.1578 26.6588 33.6018 17.4821 33.6018C8.30534 33.6018 0.861328 26.1578 0.861328 16.9811C0.861328 7.80436 8.30534 0.360352 17.4821 0.360352Z" fill="#D6EFFF"/>
<path fill-rule="evenodd" clip-rule="evenodd" d="M18.859 16.6037H13.7234C13.6283 16.6037 13.5385 16.5669 13.4702 16.4986L11.377 14.4053C11.5719 14.268 11.746 14.0992 11.878 13.9043L13.8661 15.8924H18.8543V16.6044H18.859V16.6037Z" fill="white"/>
<path fill-rule="evenodd" clip-rule="evenodd" d="M18.859 21.0436H14.0449C14.0556 20.9753 14.0657 20.9009 14.071 20.8326C14.0818 20.6638 14.071 20.5004 14.0449 20.3369H18.8644V21.0436H18.859Z" fill="white"/>
<path fill-rule="evenodd" clip-rule="evenodd" d="M13 25.3511L13.4696 24.8815C13.5379 24.8132 13.6276 24.7764 13.7174 24.7764H18.853V25.483H18.8584H13.8594L13.4903 25.8468C13.3637 25.6572 13.1949 25.483 13 25.3511Z" fill="white"/>
<path fill-rule="evenodd" clip-rule="evenodd" d="M19.8652 9.47011C19.8652 10.1922 20.456 10.783 21.1781 10.783C21.9002 10.783 22.491 10.1922 22.491 9.47011C22.491 8.74802 21.9002 8.15723 21.1781 8.15723C20.456 8.15723 19.8652 8.74802 19.8652 9.47011Z" fill="white"/>
<path fill-rule="evenodd" clip-rule="evenodd" d="M16.9074 9.11671C16.454 10.2554 16.4754 11.5053 16.9657 12.6287C17.4299 13.7044 18.2786 14.5477 19.3544 15.0173C19.4863 15.0756 19.5654 15.2022 19.5654 15.3442V15.5498V15.5552V15.8981H21.1576C21.3525 15.8981 21.5106 16.0562 21.5106 16.2511C21.5106 16.4461 21.3525 16.6041 21.1576 16.6041H19.5654V20.3318H21.1576C21.3525 20.3318 21.5106 20.4899 21.5106 20.6848C21.5106 20.8797 21.3525 21.0378 21.1576 21.0378H19.5654V24.7708H21.1576C21.3525 24.7708 21.5106 24.9289 21.5106 25.1238C21.5106 25.3187 21.3525 25.4768 21.1576 25.4768H19.5707V25.8934L21.0892 27.6176L22.7873 25.8881V15.3381C22.7873 15.1955 22.8717 15.0695 22.9983 15.0113C24.1269 14.5209 24.9917 13.6301 25.4452 12.4853C25.8987 11.3466 25.8772 10.0967 25.3869 8.97337C24.9019 7.84469 24.0057 6.97993 22.861 6.52645C21.7222 6.07833 20.4723 6.09441 19.349 6.58473C18.2257 7.07572 17.3556 7.97196 16.9074 9.11671ZM21.1783 11.4946C20.0604 11.4946 19.1534 10.5877 19.1534 9.46972C19.1534 8.35176 20.0604 7.4448 21.1783 7.4448C22.2963 7.4448 23.2032 8.35176 23.2032 9.46972C23.2032 10.5877 22.2963 11.4946 21.1783 11.4946Z" fill="#158BD4"/>
<path fill-rule="evenodd" clip-rule="evenodd" d="M9.00301 12.7066C8.95545 13.3972 9.47725 13.9987 10.1685 14.0456C10.8591 14.0931 11.4653 13.5713 11.5129 12.8854C11.5604 12.1948 11.0386 11.5933 10.3474 11.5464C10.3159 11.5464 10.2891 11.541 10.2576 11.541C9.60452 11.5364 9.05057 12.0428 9.00301 12.7066Z" fill="#158BD4"/>
<path fill-rule="evenodd" clip-rule="evenodd" d="M12.099 19.4355C11.7982 19.4355 11.5082 19.5407 11.2764 19.7417C11.0232 19.9634 10.8705 20.2635 10.8444 20.6011C10.8236 20.9333 10.9288 21.2602 11.1505 21.5134C11.3722 21.7666 11.6776 21.9193 12.0152 21.9454C12.7058 21.993 13.312 21.4712 13.3596 20.7799C13.3804 20.4477 13.2752 20.1208 13.0535 19.8676C12.8318 19.6144 12.5263 19.4617 12.1887 19.4355C12.1619 19.4355 12.1305 19.4355 12.099 19.4355Z" fill="#158BD4"/>
<path fill-rule="evenodd" clip-rule="evenodd" d="M11.8764 25.7061C11.1858 25.7061 10.6211 26.2701 10.6211 26.9613C10.6211 27.6519 11.1851 28.2166 11.8764 28.2166C12.5676 28.2166 13.1316 27.6526 13.1316 26.9613C13.1316 26.2701 12.5676 25.7061 11.8764 25.7061Z" fill="#158BD4"/>
</svg>
