<svg width="34" height="34" viewBox="0 0 34 34" fill="none" xmlns="http://www.w3.org/2000/svg">
<path d="M17.3727 0.723633C26.5494 0.723633 33.9934 8.16764 33.9934 17.3444C33.9934 26.5211 26.5494 33.9651 17.3727 33.9651C8.19596 33.9651 0.751953 26.5211 0.751953 17.3444C0.751953 8.16764 8.19596 0.723633 17.3727 0.723633Z" fill="#D6EFFF"/>
<g clip-path="url(#clip0_3020_8)">
<path fill-rule="evenodd" clip-rule="evenodd" d="M26.0156 9.86737C26.0156 8.84179 25.6096 7.85797 24.8825 7.13288C24.1594 6.40778 23.1732 6.00018 22.1484 6.00018C19.279 6.00018 15.1218 6.00018 12.8672 6.00018C10.7325 6.00018 9 7.73152 9 9.86737V26.883C9 29.0188 10.7325 30.7502 12.8672 30.7502H22.1484C23.1732 30.7502 24.1594 30.3426 24.8825 29.6175C25.6096 28.8924 26.0156 27.9086 26.0156 26.883V9.86737Z" fill="white"/>
<path fill-rule="evenodd" clip-rule="evenodd" d="M12.8672 25.3361H22.1484C22.5738 25.3361 22.9219 24.9896 22.9219 24.5627C22.9219 24.1357 22.5738 23.7892 22.1484 23.7892H12.8672C12.4418 23.7892 12.0938 24.1357 12.0938 24.5627C12.0938 24.9896 12.4418 25.3361 12.8672 25.3361Z" fill="#BBDAED"/>
<path fill-rule="evenodd" clip-rule="evenodd" d="M12.8672 22.2424H22.1484C22.5738 22.2424 22.9219 21.8959 22.9219 21.4689C22.9219 21.042 22.5738 20.6955 22.1484 20.6955H12.8672C12.4418 20.6955 12.0938 21.042 12.0938 21.4689C12.0938 21.8959 12.4418 22.2424 12.8672 22.2424Z" fill="#BBDAED"/>
<path fill-rule="evenodd" clip-rule="evenodd" d="M12.8672 19.1486H18.668C19.0934 19.1486 19.4414 18.8021 19.4414 18.3752C19.4414 17.9482 19.0934 17.6017 18.668 17.6017H12.8672C12.4418 17.6017 12.0938 17.9482 12.0938 18.3752C12.0938 18.8021 12.4418 19.1486 12.8672 19.1486Z" fill="#BBDAED"/>
<path fill-rule="evenodd" clip-rule="evenodd" d="M12.8672 16.0549H15.1875C15.6129 16.0549 15.9609 15.7084 15.9609 15.2814C15.9609 14.8545 15.6129 14.508 15.1875 14.508H12.8672C12.4418 14.508 12.0938 14.8545 12.0938 15.2814C12.0938 15.7084 12.4418 16.0549 12.8672 16.0549Z" fill="#BBDAED"/>
<path fill-rule="evenodd" clip-rule="evenodd" d="M12.7969 13.4689H15.1875C15.6258 13.4689 15.9844 13.1119 15.9844 12.6721C15.9844 12.2322 15.6258 11.8752 15.1875 11.8752H12.7969C12.3586 11.8752 12 12.2322 12 12.6721C12 13.1119 12.3586 13.4689 12.7969 13.4689Z" fill="#BBDAED"/>
<path d="M23.9352 6.41034L24.2073 9.04862C24.3718 10.6537 25.5298 11.9185 26.9973 12.1002L29.4096 12.3977L26.9973 12.6952C25.5298 12.8751 24.3734 14.1417 24.2073 15.7468L23.9352 18.385L23.6632 15.7468C23.4987 14.1417 22.3407 12.8769 20.8732 12.6952L18.4609 12.3977L20.8732 12.1002C22.3407 11.9203 23.4971 10.6537 23.6632 9.04862L23.9352 6.41034Z" fill="#158BD4"/>
<path d="M18.3688 4.82928L18.5362 6.45284C18.6374 7.44057 19.3501 8.21892 20.2532 8.33074L21.7376 8.51381L20.2532 8.69689C19.3501 8.80761 18.6384 9.58705 18.5362 10.5748L18.3688 12.1983L18.2014 10.5748C18.1002 9.58705 17.3875 8.8087 16.4844 8.69689L15 8.51381L16.4844 8.33074C17.3875 8.22001 18.0992 7.44057 18.2014 6.45284L18.3688 4.82928Z" fill="#FFB921"/>
</g>
<defs>
<clipPath id="clip0_3020_8">
<rect width="23" height="25" fill="white" transform="translate(7 5)"/>
</clipPath>
</defs>
</svg>
