<svg width="281" height="120" viewBox="0 0 281 120" fill="none" xmlns="http://www.w3.org/2000/svg">
<path d="M123.215 38.6963H119.21V58.7458H123.147C129.64 58.7458 133.679 54.8616 133.679 48.6118C133.679 42.5927 129.572 38.6963 123.215 38.6963ZM121.966 41.4344H122.517C126.354 41.4344 130.922 42.6401 130.922 48.6727C130.922 54.7043 126.354 55.91 122.517 55.91H121.966V41.4344ZM146.324 50.4698C146.324 54.4262 144.975 56.3451 142.173 56.3451C139.371 56.3451 138.01 54.4384 138.01 50.4698V38.6963H135.253V51.3025C135.253 55.9952 138.022 59.1553 142.162 59.1553C146.303 59.1553 149.071 56.0073 149.071 51.3025V38.6963H146.324V50.4698ZM156.901 47.7438L165.339 38.6841H161.682L154.302 46.7781V38.6841H151.545V58.7458H154.302V50.4698L154.944 49.8066L161.694 58.7811H165.451L156.901 47.7438ZM176.704 55.9952H169.199V49.1312H176.501V46.3808H169.199V41.4344H176.704V38.6841H166.454V58.7458H176.704V55.9952ZM119.21 84.3195H129.448V81.5692H121.966V74.7052H129.256V71.9667H121.966V67.0094H129.448V64.2699H119.21V84.3195ZM150.499 84.3195H160.771V81.5692H153.256V74.7052H160.558V71.9667H153.256V67.0094H160.771V64.2699H150.499V84.3195ZM150.499 84.3195H160.771V81.5692H153.256V74.7052H160.558V71.9667H153.256V67.0094H160.771V64.2699H150.499V84.3195ZM145.346 64.2699V78.3126L133.375 64.2699H131.698V84.3195H134.454V70.1452L146.324 84.3195H148.08V64.2699H145.346ZM173.621 70.0977C173.623 68.1239 172.663 66.2937 171.088 65.2721C169.548 64.5115 167.851 64.1882 166.16 64.3308H163.202V84.3195H165.958V76.056H166.577L171.932 84.3195H175.309L169.435 75.8035C171.958 75.2795 173.74 72.8493 173.621 70.0977ZM171.01 70.2063C171.01 72.4982 169.592 73.5238 166.419 73.5238H165.936V66.9607H166.295C169.513 66.9607 171.01 67.9981 171.01 70.1942V70.2063ZM185.704 76.6961H190.407C190.148 79.7002 187.19 81.9799 184.691 81.9799C180.853 81.7802 177.836 78.3906 177.828 74.271C177.735 71.0022 179.643 68.0506 182.531 66.9959C185.42 65.9426 188.61 67.035 190.395 69.687L190.565 69.9283L192.455 67.9264L192.32 67.7325C189.493 63.9897 184.643 62.8083 180.585 64.8736C176.526 66.9388 174.313 71.7145 175.229 76.4302C176.146 81.145 179.954 84.5758 184.443 84.7306C189.236 84.8379 193.205 80.7608 193.309 75.6218V73.9576H185.704V76.6961ZM204.911 64.2699L200.578 72.3534L196.258 64.2699H193.084L199.205 75.634V84.3195H201.961V75.634L208.083 64.2699H204.911ZM205.888 81.4131C205.882 79.7271 207.152 78.3553 208.724 78.3482C210.296 78.3419 211.576 79.7024 211.582 81.3888C211.587 83.0736 210.318 84.4465 208.747 84.4525C207.998 84.4587 207.277 84.1466 206.743 83.5832C206.209 83.0199 205.906 82.2518 205.899 81.4484C205.899 81.4484 205.888 81.4253 205.888 81.4131ZM206.35 81.4131C206.344 82.8248 207.406 83.9759 208.724 83.9818C210.041 83.9893 211.115 82.8491 211.12 81.4362C211.127 80.0245 210.064 78.8734 208.747 78.8675C208.117 78.8638 207.512 79.1294 207.064 79.6038C206.617 80.0791 206.365 80.7255 206.361 81.4009L206.35 81.4131ZM210.04 83.1503H209.511L208.701 81.5692H208.106V83.1382H207.644V79.7233H208.983C209.556 79.7233 210.108 79.905 210.108 80.6291C210.126 80.8594 210.059 81.0876 209.919 81.2642C209.78 81.4412 209.58 81.5508 209.366 81.5692H209.264L210.04 83.1503ZM208.106 80.2183V81.0754H208.6C209.028 81.0754 209.623 81.1472 209.623 80.689C209.623 80.2305 209.287 80.2305 208.904 80.2305L208.106 80.2183ZM97.6865 78.8185C96.6569 79.9914 95.2896 80.7558 93.804 80.9899C91.5538 81.135 89.3603 79.6512 88.6961 74.2588L79.6051 71.3877C83.5771 86.5521 94.5696 86.0205 98.3506 79.4221C98.608 78.988 98.5297 78.7711 98.3506 78.6625C98.1696 78.5542 97.9458 78.5542 97.6865 78.8185ZM97.6865 39.0096C94.0293 31.1687 81.0685 38.9132 78.8182 59.1553C78.6317 60.0845 79.0401 61.033 79.8188 61.484C80.9695 62.156 82.2238 62.6008 83.5213 62.7983C84.515 63.0483 85.5385 63.141 86.5586 63.0764C87.4726 63.0337 88.23 62.2986 88.3585 61.3267C90.2939 39.613 94.9184 34.6912 97.0672 39.3595C97.3144 39.902 97.9458 39.613 97.6744 39.0096H97.6865Z" fill="#0C2544"/>
<path d="M95.4491 45.8613C94.5397 45.7065 93.629 46.1356 93.1207 46.9596C92.5839 47.9949 92.2337 49.1273 92.0847 50.3014C91.8448 51.489 91.7721 52.7094 91.871 53.9201C92.046 54.5661 92.5941 55.0125 93.222 55.0175C97.362 55.2952 109.513 57.1533 111.223 60.9414C112.349 63.5469 108.973 64.2102 106.476 64.8977C105.645 65.0585 104.994 65.7561 104.844 66.6471C104.56 67.9945 104.805 69.4062 105.52 70.5561C105.836 71.1279 106.526 71.3167 107.061 70.9777L107.207 70.8694C108.494 69.9599 109.635 68.8319 110.582 67.5276C118.706 55.3795 101.672 45.9939 95.4491 45.8613Z" fill="#0C2544"/>
<path d="M99.6216 65.7535C79.2458 68.1661 63.167 58.1785 75.341 55.7537C75.341 55.7537 76.894 55.3673 77.1863 54.4259C77.4785 53.4858 77.5685 53.2202 77.9062 51.8326C78.1198 50.9768 78.3111 50.4939 78.5146 49.8307C78.8398 48.8054 78.2325 48.1899 76.8827 48.9018C65.7552 54.7284 69.0073 65.6096 78.087 71.0619C84.0318 74.7876 91.0455 76.0461 97.7983 74.5963C98.9203 74.3685 99.8968 73.6406 100.488 72.5944C101.403 71.1203 101.802 69.3465 101.613 67.5872C101.63 67.0422 101.413 66.5191 101.024 66.1667C100.637 65.8143 100.12 65.6705 99.6216 65.7778V65.7535Z" fill="#0C2544"/>
</svg>
