<svg width="322" height="106" viewBox="0 0 322 106" fill="none" xmlns="http://www.w3.org/2000/svg">
<path d="M146.662 36.449C146.432 36.357 146.172 36.2343 145.88 36.081C145.604 35.943 145.336 35.7513 145.075 35.506C144.83 35.2607 144.631 34.954 144.477 34.586C144.324 34.1413 144.217 33.7043 144.155 33.275C144.109 32.8457 144.094 32.3473 144.109 31.78C144.109 30.9827 144.163 30.2927 144.27 29.71C144.393 29.112 144.577 28.5063 144.822 27.893C144.853 27.847 144.907 27.7167 144.983 27.502C145.075 27.272 145.175 27.0267 145.282 26.766C145.405 26.5053 145.497 26.306 145.558 26.168C145.681 25.9073 145.865 25.5623 146.11 25.133C146.371 24.6883 146.647 24.259 146.938 23.845C147.383 23.1857 147.751 22.6567 148.042 22.258C148.349 21.844 148.64 21.499 148.916 21.223C149.192 20.9317 149.499 20.6557 149.836 20.395C150.174 20.1343 150.603 19.8277 151.124 19.475C151.462 19.2297 151.876 19.084 152.366 19.038C152.857 18.992 153.325 19.0763 153.769 19.291C154.229 19.5057 154.574 19.8737 154.804 20.395C154.973 20.717 155.05 21.1157 155.034 21.591C155.019 22.0663 154.935 22.5723 154.781 23.109C154.628 23.6303 154.421 24.1287 154.16 24.604C153.9 25.064 153.608 25.4397 153.286 25.731C153.087 25.915 152.849 25.961 152.573 25.869C152.313 25.7617 152.075 25.6083 151.86 25.409C151.722 25.1483 151.646 24.995 151.63 24.949C151.63 24.903 151.661 24.8723 151.722 24.857C151.814 24.7497 151.937 24.5657 152.09 24.305C152.244 24.0443 152.397 23.7683 152.55 23.477C152.704 23.1703 152.811 22.925 152.872 22.741C152.995 22.097 153.079 21.66 153.125 21.43C153.171 21.2 153.125 21.016 152.987 20.878C152.926 20.8167 152.834 20.7937 152.711 20.809C152.604 20.8243 152.42 20.901 152.159 21.039C151.807 21.1923 151.37 21.5143 150.848 22.005C150.342 22.4957 149.852 23.063 149.376 23.707C148.763 24.5197 148.249 25.2403 147.835 25.869C147.421 26.4977 147.107 27.1417 146.892 27.801C146.862 27.8623 146.808 27.9773 146.731 28.146C146.67 28.3147 146.639 28.399 146.639 28.399C146.655 28.4603 146.632 28.6137 146.57 28.859C146.509 29.089 146.44 29.2883 146.363 29.457C146.195 30.1623 146.095 30.86 146.064 31.55C146.034 32.24 146.072 32.8457 146.179 33.367C146.302 33.873 146.478 34.241 146.708 34.471C146.908 34.609 147.168 34.655 147.49 34.609C147.812 34.563 148.18 34.4557 148.594 34.287C149.008 34.1183 149.445 33.9343 149.905 33.735C150.273 33.5817 150.611 33.413 150.917 33.229C151.224 33.045 151.454 32.884 151.607 32.746C151.73 32.654 151.883 32.562 152.067 32.47C152.267 32.3627 152.435 32.309 152.573 32.309C152.788 32.2323 152.934 32.263 153.01 32.401C153.087 32.539 153.125 32.7307 153.125 32.976C153.125 33.1907 152.98 33.4437 152.688 33.735C152.412 34.0263 152.09 34.2793 151.722 34.494C151.6 34.6167 151.439 34.7393 151.239 34.862C151.04 34.9693 150.833 35.0613 150.618 35.138C150.296 35.3833 149.898 35.621 149.422 35.851C148.947 36.081 148.464 36.2573 147.973 36.38C147.498 36.5027 147.061 36.5257 146.662 36.449ZM155.256 34.402C155.194 34.2793 155.079 34.1643 154.911 34.057C154.742 33.9497 154.658 33.8653 154.658 33.804C154.658 33.7427 154.635 33.6583 154.589 33.551C154.543 33.4437 154.489 33.3593 154.428 33.298C154.351 33.206 154.366 32.9837 154.474 32.631C154.596 32.2783 154.773 31.849 155.003 31.343C155.233 30.837 155.493 30.3157 155.785 29.779C155.907 29.6563 156.03 29.4953 156.153 29.296C156.275 29.0967 156.367 28.9663 156.429 28.905C156.429 28.8437 156.452 28.79 156.498 28.744C156.544 28.6827 156.597 28.652 156.659 28.652L156.797 28.353C156.812 28.2917 156.896 28.169 157.05 27.985C157.203 27.801 157.395 27.6017 157.625 27.387C157.855 27.157 158.085 26.9423 158.315 26.743C158.545 26.5437 158.736 26.398 158.89 26.306C159.212 26.0913 159.541 25.984 159.879 25.984C160.231 25.9687 160.53 26.0607 160.776 26.26C160.822 26.306 160.914 26.398 161.052 26.536C161.205 26.6587 161.374 26.7967 161.558 26.95C161.742 27.1033 161.91 27.249 162.064 27.387L162.915 28.146L162.524 29.296C162.324 29.9093 162.271 30.446 162.363 30.906C162.47 31.366 162.616 31.7647 162.8 32.102C162.876 32.2707 162.999 32.4163 163.168 32.539C163.336 32.6463 163.528 32.7153 163.743 32.746C163.865 32.7613 163.98 32.8073 164.088 32.884C164.195 32.9607 164.249 33.0833 164.249 33.252C164.249 33.5433 164.195 33.758 164.088 33.896C163.98 34.034 163.85 34.1183 163.697 34.149C163.191 34.2103 162.708 34.1337 162.248 33.919C161.803 33.7043 161.397 33.2443 161.029 32.539C160.967 32.447 160.883 32.2783 160.776 32.033C160.684 31.7723 160.63 31.6037 160.615 31.527C160.553 31.6037 160.461 31.7187 160.339 31.872C160.216 32.01 160.109 32.125 160.017 32.217C158.928 33.321 157.993 34.0493 157.211 34.402C156.429 34.7393 155.777 34.7393 155.256 34.402ZM156.383 32.7C156.459 32.746 156.628 32.7077 156.889 32.585C157.149 32.4623 157.471 32.2477 157.855 31.941C158.376 31.4963 158.836 31.09 159.235 30.722C159.633 30.3387 159.994 29.917 160.316 29.457L160.822 28.629C160.668 28.2763 160.523 28.0463 160.385 27.939C160.247 27.8163 160.116 27.755 159.994 27.755C159.794 27.755 159.534 27.9007 159.212 28.192C158.905 28.4833 158.56 28.8973 158.177 29.434C157.809 29.9553 157.41 30.5763 156.981 31.297C156.797 31.619 156.651 31.9333 156.544 32.24C156.436 32.5467 156.383 32.7 156.383 32.7ZM173.02 34.287C172.682 34.2563 172.406 34.1873 172.192 34.08C171.977 33.9573 171.801 33.7273 171.663 33.39C171.601 33.1447 171.563 32.8917 171.548 32.631C171.548 32.355 171.555 32.0943 171.571 31.849C171.601 31.6037 171.624 31.4043 171.64 31.251C171.655 31.2203 171.663 31.1513 171.663 31.044C171.663 30.9213 171.663 30.7987 171.663 30.676C171.632 30.4307 171.563 30.285 171.456 30.239C171.364 30.1777 171.21 30.2007 170.996 30.308C170.689 30.4613 170.336 30.6683 169.938 30.929C169.539 31.1897 169.125 31.4887 168.696 31.826C168.266 32.1633 167.837 32.516 167.408 32.884C167.07 33.252 166.833 33.5433 166.695 33.758C166.572 33.9727 166.434 34.08 166.281 34.08C166.158 34.1413 166.035 34.1337 165.913 34.057C165.79 33.9803 165.652 33.8807 165.499 33.758C165.391 33.6353 165.269 33.4897 165.131 33.321C165.008 33.1523 164.931 33.0373 164.901 32.976C164.901 32.792 164.916 32.5927 164.947 32.378C164.993 32.1633 165.054 31.941 165.131 31.711C165.223 31.481 165.315 31.2663 165.407 31.067C165.468 30.9903 165.522 30.8907 165.568 30.768C165.629 30.63 165.706 30.4843 165.798 30.331C165.844 30.1317 165.928 29.8863 166.051 29.595C166.173 29.3037 166.288 29.0353 166.396 28.79C166.58 28.4067 166.718 28.077 166.81 27.801C166.902 27.525 166.971 27.2107 167.017 26.858C167.001 26.8273 167.009 26.7813 167.04 26.72C167.086 26.6587 167.139 26.6203 167.201 26.605H167.224C167.331 26.513 167.515 26.4977 167.776 26.559C168.036 26.605 168.236 26.7047 168.374 26.858C168.68 27.1647 168.818 27.5327 168.788 27.962C168.772 28.376 168.542 28.9433 168.098 29.664C167.99 29.9093 167.883 30.124 167.776 30.308C167.684 30.492 167.638 30.6223 167.638 30.699C167.638 30.699 167.707 30.653 167.845 30.561C167.983 30.4537 168.144 30.3387 168.328 30.216C168.512 30.078 168.665 29.9707 168.788 29.894C168.864 29.8173 169.033 29.6793 169.294 29.48C169.554 29.2653 169.838 29.0507 170.145 28.836C170.467 28.6213 170.712 28.468 170.881 28.376C171.034 28.2687 171.218 28.1613 171.433 28.054C171.663 27.9467 171.808 27.893 171.87 27.893C172.008 27.893 172.184 27.9543 172.399 28.077C172.613 28.1843 172.813 28.3223 172.997 28.491C173.181 28.6443 173.288 28.7823 173.319 28.905C173.319 28.9663 173.311 29.043 173.296 29.135C173.296 29.2117 173.296 29.2883 173.296 29.365C173.311 29.595 173.319 29.8787 173.319 30.216C173.334 30.5533 173.334 30.883 173.319 31.205C173.303 31.527 173.265 31.7877 173.204 31.987C173.204 31.987 173.211 32.0023 173.227 32.033C173.242 32.0637 173.265 32.0943 173.296 32.125C173.28 32.1557 173.273 32.1863 173.273 32.217C173.288 32.2477 173.296 32.263 173.296 32.263C173.28 32.3243 173.288 32.4163 173.319 32.539C173.349 32.6463 173.395 32.769 173.457 32.907C173.533 33.045 173.618 33.1983 173.71 33.367C173.756 33.5663 173.702 33.758 173.549 33.942C173.411 34.1107 173.234 34.2257 173.02 34.287ZM178.219 24.926C178.066 24.9413 177.905 24.9413 177.736 24.926C177.583 24.9107 177.468 24.7957 177.391 24.581C177.376 24.4737 177.391 24.374 177.437 24.282C177.483 24.19 177.544 24.0903 177.621 23.983C177.805 23.6763 178.012 23.3313 178.242 22.948C178.487 22.5647 178.648 22.258 178.725 22.028C178.725 21.9667 178.733 21.913 178.748 21.867C178.487 21.913 178.219 21.821 177.943 21.591C177.652 21.315 177.567 20.9777 177.69 20.579C177.813 20.1803 178.073 19.843 178.472 19.567C178.748 19.3983 178.986 19.3063 179.185 19.291C179.4 19.2757 179.645 19.3293 179.921 19.452C180.182 19.6053 180.381 19.82 180.519 20.096C180.672 20.372 180.711 20.6097 180.634 20.809C180.588 21.1617 180.504 21.4913 180.381 21.798C180.274 22.1047 180.174 22.4037 180.082 22.695C179.99 23.0323 179.814 23.3773 179.553 23.73C179.292 24.0673 179.032 24.3893 178.771 24.696C178.786 24.7573 178.74 24.7957 178.633 24.811C178.526 24.8263 178.388 24.8647 178.219 24.926ZM179.925 34.954C179.757 34.9233 179.573 34.8313 179.373 34.678C179.189 34.5093 179.021 34.3177 178.867 34.103C178.714 33.8883 178.614 33.7043 178.568 33.551C178.568 33.5203 178.545 33.482 178.499 33.436C178.469 33.39 178.453 33.367 178.453 33.367C178.392 33.321 178.354 33.1217 178.338 32.769C178.338 32.401 178.361 31.9947 178.407 31.55C178.453 31.1053 178.507 30.7527 178.568 30.492C178.645 30.2467 178.76 29.917 178.913 29.503C179.067 29.0737 179.197 28.6903 179.304 28.353L179.925 27.019L179.005 26.766C178.898 26.7353 178.806 26.674 178.729 26.582C178.668 26.49 178.637 26.4133 178.637 26.352C178.637 26.2293 178.706 26.0607 178.844 25.846C178.982 25.6313 179.082 25.524 179.143 25.524C179.22 25.5393 179.358 25.547 179.557 25.547C179.772 25.547 179.979 25.5393 180.178 25.524C180.378 25.5087 180.5 25.4933 180.546 25.478C180.608 25.4473 180.669 25.409 180.73 25.363C180.792 25.3017 180.838 25.2173 180.868 25.11C180.945 24.9413 181.014 24.8033 181.075 24.696C181.137 24.5887 181.221 24.443 181.328 24.259C181.436 24.0597 181.52 23.891 181.581 23.753C181.658 23.615 181.773 23.4233 181.926 23.178C182.003 23.0707 182.087 22.9403 182.179 22.787C182.271 22.6337 182.386 22.5033 182.524 22.396C182.662 22.2733 182.862 22.1967 183.122 22.166C183.383 22.1353 183.628 22.2197 183.858 22.419C183.981 22.5723 184.05 22.7103 184.065 22.833C184.081 22.9403 184.019 23.1013 183.881 23.316C183.759 23.5767 183.613 23.822 183.444 24.052C183.291 24.2667 183.145 24.5043 183.007 24.765C182.762 25.1023 182.716 25.294 182.869 25.34C183.023 25.386 183.452 25.3553 184.157 25.248C184.602 25.1713 184.924 25.2097 185.123 25.363C185.323 25.5163 185.438 25.7233 185.468 25.984C185.514 26.352 185.476 26.5743 185.353 26.651C185.231 26.7277 184.878 26.766 184.295 26.766C183.927 26.8273 183.613 26.8657 183.352 26.881C183.092 26.881 182.9 26.881 182.777 26.881C182.578 26.8963 182.448 26.904 182.386 26.904C182.325 26.904 182.233 26.9193 182.11 26.95C181.988 26.9807 181.896 27.0343 181.834 27.111C181.788 27.1723 181.735 27.2643 181.673 27.387C181.612 27.4483 181.52 27.6093 181.397 27.87C181.275 28.1307 181.121 28.4143 180.937 28.721C180.723 29.365 180.539 29.9937 180.385 30.607C180.232 31.205 180.109 31.7953 180.017 32.378C179.956 32.7 179.964 32.93 180.04 33.068C180.117 33.206 180.316 33.2903 180.638 33.321C180.807 33.3363 181.06 33.3363 181.397 33.321C181.735 33.2903 182.011 33.2443 182.225 33.183C182.394 33.1063 182.57 33.0297 182.754 32.953C182.938 32.861 183.107 32.769 183.26 32.677C183.398 32.6003 183.536 32.5237 183.674 32.447C183.812 32.355 183.881 32.309 183.881 32.309C183.958 32.1863 184.058 32.1863 184.18 32.309C184.318 32.4317 184.418 32.585 184.479 32.769C184.479 32.953 184.441 33.1677 184.364 33.413C184.288 33.643 184.004 33.896 183.513 34.172C182.823 34.6013 182.149 34.862 181.489 34.954C180.845 35.0307 180.324 35.0307 179.925 34.954ZM192.144 37.668C192.021 37.6833 191.86 37.6297 191.661 37.507C191.477 37.3843 191.285 37.2157 191.086 37.001C190.963 36.8783 190.871 36.7403 190.81 36.587C190.749 36.4337 190.726 36.242 190.741 36.012C190.756 35.8433 190.787 35.6287 190.833 35.368C190.879 35.1073 190.902 34.9463 190.902 34.885C190.902 34.7623 190.925 34.5323 190.971 34.195C191.032 33.8423 191.094 33.482 191.155 33.114C191.216 32.746 191.27 32.47 191.316 32.286C191.316 32.2247 191.324 32.1787 191.339 32.148C191.354 32.102 191.362 32.0713 191.362 32.056C191.423 31.8413 191.477 31.619 191.523 31.389C191.584 31.159 191.63 30.9213 191.661 30.676C191.799 30.1547 191.899 29.733 191.96 29.411C192.021 29.089 192.083 28.8207 192.144 28.606C192.175 28.422 192.251 28.2687 192.374 28.146C192.405 28.054 192.451 27.939 192.512 27.801C192.589 27.663 192.665 27.525 192.742 27.387C193.049 26.5283 193.302 25.846 193.501 25.34C193.7 24.834 193.9 24.3893 194.099 24.006C194.145 23.8987 194.191 23.7913 194.237 23.684C194.283 23.5613 194.329 23.4693 194.375 23.408C194.498 23.0707 194.689 22.7103 194.95 22.327C195.211 21.9437 195.51 21.568 195.847 21.2C196.2 20.8167 196.56 20.464 196.928 20.142C197.25 19.9887 197.549 19.8583 197.825 19.751C198.101 19.6437 198.392 19.59 198.699 19.59C199.006 19.59 199.251 19.6513 199.435 19.774C199.634 19.8813 199.826 20.0193 200.01 20.188C200.209 20.3873 200.347 20.5713 200.424 20.74C200.501 20.8933 200.539 21.0467 200.539 21.2C200.493 21.4147 200.393 21.6677 200.24 21.959C200.102 22.235 199.941 22.5033 199.757 22.764C199.588 23.0247 199.427 23.247 199.274 23.431C199.121 23.5997 199.013 23.684 198.952 23.684C198.783 23.6993 198.668 23.6457 198.607 23.523C198.561 23.385 198.515 23.224 198.469 23.04C198.454 22.9633 198.423 22.8867 198.377 22.81C198.331 22.7333 198.293 22.6797 198.262 22.649C198.262 22.5877 198.285 22.4727 198.331 22.304C198.392 22.1353 198.431 21.982 198.446 21.844C198.477 21.7367 198.469 21.637 198.423 21.545C198.377 21.453 198.293 21.4453 198.17 21.522C198.063 21.5833 197.932 21.6677 197.779 21.775C197.641 21.8823 197.495 22.005 197.342 22.143C197.204 22.2657 197.066 22.4037 196.928 22.557C196.805 22.7103 196.69 22.8637 196.583 23.017C196.552 23.0783 196.506 23.1627 196.445 23.27C196.384 23.362 196.315 23.4693 196.238 23.592C196.131 23.73 196.046 23.8603 195.985 23.983C195.939 24.0903 195.908 24.1747 195.893 24.236C195.878 24.3127 195.862 24.374 195.847 24.42C195.832 24.466 195.801 24.489 195.755 24.489C195.77 24.4737 195.747 24.5427 195.686 24.696C195.625 24.8493 195.533 25.0333 195.41 25.248C195.349 25.4013 195.28 25.5547 195.203 25.708C195.126 25.846 195.05 25.9533 194.973 26.03H194.996C194.996 26.03 194.958 26.122 194.881 26.306C194.82 26.49 194.751 26.6817 194.674 26.881C194.597 27.065 194.559 27.1723 194.559 27.203C194.559 27.2643 194.682 27.2797 194.927 27.249C195.188 27.2183 195.479 27.1723 195.801 27.111C196.123 27.0497 196.384 27.0113 196.583 26.996C196.736 26.9653 196.859 26.9653 196.951 26.996C197.043 27.0267 197.15 27.0727 197.273 27.134C197.426 27.2413 197.526 27.41 197.572 27.64C197.633 27.8547 197.656 28.0463 197.641 28.215C197.641 28.3223 197.518 28.422 197.273 28.514C197.043 28.606 196.713 28.7057 196.284 28.813C195.916 28.8897 195.571 28.9663 195.249 29.043C194.927 29.1043 194.651 29.158 194.421 29.204C194.206 29.25 194.061 29.3113 193.984 29.388C193.892 29.4187 193.815 29.48 193.754 29.572C193.708 29.6487 193.677 29.733 193.662 29.825C193.662 29.9017 193.654 29.9707 193.639 30.032C193.624 30.078 193.608 30.1163 193.593 30.147C193.578 30.2237 193.539 30.3693 193.478 30.584C193.417 30.7833 193.355 31.021 193.294 31.297C193.233 31.5577 193.171 31.8183 193.11 32.079C193.064 32.3243 193.026 32.5313 192.995 32.7C192.949 32.838 192.918 32.976 192.903 33.114C192.888 33.252 192.88 33.3593 192.88 33.436C192.819 33.528 192.757 33.689 192.696 33.919C192.65 34.149 192.619 34.3253 192.604 34.448C192.604 34.4787 192.604 34.517 192.604 34.563C192.604 34.5937 192.604 34.632 192.604 34.678C192.604 34.77 192.581 34.9617 192.535 35.253C192.504 35.5443 192.489 35.8433 192.489 36.15L192.42 36.817C192.405 37.0317 192.382 37.2157 192.351 37.369C192.32 37.5377 192.251 37.6373 192.144 37.668ZM198.998 34.678C198.753 34.6627 198.53 34.5247 198.331 34.264C198.147 34.0033 198.047 33.689 198.032 33.321C198.032 33.0603 198.055 32.7997 198.101 32.539C198.162 32.263 198.239 31.9333 198.331 31.55C198.423 31.274 198.53 30.9367 198.653 30.538C198.776 30.124 198.898 29.71 199.021 29.296C199.144 28.882 199.251 28.5217 199.343 28.215C199.435 27.9083 199.489 27.732 199.504 27.686C199.55 27.594 199.619 27.548 199.711 27.548C199.803 27.5327 199.903 27.5403 200.01 27.571C200.148 27.617 200.286 27.7167 200.424 27.87C200.562 28.008 200.669 28.1997 200.746 28.445C200.838 28.6903 200.869 28.9817 200.838 29.319C200.807 29.503 200.777 29.664 200.746 29.802C200.715 29.9247 200.669 30.0627 200.608 30.216C200.562 30.3693 200.493 30.5763 200.401 30.837C200.324 31.0977 200.232 31.4503 200.125 31.895C200.018 32.3243 199.887 32.884 199.734 33.574C199.657 34.0033 199.565 34.2947 199.458 34.448C199.351 34.6013 199.197 34.678 198.998 34.678ZM200.079 24.696C200.079 24.5427 200.125 24.3203 200.217 24.029C200.324 23.7377 200.462 23.4693 200.631 23.224C200.815 22.9787 201.007 22.856 201.206 22.856C201.283 22.856 201.359 22.8637 201.436 22.879C201.513 22.8943 201.612 22.925 201.735 22.971C201.996 23.1397 202.203 23.3927 202.356 23.73C202.509 24.0673 202.54 24.42 202.448 24.788C202.371 25.156 202.088 25.478 201.597 25.754C201.536 25.8 201.474 25.823 201.413 25.823C201.367 25.8077 201.298 25.7923 201.206 25.777C200.991 25.7617 200.792 25.685 200.608 25.547C200.439 25.409 200.309 25.2557 200.217 25.087C200.125 24.9183 200.079 24.788 200.079 24.696ZM209.233 34.839C209.033 34.839 208.834 34.7623 208.635 34.609C208.435 34.4557 208.267 34.2487 208.129 33.988C208.006 33.7273 207.945 33.436 207.945 33.114C207.945 32.884 207.991 32.5237 208.083 32.033C208.175 31.5423 208.305 30.975 208.474 30.331C208.535 30.055 208.566 29.8863 208.566 29.825C208.566 29.7637 208.504 29.7483 208.382 29.779C208.32 29.7943 208.259 29.8173 208.198 29.848C208.136 29.8633 208.075 29.894 208.014 29.94C207.906 29.9707 207.753 30.0627 207.554 30.216C207.37 30.3693 207.163 30.538 206.933 30.722C206.841 30.7833 206.726 30.8753 206.588 30.998C206.45 31.1207 206.312 31.2433 206.174 31.366C206.036 31.4887 205.921 31.596 205.829 31.688C205.721 31.7647 205.553 31.9027 205.323 32.102C205.093 32.286 204.855 32.4777 204.61 32.677C204.364 32.861 204.142 33.0143 203.943 33.137C203.805 33.183 203.682 33.206 203.575 33.206C203.467 33.1907 203.406 33.1523 203.391 33.091C203.375 33.0297 203.314 32.9147 203.207 32.746C203.115 32.562 203.038 32.3243 202.977 32.033C202.915 31.7417 202.931 31.4273 203.023 31.09C203.038 30.9673 203.092 30.7527 203.184 30.446C203.276 30.124 203.391 29.756 203.529 29.342C203.682 28.9127 203.851 28.4833 204.035 28.054C204.081 27.9313 204.119 27.7857 204.15 27.617C204.18 27.433 204.211 27.2567 204.242 27.088C204.288 26.904 204.349 26.766 204.426 26.674C204.472 26.582 204.541 26.536 204.633 26.536C204.74 26.5207 204.84 26.5437 204.932 26.605C205.1 26.6817 205.231 26.7967 205.323 26.95C205.43 27.1033 205.491 27.3103 205.507 27.571C205.645 27.7703 205.714 28.0003 205.714 28.261C205.714 28.5063 205.683 28.744 205.622 28.974C205.56 29.1887 205.499 29.3727 205.438 29.526C205.376 29.664 205.346 29.7177 205.346 29.687C205.407 29.6717 205.507 29.6027 205.645 29.48C205.798 29.342 206.02 29.1887 206.312 29.02C206.649 28.7593 206.917 28.5677 207.117 28.445C207.331 28.307 207.492 28.2073 207.6 28.146C207.722 28.0693 207.822 28.0003 207.899 27.939C207.96 27.9083 208.021 27.8777 208.083 27.847C208.144 27.8163 208.182 27.7933 208.198 27.778C208.213 27.7627 208.228 27.755 208.244 27.755C208.259 27.7397 208.267 27.732 208.267 27.732C208.297 27.732 208.359 27.7167 208.451 27.686C208.558 27.64 208.658 27.6017 208.75 27.571C208.888 27.5403 209.041 27.5557 209.21 27.617C209.394 27.6783 209.555 27.7703 209.693 27.893C209.831 28.0003 209.9 28.123 209.9 28.261C209.9 28.307 209.915 28.353 209.946 28.399C209.992 28.4297 210.022 28.4603 210.038 28.491C210.13 28.5523 210.214 28.698 210.291 28.928C210.367 29.158 210.39 29.4493 210.36 29.802C210.36 30.0473 210.306 30.3847 210.199 30.814C210.107 31.228 210.007 31.642 209.9 32.056C209.777 32.5007 209.708 32.8687 209.693 33.16C209.693 33.436 209.708 33.6583 209.739 33.827C209.785 33.9803 209.823 34.1107 209.854 34.218C209.869 34.3407 209.823 34.4787 209.716 34.632C209.624 34.77 209.463 34.839 209.233 34.839ZM218.112 35.161C217.943 35.2223 217.774 35.253 217.606 35.253C217.452 35.253 217.245 35.1533 216.985 34.954C216.847 34.77 216.755 34.5937 216.709 34.425C216.663 34.2563 216.64 33.9803 216.64 33.597C216.67 33.367 216.732 33.0373 216.824 32.608C216.916 32.1633 217.023 31.7033 217.146 31.228C217.284 30.7527 217.399 30.3233 217.491 29.94C217.598 29.5413 217.682 29.273 217.744 29.135C217.851 28.767 217.874 28.537 217.813 28.445C217.751 28.353 217.567 28.2993 217.261 28.284C216.816 28.2533 216.387 28.4373 215.973 28.836C215.559 29.2193 215.106 29.7943 214.616 30.561C214.248 31.1283 214.025 31.6037 213.949 31.987C213.872 32.355 213.864 32.608 213.926 32.746C213.956 32.838 214.025 32.8917 214.133 32.907C214.255 32.907 214.393 32.8763 214.547 32.815C214.7 32.7537 214.853 32.6847 215.007 32.608C215.114 32.5467 215.244 32.4853 215.398 32.424C215.566 32.3473 215.727 32.2783 215.881 32.217C215.973 32.217 216.034 32.263 216.065 32.355C216.111 32.447 216.134 32.5697 216.134 32.723C216.134 32.7843 216.149 32.884 216.18 33.022C216.226 33.1447 216.295 33.229 216.387 33.275C216.448 33.3363 216.333 33.4667 216.042 33.666C215.766 33.8653 215.382 34.103 214.892 34.379C214.432 34.4863 214.079 34.54 213.834 34.54C213.588 34.54 213.335 34.4403 213.075 34.241C212.645 33.9803 212.385 33.5203 212.293 32.861C212.201 32.1863 212.3 31.4197 212.592 30.561C212.883 29.871 213.205 29.2883 213.558 28.813C213.91 28.3377 214.286 27.893 214.685 27.479C214.746 27.4177 214.922 27.3027 215.214 27.134C215.505 26.9653 215.819 26.8273 216.157 26.72C216.54 26.5973 216.877 26.5437 217.169 26.559C217.46 26.559 217.728 26.6433 217.974 26.812C218.25 26.8733 218.434 26.8657 218.526 26.789C218.618 26.697 218.74 26.4593 218.894 26.076C219.185 25.3093 219.476 24.535 219.768 23.753C220.074 22.9557 220.396 22.1507 220.734 21.338C220.887 21.0467 220.979 20.8243 221.01 20.671C221.056 20.5023 221.109 20.3873 221.171 20.326L221.746 20.188C221.884 20.1573 222.052 20.2263 222.252 20.395C222.451 20.5637 222.581 20.74 222.643 20.924C222.643 21.062 222.581 21.3687 222.459 21.844C222.336 22.304 222.137 22.856 221.861 23.5C221.615 24.0673 221.37 24.6423 221.125 25.225C220.895 25.7923 220.672 26.398 220.458 27.042C220.289 27.5173 220.136 27.9007 219.998 28.192C219.86 28.4833 219.768 28.7363 219.722 28.951C219.63 29.3497 219.515 29.71 219.377 30.032C219.254 30.3387 219.17 30.5533 219.124 30.676C218.924 31.2587 218.763 31.734 218.641 32.102C218.533 32.47 218.457 32.7843 218.411 33.045C218.38 33.3057 218.365 33.5587 218.365 33.804C218.38 34.0493 218.411 34.333 218.457 34.655C218.457 34.7163 218.426 34.8007 218.365 34.908C218.303 35 218.219 35.0843 218.112 35.161ZM228.867 34.195C228.637 34.195 228.414 34.034 228.2 33.712C227.985 33.39 227.816 32.9837 227.694 32.493C227.586 32.0023 227.548 31.5117 227.579 31.021C227.579 30.5303 227.602 30.1393 227.648 29.848C227.709 29.5413 227.77 29.2423 227.832 28.951C227.878 28.859 227.901 28.7823 227.901 28.721C227.916 28.6597 227.931 28.56 227.947 28.422C227.977 28.284 228.031 28.054 228.108 27.732C228.169 27.4713 228.23 27.2567 228.292 27.088C228.368 26.9193 228.43 26.8043 228.476 26.743C228.629 26.5437 228.798 26.4287 228.982 26.398C229.181 26.352 229.365 26.375 229.534 26.467C229.702 26.5437 229.81 26.674 229.856 26.858C229.948 26.9347 229.994 27.111 229.994 27.387C230.009 27.6477 229.994 27.9237 229.948 28.215C229.902 28.491 229.833 28.6903 229.741 28.813C229.71 28.8897 229.672 29.089 229.626 29.411C229.595 29.733 229.557 30.0703 229.511 30.423C229.48 30.7757 229.442 31.0593 229.396 31.274C229.35 31.55 229.373 31.7417 229.465 31.849C229.557 31.941 229.718 31.895 229.948 31.711C230.193 31.5117 230.523 31.1207 230.937 30.538C231.243 30.078 231.473 29.7177 231.627 29.457C231.78 29.181 231.903 28.928 231.995 28.698C232.087 28.468 232.186 28.2073 232.294 27.916C232.37 27.6707 232.439 27.4713 232.501 27.318C232.577 27.1647 232.646 27.0573 232.708 26.996C232.846 26.812 233.03 26.7353 233.26 26.766C233.505 26.7967 233.72 26.8733 233.904 26.996C234.088 27.18 234.195 27.4177 234.226 27.709C234.256 28.0003 234.18 28.33 233.996 28.698C233.873 28.9433 233.75 29.2423 233.628 29.595C233.52 29.9477 233.428 30.3003 233.352 30.653C233.29 31.0057 233.26 31.3047 233.26 31.55C233.26 31.8567 233.298 32.0407 233.375 32.102C233.467 32.148 233.574 32.171 233.697 32.171C233.881 32.171 234.072 32.1097 234.272 31.987C234.471 31.849 234.732 31.6113 235.054 31.274C235.192 31.136 235.36 30.929 235.56 30.653C235.759 30.377 235.951 30.0933 236.135 29.802C236.334 29.4953 236.495 29.227 236.618 28.997C236.756 28.7517 236.825 28.5983 236.825 28.537C236.825 28.445 236.894 28.3147 237.032 28.146C237.124 28.0233 237.193 27.9313 237.239 27.87C237.3 27.7933 237.407 27.7167 237.561 27.64C237.683 27.5787 237.806 27.571 237.929 27.617C238.067 27.6477 238.189 27.7243 238.297 27.847C238.373 27.9083 238.427 28.0387 238.458 28.238C238.488 28.4373 238.504 28.629 238.504 28.813C238.458 28.9817 238.389 29.2117 238.297 29.503C238.205 29.7943 238.105 30.0703 237.998 30.331C237.89 30.5763 237.798 30.745 237.722 30.837C237.66 30.8983 237.553 31.0133 237.4 31.182C237.246 31.3353 237.108 31.504 236.986 31.688C236.602 32.148 236.326 32.447 236.158 32.585C235.989 32.723 235.843 32.8533 235.721 32.976C235.399 33.298 235.038 33.551 234.64 33.735C234.241 33.919 233.865 34.0187 233.513 34.034C233.175 34.0493 232.899 33.9803 232.685 33.827C232.209 33.5817 231.972 33.1677 231.972 32.585C231.972 32.4623 231.949 32.355 231.903 32.263C231.872 32.1557 231.857 32.102 231.857 32.102C231.795 32.102 231.711 32.1173 231.604 32.148C231.512 32.1787 231.412 32.286 231.305 32.47C231.167 32.7307 230.937 32.999 230.615 33.275C230.293 33.5357 229.963 33.758 229.626 33.942C229.304 34.1107 229.051 34.195 228.867 34.195ZM246.429 34.517C246.046 34.701 245.678 34.7623 245.325 34.701C244.988 34.6397 244.712 34.448 244.497 34.126C244.283 33.7887 244.175 33.321 244.175 32.723C244.175 32.5543 244.191 32.3397 244.221 32.079C244.252 31.803 244.298 31.5117 244.359 31.205C244.436 30.8983 244.52 30.607 244.612 30.331C244.658 30.193 244.712 30.0703 244.773 29.963C244.835 29.8403 244.835 29.779 244.773 29.779C244.712 29.779 244.635 29.8173 244.543 29.894C244.467 29.9707 244.405 30.032 244.359 30.078C243.991 30.4 243.639 30.745 243.301 31.113C242.979 31.481 242.688 31.849 242.427 32.217C242.167 32.585 241.96 32.9223 241.806 33.229C241.668 33.5357 241.599 33.781 241.599 33.965C241.599 34.195 241.484 34.356 241.254 34.448C241.024 34.54 240.825 34.5323 240.656 34.425C240.365 34.2563 240.127 34.0187 239.943 33.712C239.759 33.39 239.69 32.9453 239.736 32.378C239.782 31.6573 239.844 31.0133 239.92 30.446C239.997 29.8787 240.12 29.2653 240.288 28.606C240.472 27.9313 240.71 27.111 241.001 26.145C241.201 25.6083 241.385 25.1023 241.553 24.627C241.722 24.1363 241.868 23.7223 241.99 23.385C242.128 23.0477 242.213 22.8407 242.243 22.764C242.32 22.6873 242.42 22.5033 242.542 22.212C242.665 21.9053 242.772 21.5987 242.864 21.292C242.972 20.9853 243.025 20.8013 243.025 20.74C243.025 20.6173 243.048 20.51 243.094 20.418C243.156 20.326 243.209 20.2417 243.255 20.165C243.332 19.9963 243.401 19.8813 243.462 19.82C243.524 19.7433 243.577 19.705 243.623 19.705C243.7 19.705 243.815 19.7433 243.968 19.82C244.122 19.8813 244.267 19.9657 244.405 20.073C244.559 20.165 244.651 20.2723 244.681 20.395C244.789 20.6097 244.842 20.832 244.842 21.062C244.858 21.2767 244.804 21.545 244.681 21.867C244.559 22.189 244.344 22.6337 244.037 23.201C243.792 23.6763 243.57 24.167 243.37 24.673C243.171 25.179 242.979 25.708 242.795 26.26C242.719 26.49 242.619 26.8043 242.496 27.203C242.374 27.5863 242.251 27.985 242.128 28.399C242.006 28.7977 241.906 29.158 241.829 29.48C241.753 29.802 241.714 30.009 241.714 30.101C241.714 30.2083 241.776 30.262 241.898 30.262C242.021 30.2467 242.144 30.1547 242.266 29.986C242.328 29.8633 242.435 29.733 242.588 29.595C242.742 29.457 242.88 29.3267 243.002 29.204C243.125 29.066 243.278 28.8973 243.462 28.698C243.646 28.4987 243.846 28.2993 244.06 28.1C244.29 27.9007 244.497 27.7397 244.681 27.617C244.881 27.479 245.042 27.41 245.164 27.41C245.425 27.41 245.647 27.4943 245.831 27.663C246.015 27.8163 246.169 28.0387 246.291 28.33C246.337 28.376 246.383 28.4373 246.429 28.514C246.475 28.5753 246.506 28.6213 246.521 28.652C246.598 28.7133 246.621 28.9663 246.59 29.411C246.575 29.8403 246.445 30.423 246.199 31.159C246.061 31.7263 245.969 32.171 245.923 32.493C245.877 32.7997 245.916 32.953 246.038 32.953C246.038 32.953 246.115 32.907 246.268 32.815C246.437 32.723 246.613 32.6233 246.797 32.516C247.242 32.2247 247.587 32.1097 247.832 32.171C248.078 32.217 248.2 32.3243 248.2 32.493C248.2 32.6003 248.154 32.7307 248.062 32.884C247.986 33.022 247.947 33.1217 247.947 33.183C247.947 33.183 247.947 33.1907 247.947 33.206C247.947 33.206 247.947 33.2367 247.947 33.298C247.947 33.3287 247.848 33.436 247.648 33.62C247.449 33.804 247.227 33.9957 246.981 34.195C246.751 34.379 246.567 34.4863 246.429 34.517ZM250.086 34.402C250.024 34.2793 249.909 34.1643 249.741 34.057C249.572 33.9497 249.488 33.8653 249.488 33.804C249.488 33.7427 249.465 33.6583 249.419 33.551C249.373 33.4437 249.319 33.3593 249.258 33.298C249.181 33.206 249.196 32.9837 249.304 32.631C249.426 32.2783 249.603 31.849 249.833 31.343C250.063 30.837 250.323 30.3157 250.615 29.779C250.737 29.6563 250.86 29.4953 250.983 29.296C251.105 29.0967 251.197 28.9663 251.259 28.905C251.259 28.8437 251.282 28.79 251.328 28.744C251.374 28.6827 251.427 28.652 251.489 28.652L251.627 28.353C251.642 28.2917 251.726 28.169 251.88 27.985C252.033 27.801 252.225 27.6017 252.455 27.387C252.685 27.157 252.915 26.9423 253.145 26.743C253.375 26.5437 253.566 26.398 253.72 26.306C254.042 26.0913 254.371 25.984 254.709 25.984C255.061 25.9687 255.36 26.0607 255.606 26.26C255.652 26.306 255.744 26.398 255.882 26.536C256.035 26.6587 256.204 26.7967 256.388 26.95C256.572 27.1033 256.74 27.249 256.894 27.387L257.745 28.146L257.354 29.296C257.154 29.9093 257.101 30.446 257.193 30.906C257.3 31.366 257.446 31.7647 257.63 32.102C257.706 32.2707 257.829 32.4163 257.998 32.539C258.166 32.6463 258.358 32.7153 258.573 32.746C258.695 32.7613 258.81 32.8073 258.918 32.884C259.025 32.9607 259.079 33.0833 259.079 33.252C259.079 33.5433 259.025 33.758 258.918 33.896C258.81 34.034 258.68 34.1183 258.527 34.149C258.021 34.2103 257.538 34.1337 257.078 33.919C256.633 33.7043 256.227 33.2443 255.859 32.539C255.797 32.447 255.713 32.2783 255.606 32.033C255.514 31.7723 255.46 31.6037 255.445 31.527C255.383 31.6037 255.291 31.7187 255.169 31.872C255.046 32.01 254.939 32.125 254.847 32.217C253.758 33.321 252.823 34.0493 252.041 34.402C251.259 34.7393 250.607 34.7393 250.086 34.402ZM251.213 32.7C251.289 32.746 251.458 32.7077 251.719 32.585C251.979 32.4623 252.301 32.2477 252.685 31.941C253.206 31.4963 253.666 31.09 254.065 30.722C254.463 30.3387 254.824 29.917 255.146 29.457L255.652 28.629C255.498 28.2763 255.353 28.0463 255.215 27.939C255.077 27.8163 254.946 27.755 254.824 27.755C254.624 27.755 254.364 27.9007 254.042 28.192C253.735 28.4833 253.39 28.8973 253.007 29.434C252.639 29.9553 252.24 30.5763 251.811 31.297C251.627 31.619 251.481 31.9333 251.374 32.24C251.266 32.5467 251.213 32.7 251.213 32.7ZM261.985 36.311C261.31 36.265 260.873 36.058 260.674 35.69C260.49 35.322 260.444 34.8313 260.536 34.218C260.628 33.9267 260.682 33.666 260.697 33.436C260.728 33.1907 260.797 33.0373 260.904 32.976C260.904 32.976 260.912 32.953 260.927 32.907C260.958 32.861 260.95 32.815 260.904 32.769C260.904 32.5697 260.973 32.2937 261.111 31.941C261.142 31.849 261.18 31.7417 261.226 31.619C261.287 31.481 261.318 31.412 261.318 31.412C261.241 31.2893 261.241 31.1897 261.318 31.113C261.395 31.0363 261.471 30.9673 261.548 30.906C261.64 30.8293 261.648 30.745 261.571 30.653C261.54 30.5917 261.579 30.4537 261.686 30.239C261.793 30.009 261.916 29.7713 262.054 29.526C262.192 29.2807 262.284 29.089 262.33 28.951C262.33 28.9203 262.368 28.813 262.445 28.629C262.522 28.445 262.614 28.2303 262.721 27.985C262.828 27.7397 262.928 27.5173 263.02 27.318C263.127 27.1187 263.196 26.9883 263.227 26.927C263.38 26.8503 263.319 26.7967 263.043 26.766C262.767 26.7353 262.476 26.7277 262.169 26.743C261.694 26.7277 261.31 26.7047 261.019 26.674C260.743 26.6433 260.513 26.5743 260.329 26.467C260.145 26.2523 260.107 26.03 260.214 25.8C260.321 25.57 260.528 25.4473 260.835 25.432C261.034 25.4167 261.188 25.409 261.295 25.409C261.418 25.409 261.571 25.4013 261.755 25.386C261.954 25.3553 262.261 25.317 262.675 25.271L263.848 25.179L263.917 24.788C264.04 24.5887 264.132 24.443 264.193 24.351C264.254 24.2437 264.3 24.144 264.331 24.052C264.362 23.9447 264.392 23.799 264.423 23.615C264.423 23.615 264.492 23.4923 264.63 23.247C264.768 22.9863 264.852 22.718 264.883 22.442C265.067 22.1353 265.228 21.8593 265.366 21.614C265.504 21.3533 265.588 21.1923 265.619 21.131C265.849 20.8243 266.056 20.6633 266.24 20.648C266.439 20.6327 266.654 20.7017 266.884 20.855C267.022 20.9317 267.145 21.0237 267.252 21.131C267.375 21.2383 267.451 21.3763 267.482 21.545C267.513 21.6983 267.451 21.8823 267.298 22.097C267.267 22.1583 267.221 22.2733 267.16 22.442C267.099 22.5953 267.053 22.7257 267.022 22.833C266.93 22.9403 266.815 23.1167 266.677 23.362C266.554 23.592 266.47 23.8297 266.424 24.075C266.301 24.3357 266.209 24.5197 266.148 24.627C266.102 24.7343 266.048 24.788 265.987 24.788C266.018 24.9413 266.11 25.018 266.263 25.018C266.416 25.0027 266.669 24.9873 267.022 24.972C267.313 24.9413 267.513 24.9107 267.62 24.88C267.743 24.834 267.881 24.8493 268.034 24.926C268.111 25.0333 268.157 25.179 268.172 25.363C268.187 25.547 268.172 25.7233 268.126 25.892C268.08 26.0607 268.003 26.168 267.896 26.214C267.819 26.214 267.658 26.26 267.413 26.352C267.183 26.4287 266.892 26.4747 266.539 26.49L265.32 26.605L264.929 27.387C264.822 27.5863 264.73 27.7703 264.653 27.939C264.576 28.0923 264.523 28.1843 264.492 28.215C264.492 28.307 264.438 28.445 264.331 28.629C264.239 28.813 264.139 29.0123 264.032 29.227C263.94 29.4877 263.833 29.7253 263.71 29.94C263.603 30.1547 263.549 30.262 263.549 30.262C263.488 30.262 263.457 30.308 263.457 30.4C263.534 30.584 263.511 30.722 263.388 30.814C263.311 30.86 263.242 30.929 263.181 31.021C263.135 31.0977 263.112 31.136 263.112 31.136C263.173 31.1973 263.181 31.274 263.135 31.366C263.104 31.458 263.058 31.5577 262.997 31.665C262.997 31.7877 262.959 31.964 262.882 32.194C262.821 32.424 262.752 32.6387 262.675 32.838C262.69 33.114 262.706 33.2903 262.721 33.367C262.736 33.4437 262.775 33.4743 262.836 33.459C262.913 33.4743 263.005 33.4743 263.112 33.459C263.235 33.4437 263.327 33.436 263.388 33.436C263.603 33.3287 263.488 33.8653 263.043 35.046C262.798 35.4293 262.575 35.736 262.376 35.966C262.192 36.196 262.062 36.311 261.985 36.311ZM272.685 39.715C272.195 39.8223 271.704 39.8377 271.213 39.761C270.738 39.6997 270.332 39.5693 269.994 39.37C269.642 39.1707 269.435 38.9483 269.373 38.703C269.312 38.4423 269.358 38.2353 269.511 38.082C269.649 37.9287 269.818 37.8367 270.017 37.806C270.217 37.7753 270.355 37.806 270.431 37.898C270.554 37.9747 270.753 38.082 271.029 38.22C271.321 38.358 271.666 38.3887 272.064 38.312C272.417 38.2353 272.739 38.0513 273.03 37.76C273.337 37.484 273.598 37.2003 273.812 36.909C273.935 36.725 274.142 36.3953 274.433 35.92C274.725 35.4447 275.024 34.9233 275.33 34.356C275.652 33.7733 275.921 33.2367 276.135 32.746C276.181 32.6233 276.235 32.4777 276.296 32.309C276.358 32.1403 276.434 32.0023 276.526 31.895C276.618 31.711 276.695 31.5423 276.756 31.389C276.833 31.2203 276.879 31.1053 276.894 31.044C276.91 30.9673 276.979 30.814 277.101 30.584C277.224 30.354 277.339 30.124 277.446 29.894C277.523 29.664 277.638 29.3267 277.791 28.882C277.945 28.4373 278.098 28.077 278.251 27.801C278.435 27.4483 278.581 27.1647 278.688 26.95C278.811 26.72 278.941 26.582 279.079 26.536C279.217 26.4287 279.332 26.375 279.424 26.375C279.532 26.375 279.67 26.421 279.838 26.513C280.022 26.697 280.16 26.881 280.252 27.065C280.344 27.2337 280.367 27.4483 280.321 27.709C280.291 27.9543 280.16 28.2917 279.93 28.721C279.808 29.089 279.67 29.4263 279.516 29.733C279.378 30.0243 279.271 30.216 279.194 30.308C279.118 30.492 279.026 30.699 278.918 30.929C278.826 31.1437 278.742 31.343 278.665 31.527C278.389 32.1403 278.152 32.6387 277.952 33.022C277.753 33.4053 277.577 33.758 277.423 34.08C277.27 34.402 277.109 34.7777 276.94 35.207C276.588 35.7743 276.243 36.311 275.905 36.817C275.583 37.3383 275.238 37.8213 274.87 38.266C274.717 38.404 274.502 38.5727 274.226 38.772C273.966 38.9867 273.697 39.186 273.421 39.37C273.145 39.554 272.9 39.669 272.685 39.715ZM275.629 34.402C275.399 34.3713 275.154 34.2257 274.893 33.965C274.648 33.7043 274.441 33.4283 274.272 33.137C274.119 32.8303 274.058 32.6157 274.088 32.493C274.088 32.4163 274.088 32.355 274.088 32.309C274.088 32.263 274.088 32.24 274.088 32.24C273.996 32.24 273.92 32.1173 273.858 31.872C273.812 31.6113 273.774 31.2817 273.743 30.883C273.713 30.4843 273.697 30.0703 273.697 29.641C273.713 29.1963 273.736 28.79 273.766 28.422C273.828 28.1613 273.858 27.8777 273.858 27.571C273.858 27.249 273.866 26.996 273.881 26.812C273.866 26.5667 273.904 26.3827 273.996 26.26C274.088 26.122 274.165 26.03 274.226 25.984C274.748 25.754 275.116 25.8767 275.33 26.352C275.56 26.8273 275.637 27.617 275.56 28.721C275.53 29.3343 275.522 29.9323 275.537 30.515C275.553 31.0823 275.614 31.5807 275.721 32.01C275.844 32.424 276.036 32.7153 276.296 32.884C276.404 32.9453 276.45 33.0603 276.434 33.229C276.419 33.3977 276.365 33.574 276.273 33.758C276.181 33.942 276.074 34.103 275.951 34.241C275.829 34.3637 275.721 34.4173 275.629 34.402ZM283.146 34.586C282.824 34.6473 282.594 34.6397 282.456 34.563C282.334 34.4863 282.188 34.3713 282.019 34.218C281.774 34.0953 281.552 33.9343 281.352 33.735C281.168 33.5203 281.03 33.298 280.938 33.068C280.846 32.838 280.808 32.654 280.823 32.516C280.869 31.9793 280.992 31.3967 281.191 30.768C281.406 30.1393 281.674 29.5337 281.996 28.951C282.318 28.3683 282.679 27.8547 283.077 27.41C283.491 26.95 283.913 26.628 284.342 26.444C284.649 26.3213 284.963 26.2753 285.285 26.306C285.623 26.3367 285.853 26.4823 285.975 26.743C286.205 27.1877 286.152 27.4713 285.814 27.594C285.768 27.594 285.715 27.617 285.653 27.663C285.592 27.6937 285.561 27.7397 285.561 27.801C285.623 27.8317 285.791 27.8393 286.067 27.824C286.343 27.7933 286.619 27.7473 286.895 27.686C287.187 27.6093 287.378 27.5327 287.47 27.456C287.562 27.41 287.631 27.387 287.677 27.387C287.723 27.387 287.838 27.4023 288.022 27.433C288.283 27.5097 288.413 27.6017 288.413 27.709C288.413 27.7703 288.436 27.8547 288.482 27.962C288.528 28.0693 288.582 28.123 288.643 28.123C288.751 28.1383 288.766 28.238 288.689 28.422C288.613 28.5907 288.421 28.7823 288.114 28.997C287.823 29.181 287.639 29.3037 287.562 29.365C287.501 29.411 287.493 29.5183 287.539 29.687C287.662 29.9783 287.654 30.3233 287.516 30.722C287.394 31.1207 287.179 31.5347 286.872 31.964C286.566 32.3933 286.198 32.7997 285.768 33.183C285.354 33.551 284.917 33.8653 284.457 34.126C283.997 34.3867 283.56 34.54 283.146 34.586ZM283.077 32.953C283.139 32.953 283.246 32.9223 283.399 32.861C283.553 32.7843 283.675 32.723 283.767 32.677C283.829 32.6157 283.905 32.5467 283.997 32.47C284.105 32.378 284.189 32.3243 284.25 32.309C284.312 32.309 284.358 32.286 284.388 32.24C284.434 32.1787 284.511 32.0637 284.618 31.895C284.741 31.711 284.94 31.4427 285.216 31.09C285.523 30.7527 285.738 30.469 285.86 30.239C285.983 30.009 286.006 29.7713 285.929 29.526C285.914 29.4647 285.868 29.4263 285.791 29.411C285.73 29.3957 285.646 29.3573 285.538 29.296C285.385 29.296 285.262 29.3037 285.17 29.319C285.094 29.3343 284.971 29.273 284.802 29.135L284.434 28.675L284.043 29.066C283.798 29.3113 283.568 29.641 283.353 30.055C283.139 30.4537 282.962 30.8677 282.824 31.297C282.702 31.711 282.625 32.0637 282.594 32.355C282.579 32.585 282.617 32.7383 282.709 32.815C282.801 32.8917 282.924 32.9377 283.077 32.953ZM290.768 34.08C290.477 33.8193 290.231 33.551 290.032 33.275C289.848 32.9837 289.718 32.539 289.641 31.941C289.61 31.665 289.641 31.2893 289.733 30.814C289.825 30.3387 289.955 29.8327 290.124 29.296C290.308 28.7593 290.507 28.2687 290.722 27.824C290.937 27.3793 291.151 27.0497 291.366 26.835C291.55 26.605 291.757 26.444 291.987 26.352C292.217 26.2447 292.485 26.26 292.792 26.398C292.961 26.5973 293.045 26.8503 293.045 27.157C293.06 27.4637 292.976 27.7627 292.792 28.054C292.485 28.468 292.217 28.9893 291.987 29.618C291.772 30.2313 291.627 30.7833 291.55 31.274C291.427 31.688 291.374 31.987 291.389 32.171C291.404 32.355 291.519 32.4777 291.734 32.539C292.025 32.6003 292.34 32.5083 292.677 32.263C293.03 32.0023 293.367 31.6267 293.689 31.136C294.011 30.6453 294.287 30.0933 294.517 29.48C294.609 29.2653 294.678 29.0123 294.724 28.721C294.785 28.4297 294.847 28.215 294.908 28.077C294.985 27.7703 295.107 27.5327 295.276 27.364C295.46 27.1953 295.644 27.0957 295.828 27.065C296.027 27.019 296.181 27.042 296.288 27.134C296.426 27.1953 296.549 27.2873 296.656 27.41C296.779 27.5327 296.825 27.7703 296.794 28.123C296.794 28.6903 296.671 29.1733 296.426 29.572C296.181 29.9707 295.974 30.3923 295.805 30.837C295.667 31.159 295.452 31.5347 295.161 31.964C294.87 32.378 294.555 32.7537 294.218 33.091C293.881 33.4283 293.566 33.6583 293.275 33.781C292.846 34.057 292.424 34.218 292.01 34.264C291.611 34.2947 291.197 34.2333 290.768 34.08ZM160.433 56.402C160.371 56.2793 160.256 56.1643 160.088 56.057C159.919 55.9497 159.835 55.8653 159.835 55.804C159.835 55.7427 159.812 55.6583 159.766 55.551C159.72 55.4437 159.666 55.3593 159.605 55.298C159.528 55.206 159.543 54.9837 159.651 54.631C159.773 54.2783 159.95 53.849 160.18 53.343C160.41 52.837 160.67 52.3157 160.962 51.779C161.084 51.6563 161.207 51.4953 161.33 51.296C161.452 51.0967 161.544 50.9663 161.606 50.905C161.606 50.8437 161.629 50.79 161.675 50.744C161.721 50.6827 161.774 50.652 161.836 50.652L161.974 50.353C161.989 50.2917 162.073 50.169 162.227 49.985C162.38 49.801 162.572 49.6017 162.802 49.387C163.032 49.157 163.262 48.9423 163.492 48.743C163.722 48.5437 163.913 48.398 164.067 48.306C164.389 48.0913 164.718 47.984 165.056 47.984C165.408 47.9687 165.707 48.0607 165.953 48.26C165.999 48.306 166.091 48.398 166.229 48.536C166.382 48.6587 166.551 48.7967 166.735 48.95C166.919 49.1033 167.087 49.249 167.241 49.387L168.092 50.146L167.701 51.296C167.501 51.9093 167.448 52.446 167.54 52.906C167.647 53.366 167.793 53.7647 167.977 54.102C168.053 54.2707 168.176 54.4163 168.345 54.539C168.513 54.6463 168.705 54.7153 168.92 54.746C169.042 54.7613 169.157 54.8073 169.265 54.884C169.372 54.9607 169.426 55.0833 169.426 55.252C169.426 55.5433 169.372 55.758 169.265 55.896C169.157 56.034 169.027 56.1183 168.874 56.149C168.368 56.2103 167.885 56.1337 167.425 55.919C166.98 55.7043 166.574 55.2443 166.206 54.539C166.144 54.447 166.06 54.2783 165.953 54.033C165.861 53.7723 165.807 53.6037 165.792 53.527C165.73 53.6037 165.638 53.7187 165.516 53.872C165.393 54.01 165.286 54.125 165.194 54.217C164.105 55.321 163.17 56.0493 162.388 56.402C161.606 56.7393 160.954 56.7393 160.433 56.402ZM161.56 54.7C161.636 54.746 161.805 54.7077 162.066 54.585C162.326 54.4623 162.648 54.2477 163.032 53.941C163.553 53.4963 164.013 53.09 164.412 52.722C164.81 52.3387 165.171 51.917 165.493 51.457L165.999 50.629C165.845 50.2763 165.7 50.0463 165.562 49.939C165.424 49.8163 165.293 49.755 165.171 49.755C164.971 49.755 164.711 49.9007 164.389 50.192C164.082 50.4833 163.737 50.8973 163.354 51.434C162.986 51.9553 162.587 52.5763 162.158 53.297C161.974 53.619 161.828 53.9333 161.721 54.24C161.613 54.5467 161.56 54.7 161.56 54.7ZM171.918 56.448C171.872 56.4633 171.78 56.4557 171.642 56.425C171.504 56.3943 171.366 56.356 171.228 56.31C171.105 56.264 171.029 56.2257 170.998 56.195C170.937 56.1337 170.86 56.0263 170.768 55.873C170.676 55.7197 170.638 55.5127 170.653 55.252C170.668 54.9913 170.806 54.6693 171.067 54.286C171.144 54.1327 171.236 53.9027 171.343 53.596C171.45 53.2893 171.558 52.9673 171.665 52.63C171.788 52.2773 171.895 51.963 171.987 51.687C172.094 51.411 172.171 51.2193 172.217 51.112C172.248 50.8513 172.232 50.6673 172.171 50.56C172.125 50.4373 171.995 50.3683 171.78 50.353C171.627 50.353 171.504 50.3147 171.412 50.238C171.335 50.146 171.297 49.962 171.297 49.686C171.328 49.4713 171.381 49.3027 171.458 49.18C171.55 49.042 171.673 48.9193 171.826 48.812C171.979 48.7353 172.156 48.6817 172.355 48.651C172.57 48.6203 172.777 48.6127 172.976 48.628C173.191 48.6433 173.344 48.697 173.436 48.789C173.543 48.8503 173.62 48.9883 173.666 49.203C173.727 49.4023 173.773 49.6093 173.804 49.824C173.85 50.0387 173.881 50.1997 173.896 50.307C174.049 50.1843 174.233 50.0157 174.448 49.801C174.663 49.571 174.87 49.3563 175.069 49.157C175.314 48.9883 175.606 48.8197 175.943 48.651C176.28 48.467 176.526 48.375 176.679 48.375C176.848 48.375 177.039 48.444 177.254 48.582C177.484 48.7047 177.63 48.8273 177.691 48.95C177.844 49.2107 177.936 49.4713 177.967 49.732C178.013 49.9927 177.952 50.2303 177.783 50.445C177.63 50.6443 177.423 50.8207 177.162 50.974C176.917 51.1273 176.641 51.1733 176.334 51.112C176.242 51.0967 176.142 51.0047 176.035 50.836C175.928 50.652 175.866 50.514 175.851 50.422C175.851 50.376 175.774 50.422 175.621 50.56C175.468 50.6827 175.291 50.836 175.092 51.02C174.908 51.204 174.739 51.3727 174.586 51.526C174.325 51.848 174.049 52.285 173.758 52.837C173.467 53.389 173.122 54.056 172.723 54.838C172.539 55.2213 172.393 55.574 172.286 55.896C172.179 56.218 172.056 56.402 171.918 56.448ZM180.781 57.299C179.999 57.299 179.386 57.0537 178.941 56.563C178.496 56.057 178.274 55.3363 178.274 54.401C178.289 53.849 178.397 53.251 178.596 52.607C178.795 51.9477 179.064 51.3113 179.401 50.698C179.738 50.0847 180.106 49.548 180.505 49.088C180.919 48.628 181.333 48.306 181.747 48.122C181.9 48.0453 182.061 47.9917 182.23 47.961C182.414 47.915 182.59 47.892 182.759 47.892C182.943 47.892 183.135 47.9073 183.334 47.938C183.549 47.9687 183.748 48.0223 183.932 48.099C184.254 48.2063 184.522 48.3903 184.737 48.651C184.967 48.8963 185.097 49.2643 185.128 49.755C185.143 49.9543 185.143 50.1383 185.128 50.307C185.113 50.4603 185.067 50.6367 184.99 50.836C184.791 51.3573 184.507 51.8403 184.139 52.285C183.771 52.7143 183.357 53.0363 182.897 53.251C182.774 53.3123 182.644 53.3583 182.506 53.389C182.383 53.4197 182.253 53.435 182.115 53.435C181.793 53.435 181.502 53.389 181.241 53.297C180.98 53.1897 180.75 53.044 180.551 52.86L180.367 52.699L180.275 52.906C180.152 53.2433 180.06 53.5423 179.999 53.803C179.953 54.0483 179.93 54.2477 179.93 54.401C179.93 54.585 179.938 54.769 179.953 54.953C179.984 55.137 180.037 55.2903 180.114 55.413C180.175 55.4897 180.26 55.551 180.367 55.597C180.49 55.643 180.628 55.666 180.781 55.666C180.888 55.666 180.988 55.666 181.08 55.666C181.172 55.6507 181.256 55.6277 181.333 55.597C181.609 55.5357 181.831 55.436 182 55.298C182.169 55.16 182.345 55.0373 182.529 54.93L182.621 54.884L182.598 54.838C182.843 54.7153 183.02 54.631 183.127 54.585C183.234 54.5237 183.303 54.4777 183.334 54.447C183.395 54.4163 183.464 54.3857 183.541 54.355C183.725 54.309 183.917 54.355 184.116 54.493C184.315 54.631 184.415 54.7997 184.415 54.999C184.415 55.0757 184.346 55.2137 184.208 55.413C184.085 55.597 183.932 55.7733 183.748 55.942C183.579 56.1107 183.411 56.2333 183.242 56.31C183.211 56.3253 183.165 56.3483 183.104 56.379C183.043 56.4097 182.989 56.4403 182.943 56.471H182.966C182.828 56.655 182.69 56.747 182.552 56.747H182.368C182.307 56.8543 182.107 56.9693 181.77 57.092C181.433 57.23 181.103 57.299 180.781 57.299ZM181.931 51.917C182.115 51.917 182.276 51.8787 182.414 51.802C182.567 51.71 182.705 51.6103 182.828 51.503C183.181 51.1963 183.395 50.8437 183.472 50.445C183.564 50.031 183.526 49.7243 183.357 49.525C183.311 49.479 183.257 49.4483 183.196 49.433C183.15 49.4177 183.073 49.4177 182.966 49.433C182.797 49.4483 182.606 49.525 182.391 49.663C182.176 49.801 181.962 49.9773 181.747 50.192C181.532 50.4067 181.348 50.629 181.195 50.859L180.896 51.342C180.957 51.3267 181.011 51.319 181.057 51.319C181.118 51.3037 181.157 51.296 181.172 51.296C181.264 51.342 181.333 51.4187 181.379 51.526C181.425 51.618 181.486 51.71 181.563 51.802C181.64 51.8787 181.762 51.917 181.931 51.917ZM191.804 57.529C191.604 57.4523 191.451 57.3297 191.344 57.161C191.236 57.0077 191.167 56.7777 191.137 56.471C191.137 56.2717 191.152 55.9957 191.183 55.643C191.229 55.275 191.29 54.8917 191.367 54.493C191.367 54.4623 191.367 54.4317 191.367 54.401C191.382 54.355 191.39 54.3243 191.39 54.309C191.405 54.2477 191.42 54.1557 191.436 54.033C191.451 53.895 191.466 53.7877 191.482 53.711C191.512 53.6343 191.528 53.6343 191.528 53.711L191.666 53.09C191.742 52.814 191.819 52.538 191.896 52.262C191.972 51.9707 192.041 51.7177 192.103 51.503C192.164 51.273 192.202 51.1427 192.218 51.112C192.218 51.112 192.248 51.0277 192.31 50.859C192.371 50.675 192.432 50.4987 192.494 50.33C192.739 49.5787 192.969 48.95 193.184 48.444C193.398 47.938 193.598 47.57 193.782 47.34C193.797 47.294 193.82 47.2403 193.851 47.179C193.881 47.1023 193.904 47.041 193.92 46.995C193.92 46.8417 193.927 46.7343 193.943 46.673C193.973 46.5963 194.012 46.5197 194.058 46.443C194.088 46.3817 194.134 46.305 194.196 46.213C194.257 46.1057 194.326 45.9753 194.403 45.822L194.495 45.569C194.587 45.3697 194.702 45.1397 194.84 44.879C194.978 44.6183 195.077 44.4267 195.139 44.304C195.185 44.166 195.277 44.005 195.415 43.821C195.553 43.6217 195.683 43.4913 195.806 43.43L195.783 43.407C195.859 43.269 195.99 43.1693 196.174 43.108C196.358 43.0467 196.519 43.016 196.657 43.016C196.871 43.016 197.017 43.0697 197.094 43.177C197.186 43.269 197.232 43.4223 197.232 43.637C197.232 43.867 197.224 44.0357 197.209 44.143C197.209 44.235 197.155 44.3423 197.048 44.465H197.071C197.101 44.4343 197.094 44.4803 197.048 44.603C197.002 44.7103 196.963 44.787 196.933 44.833C196.902 44.9097 196.864 44.994 196.818 45.086C196.787 45.178 196.749 45.247 196.703 45.293C196.657 45.3543 196.534 45.5613 196.335 45.914C196.151 46.2667 195.936 46.6807 195.691 47.156C195.461 47.6313 195.238 48.0913 195.024 48.536C194.809 48.9807 194.656 49.3257 194.564 49.571L194.449 49.916C194.418 49.9773 194.403 50.0233 194.403 50.054C194.372 50.1613 194.334 50.2687 194.288 50.376C194.242 50.4833 194.196 50.5753 194.15 50.652L193.759 52.055L193.667 52.538L193.46 53.044L193.322 53.481C193.291 53.573 193.268 53.6727 193.253 53.78C193.237 53.872 193.207 53.941 193.161 53.987C193.161 54.0023 193.153 54.0253 193.138 54.056C193.138 54.0713 193.138 54.0867 193.138 54.102C193.076 54.3473 192.984 54.6923 192.862 55.137C192.739 55.5817 192.662 56.0647 192.632 56.586C192.632 56.6013 192.624 56.6167 192.609 56.632C192.609 56.6473 192.609 56.6627 192.609 56.678C192.563 57 192.471 57.2377 192.333 57.391C192.21 57.5443 192.034 57.5903 191.804 57.529ZM197.986 57.092C197.787 57.1073 197.626 57.0843 197.503 57.023C197.381 56.977 197.227 56.9003 197.043 56.793C196.706 56.5323 196.438 56.2333 196.238 55.896C196.039 55.5433 195.947 55.2367 195.962 54.976C195.993 54.838 195.993 54.7153 195.962 54.608C195.947 54.5007 195.939 54.447 195.939 54.447C195.847 54.3703 195.817 54.3243 195.847 54.309C195.878 54.2783 195.901 54.2323 195.916 54.171C196.039 54.1403 196.054 54.056 195.962 53.918C195.916 53.7953 195.939 53.5193 196.031 53.09C196.139 52.6453 196.277 52.2313 196.445 51.848C196.522 51.6793 196.629 51.457 196.767 51.181C196.921 50.905 197.089 50.629 197.273 50.353C197.457 50.0617 197.626 49.8317 197.779 49.663C198.117 49.2797 198.416 48.973 198.676 48.743C198.952 48.513 199.259 48.3367 199.596 48.214C199.903 48.0913 200.179 48.0377 200.424 48.053C200.685 48.053 200.938 48.1527 201.183 48.352C201.551 48.4593 201.866 48.6203 202.126 48.835C202.387 49.0497 202.571 49.3563 202.678 49.755C202.801 50.1997 202.839 50.7287 202.793 51.342C202.763 51.94 202.502 52.7143 202.011 53.665C201.72 54.263 201.429 54.7383 201.137 55.091C200.861 55.4283 200.524 55.7657 200.125 56.103C199.834 56.3483 199.489 56.5553 199.09 56.724C198.707 56.8927 198.339 57.0153 197.986 57.092ZM199.941 53.872C200.171 53.5347 200.355 53.2127 200.493 52.906C200.631 52.5993 200.754 52.193 200.861 51.687C200.892 51.5183 200.907 51.3113 200.907 51.066C200.907 50.8207 200.892 50.5907 200.861 50.376C200.831 50.1613 200.769 50.0463 200.677 50.031C200.478 49.9543 200.263 49.9543 200.033 50.031C199.819 50.0923 199.573 50.2763 199.297 50.583C199.052 50.8743 198.845 51.1657 198.676 51.457C198.508 51.733 198.354 52.0627 198.216 52.446C198.094 52.814 197.956 53.2587 197.802 53.78C197.68 54.3167 197.68 54.7383 197.802 55.045C197.94 55.3517 198.193 55.436 198.561 55.298C198.929 55.1447 199.389 54.6693 199.941 53.872ZM205.539 56.77C205.339 56.77 205.178 56.7317 205.056 56.655C204.948 56.5783 204.81 56.471 204.642 56.333C204.35 56.0263 204.128 55.712 203.975 55.39C203.821 55.0527 203.768 54.7537 203.814 54.493C203.86 54.3703 203.875 54.2553 203.86 54.148C203.86 54.0253 203.86 53.964 203.86 53.964C203.783 53.8873 203.76 53.8413 203.791 53.826C203.821 53.7953 203.852 53.7493 203.883 53.688C203.975 53.688 204.005 53.6037 203.975 53.435C203.944 53.3123 203.998 53.0517 204.136 52.653C204.274 52.239 204.458 51.848 204.688 51.48C204.78 51.3267 204.918 51.1273 205.102 50.882C205.286 50.6213 205.485 50.3683 205.7 50.123C205.93 49.8623 206.137 49.6553 206.321 49.502C206.704 49.18 207.049 48.927 207.356 48.743C207.678 48.559 208.007 48.4287 208.345 48.352C208.682 48.2753 208.989 48.237 209.265 48.237C209.556 48.237 209.817 48.3597 210.047 48.605C210.399 48.7583 210.652 48.9577 210.806 49.203C210.959 49.4483 211.059 49.778 211.105 50.192C211.151 50.652 211.105 51.204 210.967 51.848C210.844 52.492 210.476 53.251 209.863 54.125C209.479 54.677 209.111 55.0987 208.759 55.39C208.406 55.6813 208.007 55.9573 207.563 56.218C207.241 56.4327 206.911 56.5707 206.574 56.632C206.236 56.6933 205.891 56.7393 205.539 56.77ZM207.839 54.102C208.191 53.7647 208.452 53.4197 208.621 53.067C208.789 52.699 208.966 52.262 209.15 51.756C209.211 51.6487 209.249 51.48 209.265 51.25C209.295 51.02 209.295 50.7977 209.265 50.583C209.249 50.3683 209.196 50.2457 209.104 50.215C208.95 50.1077 208.782 50.0847 208.598 50.146C208.429 50.192 208.222 50.307 207.977 50.491C207.517 50.8743 207.095 51.3343 206.712 51.871C206.328 52.3923 206.029 53.021 205.815 53.757C205.707 54.2017 205.715 54.5467 205.838 54.792C205.976 55.022 206.213 55.091 206.551 54.999C206.903 54.907 207.333 54.608 207.839 54.102ZM212.769 57C212.647 56.954 212.493 56.839 212.309 56.655C212.125 56.471 211.964 56.264 211.826 56.034C211.704 55.7887 211.642 55.5817 211.642 55.413C211.719 55.2443 211.819 54.953 211.941 54.539C212.079 54.1097 212.233 53.619 212.401 53.067C212.524 52.8983 212.616 52.7067 212.677 52.492C212.754 52.262 212.823 52.055 212.884 51.871C213.007 51.6103 213.145 51.296 213.298 50.928C213.467 50.56 213.62 50.1843 213.758 49.801C213.912 49.4177 214.05 49.088 214.172 48.812C214.387 48.3673 214.563 47.9763 214.701 47.639C214.855 47.2863 215 46.9413 215.138 46.604C215.292 46.2667 215.453 45.891 215.621 45.477C215.836 45.017 216.035 44.557 216.219 44.097C216.419 43.637 216.587 43.223 216.725 42.855C216.879 42.487 216.971 42.2263 217.001 42.073C216.986 41.9503 217.001 41.866 217.047 41.82C217.109 41.7587 217.17 41.7203 217.231 41.705C217.308 41.659 217.408 41.6283 217.53 41.613C217.668 41.5977 217.768 41.59 217.829 41.59C217.983 41.6053 218.151 41.7433 218.335 42.004C218.519 42.2647 218.611 42.487 218.611 42.671C218.611 42.9163 218.489 43.3763 218.243 44.051C218.013 44.7103 217.676 45.4847 217.231 46.374C216.71 47.524 216.304 48.4287 216.012 49.088C215.721 49.7473 215.522 50.2227 215.414 50.514C215.322 50.8053 215.284 50.9893 215.299 51.066C215.299 51.066 215.376 51.0353 215.529 50.974C215.683 50.8973 215.882 50.7747 216.127 50.606C216.296 50.4987 216.488 50.3683 216.702 50.215C216.917 50.0617 217.124 49.916 217.323 49.778C217.523 49.64 217.684 49.5557 217.806 49.525C217.914 49.4483 218.044 49.364 218.197 49.272C218.366 49.1647 218.496 49.0727 218.588 48.996C218.88 48.812 219.102 48.7583 219.255 48.835C219.409 48.8963 219.554 49.019 219.692 49.203C219.861 49.4023 219.915 49.6017 219.853 49.801C219.792 49.985 219.547 50.238 219.117 50.56C218.78 50.79 218.404 51.0277 217.99 51.273C217.592 51.503 217.231 51.71 216.909 51.894C216.587 52.078 216.373 52.216 216.265 52.308C216.265 52.308 216.327 52.4153 216.449 52.63C216.587 52.8293 216.718 53.021 216.84 53.205C216.963 53.4503 217.109 53.734 217.277 54.056C217.461 54.378 217.584 54.6003 217.645 54.723C217.814 55.045 218.013 55.2673 218.243 55.39C218.473 55.5127 218.765 55.505 219.117 55.367C219.378 55.2903 219.585 55.2827 219.738 55.344C219.892 55.4053 220.014 55.5203 220.106 55.689C220.168 55.8117 220.191 55.9267 220.175 56.034C220.175 56.126 220.076 56.2563 219.876 56.425C219.493 56.7163 219.117 56.9387 218.749 57.092C218.381 57.2607 218.036 57.2453 217.714 57.046C217.423 56.8927 217.124 56.6627 216.817 56.356C216.511 56.034 216.135 55.5817 215.69 54.999C215.69 54.9377 215.652 54.8227 215.575 54.654C215.499 54.4853 215.437 54.3703 215.391 54.309C215.33 54.1863 215.261 54.0713 215.184 53.964C215.108 53.8413 215.069 53.78 215.069 53.78C215.039 53.642 214.993 53.527 214.931 53.435C214.87 53.343 214.793 53.274 214.701 53.228C214.579 53.228 214.471 53.297 214.379 53.435C214.303 53.5577 214.218 53.6957 214.126 53.849C214.034 54.079 213.935 54.332 213.827 54.608C213.735 54.8687 213.659 55.137 213.597 55.413C213.536 55.689 213.505 55.965 213.505 56.241C213.505 56.4403 213.444 56.6167 213.321 56.77C213.199 56.9233 213.015 57 212.769 57ZM222.248 56.747C221.926 56.7317 221.65 56.5477 221.42 56.195C221.19 55.827 221.044 55.4207 220.983 54.976C220.998 54.8533 221.013 54.677 221.029 54.447C221.059 54.217 221.09 53.9793 221.121 53.734C221.182 53.4427 221.266 53.0747 221.374 52.63C221.496 52.1853 221.611 51.733 221.719 51.273C221.841 50.813 221.949 50.422 222.041 50.1C222.133 49.7627 222.186 49.5633 222.202 49.502C222.294 49.318 222.47 49.272 222.731 49.364C223.007 49.456 223.244 49.64 223.444 49.916C223.536 50.0387 223.589 50.1843 223.605 50.353C223.635 50.5217 223.612 50.767 223.536 51.089C223.474 51.411 223.352 51.8863 223.168 52.515C222.999 53.1283 222.869 53.6267 222.777 54.01C222.7 54.378 222.669 54.769 222.685 55.183C222.623 55.827 222.562 56.2563 222.501 56.471C222.455 56.6703 222.37 56.7623 222.248 56.747ZM224.548 47.317C224.486 47.363 224.425 47.386 224.364 47.386C224.318 47.3707 224.233 47.3247 224.111 47.248C224.003 47.2327 223.865 47.1637 223.697 47.041C223.543 46.9183 223.405 46.788 223.283 46.65C223.175 46.4967 223.122 46.4047 223.122 46.374C223.106 46.2207 223.114 45.9907 223.145 45.684C223.191 45.3773 223.275 45.0937 223.398 44.833C223.52 44.5723 223.697 44.4343 223.927 44.419C223.988 44.419 224.095 44.442 224.249 44.488C224.402 44.534 224.594 44.603 224.824 44.695C224.946 44.925 225.061 45.2087 225.169 45.546C225.291 45.8833 225.322 46.213 225.261 46.535C225.199 46.857 224.962 47.1177 224.548 47.317ZM232.491 56.839C232.292 56.839 232.092 56.7623 231.893 56.609C231.694 56.4557 231.525 56.2487 231.387 55.988C231.264 55.7273 231.203 55.436 231.203 55.114C231.203 54.884 231.249 54.5237 231.341 54.033C231.433 53.5423 231.563 52.975 231.732 52.331C231.793 52.055 231.824 51.8863 231.824 51.825C231.824 51.7637 231.763 51.7483 231.64 51.779C231.579 51.7943 231.517 51.8173 231.456 51.848C231.395 51.8633 231.333 51.894 231.272 51.94C231.165 51.9707 231.011 52.0627 230.812 52.216C230.628 52.3693 230.421 52.538 230.191 52.722C230.099 52.7833 229.984 52.8753 229.846 52.998C229.708 53.1207 229.57 53.2433 229.432 53.366C229.294 53.4887 229.179 53.596 229.087 53.688C228.98 53.7647 228.811 53.9027 228.581 54.102C228.351 54.286 228.113 54.4777 227.868 54.677C227.623 54.861 227.4 55.0143 227.201 55.137C227.063 55.183 226.94 55.206 226.833 55.206C226.726 55.1907 226.664 55.1523 226.649 55.091C226.634 55.0297 226.572 54.9147 226.465 54.746C226.373 54.562 226.296 54.3243 226.235 54.033C226.174 53.7417 226.189 53.4273 226.281 53.09C226.296 52.9673 226.35 52.7527 226.442 52.446C226.534 52.124 226.649 51.756 226.787 51.342C226.94 50.9127 227.109 50.4833 227.293 50.054C227.339 49.9313 227.377 49.7857 227.408 49.617C227.439 49.433 227.469 49.2567 227.5 49.088C227.546 48.904 227.607 48.766 227.684 48.674C227.73 48.582 227.799 48.536 227.891 48.536C227.998 48.5207 228.098 48.5437 228.19 48.605C228.359 48.6817 228.489 48.7967 228.581 48.95C228.688 49.1033 228.75 49.3103 228.765 49.571C228.903 49.7703 228.972 50.0003 228.972 50.261C228.972 50.5063 228.941 50.744 228.88 50.974C228.819 51.1887 228.757 51.3727 228.696 51.526C228.635 51.664 228.604 51.7177 228.604 51.687C228.665 51.6717 228.765 51.6027 228.903 51.48C229.056 51.342 229.279 51.1887 229.57 51.02C229.907 50.7593 230.176 50.5677 230.375 50.445C230.59 50.307 230.751 50.2073 230.858 50.146C230.981 50.0693 231.08 50.0003 231.157 49.939C231.218 49.9083 231.28 49.8777 231.341 49.847C231.402 49.8163 231.441 49.7933 231.456 49.778C231.471 49.7627 231.487 49.755 231.502 49.755C231.517 49.7397 231.525 49.732 231.525 49.732C231.556 49.732 231.617 49.7167 231.709 49.686C231.816 49.64 231.916 49.6017 232.008 49.571C232.146 49.5403 232.299 49.5557 232.468 49.617C232.652 49.6783 232.813 49.7703 232.951 49.893C233.089 50.0003 233.158 50.123 233.158 50.261C233.158 50.307 233.173 50.353 233.204 50.399C233.25 50.4297 233.281 50.4603 233.296 50.491C233.388 50.5523 233.472 50.698 233.549 50.928C233.626 51.158 233.649 51.4493 233.618 51.802C233.618 52.0473 233.564 52.3847 233.457 52.814C233.365 53.228 233.265 53.642 233.158 54.056C233.035 54.5007 232.966 54.8687 232.951 55.16C232.951 55.436 232.966 55.6583 232.997 55.827C233.043 55.9803 233.081 56.1107 233.112 56.218C233.127 56.3407 233.081 56.4787 232.974 56.632C232.882 56.77 232.721 56.839 232.491 56.839ZM238.656 61.485C238.38 61.623 238.035 61.6537 237.621 61.577C237.222 61.5157 236.824 61.3853 236.425 61.186C236.042 60.9867 235.72 60.749 235.459 60.473C235.336 60.335 235.214 60.151 235.091 59.921C234.984 59.7063 234.907 59.4993 234.861 59.3C234.83 59.116 234.861 59.001 234.953 58.955C235.076 58.8783 235.214 58.84 235.367 58.84C235.536 58.84 235.681 58.863 235.804 58.909C235.942 58.955 236.011 59.0087 236.011 59.07C236.149 59.1927 236.31 59.3153 236.494 59.438C236.678 59.576 236.847 59.6757 237 59.737C237.245 59.829 237.452 59.852 237.621 59.806C237.79 59.7753 237.943 59.691 238.081 59.553C238.25 59.369 238.388 59.139 238.495 58.863C238.618 58.6023 238.725 58.2727 238.817 57.874L238.886 57.575C239.039 56.8697 239.193 56.1873 239.346 55.528C239.499 54.8533 239.63 54.355 239.737 54.033C239.752 53.9103 239.737 53.8337 239.691 53.803C239.66 53.7723 239.607 53.7953 239.53 53.872C239.453 53.9027 239.361 53.941 239.254 53.987C239.162 54.033 239.07 54.0867 238.978 54.148C238.779 54.24 238.595 54.3243 238.426 54.401C238.273 54.4623 238.135 54.5083 238.012 54.539C237.828 54.5697 237.69 54.585 237.598 54.585C237.506 54.5697 237.437 54.562 237.391 54.562C237.253 54.5927 237.046 54.562 236.77 54.47C236.509 54.3627 236.279 54.2247 236.08 54.056C235.942 53.9027 235.842 53.7647 235.781 53.642C235.72 53.504 235.681 53.3583 235.666 53.205C235.651 53.0517 235.643 52.883 235.643 52.699C235.643 52.4537 235.766 52.0627 236.011 51.526C236.256 50.974 236.601 50.4373 237.046 49.916C237.337 49.6247 237.713 49.3333 238.173 49.042C238.648 48.7353 239.131 48.4823 239.622 48.283C240.113 48.0837 240.511 47.984 240.818 47.984C240.91 47.984 241.01 47.9993 241.117 48.03C241.224 48.0453 241.332 48.0913 241.439 48.168C241.684 48.2447 241.907 48.3827 242.106 48.582C242.305 48.766 242.497 49.0343 242.681 49.387C242.804 49.6323 242.896 49.8853 242.957 50.146C243.034 50.4067 243.072 50.675 243.072 50.951C243.072 51.1963 243.034 51.411 242.957 51.595C242.88 51.7637 242.796 51.8787 242.704 51.94C242.673 51.9553 242.635 51.9707 242.589 51.986C242.558 51.986 242.512 51.9937 242.451 52.009C242.405 52.0243 242.344 52.0397 242.267 52.055C242.19 52.0857 242.114 52.1547 242.037 52.262C241.96 52.3693 241.891 52.5457 241.83 52.791C241.815 52.8677 241.792 52.952 241.761 53.044C241.746 53.1207 241.723 53.1973 241.692 53.274C241.692 53.3047 241.669 53.3507 241.623 53.412C241.592 53.458 241.577 53.5117 241.577 53.573C241.562 53.665 241.539 53.7417 241.508 53.803C241.477 53.849 241.447 53.9027 241.416 53.964C241.385 54.0407 241.362 54.1097 241.347 54.171C241.347 54.2323 241.347 54.2937 241.347 54.355L241.255 54.608C241.209 54.7613 241.163 54.8993 241.117 55.022C241.086 55.1447 241.071 55.2213 241.071 55.252L240.979 55.712C240.948 55.8653 240.91 56.011 240.864 56.149C240.833 56.287 240.803 56.4327 240.772 56.586C240.741 56.7393 240.703 56.931 240.657 57.161C240.32 58.495 239.982 59.4993 239.645 60.174C239.323 60.864 238.993 61.301 238.656 61.485ZM237.23 52.745C237.383 53.021 237.705 53.1207 238.196 53.044C238.702 52.9673 239.269 52.6683 239.898 52.147C240.189 51.917 240.442 51.6563 240.657 51.365C240.872 51.0583 241.025 50.744 241.117 50.422C241.194 50.1767 241.209 50.008 241.163 49.916C241.132 49.8087 241.017 49.7473 240.818 49.732C240.527 49.7167 240.205 49.778 239.852 49.916C239.515 50.054 239.162 50.238 238.794 50.468C238.625 50.698 238.48 50.8513 238.357 50.928C238.234 51.0047 238.142 51.0507 238.081 51.066C238.035 51.0813 238.027 51.0967 238.058 51.112C238.043 51.1733 238.02 51.227 237.989 51.273C237.958 51.319 237.92 51.3573 237.874 51.388C237.767 51.5413 237.652 51.7023 237.529 51.871C237.422 52.0243 237.337 52.1777 237.276 52.331C237.23 52.4843 237.215 52.6223 237.23 52.745ZM250.467 59.668C250.375 59.7293 250.199 59.6757 249.938 59.507C249.693 59.3383 249.463 59.1313 249.248 58.886C249.141 58.7633 249.072 58.633 249.041 58.495C249.01 58.357 249.018 58.0963 249.064 57.713C249.125 57.5443 249.156 57.3833 249.156 57.23C249.171 57.0767 249.179 56.9693 249.179 56.908C249.179 56.816 249.202 56.6013 249.248 56.264C249.309 55.9267 249.371 55.574 249.432 55.206C249.493 54.8227 249.547 54.5313 249.593 54.332C249.593 54.3167 249.601 54.2707 249.616 54.194C249.647 54.102 249.67 54.033 249.685 53.987C249.716 53.849 249.754 53.6803 249.8 53.481C249.846 53.2663 249.892 52.9903 249.938 52.653C250.061 52.2697 250.16 51.894 250.237 51.526C250.329 51.1427 250.375 50.882 250.375 50.744C250.375 50.468 250.482 50.2687 250.697 50.146C250.712 50.0693 250.758 49.9543 250.835 49.801C250.912 49.6323 250.981 49.4943 251.042 49.387C251.349 48.513 251.602 47.823 251.801 47.317C252 46.7957 252.207 46.3433 252.422 45.96C252.514 45.684 252.614 45.408 252.721 45.132C252.844 44.856 252.966 44.6413 253.089 44.488C253.196 44.2887 253.38 44.0357 253.641 43.729C253.917 43.407 254.208 43.1003 254.515 42.809C254.822 42.5177 255.067 42.2953 255.251 42.142C255.588 41.9733 255.887 41.843 256.148 41.751C256.409 41.659 256.7 41.613 257.022 41.613C257.313 41.613 257.551 41.6667 257.735 41.774C257.919 41.8813 258.187 42.1037 258.54 42.441C258.724 42.6403 258.816 42.8167 258.816 42.97C258.831 43.1233 258.816 43.2767 258.77 43.43C258.678 43.66 258.54 43.9513 258.356 44.304C258.172 44.6413 257.988 44.948 257.804 45.224C257.62 45.4847 257.482 45.6227 257.39 45.638C257.206 45.73 257.03 45.7453 256.861 45.684C256.708 45.6227 256.631 45.477 256.631 45.247C256.631 45.1397 256.623 45.04 256.608 44.948C256.608 44.856 256.608 44.81 256.608 44.81C256.639 44.6567 256.677 44.511 256.723 44.373C256.784 44.235 256.846 44.1123 256.907 44.005C257.014 43.821 257.037 43.6523 256.976 43.499C256.93 43.3457 256.769 43.292 256.493 43.338C256.447 43.3687 256.347 43.4453 256.194 43.568C256.041 43.6907 255.88 43.8363 255.711 44.005C255.542 44.1737 255.389 44.327 255.251 44.465C255.128 44.603 255.067 44.695 255.067 44.741C255.067 44.741 255.029 44.8177 254.952 44.971C254.875 45.1243 254.753 45.3007 254.584 45.5C254.477 45.6533 254.385 45.799 254.308 45.937C254.231 46.075 254.193 46.1747 254.193 46.236C254.193 46.2973 254.185 46.3587 254.17 46.42C254.155 46.466 254.116 46.489 254.055 46.489C254.055 46.489 254.024 46.5657 253.963 46.719C253.917 46.857 253.833 47.0333 253.71 47.248C253.649 47.4013 253.58 47.5547 253.503 47.708C253.426 47.846 253.357 47.9457 253.296 48.007V48.03C253.296 48.03 253.258 48.122 253.181 48.306C253.12 48.4747 253.051 48.6587 252.974 48.858C252.897 49.0573 252.859 49.1723 252.859 49.203C252.859 49.2643 252.959 49.295 253.158 49.295C253.357 49.295 253.587 49.272 253.848 49.226C254.124 49.1647 254.385 49.1033 254.63 49.042C254.845 48.9807 254.998 48.95 255.09 48.95C255.182 48.95 255.328 48.9807 255.527 49.042C255.65 49.1187 255.749 49.249 255.826 49.433C255.918 49.6017 255.979 49.7703 256.01 49.939C256.056 50.1077 256.056 50.2303 256.01 50.307C255.995 50.3683 255.826 50.4527 255.504 50.56C255.182 50.6673 254.86 50.7517 254.538 50.813C254.262 50.8743 253.94 50.9433 253.572 51.02C253.204 51.0967 252.882 51.1657 252.606 51.227C252.345 51.2883 252.207 51.3497 252.192 51.411C252.131 51.411 252.077 51.4493 252.031 51.526C252 51.6027 251.985 51.664 251.985 51.71C251.985 51.9247 251.947 52.0857 251.87 52.193C251.839 52.285 251.786 52.4767 251.709 52.768C251.648 53.044 251.579 53.3507 251.502 53.688C251.425 54.01 251.356 54.3167 251.295 54.608C251.249 54.884 251.226 55.068 251.226 55.16C251.134 55.2673 251.08 55.4053 251.065 55.574C251.05 55.7273 251.042 55.8653 251.042 55.988C250.981 56.1107 250.942 56.2257 250.927 56.333C250.912 56.425 250.904 56.5017 250.904 56.563C250.904 56.5783 250.904 56.609 250.904 56.655C250.904 56.701 250.896 56.747 250.881 56.793C250.866 56.9463 250.843 57.1457 250.812 57.391C250.797 57.6517 250.789 57.9047 250.789 58.15L250.72 58.817C250.705 59.0163 250.682 59.185 250.651 59.323C250.62 59.4763 250.559 59.5913 250.467 59.668ZM258.698 57.092C258.499 57.1073 258.338 57.0843 258.215 57.023C258.092 56.977 257.939 56.9003 257.755 56.793C257.418 56.5323 257.149 56.2333 256.95 55.896C256.751 55.5433 256.659 55.2367 256.674 54.976C256.705 54.838 256.705 54.7153 256.674 54.608C256.659 54.5007 256.651 54.447 256.651 54.447C256.559 54.3703 256.528 54.3243 256.559 54.309C256.59 54.2783 256.613 54.2323 256.628 54.171C256.751 54.1403 256.766 54.056 256.674 53.918C256.628 53.7953 256.651 53.5193 256.743 53.09C256.85 52.6453 256.988 52.2313 257.157 51.848C257.234 51.6793 257.341 51.457 257.479 51.181C257.632 50.905 257.801 50.629 257.985 50.353C258.169 50.0617 258.338 49.8317 258.491 49.663C258.828 49.2797 259.127 48.973 259.388 48.743C259.664 48.513 259.971 48.3367 260.308 48.214C260.615 48.0913 260.891 48.0377 261.136 48.053C261.397 48.053 261.65 48.1527 261.895 48.352C262.263 48.4593 262.577 48.6203 262.838 48.835C263.099 49.0497 263.283 49.3563 263.39 49.755C263.513 50.1997 263.551 50.7287 263.505 51.342C263.474 51.94 263.214 52.7143 262.723 53.665C262.432 54.263 262.14 54.7383 261.849 55.091C261.573 55.4283 261.236 55.7657 260.837 56.103C260.546 56.3483 260.201 56.5553 259.802 56.724C259.419 56.8927 259.051 57.0153 258.698 57.092ZM260.653 53.872C260.883 53.5347 261.067 53.2127 261.205 52.906C261.343 52.5993 261.466 52.193 261.573 51.687C261.604 51.5183 261.619 51.3113 261.619 51.066C261.619 50.8207 261.604 50.5907 261.573 50.376C261.542 50.1613 261.481 50.0463 261.389 50.031C261.19 49.9543 260.975 49.9543 260.745 50.031C260.53 50.0923 260.285 50.2763 260.009 50.583C259.764 50.8743 259.557 51.1657 259.388 51.457C259.219 51.733 259.066 52.0627 258.928 52.446C258.805 52.814 258.667 53.2587 258.514 53.78C258.391 54.3167 258.391 54.7383 258.514 55.045C258.652 55.3517 258.905 55.436 259.273 55.298C259.641 55.1447 260.101 54.6693 260.653 53.872ZM266.389 56.448C266.343 56.4633 266.251 56.4557 266.113 56.425C265.975 56.3943 265.837 56.356 265.699 56.31C265.576 56.264 265.499 56.2257 265.469 56.195C265.407 56.1337 265.331 56.0263 265.239 55.873C265.147 55.7197 265.108 55.5127 265.124 55.252C265.139 54.9913 265.277 54.6693 265.538 54.286C265.614 54.1327 265.706 53.9027 265.814 53.596C265.921 53.2893 266.028 52.9673 266.136 52.63C266.258 52.2773 266.366 51.963 266.458 51.687C266.565 51.411 266.642 51.2193 266.688 51.112C266.718 50.8513 266.703 50.6673 266.642 50.56C266.596 50.4373 266.465 50.3683 266.251 50.353C266.097 50.353 265.975 50.3147 265.883 50.238C265.806 50.146 265.768 49.962 265.768 49.686C265.798 49.4713 265.852 49.3027 265.929 49.18C266.021 49.042 266.143 48.9193 266.297 48.812C266.45 48.7353 266.626 48.6817 266.826 48.651C267.04 48.6203 267.247 48.6127 267.447 48.628C267.661 48.6433 267.815 48.697 267.907 48.789C268.014 48.8503 268.091 48.9883 268.137 49.203C268.198 49.4023 268.244 49.6093 268.275 49.824C268.321 50.0387 268.351 50.1997 268.367 50.307C268.52 50.1843 268.704 50.0157 268.919 49.801C269.133 49.571 269.34 49.3563 269.54 49.157C269.785 48.9883 270.076 48.8197 270.414 48.651C270.751 48.467 270.996 48.375 271.15 48.375C271.318 48.375 271.51 48.444 271.725 48.582C271.955 48.7047 272.1 48.8273 272.162 48.95C272.315 49.2107 272.407 49.4713 272.438 49.732C272.484 49.9927 272.422 50.2303 272.254 50.445C272.1 50.6443 271.893 50.8207 271.633 50.974C271.387 51.1273 271.111 51.1733 270.805 51.112C270.713 51.0967 270.613 51.0047 270.506 50.836C270.398 50.652 270.337 50.514 270.322 50.422C270.322 50.376 270.245 50.422 270.092 50.56C269.938 50.6827 269.762 50.836 269.563 51.02C269.379 51.204 269.21 51.3727 269.057 51.526C268.796 51.848 268.52 52.285 268.229 52.837C267.937 53.389 267.592 54.056 267.194 54.838C267.01 55.2213 266.864 55.574 266.757 55.896C266.649 56.218 266.527 56.402 266.389 56.448ZM276.379 52.722C276.133 52.6913 275.957 52.5917 275.85 52.423C275.742 52.239 275.689 52.055 275.689 51.871C275.689 51.8403 275.681 51.7637 275.666 51.641C275.65 51.503 275.658 51.3727 275.689 51.25C275.689 51.158 275.735 51.0123 275.827 50.813C275.919 50.6137 276.018 50.376 276.126 50.1C276.294 49.7933 276.555 49.4483 276.908 49.065C277.26 48.6817 277.559 48.398 277.805 48.214C277.943 48.1067 278.042 48.0377 278.104 48.007C278.165 47.961 278.196 47.938 278.196 47.938C278.196 47.8767 278.303 47.7617 278.518 47.593C278.732 47.409 278.916 47.2863 279.07 47.225C279.07 47.225 279.169 47.156 279.369 47.018C279.568 46.88 279.721 46.7573 279.829 46.65C280.181 46.2973 280.442 45.9753 280.611 45.684C280.779 45.3773 280.91 45.0323 281.002 44.649C281.094 44.2657 281.193 43.7903 281.301 43.223C281.316 42.6863 281.301 42.3413 281.255 42.188C281.209 42.0347 281.094 41.889 280.91 41.751C280.542 41.6437 280.158 41.6513 279.76 41.774C279.376 41.8813 279.008 42.0883 278.656 42.395C278.318 42.7017 278.035 43.1157 277.805 43.637C277.713 43.8977 277.659 44.074 277.644 44.166C277.644 44.258 277.667 44.3807 277.713 44.534C277.713 44.6567 277.728 44.7947 277.759 44.948C277.805 45.086 277.828 45.1933 277.828 45.27C277.766 45.2853 277.644 45.316 277.46 45.362C277.291 45.3927 277.107 45.408 276.908 45.408C276.708 45.3927 276.532 45.316 276.379 45.178C276.379 45.178 276.325 45.1167 276.218 44.994C276.126 44.856 276.064 44.7563 276.034 44.695C275.942 44.5723 275.896 44.4573 275.896 44.35C275.911 44.2273 275.919 44.051 275.919 43.821C276.026 43.5143 276.172 43.177 276.356 42.809C276.54 42.4257 276.777 42.0653 277.069 41.728C277.36 41.3753 277.697 41.0993 278.081 40.9C278.403 40.762 278.694 40.624 278.955 40.486C279.215 40.3327 279.346 40.256 279.346 40.256C279.346 40.256 279.399 40.256 279.507 40.256C279.629 40.2407 279.829 40.2177 280.105 40.187C280.197 40.2023 280.296 40.2023 280.404 40.187C280.526 40.1717 280.588 40.2023 280.588 40.279C280.634 40.279 280.726 40.279 280.864 40.279C281.002 40.279 281.132 40.279 281.255 40.279C281.439 40.325 281.646 40.417 281.876 40.555C282.121 40.6777 282.351 40.8157 282.566 40.969C282.78 41.1223 282.941 41.2603 283.049 41.383C283.156 41.7203 283.202 42.142 283.187 42.648C283.171 43.1387 283.095 43.66 282.957 44.212C282.819 44.764 282.635 45.293 282.405 45.799C282.19 46.2897 281.929 46.7037 281.623 47.041C281.531 47.133 281.362 47.2863 281.117 47.501C280.871 47.7157 280.611 47.9533 280.335 48.214C280.074 48.4593 279.859 48.674 279.691 48.858C279.169 49.1493 278.709 49.5863 278.311 50.169C277.912 50.7517 277.613 51.319 277.414 51.871C277.245 52.239 277.084 52.4767 276.931 52.584C276.777 52.676 276.593 52.722 276.379 52.722ZM275.804 56.839C275.497 56.9463 275.236 57 275.022 57C274.822 56.9847 274.6 56.885 274.355 56.701C274.048 56.4097 273.948 56.1107 274.056 55.804C274.163 55.4973 274.424 55.1983 274.838 54.907C275.129 54.723 275.344 54.631 275.482 54.631C275.635 54.6157 275.857 54.6693 276.149 54.792C276.639 55.0987 276.854 55.4437 276.793 55.827C276.747 56.195 276.417 56.5323 275.804 56.839Z" fill="#0C2544"/>
<path d="M320.972 44.4987C323.1 39.3262 321.817 34.0155 318.052 29.1627C310.172 19.0029 293.292 10.9964 275.152 6.51359C256.433 1.88893 235.158 0.870606 215.222 3.56997C210.391 4.22371 205.666 5.09656 201.088 6.16158C199.792 6.4633 199.874 7.50677 201.463 7.1368C219.774 2.87313 240.575 2.03081 259.813 4.85769C279.275 7.71869 297.301 14.2776 309.005 23.2863C314.3 27.3614 318.272 32.0291 319.377 37.0256C320.545 42.3201 318.059 47.6704 313.175 52.2501C303.102 61.6988 284.794 66.9449 266.016 69.6891C245.935 72.622 224.717 73.4607 204.031 72.5286C193.514 72.0544 183.053 71.099 172.838 69.6532C162.772 68.2272 152.879 66.2732 143.865 63.4104C127.843 58.3188 114.866 49.9315 112.679 39.6028C111.633 34.6549 113.583 29.6764 118.293 25.4055C123.15 20.9982 130.339 17.514 138.153 14.7105C146.246 11.8064 155.139 9.5937 164.179 7.72947C173.305 5.84728 182.717 4.38714 192.274 3.32033C211.477 1.17592 231.245 0.638924 250.766 1.51716C255.607 1.73447 260.432 2.04338 265.236 2.43491C266.295 2.52112 267.969 1.4561 266.604 1.34475C246.465 -0.293192 225.96 -0.470995 205.768 1.01069C185.789 2.47622 165.899 5.55812 147.887 10.551C131.234 15.163 114.557 22.3578 110.778 32.9092C107.233 42.8068 116.168 52.9488 129.517 59.4628C145.628 67.3274 167.583 70.8493 188.499 72.6812C210.079 74.5706 232.225 74.4323 253.713 72.2502C273.093 70.2818 293.108 66.5084 306.93 58.475C313.665 54.5598 318.805 49.7627 320.972 44.4969V44.4987Z" fill="#F89A20"/>
<path d="M124.869 57.1519C121.596 48.4019 117.873 39.7405 112.195 32.2475C106.966 25.347 100.046 19.4698 91.7528 16.7059C84.6258 14.3294 76.4408 14.0986 69.5706 17.4066C62.0903 21.0086 58.0979 28.4731 57.1207 36.4962C56.6077 40.7075 56.8094 44.9957 57.4469 49.1822C57.7051 50.8871 58.0484 52.5848 58.4875 54.2559C56.012 55.6241 53.5708 57.0623 51.1162 58.4485C41.5536 63.8565 32.0092 69.2979 22.4625 74.7344C21.501 75.2826 20.5395 75.8308 19.5788 76.3766C20.3208 74.9908 21.0345 73.5926 21.7789 72.2077C23.6185 68.786 25.4057 65.3274 26.9565 61.7641C27.0689 61.5033 26.6049 60.3673 26.3885 60.6627C24.2551 63.5818 22.3754 66.6899 20.5377 69.8017C19.6159 71.3641 18.6531 72.8961 17.7443 74.4642C16.8059 76.0832 15.9453 77.7914 14.8924 79.337C14.4936 79.9234 15.2864 82.3726 16.0941 82.3719C17.7824 82.3712 19.5113 81.9833 21.1985 81.8317C22.9489 81.6735 24.7054 81.5649 26.4623 81.5024C28.2669 81.4389 30.0727 81.4353 31.8796 81.4877C32.7584 81.5129 33.6354 81.551 34.5131 81.6029C35.2686 81.6479 36.1893 81.9735 36.5714 81.1672C36.8412 80.5974 36.3985 79.5296 35.9791 79.1247C35.2095 78.3821 34.6056 78.3338 33.5619 78.2721C32.6842 78.2202 31.8071 78.1821 30.9284 78.157C29.1668 78.1066 27.4023 78.1122 25.6399 78.1632C25.0775 78.1794 24.5159 78.2053 23.9551 78.2329C31.1286 74.1469 38.302 70.061 45.4755 65.975C49.9265 63.4404 54.3623 60.8789 58.8044 58.3304C59.0756 58.1758 59.3459 58.0196 59.6146 57.8642C60.3149 59.7691 61.1714 61.6139 62.2231 63.3634C66.3571 70.2496 74.4521 76.2555 82.7933 75.7661C89.8457 75.3527 96.7613 69.3437 96.166 61.8844C95.8395 57.7904 93.1034 54.572 89.9402 52.2042C86.5397 49.6595 82.4608 47.979 78.1921 47.8083C73.5575 47.6225 68.9673 49.1208 64.8021 51.0233C63.2519 51.7318 61.7295 52.5014 60.223 53.3036C59.4628 49.6998 59.0812 45.988 59.131 42.3178C59.2339 34.7659 61.4364 26.8834 67.3956 21.8621C72.8365 17.2776 80.2752 15.9469 87.1949 16.8258C90.8274 17.2869 94.3932 18.354 97.6745 19.9858C101.243 21.7601 104.313 24.3589 107.02 27.2647C113.141 33.8386 117.277 41.994 120.946 50.1122C121.882 52.1809 122.777 54.267 123.656 56.3594C123.765 56.6192 124.113 56.8328 124.342 56.9771C124.394 57.0084 124.916 57.2886 124.864 57.1462L124.869 57.1519ZM70.9472 52.0947C74.8863 50.5792 79.2202 49.6622 83.4364 50.3733C86.7675 50.9351 89.8171 52.2946 91.6695 55.2176C95.5733 61.3764 91.9575 69.1375 86.0603 72.4368C79.695 75.999 71.2797 73.2744 66.7901 67.971C64.1054 64.8002 62.3242 60.9582 61.1509 56.9869C64.3237 55.1733 67.5325 53.4087 70.9472 52.0947Z" fill="#F89A20"/>
</svg>
