<svg width="62" height="62" viewBox="0 0 83 83" fill="none" xmlns="http://www.w3.org/2000/svg">
<circle cx="41.2779" cy="41.6197" r="40.7701" fill="#DBEFFB"/>
<g clip-path="url(#clip0_3022_10)">
<path d="M49.7285 51.4232C48.5675 51.4232 47.623 50.6057 47.623 49.6009C47.623 48.5961 48.5675 47.7786 49.7285 47.7786C50.8895 47.7786 51.834 48.5961 51.834 49.6009C51.834 50.1294 52.2625 50.558 52.791 50.558C53.3195 50.558 53.748 50.1294 53.748 49.6009C53.748 47.8472 52.4413 46.3726 50.6855 45.9724V45.4746C50.6855 44.9461 50.257 44.5176 49.7285 44.5176C49.2 44.5176 48.7715 44.9461 48.7715 45.4746V45.9724C47.0157 46.3726 45.709 47.8472 45.709 49.6009C45.709 51.6611 47.5121 53.3373 49.7285 53.3373C50.8895 53.3373 51.834 54.1548 51.834 55.1596C51.834 56.1645 50.8895 56.982 49.7285 56.982C48.5675 56.982 47.623 56.1645 47.623 55.1596C47.623 54.6312 47.1945 54.2026 46.666 54.2026C46.1375 54.2026 45.709 54.6312 45.709 55.1596C45.709 56.9134 47.0157 58.388 48.7715 58.7882V59.2017C48.7715 59.7301 49.2 60.1587 49.7285 60.1587C50.257 60.1587 50.6855 59.7301 50.6855 59.2017V58.7882C52.4413 58.388 53.748 56.9134 53.748 55.1596C53.748 53.0994 51.9449 51.4232 49.7285 51.4232Z" fill="#51657D"/>
<path d="M60.2096 45.7304C58.9595 43.7824 57.1981 42.2236 55.1161 41.2227C54.6396 40.9936 54.0678 41.1942 53.8389 41.6706C53.6098 42.147 53.8103 42.7187 54.2868 42.9477C57.9149 44.6918 60.2592 48.4184 60.2592 52.4416C60.2592 54.1631 59.8348 55.8703 59.0322 57.379C58.7839 57.8455 58.9609 58.4251 59.4275 58.6734C59.5707 58.7495 59.7246 58.7857 59.8762 58.7857C60.2186 58.7857 60.5498 58.6014 60.7219 58.278C61.6714 56.4937 62.1733 54.4755 62.1733 52.4416C62.1733 50.0528 61.4942 47.7321 60.2096 45.7304Z" fill="#51657D"/>
<path d="M51.2324 40.0011L51.168 40.001C50.6395 40.001 50.2109 40.4294 50.2109 40.958C50.2109 41.4866 50.6395 41.915 51.168 41.915L51.2234 41.9151C51.2249 41.9151 51.2263 41.9151 51.228 41.9151C51.7544 41.9151 52.1824 41.4896 52.1849 40.9626C52.1873 40.434 51.7608 40.0036 51.2324 40.0011Z" fill="#51657D"/>
<path d="M45.1755 61.9366C41.5474 60.1924 39.2031 56.4658 39.2031 52.4428C39.2031 50.7213 39.6275 49.014 40.4301 47.5054C40.6784 47.0388 40.5014 46.4592 40.0348 46.211C39.5683 45.9627 38.9886 46.1397 38.7404 46.6063C37.7909 48.3907 37.2891 50.4089 37.2891 52.4428C37.2891 54.8315 37.9681 57.1521 39.2527 59.1539C40.5029 61.102 42.2642 62.6608 44.3462 63.6617C44.4799 63.726 44.6212 63.7564 44.7602 63.7564C45.1166 63.7564 45.4586 63.5565 45.6235 63.2138C45.8523 62.7374 45.6519 62.1656 45.1755 61.9366Z" fill="#51657D"/>
<path d="M48.2922 62.9709L48.2367 62.9707C47.7058 62.9697 47.2778 63.3946 47.2754 63.9232C47.2729 64.4518 47.6996 64.8823 48.228 64.8848L48.2922 64.885C48.8206 64.885 49.2492 64.4564 49.2492 63.9279C49.2492 63.3995 48.8206 62.9709 48.2922 62.9709Z" fill="#51657D"/>
<path d="M54.0762 36.7641C53.9597 36.4866 53.817 36.225 53.651 35.9824H56.1425C58.5699 35.9824 60.5448 34.0075 60.5448 31.5801C60.5448 29.1526 58.5699 27.1777 56.1425 27.1777H48.4786C48.9658 26.4693 49.2519 25.6123 49.2519 24.6894C49.2519 22.262 47.277 20.2871 44.8496 20.2871H21.4023C18.9749 20.2871 17 22.262 17 24.6894C17 27.1169 18.9749 29.0918 21.4023 29.0918H29.0662C28.579 29.8002 28.2929 30.6572 28.2929 31.5801C28.2929 32.5029 28.5789 33.3599 29.0662 34.0683H26.5703C24.1429 34.0683 22.168 36.0433 22.168 38.4707C22.168 39.8648 22.8201 41.1088 23.8346 41.916C22.8201 42.7231 22.168 43.9672 22.168 45.3613C22.168 46.7554 22.8201 47.9994 23.8346 48.8066C22.8201 49.6137 22.168 50.8578 22.168 52.2519C22.168 53.646 22.8201 54.89 23.8346 55.6972C22.8201 56.5044 22.168 57.7484 22.168 59.1425C22.168 61.5699 24.1429 63.5448 26.5703 63.5448H37.8489C40.8201 66.7228 45.0469 68.7129 49.7305 68.7129C58.7015 68.7129 66 61.4144 66 52.4434C66 44.9769 60.944 38.67 54.0762 36.7641ZM56.1425 29.0918C57.5146 29.0918 58.6308 30.2081 58.6308 31.5801C58.6308 32.9521 57.5146 34.0683 56.1425 34.0683H50.0175H32.6953C31.3232 34.0683 30.207 32.9521 30.207 31.5801C30.207 30.2081 31.3232 29.0918 32.6953 29.0918H56.1425ZM21.4023 27.1777C20.0302 27.1777 18.9141 26.0614 18.9141 24.6894C18.9141 23.3174 20.0302 22.2012 21.4023 22.2012H44.8496C46.2217 22.2012 47.3378 23.3174 47.3378 24.6894C47.3378 26.0614 46.2217 27.1777 44.8496 27.1777H21.4023ZM26.5703 35.9824H50.0175C50.403 35.9824 50.7721 36.072 51.1033 36.2324C50.6506 36.1944 50.1929 36.1739 49.7305 36.1739C45.2377 36.1739 41.1646 38.0046 38.2175 40.9589H26.5703C25.1983 40.9589 24.082 39.8427 24.082 38.4707C24.082 37.0987 25.1983 35.9824 26.5703 35.9824ZM26.5703 42.873H36.5823C35.4958 44.3615 34.6559 46.0403 34.1224 47.8496H26.5703C25.1982 47.8496 24.082 46.7334 24.082 45.3613C24.082 43.9893 25.1982 42.873 26.5703 42.873ZM26.5703 49.7636H33.6829C33.5378 50.6358 33.461 51.5307 33.461 52.4434C33.461 53.223 33.5174 53.9896 33.6239 54.7402H26.5703C25.1982 54.7402 24.082 53.624 24.082 52.2519C24.082 50.8798 25.1982 49.7636 26.5703 49.7636ZM26.5703 61.6308C25.1982 61.6308 24.082 60.5146 24.082 59.1425C24.082 57.7704 25.1982 56.6542 26.5703 56.6542H34.0146C34.4976 58.4547 35.282 60.1326 36.3108 61.6308H26.5703ZM49.7305 66.7988C41.8149 66.7988 35.3751 60.359 35.3751 52.4434C35.3751 44.5278 41.8149 38.088 49.7305 38.088C57.6461 38.088 64.0859 44.5278 64.0859 52.4434C64.0859 60.359 57.6461 66.7988 49.7305 66.7988Z" fill="#51657D"/>
</g>
<defs>
<clipPath id="clip0_3022_10">
<rect width="49" height="49" fill="white" transform="translate(17 20)"/>
</clipPath>
</defs>
</svg>
