<svg width="131" height="135" viewBox="0 0 131 135" fill="none" xmlns="http://www.w3.org/2000/svg">
<path d="M68.43 93.3883L68.4088 93.1046L68.2048 92.9064L64.7745 89.572L73.1736 80.7745L76.5912 84.0991L77.0661 84.5612L77.5832 84.1468L89.3061 74.7515L89.5871 74.5264V74.1663V69.3643H101.683V74.1663V74.5323L101.972 74.7575L114.007 84.1527L114.523 84.5553L114.992 84.0991L118.409 80.7746L126.805 89.5721L123.378 92.9066L123.174 93.1048L123.153 93.3883L121.956 109.406L121.924 109.837L122.281 110.081L126.218 112.776L119.424 122.891L115.495 120.2L115.114 119.939L114.71 120.162L101.76 127.284L101.371 127.497V127.941V132.743H89.2779V127.941V127.513L88.9102 127.296L76.8905 120.174L76.4789 119.93L76.0843 120.2L72.158 122.891L65.362 112.776L69.3019 110.081L69.6585 109.837L69.6264 109.406L68.43 93.3883Z" fill="#DBEFFB" stroke="#0C2544" stroke-width="1.5"/>
<path d="M92.8809 70.8452L90.0806 73.0902V69.3643H92.8809V70.8452Z" fill="white" stroke="#0C2544" stroke-width="1.5"/>
<path d="M65.2666 89.5719L67.7649 86.9543L67.9884 87.1715L71.7477 90.8257L72.8908 106.129L70.0187 108.093L68.9221 93.3884L68.901 93.1047L68.697 92.9064L65.2666 89.5719Z" fill="white" stroke="#0C2544" stroke-width="1.5"/>
<mask id="path-4-inside-1_1433_61" fill="white">
<path d="M119.261 80.6036L119.527 80.3445L118.921 79.7091L118.562 80.0577L119.261 80.6036Z"/>
</mask>
<path d="M119.261 80.6036L119.527 80.3445L118.921 79.7091L118.562 80.0577L119.261 80.6036Z" fill="white"/>
<path d="M119.261 80.6036L118.338 81.7855L119.37 82.5921L120.308 81.6779L119.261 80.6036ZM119.527 80.3445L120.574 81.4188L121.637 80.3832L120.613 79.3093L119.527 80.3445ZM118.921 79.7091L120.007 78.6739L118.962 77.578L117.876 78.6335L118.921 79.7091ZM118.562 80.0577L117.517 78.982L116.284 80.1807L117.639 81.2396L118.562 80.0577ZM120.308 81.6779L120.574 81.4188L118.48 79.2702L118.214 79.5293L120.308 81.6779ZM120.613 79.3093L120.007 78.6739L117.836 80.7443L118.442 81.3797L120.613 79.3093ZM117.876 78.6335L117.517 78.982L119.608 81.1333L119.967 80.7848L117.876 78.6335ZM117.639 81.2396L118.338 81.7855L120.185 79.4216L119.486 78.8757L117.639 81.2396Z" fill="#0C2544" mask="url(#path-4-inside-1_1433_61)"/>
<path d="M121.798 120.092L119.917 122.89L116.512 120.559L119.821 118.74L121.798 120.092Z" fill="white" stroke="#0C2544" stroke-width="1.5"/>
<path d="M92.566 130.531V131.281H93.316H101.859V132.742H89.7657V127.94V127.513L89.398 127.295L78.3793 120.766L81.3255 118.749L92.566 125.407V130.531ZM68.9185 110.674L75.7151 120.787L72.6458 122.89L65.8497 112.775L68.9185 110.674Z" fill="white" stroke="#0C2544" stroke-width="1.5"/>
<path d="M68.7704 93.2218L64.7422 89.3477L74.3382 79.4096L78.3695 83.2837L90.2964 73.8329V68.25H104.128V73.8329L116.373 83.2837L120.404 79.4096L130 89.3477L125.972 93.2218L124.754 109.326L129.385 112.46L121.619 123.881L116.988 120.748L103.812 127.91V133.493H89.9811V127.91L77.7512 120.748L73.1201 123.881L65.3574 112.46L69.9884 109.326L68.7704 93.2218Z" stroke="#0C2544" stroke-width="1.5" stroke-linecap="round" stroke-linejoin="round"/>
<path d="M110.42 95.2711C113.52 102.738 109.966 111.3 102.48 114.394C94.9935 117.488 86.4128 113.94 83.313 106.474C80.2132 99.0069 83.7665 90.4448 91.2528 87.3509C98.7392 84.257 107.32 87.8045 110.42 95.2711Z" fill="white" stroke="#0C2544" stroke-width="1.5"/>
<path d="M100.913 116.035C109.201 114.083 114.335 105.797 112.378 97.5267C110.422 89.2568 102.117 84.1351 93.8283 86.0869C85.5396 88.0388 80.4062 96.3251 82.3625 104.595C84.3188 112.865 92.624 117.987 100.913 116.035Z" stroke="#0C2544" stroke-width="1.5" stroke-linecap="round" stroke-linejoin="round"/>
<path d="M92.9062 107.905L99.0027 102.059V96.6123" stroke="#0C2544" stroke-width="1.5" stroke-linecap="round" stroke-linejoin="round"/>
<path d="M59.0457 103.848H1V115.877H59.0457" stroke="#0C2544" stroke-width="1.5" stroke-linecap="round" stroke-linejoin="round"/>
<path d="M34.3084 62.7324V48.7228H27.4453L38.216 34.1826L48.5632 47.9825H42.1237V52.8282" stroke="#0C2544" stroke-width="1.5" stroke-linecap="round" stroke-linejoin="round"/>
<path d="M60.3943 45.3506V31.3378H53.5312L64.302 16.8008L74.6492 30.6007H68.2096V35.4463" stroke="#0C2544" stroke-width="1.5" stroke-linecap="round" stroke-linejoin="round"/>
<path d="M86.3631 29.5498V15.5371H79.5L90.2707 1L100.618 14.7999H94.1753V19.6456" stroke="#0C2544" stroke-width="1.5" stroke-linecap="round" stroke-linejoin="round"/>
<path d="M32.9866 103.849V79.8514H17.625V103.849" stroke="#0C2544" stroke-width="1.5" stroke-linecap="round" stroke-linejoin="round"/>
<path d="M85.096 61.4709V43.874H69.7344V71.5817" stroke="#0C2544" stroke-width="1.5" stroke-linecap="round" stroke-linejoin="round"/>
<path d="M110.596 68.8954V25.1855H95.2344V61.1534" stroke="#0C2544" stroke-width="1.5" stroke-linecap="round" stroke-linejoin="round"/>
<path d="M59.0491 98.1295V59.4658H43.6875V103.848" stroke="#0C2544" stroke-width="1.5" stroke-linecap="round" stroke-linejoin="round"/>
</svg>
