<svg width="118" height="112" viewBox="0 0 118 112" fill="none" xmlns="http://www.w3.org/2000/svg">
<path d="M36.7915 52.8325C22.4782 52.8325 10.875 41.2293 10.875 26.916C10.875 12.6028 22.4787 1 36.7915 1C51.1043 1 62.7079 12.6032 62.7079 26.9165H36.7915V52.8329V52.8325Z" fill="white"/>
<path d="M44.7201 90.2034C40.8177 90.2414 37.3315 90.892 34.1005 91.9181C17.3528 94.7618 12.1628 75.8224 25.7825 68.7473C30.2266 66.2605 34.8081 65.7138 39.4853 66.5022L68.3246 48.5342L76.771 95.0993L44.7206 90.203" fill="#DBEFFB"/>
<path d="M27.0006 71.6085C31.4447 69.1212 36.0262 68.575 40.7034 69.3634L69.5315 51.0556L68.8343 49.2031L40.515 66.999C35.8382 66.2106 31.2563 66.7568 26.8122 69.2441C20.6127 72.4647 18.3116 78.1436 19.2234 83.1073C19.3151 78.7952 21.7681 74.3266 27.0001 71.6085H27.0006Z" fill="white"/>
<path opacity="0.2" d="M45.1569 90.2706L39.7328 66.4122C38.4361 66.1375 38.4704 66.17 36.8516 66.2034C38.7379 73.0418 41.6657 81.0738 41.8939 90.2738L45.1565 90.2702L45.1569 90.2706Z" fill="#112D39"/>
<path d="M67.5547 48.3234L77.9497 41.791L88.2838 96.7329L77.1726 94.9469L67.5547 48.3234Z" fill="white"/>
<path d="M39.7286 66.4121L48.0412 104.046C49.2073 111.328 38.2841 113.077 37.1179 105.795C36.9738 100.464 36.0516 95.8058 34.3438 91.828L44.7691 89.2327L39.7286 66.4121Z" fill="white"/>
<path d="M84.7731 79.6126C98.6996 76.9934 94.8952 56.7676 80.9688 59.3868L84.7731 79.6126Z" fill="#DBEFFB"/>
<path d="M80.9609 59.9806L80.9786 60.0732C93.2862 59.057 96.5912 76.6293 84.7553 80.1535L84.7653 80.2063C98.6918 77.5871 94.8874 57.3614 80.9609 59.9806Z" fill="white"/>
<path opacity="0.2" d="M45.0325 87.0691C41.1301 87.1066 37.6439 87.7577 34.4129 88.7838C24.1236 90.531 18.1993 84.0555 18.3168 77.1611C16.9473 84.7065 22.9814 92.6157 34.2249 90.7063C37.4564 89.6802 40.9422 89.0291 44.8445 88.9916L76.3745 94.0602L76.0098 92.0486L45.0325 87.0691Z" fill="#112D39"/>
<path d="M39.7286 66.4121L48.0412 104.046C49.2073 111.328 38.2841 113.077 37.1179 105.795C36.9738 100.464 36.0516 95.8058 34.3438 91.828" stroke="#0C2544" stroke-width="1.5" stroke-linecap="round" stroke-linejoin="round"/>
<path d="M73.0469 74.7588L76.9696 95.2584" stroke="#0C2544" stroke-width="1.5" stroke-linecap="round" stroke-linejoin="round"/>
<path d="M68.0547 48.6162L72.0641 69.5703" stroke="#0C2544" stroke-width="1.5" stroke-linecap="round" stroke-linejoin="round"/>
<path d="M85.3825 79.9544C99.309 77.3352 95.5046 57.1094 81.5781 59.7286L85.3825 79.9544Z" stroke="#0C2544" stroke-width="1.5" stroke-linecap="round" stroke-linejoin="round"/>
<path d="M100.727 43.0146L96.375 47.3684" stroke="#0C2544" stroke-width="1.5" stroke-linecap="round" stroke-linejoin="round"/>
<path d="M103.266 83.0713L106.693 88.185" stroke="#0C2544" stroke-width="1.5" stroke-linecap="round" stroke-linejoin="round"/>
<path d="M102.547 65.3872L116.266 62.9727" stroke="#0C2544" stroke-width="1.5" stroke-linecap="round" stroke-linejoin="round"/>
<path d="M36.7915 52.8325C22.4782 52.8325 10.875 41.2293 10.875 26.916C10.875 12.6028 22.4787 1 36.7915 1C51.1043 1 62.7079 12.6032 62.7079 26.9165H36.7915V52.8329V52.8325Z" stroke="#0C2544" stroke-width="1.5" stroke-linecap="round" stroke-linejoin="round"/>
<path d="M36.7891 26.9167L49.6343 4.41016" stroke="#0C2544" stroke-width="1.5" stroke-linecap="round" stroke-linejoin="round"/>
<path d="M24.5132 36.1155C24.3881 36.1155 24.2679 36.0658 24.1789 35.9777C24.0894 35.8892 24.0393 35.7685 24.0388 35.6425L24.0312 33.2533C22.4828 33.1516 20.9086 32.6618 19.9187 31.9592C19.7456 31.8363 19.6751 31.6136 19.7461 31.4139L20.4157 29.5257C20.4645 29.3879 20.5738 29.2808 20.7125 29.2343C20.8512 29.1882 21.0031 29.2081 21.125 29.2885C22.1999 30.0001 23.5739 30.4072 24.8987 30.4072H24.919C26.6391 30.4018 27.7917 29.4801 27.7876 28.1138C27.7835 26.8776 26.945 26.0368 24.8937 25.2126C22.3269 24.2155 19.9453 22.8821 19.9363 19.9187C19.9286 17.4648 21.5769 15.5626 24.1717 14.9811L24.164 12.53C24.1631 12.268 24.375 12.0552 24.6371 12.0543L26.3824 12.0488H26.3838C26.5089 12.0488 26.6291 12.0985 26.7181 12.1866C26.8076 12.2752 26.8578 12.3958 26.8582 12.5219L26.8654 14.8036C28.1626 14.8989 29.2876 15.2324 30.2934 15.8179C30.4936 15.9345 30.5803 16.178 30.499 16.3944L29.8009 18.2546C29.7521 18.3847 29.6491 18.4868 29.5185 18.5338C29.3879 18.5813 29.2434 18.5691 29.1227 18.5004C28.6533 18.2343 27.5585 17.6171 25.8086 17.6162C23.9566 17.622 23.3024 18.6725 23.3051 19.5703C23.3087 20.6931 24.0275 21.3125 26.5117 22.3309C29.7792 23.6516 31.1776 25.3193 31.1853 27.9064C31.1934 30.447 29.4291 32.4901 26.7538 33.0969L26.762 35.6334C26.762 35.7591 26.7127 35.8801 26.6242 35.9692C26.5356 36.0582 26.415 36.1088 26.2889 36.1092L24.5155 36.1146C24.5155 36.1146 24.5142 36.1146 24.5137 36.1146L24.5132 36.1155ZM20.7663 31.3768C21.7201 31.9317 23.1709 32.3044 24.5114 32.3234C24.7703 32.327 24.9782 32.5376 24.9791 32.7965L24.9863 35.1654L25.8109 35.1627L25.8032 32.7093C25.8023 32.477 25.9699 32.2787 26.199 32.2398C28.6583 31.826 30.2432 30.1262 30.236 27.9096C30.2292 25.7408 29.0464 24.3795 26.1534 23.2102C23.6381 22.1791 22.3612 21.3338 22.3558 19.5739C22.3513 18.1326 23.4162 16.675 25.805 16.6678C25.814 16.6678 25.8235 16.6678 25.8326 16.6678C27.2685 16.6678 28.3153 17.0274 29.1019 17.4156L29.4648 16.4487C28.567 16 27.5527 15.7642 26.3775 15.7285C26.1217 15.7208 25.918 15.5116 25.9175 15.2559L25.9103 12.9995L25.1137 13.0022L25.1214 15.3711C25.1223 15.6038 24.9542 15.8026 24.7247 15.8405C22.3856 16.2295 20.8783 17.8294 20.8847 19.9164C20.891 21.8773 22.1127 23.1148 25.242 24.3311C26.9689 25.0247 28.7296 26.0146 28.7364 28.1115C28.7423 30.0155 27.1736 31.3497 24.9221 31.3565H24.8987C23.5961 31.3565 22.2496 31.0091 21.116 30.3901L20.7663 31.3768Z" fill="#0C2544"/>
<path d="M59.6014 46.406C55.8427 50.9405 50.1502 53.7499 42.5234 54.8338V32.7343L64.8836 32.4736C64.5619 35.7561 63.8444 38.6853 62.7302 41.2611C61.7656 43.297 60.6943 44.9647 59.6009 46.4064L59.6014 46.406Z" fill="#DBEFFB"/>
<path opacity="0.2" d="M62.8485 31.7412C62.4726 34.4142 61.8188 36.8391 60.8799 39.0101C59.9153 41.0455 58.844 42.7137 57.7506 44.1554C54.2282 48.4053 49.0065 51.1397 42.0859 52.3582V54.0833C49.7127 52.9994 55.4052 50.1899 59.1639 45.6555C60.2573 44.2142 61.3286 42.546 62.2932 40.5101C63.4069 37.9343 64.1249 35.0051 64.4466 31.7227L62.8485 31.7412Z" fill="#112D39"/>
<path d="M43.924 34.1028L64.5546 33.862C64.617 33.4057 64.6739 32.9439 64.72 32.4727L42.3594 32.7334V54.8328C42.8912 54.7574 43.4112 54.6711 43.9245 54.5789V34.1024L43.924 34.1028Z" fill="white"/>
<path d="M59.1639 46.0084C55.4052 50.5429 49.7127 53.3523 42.0859 54.4362V32.3368L64.4461 32.076C64.1244 35.3585 63.4069 38.2877 62.2927 40.8635C61.3281 42.8994 60.2568 44.5671 59.1634 46.0089L59.1639 46.0084Z" stroke="#0C2544" stroke-width="1.5" stroke-linecap="round" stroke-linejoin="round"/>
<path d="M44.9623 90.1126C41.0599 90.1506 37.5737 90.8012 34.3427 91.8273C17.595 94.6711 12.405 75.7316 26.0247 68.6566C30.4688 66.1697 35.0502 65.623 39.7275 66.4114L78.276 42.1875L88.61 97.129L44.9627 90.1126" stroke="#0C2544" stroke-width="1.5" stroke-linecap="round" stroke-linejoin="round"/>
<path d="M1 62.9725H7.91919" stroke="#0C2544" stroke-width="1.5" stroke-linecap="round" stroke-linejoin="round"/>
<path d="M4.45312 59.5126V66.4318" stroke="#0C2544" stroke-width="1.5" stroke-linecap="round" stroke-linejoin="round"/>
<path d="M90.507 10.0598C90.4103 11.9705 89.2532 13.5975 87.9217 13.6938C86.5906 13.7904 85.5898 12.3198 85.6861 10.409C85.7828 8.49871 86.9399 6.87125 88.2714 6.77501C89.6025 6.67833 90.6033 8.149 90.507 10.0598Z" fill="#DBEFFB"/>
<path d="M90.4469 10.3773C90.6053 8.46273 89.1816 6.7822 87.267 6.62378C85.3524 6.46536 83.6718 7.88904 83.5134 9.80366C83.355 11.7183 84.7787 13.3988 86.6933 13.5572C88.6079 13.7156 90.2884 12.292 90.4469 10.3773Z" stroke="#0C2544" stroke-width="1.5" stroke-linecap="round" stroke-linejoin="round"/>
</svg>
