<svg width="118" height="127" viewBox="0 0 118 127" fill="none" xmlns="http://www.w3.org/2000/svg">
<path d="M88.2849 65.1992C88.2849 65.1992 81.7856 74.1927 70.743 69.0723C59.6998 63.9519 50.2078 75.662 50.2078 75.662L33.7351 69.7425L20.0078 96.476L65.2923 124.981C65.2923 124.981 68.4259 133.14 94.4929 103.275C120.56 73.4109 102.008 93.6976 102.008 93.6976L88.2849 65.1992Z" fill="white"/>
<path d="M38.1706 67.0873L21.7776 94.5657L20.2595 97.1124L20.0863 97.0128L20.0256 97.1124L10.2916 91.5318L10.1422 91.7879L8.64361 90.9303L8.79303 90.6743L8.78653 90.6699L8.89698 90.4815L8.41406 90.2195L9.21747 88.8747L9.69173 89.1308L26.3447 60.8311L26.5222 60.9263L26.5785 60.8311L35.99 65.9114L36.0679 65.7793L37.5665 66.6368L37.5101 66.7321L38.1706 67.0873Z" fill="white"/>
<path d="M39.1116 115.369C37.756 117.472 34.9256 118.082 32.8251 116.729L32.4201 116.467C30.3174 115.113 29.7067 112.283 31.0623 110.18L30.7115 110.724C29.3776 112.792 26.5948 113.394 24.5246 112.062L24.0872 111.778C22.0169 110.444 21.4149 107.662 22.7489 105.591L27.63 98.0208C28.9618 95.9505 31.7466 95.3485 33.8169 96.6825L34.2543 96.964C36.3224 98.2979 36.9244 101.083 35.5905 103.153L38.1285 99.2161C39.4841 97.1134 42.3123 96.5006 44.415 97.8562L44.82 98.116C46.9205 99.4717 47.5334 102.3 46.1777 104.403L39.1116 115.369Z" fill="white"/>
<path d="M55.1672 108.217L47.3908 120.281C45.9854 122.462 43.0532 123.097 40.8726 121.691L40.7513 121.613C38.5706 120.208 37.9361 117.276 39.3415 115.095L47.118 103.029C48.5234 100.848 51.4577 100.213 53.6384 101.619L53.7575 101.697C55.9382 103.102 56.5727 106.037 55.1672 108.217Z" fill="white"/>
<path d="M61.7155 115.618L56.8365 123.191C55.5026 125.259 52.7198 125.861 50.6496 124.527L50.2122 124.245C48.1419 122.911 47.5399 120.129 48.8739 118.058L53.755 110.488C55.0868 108.417 57.8716 107.815 59.9419 109.149L60.3793 109.431C62.4474 110.765 63.0494 113.55 61.7155 115.618Z" fill="white"/>
<path d="M113.377 87.7963L113.219 87.8873L113.377 88.1536L111.878 89.0112L111.722 88.7454L102.138 94.2366L85.1902 65.8292L85.0278 65.9158L84.2266 64.571L84.3868 64.4844L84.2266 64.2137L84.5557 64.0361L84.4539 63.8612L84.5146 63.826L84.2266 63.341L95.8187 57.0869L113.377 86.9242L113.316 86.9588L113.604 87.4439L113.273 87.6209L113.377 87.7963Z" fill="white"/>
<path d="M99.4845 40.3468H71.1328V36.7293C71.1328 28.9003 77.4794 22.5537 85.3084 22.5537C93.1373 22.5537 99.484 28.9003 99.484 36.7293V40.3468H99.4845Z" fill="white"/>
<path d="M85.3097 18.3069C89.0274 18.3069 92.0412 15.293 92.0412 11.5753C92.0412 7.85757 89.0274 4.84375 85.3097 4.84375C81.5919 4.84375 78.5781 7.85757 78.5781 11.5753C78.5781 15.293 81.5919 18.3069 85.3097 18.3069Z" fill="white"/>
<path d="M47.2892 40.5636H18.9375V36.9461C18.9375 29.1171 25.2841 22.7705 33.1131 22.7705C40.942 22.7705 47.2886 29.1171 47.2886 36.9461V40.5636H47.2892Z" fill="white"/>
<path d="M33.1144 18.5227C36.8321 18.5227 39.8459 15.5089 39.8459 11.7911C39.8459 8.07339 36.8321 5.05957 33.1144 5.05957C29.3966 5.05957 26.3828 8.07339 26.3828 11.7911C26.3828 15.5089 29.3966 18.5227 33.1144 18.5227Z" fill="white"/>
<path d="M21.7344 94.4297C21.7344 94.4297 22.6071 97.6764 25.4499 101.206" stroke="#0C2544" stroke-width="1.5" stroke-linecap="round" stroke-linejoin="round"/>
<path d="M64.7348 18.8205C68.1996 15.3557 68.1996 9.7381 64.7348 6.27329C61.27 2.80849 55.6524 2.80849 52.1876 6.27329C48.7228 9.7381 48.7228 15.3557 52.1876 18.8205C55.6524 22.2853 61.27 22.2853 64.7348 18.8205Z" fill="#DBEFFB"/>
<path d="M52.0731 12.5468C52.0731 7.73985 55.7929 3.80454 60.5111 3.45589C60.2858 3.4391 60.059 3.42773 59.83 3.42773C54.7935 3.42773 50.7109 7.5103 50.7109 12.5468C50.7109 17.5833 54.7935 21.6658 59.83 21.6658C60.0595 21.6658 60.2864 21.6545 60.5111 21.6377C55.7934 21.289 52.0731 17.3537 52.0731 12.5468Z" fill="white"/>
<path opacity="0.29" d="M65.5005 12.5468C65.5005 7.73985 61.7807 3.80454 57.0625 3.45589C57.2877 3.4391 57.5146 3.42773 57.7436 3.42773C62.78 3.42773 66.8626 7.5103 66.8626 12.5468C66.8626 17.5833 62.78 21.6658 57.7436 21.6658C57.514 21.6658 57.2872 21.6545 57.0625 21.6377C61.7801 21.289 65.5005 17.3537 65.5005 12.5468Z" fill="#0C2544"/>
<path d="M113.377 86.9242L113.316 86.9588L112.993 87.1445L112.835 87.2333L111.337 88.0935L102.138 93.3666L85.5843 65.6148L84.7809 64.2722L84.6207 64.0015L84.5146 63.826L84.2266 63.341L95.8187 57.0869L113.377 86.9242Z" fill="#DBEFFB"/>
<path d="M38.1737 67.0873L21.7806 94.5657L20.2625 97.1124L20.0893 97.0128L10.3531 91.4322L9.02344 90.6699L9.07758 90.5768L9.87233 89.2277L26.3737 61.1819L26.5253 60.9263L26.5816 60.8311L35.993 65.9114L37.5132 66.7321L38.1737 67.0873Z" fill="#DBEFFB"/>
<path d="M37.7987 67.3475L36.9974 68.6923L36.9866 68.6879L36.5145 68.4324L34.9943 67.6117L26.9342 63.2617L11.2254 89.9562L10.4307 91.3053L10.3549 91.4325L10.2964 91.5321L10.147 91.7882L8.64844 90.9307L8.79786 90.6746L8.91047 90.4846L9.70522 89.1354L26.2066 61.0918L26.3755 61.1822L35.789 66.2625L37.3093 67.0833L37.79 67.3431L37.7987 67.3475Z" fill="white"/>
<path opacity="0.29" d="M37.5743 66.6368L37.518 66.7321L37.4617 66.8274L37.3122 67.0829L36.5175 68.4321L20.0161 96.4757L10.4337 91.305L9.08236 90.5768L8.91345 90.4842L8.90479 90.4815L8.42188 90.2195L9.22529 88.8747L9.69954 89.1308L9.7082 89.1351L9.87711 89.2277L11.2284 89.9558L19.2885 94.3058L34.9973 67.6113L35.792 66.2622L35.9415 66.0072L35.9978 65.9114L36.0757 65.7793L37.5743 66.6368Z" fill="#0C2544"/>
<path d="M113.377 88.1543L111.878 89.0118L111.722 88.746L111.595 88.5295L111.337 88.0942L110.8 87.1798L95.091 60.4858L87.0309 64.8364L85.5843 65.6154L85.5107 65.6566L85.1902 65.8298L85.0278 65.9164L84.2266 64.5716L84.3868 64.485L84.716 64.3075L84.7809 64.2728L86.2383 63.4867L95.8187 58.3154L112.32 86.3591L112.835 87.2339L113.115 87.7082L113.219 87.8879L113.377 88.1543Z" fill="white"/>
<path opacity="0.29" d="M113.596 87.4439L113.264 87.6209L113.106 87.7075L111.586 88.5288L102.003 93.6974L85.5021 65.6559L84.7073 64.3068L84.5471 64.0361L84.4453 63.8612L84.5059 63.826L85.9439 63.001L86.0695 63.2154L86.2297 63.4861L87.0223 64.8357L102.731 91.5297L110.791 87.1791L112.311 86.3584L112.472 86.2718L112.794 86.0991L113.308 86.9588L113.596 87.4439Z" fill="#0C2544"/>
<path d="M77.818 50.8604H39.1016V45.9198C39.1016 35.2285 47.7686 26.5615 58.4598 26.5615C69.151 26.5615 77.818 35.2285 77.818 45.9198V50.8604Z" fill="#DBEFFB"/>
<path d="M60.3562 26.5843C60.046 26.5696 59.7347 26.5615 59.4207 26.5615C48.7295 26.5615 40.0625 35.2285 40.0625 45.9198V50.8604H41.9335V45.9198C41.9335 35.5425 50.0997 27.0726 60.3562 26.5843Z" fill="white"/>
<path opacity="0.29" d="M57.25 26.5843C57.5602 26.5696 57.8715 26.5615 58.1855 26.5615C68.8767 26.5615 77.5437 35.2285 77.5437 45.9198V50.8604H75.6727V45.9198C75.6727 35.5425 67.507 27.0726 57.25 26.5843Z" fill="#0C2544"/>
<path d="M78.1305 50.8604H39.4141V45.9198C39.4141 35.2285 48.0811 26.5615 58.7723 26.5615C69.4635 26.5615 78.1305 35.2285 78.1305 45.9198V50.8604Z" stroke="#0C2544" stroke-width="1.5" stroke-linecap="round" stroke-linejoin="round"/>
<path d="M65.0395 18.8205C68.5043 15.3557 68.5043 9.7381 65.0395 6.27329C61.5747 2.80849 55.9571 2.80849 52.4923 6.27329C49.0275 9.7381 49.0275 15.3557 52.4923 18.8205C55.9571 22.2853 61.5747 22.2853 65.0395 18.8205Z" stroke="#0C2544" stroke-width="1.5" stroke-linecap="round" stroke-linejoin="round"/>
<path d="M35.0193 40.6426H18.1953V36.8946C18.1953 28.7831 24.771 22.208 32.882 22.208C37.4447 22.208 41.5213 24.2885 44.2153 27.5525" stroke="#0C2544" stroke-width="1.5" stroke-linecap="round" stroke-linejoin="round"/>
<path d="M39.408 13.2249C38.6723 16.1451 36.0287 18.3069 32.88 18.3069C29.1623 18.3069 26.1484 15.293 26.1484 11.5753C26.1484 7.85763 29.1623 4.84375 32.88 4.84375C36.5977 4.84375 39.6116 7.85763 39.6116 11.5753C39.6116 12.1443 39.5406 12.6971 39.408 13.2249Z" stroke="#0C2544" stroke-width="1.5" stroke-linecap="round" stroke-linejoin="round"/>
<path d="M73.5156 27.9716C76.1998 24.4677 80.4269 22.208 85.1819 22.208C93.2934 22.208 99.8685 28.7836 99.8685 36.8946V40.6426H82.3656" stroke="#0C2544" stroke-width="1.5" stroke-linecap="round" stroke-linejoin="round"/>
<path d="M85.1769 18.3069C88.8946 18.3069 91.9084 15.293 91.9084 11.5753C91.9084 7.85757 88.8946 4.84375 85.1769 4.84375C81.4591 4.84375 78.4453 7.85757 78.4453 11.5753C78.4453 15.293 81.4591 18.3069 85.1769 18.3069Z" stroke="#0C2544" stroke-width="1.5" stroke-linecap="round" stroke-linejoin="round"/>
<path d="M37.9393 67.0873L37.7877 67.3428L36.9843 68.6876L20.0888 97.0128L20.0282 97.1124L10.2941 91.5318L8.79556 90.6743L8.78906 90.6699L8.8995 90.4815L9.69426 89.1308L26.3472 60.8311L26.5248 60.9263L35.9362 66.0072L37.4564 66.8274L37.9393 67.0873Z" stroke="#0C2544" stroke-width="1.5" stroke-linecap="round" stroke-linejoin="round"/>
<path d="M113.377 87.7969L113.219 87.8878L111.722 88.7459L102.138 94.2372L85.1902 65.8297L84.3868 64.4849L84.2266 64.2142L84.5557 64.0367L84.6207 64.002L86.0781 63.2159L95.8187 57.958L112.48 86.2723L112.993 87.1451L113.273 87.6215L113.377 87.7969Z" stroke="#0C2544" stroke-width="1.5" stroke-linecap="round" stroke-linejoin="round"/>
<path d="M85.5259 67.1211C85.5259 67.1211 82.7578 73.5007 69.247 68.5601C69.247 68.5601 59.7696 65.132 55.4342 69.5681C51.0988 74.0042 43.5703 81.1965 43.5703 81.1965C43.5703 81.1965 46.4608 89.8002 55.6356 82.877L60.3743 78.5751C60.3743 78.5751 65.3133 84.4437 74.4838 87.1642C77.2638 87.9887 79.9561 89.0823 82.466 90.5354L93.4452 96.8917C98.6338 100.711 92.1854 108.967 86.6806 104.857C91.6018 109.778 84.1957 117.183 79.2745 112.263C83.3809 116.369 76.2893 123.461 72.183 119.354C74.7567 123.224 70.4105 127.737 65.2852 124.981L58.3577 121.695" stroke="#0C2544" stroke-width="1.5" stroke-linecap="round" stroke-linejoin="round"/>
<path d="M86.6882 104.857L77.4219 99.2617" stroke="#0C2544" stroke-width="1.5" stroke-linecap="round" stroke-linejoin="round"/>
<path d="M79.3409 112.297L73.0078 108.175" stroke="#0C2544" stroke-width="1.5" stroke-linecap="round" stroke-linejoin="round"/>
<path d="M72.1889 119.354L68.2266 116.838" stroke="#0C2544" stroke-width="1.5" stroke-linecap="round" stroke-linejoin="round"/>
<path d="M36.5944 70.2207C36.3307 70.5407 42.287 74.0093 49.7532 75.2274" stroke="#0C2544" stroke-width="1.5" stroke-linecap="round" stroke-linejoin="round"/>
<path d="M35.5905 103.153L31.0623 110.18L30.7115 110.724C29.3776 112.792 26.5948 113.394 24.5246 112.062L24.0872 111.778C22.0169 110.444 21.4149 107.662 22.7489 105.591L27.63 98.0208C28.9618 95.9505 31.7466 95.3485 33.8169 96.6825L34.2543 96.964C36.3224 98.2979 36.9244 101.083 35.5905 103.153Z" stroke="#0C2544" stroke-width="1.5" stroke-linecap="round" stroke-linejoin="round"/>
<path d="M61.7233 115.618L56.8443 123.191C55.5104 125.259 52.7277 125.861 50.6574 124.527L50.22 124.245C48.1497 122.911 47.5477 120.129 48.8817 118.058L53.7628 110.488C55.0946 108.417 57.8795 107.815 59.9497 109.149L60.3871 109.431C62.4552 110.765 63.0572 113.55 61.7233 115.618Z" stroke="#0C2544" stroke-width="1.5" stroke-linecap="round" stroke-linejoin="round"/>
<path d="M46.1731 104.402L39.1069 115.368C37.7513 117.471 34.9209 118.082 32.8204 116.728L32.4154 116.466C30.3127 115.113 29.702 112.283 31.0576 110.18L35.5858 103.153L38.1238 99.2158C39.4794 97.113 42.3076 96.5002 44.4103 97.8558L44.8153 98.1157C46.9158 99.4713 47.5287 102.3 46.1731 104.402Z" stroke="#0C2544" stroke-width="1.5" stroke-linecap="round" stroke-linejoin="round"/>
<path d="M55.175 108.217L47.3986 120.281C45.9932 122.462 43.0611 123.097 40.8804 121.691L40.7591 121.613C38.5784 120.208 37.9439 117.276 39.3493 115.095L47.1258 103.029C48.5312 100.848 51.4655 100.213 53.6462 101.619L53.7653 101.697C55.946 103.102 56.5805 106.037 55.175 108.217Z" stroke="#0C2544" stroke-width="1.5" stroke-linecap="round" stroke-linejoin="round"/>
<path d="M92.7422 96.4822C92.7422 96.4822 95.7274 96.3734 100.37 91.9941" stroke="#0C2544" stroke-width="1.5" stroke-linecap="round" stroke-linejoin="round"/>
<path d="M1 64.665H7.22266" stroke="#0C2544" stroke-width="1.5" stroke-linecap="round" stroke-linejoin="round"/>
<path d="M4.11719 61.5537V67.7764" stroke="#0C2544" stroke-width="1.5" stroke-linecap="round" stroke-linejoin="round"/>
<path d="M110.258 29.6729H116.48" stroke="#0C2544" stroke-width="1.5" stroke-linecap="round" stroke-linejoin="round"/>
<path d="M113.375 26.5615V32.7842" stroke="#0C2544" stroke-width="1.5" stroke-linecap="round" stroke-linejoin="round"/>
</svg>
