<svg width="23" height="23" viewBox="0 0 23 23" fill="none" xmlns="http://www.w3.org/2000/svg">
<path d="M5.52356 14.4043C5.52356 15.6639 4.50393 16.6769 3.25104 16.6769C1.99815 16.6769 0.978516 15.6572 0.978516 14.4043C0.978516 13.1515 1.99815 12.1318 3.25104 12.1318H5.52356V14.4043ZM6.6565 14.4043C6.6565 13.1448 7.67614 12.1318 8.92902 12.1318C10.1819 12.1318 11.2015 13.1515 11.2015 14.4043V20.089C11.2015 21.3485 10.1819 22.3615 8.92902 22.3615C7.67614 22.3615 6.6565 21.3419 6.6565 20.089V14.4043Z" fill="#D00049"/>
<path d="M8.93614 5.26575C7.67659 5.26575 6.66361 4.24609 6.66361 2.99321C6.66361 1.74032 7.68325 0.720703 8.93614 0.720703C10.189 0.720703 11.2087 1.74032 11.2087 2.99321V5.26575H8.93614ZM8.93614 6.42533C10.1957 6.42533 11.2087 7.44495 11.2087 8.69783C11.2087 9.95072 10.189 10.9704 8.93614 10.9704H3.23151C1.97196 10.9704 0.958984 9.95072 0.958984 8.69783C0.958984 7.44495 1.97862 6.42533 3.23151 6.42533H8.93614Z" fill="#39B9ED"/>
<path d="M18.0518 8.69783C18.0518 7.43828 19.0715 6.42533 20.3243 6.42533C21.5772 6.42533 22.5968 7.44495 22.5968 8.69783C22.5968 9.95072 21.5772 10.9704 20.3243 10.9704H18.0518V8.69783ZM16.9122 8.69783C16.9122 9.95738 15.8926 10.9704 14.6397 10.9704C13.3868 10.9704 12.3672 9.95072 12.3672 8.69783V2.99321C12.3672 1.73366 13.3868 0.720703 14.6397 0.720703C15.8926 0.720703 16.9122 1.74032 16.9122 2.99321V8.69783Z" fill="#35A967"/>
<path d="M14.6397 17.8165C15.8992 17.8165 16.9122 18.8361 16.9122 20.089C16.9122 21.3419 15.8926 22.3615 14.6397 22.3615C13.3868 22.3615 12.3672 21.3419 12.3672 20.089V17.8165H14.6397ZM14.6397 16.6769C13.3801 16.6769 12.3672 15.6572 12.3672 14.4043C12.3672 13.1515 13.3868 12.1318 14.6397 12.1318H20.3443C21.6039 12.1318 22.6169 13.1515 22.6169 14.4043C22.6169 15.6572 21.5972 16.6769 20.3443 16.6769H14.6397Z" fill="#E3A117"/>
</svg>
