<svg width="28" height="29" viewBox="0 0 28 29" fill="none" xmlns="http://www.w3.org/2000/svg">
<g clip-path="url(#clip0_1130_380)">
<path fill-rule="evenodd" clip-rule="evenodd" d="M13.9329 19.4642C13.7566 19.4642 13.6133 19.3209 13.6133 19.1446V13.6331C13.6133 13.4562 13.7566 13.3135 13.9329 13.3135C14.1092 13.3135 14.2525 13.4562 14.2525 13.6331V19.1446C14.2525 19.3209 14.1092 19.4642 13.9329 19.4642Z" fill="#B1ABB5"/>
<path fill-rule="evenodd" clip-rule="evenodd" d="M19.2037 13.9533H8.57025C8.39338 13.9533 8.25062 13.81 8.25062 13.6336V9.69261C8.25062 9.51629 8.39338 9.37299 8.57025 9.37299C8.74657 9.37299 8.88987 9.51629 8.88987 9.69261V13.314H18.8841V9.69261C18.8841 9.51629 19.0274 9.37299 19.2037 9.37299C19.3801 9.37299 19.5234 9.51629 19.5234 9.69261V13.6336C19.5234 13.81 19.3801 13.9533 19.2037 13.9533ZM24.6039 19.4647C24.427 19.4647 24.2842 19.3214 24.2842 19.1451V16.872H3.52598V19.1451C3.52598 19.3214 3.38321 19.4647 3.20635 19.4647C3.03002 19.4647 2.88672 19.3214 2.88672 19.1451V16.5524C2.88672 16.376 3.03002 16.2327 3.20635 16.2327H24.6039C24.7802 16.2327 24.9235 16.376 24.9235 16.5524V19.1451C24.9235 19.3214 24.7802 19.4647 24.6039 19.4647Z" fill="#B1ABB5"/>
<path fill-rule="evenodd" clip-rule="evenodd" d="M5.06591 24.6455H1.34437C0.765841 24.6455 0.294922 24.1746 0.294922 23.596V19.874C0.294922 19.2954 0.765841 18.8251 1.34437 18.8251H5.06591C5.64497 18.8251 6.11536 19.2954 6.11536 19.874V23.596C6.11536 24.1746 5.64497 24.6455 5.06591 24.6455ZM21.1571 10.0118H17.435C16.8565 10.0118 16.3855 9.54145 16.3855 8.96292V5.24085C16.3855 4.66233 16.8565 4.19141 17.435 4.19141H21.1571C21.7356 4.19141 22.206 4.66233 22.206 5.24085V8.96292C22.206 9.54145 21.7356 10.0118 21.1571 10.0118ZM10.4298 10.0118H6.70773C6.12921 10.0118 5.65882 9.54145 5.65882 8.96292V5.24085C5.65882 4.66233 6.12921 4.19141 6.70773 4.19141H10.4298C11.0083 4.19141 11.4793 4.66233 11.4793 5.24085V8.96292C11.4793 9.54145 11.0083 10.0118 10.4298 10.0118ZM26.5204 24.6455H22.7989C22.2204 24.6455 21.7494 24.1746 21.7494 23.596V19.874C21.7494 19.2954 22.2204 18.8251 22.7989 18.8251H26.5204C27.099 18.8251 27.5699 19.2954 27.5699 19.874V23.596C27.5699 24.1746 27.099 24.6455 26.5204 24.6455ZM15.7932 24.6455H12.0716C11.4931 24.6455 11.0222 24.1746 11.0222 23.596V19.874C11.0222 19.2954 11.4931 18.8251 12.0716 18.8251H15.7932C16.3717 18.8251 16.8426 19.2954 16.8426 19.874V23.596C16.8426 24.1746 16.3717 24.6455 15.7932 24.6455Z" fill="#FFB921"/>
</g>
<defs>
<clipPath id="clip0_1130_380">
<rect width="27.275" height="27.275" fill="white" transform="translate(0.292969 0.779297)"/>
</clipPath>
</defs>
</svg>
