<svg width="47" height="46" viewBox="0 0 47 46" fill="none" xmlns="http://www.w3.org/2000/svg">
<g clip-path="url(#clip0_1229_2179)">
<path d="M38.2946 22.3795L37.1261 12.8872L34.9364 13.1568L34.9373 13.1552L30.6922 10.7662C30.2394 10.5114 29.7197 10.4006 29.2023 10.4483L22.4995 11.0683C21.6755 11.1445 20.9393 11.6146 20.5235 12.3301L15.7992 20.4617C15.4504 21.0621 15.7242 21.8321 16.3739 22.0775L16.5671 22.1505C16.9389 22.2909 17.321 22.3722 17.7029 22.404L17.1043 22.9254L15.9067 23.9688L12.5004 26.8743C11.8941 27.4025 11.8311 28.3216 12.3593 28.928L12.7048 29.3237C13.3832 30.1016 14.5638 30.1824 15.3431 29.5039L16.6449 30.9971C17.0682 31.4831 17.6883 31.6981 18.284 31.6248C18.642 31.5808 18.9914 31.4324 19.2831 31.1772L20.5835 32.6705C21.0083 33.1578 21.6283 33.3714 22.224 33.298C22.582 33.2539 22.9314 33.1069 23.2233 32.8519L23.93 33.4626C24.6085 34.2418 25.7904 34.3224 26.5697 33.6439L27.5304 32.8058L35.607 26.5157L35.6157 26.5077L38.8023 26.5045L38.2946 22.3795Z" fill="#F29F5C"/>
<path d="M34.8321 24.0621L34.8234 24.0701L26.7468 30.3602L25.7861 31.1983C25.0069 31.8768 23.8249 31.7962 23.1464 31.017L22.4397 30.4063C22.1478 30.6613 21.7984 30.8084 21.4404 30.8524C20.8447 30.9258 20.2247 30.7122 19.7999 30.2249L18.4995 28.7316C18.2077 28.9867 17.8584 29.1351 17.5004 29.1792C16.9047 29.2525 16.2846 29.0376 15.8613 28.5515L14.5595 27.0583C13.8923 27.6392 12.9317 27.6618 12.2432 27.1685C11.8902 27.7009 11.9184 28.4225 12.3585 28.9278L12.704 29.3236C13.3824 30.1014 14.563 30.1822 15.3423 29.5037L16.6441 30.9969C17.0674 31.483 17.6875 31.698 18.2832 31.6246C18.6413 31.5806 18.9905 31.4322 19.2823 31.177L20.5827 32.6704C21.0075 33.1577 21.6275 33.3713 22.2232 33.298C22.5812 33.2539 22.9306 33.1069 23.2225 32.8518L23.9292 33.4626C24.6077 34.2418 25.7896 34.3224 26.5689 33.6439L27.5296 32.8057L35.6062 26.5156L35.6149 26.5076L38.8015 26.5045L38.4489 23.6406L34.8321 24.0621Z" fill="#D37D42"/>
<path d="M36.304 28.1677L31.9767 24.4365L30.7733 23.3997L29.9123 22.6581L26.2101 19.4669L26.6377 15.8273C26.7823 14.5964 26.0074 13.444 24.8128 13.1134L16.7427 10.8804C15.8888 10.6441 14.9863 11.0403 14.5824 11.8288L13.5675 13.8099L9.21118 13.5142L8.09533 23.0128L7.61035 27.1407L11.8508 27.4227L11.8596 27.4307L20.7183 35.0667L21.6837 35.8996C22.4667 36.5738 23.6482 36.4866 24.3224 35.7036L25.6143 34.2045C25.9075 34.458 26.2578 34.6031 26.6161 34.6452C27.2122 34.7153 27.831 34.4982 28.2531 34.0086L29.5453 32.5081C29.8384 32.7615 30.1885 32.9081 30.5468 32.9501C31.1429 33.0202 31.7619 32.8018 32.1824 32.3133L33.4759 30.8129C34.2589 31.4871 35.4391 31.3998 36.1131 30.6181L36.4565 30.2204C36.9813 29.6113 36.9132 28.6925 36.304 28.1677Z" fill="#F9C295"/>
<path d="M34.9361 13.1552L30.691 10.7662C30.2382 10.5114 29.7185 10.4006 29.2011 10.4483L22.4983 11.0683C21.6743 11.1445 20.9381 11.6146 20.5224 12.3301L15.798 20.4617C15.4492 21.0622 15.723 21.8321 16.3727 22.0775L16.5659 22.1505C18.2977 22.8045 20.2534 22.2479 21.3812 20.7802L23.1912 18.4245C23.1912 18.4245 27.5423 23.4623 32.3327 17.579" fill="#F29F5C"/>
<path d="M46.7101 27.776L44.4898 9.73987C44.4679 9.56252 44.3766 9.40107 44.2357 9.2911C44.0948 9.18113 43.9161 9.13172 43.7387 9.15346L38.5468 9.7926C37.1983 9.95864 36.2364 11.1907 36.4024 12.5391L38.1853 27.0219C38.3387 28.2686 39.4035 29.1849 40.629 29.1849C40.7289 29.1849 40.8302 29.1788 40.9318 29.1663L46.1237 28.5272C46.4929 28.4816 46.7555 28.1454 46.7101 27.776Z" fill="#5C9CEE"/>
<path d="M46.7114 27.7747L46.4677 25.795C46.3572 25.9571 46.1807 26.073 45.9707 26.0989L40.5282 26.7689C40.4217 26.782 40.3156 26.7884 40.2108 26.7884C39.2944 26.7884 38.4642 26.2994 38.0049 25.5449L38.1865 27.0205C38.34 28.2673 39.4047 29.1836 40.6303 29.1836C40.7302 29.1836 40.8314 29.1775 40.9331 29.165L46.1249 28.5258C46.4943 28.4804 46.7569 28.1441 46.7114 27.7747Z" fill="#3580D3"/>
<path d="M8.8842 9.79068L3.69233 9.15154C3.51471 9.1297 3.33619 9.17921 3.19531 9.28918C3.05444 9.39914 2.96307 9.56059 2.94124 9.73794L0.720936 27.7742C0.675475 28.1435 0.938087 28.4798 1.30734 28.5253L6.49921 29.1644C6.60092 29.1769 6.70199 29.183 6.80199 29.183C8.02745 29.183 9.09227 28.2666 9.24573 27.0199L11.0286 12.5372C11.1946 11.1888 10.2327 9.95671 8.8842 9.79068Z" fill="#ED5575"/>
<path d="M0.720937 27.7747L0.964682 25.795C1.07519 25.9571 1.25164 26.073 1.4617 26.0989L6.90414 26.7689C7.01069 26.782 7.1168 26.7884 7.22156 26.7884C8.13796 26.7884 8.9682 26.2994 9.42748 25.5449L9.24582 27.0205C9.09237 28.2673 8.02763 29.1836 6.80208 29.1836C6.70217 29.1836 6.60092 29.1775 6.4993 29.165L1.30743 28.5258C0.937999 28.4804 0.675476 28.1441 0.720937 27.7747Z" fill="#CC3A60"/>
<path d="M42.4051 26.1891C43.1245 26.1891 43.7076 25.6059 43.7076 24.8865C43.7076 24.1672 43.1245 23.584 42.4051 23.584C41.6857 23.584 41.1025 24.1672 41.1025 24.8865C41.1025 25.6059 41.6857 26.1891 42.4051 26.1891Z" fill="#EBEEF2"/>
<path d="M4.95587 26.1891C5.67525 26.1891 6.25842 25.6059 6.25842 24.8865C6.25842 24.1672 5.67525 23.584 4.95587 23.584C4.23649 23.584 3.65332 24.1672 3.65332 24.8865C3.65332 25.6059 4.23649 26.1891 4.95587 26.1891Z" fill="#EBEEF2"/>
</g>
<defs>
<clipPath id="clip0_1229_2179">
<rect width="46" height="46" fill="white" transform="translate(0.71582)"/>
</clipPath>
</defs>
</svg>
