<svg width="62" height="62" viewBox="0 0 83 83" fill="none" xmlns="http://www.w3.org/2000/svg">
<circle cx="41.2779" cy="41.6197" r="40.7701" fill="#DBEFFB"/>
<path d="M25.8056 50.1605L27.1081 51.6534L30.4691 47.3951C30.6566 47.1578 30.9307 47.0046 31.2311 46.9693C31.5316 46.934 31.8337 47.0195 32.0711 47.207C32.3085 47.3945 32.4617 47.6686 32.497 47.969C32.5323 48.2695 32.4468 48.5716 32.2593 48.809L28.0466 54.1439C27.9426 54.2752 27.8111 54.3821 27.6612 54.4569C27.5113 54.5318 27.3468 54.5727 27.1794 54.5769H27.1515C26.9887 54.5768 26.8278 54.5418 26.6796 54.4744C26.5313 54.407 26.3992 54.3087 26.2921 54.1862L24.0867 51.659C23.8894 51.4309 23.7906 51.1339 23.8118 50.833C23.8331 50.5322 23.9726 50.252 24.1999 50.0538C24.4273 49.8556 24.7239 49.7556 25.0248 49.7756C25.3257 49.7956 25.6065 49.934 25.8056 50.1605ZM54.5216 23.9238H28.1547C28.005 23.9237 27.8567 23.9532 27.7184 24.0104C27.58 24.0677 27.4543 24.1517 27.3484 24.2575C27.2426 24.3634 27.1586 24.4891 27.1013 24.6275C27.0441 24.7658 27.0146 24.9141 27.0147 25.0638V38.5145C27.0147 38.5475 27.0307 38.5752 27.0335 38.6075C27.0408 38.6844 27.056 38.7604 27.0791 38.8341C27.099 38.9059 27.1262 38.9754 27.1603 39.0416C27.1758 39.0714 27.1776 39.1047 27.1962 39.1335C28.1659 40.7126 29.5659 41.9825 31.2319 42.7939C32.898 43.6054 34.7609 43.9248 36.6021 43.7146C36.4485 46.1583 36.1012 51.0255 35.6503 53.3512C35.078 56.3047 33.5451 57.2132 31.0046 58.7194C30.1373 59.2338 29.1765 59.8038 28.1546 60.5241C27.1326 59.8038 26.1718 59.2338 25.3046 58.7194C22.764 57.2132 21.231 56.3047 20.6588 53.3512C20.2068 51.02 19.8595 46.135 19.7058 43.6968C21.7162 43.9315 23.7501 43.5408 25.5305 42.578C25.793 42.4303 25.9864 42.1847 26.0684 41.8949C26.1504 41.6051 26.1143 41.2946 25.9681 41.0313C25.8219 40.768 25.5774 40.5733 25.288 40.4897C24.9987 40.4061 24.688 40.4405 24.4239 40.5852C22.7016 41.4804 20.7092 41.7076 18.8296 41.2231C18.6539 41.1667 18.467 41.1538 18.2851 41.1856C18.1033 41.2173 17.9318 41.2928 17.7856 41.4055C17.6394 41.5183 17.5227 41.6648 17.4457 41.8326C17.3687 42.0004 17.3336 42.1844 17.3434 42.3687C17.3612 42.6983 17.7776 50.4678 18.4211 53.7854C19.187 57.7431 21.4837 59.1047 24.1422 60.6811C25.292 61.3359 26.402 62.0582 27.4665 62.8442C27.6644 62.9944 27.906 63.0758 28.1545 63.0758C28.4029 63.0758 28.6446 62.9944 28.8425 62.8442C29.9069 62.0582 31.0169 61.3359 32.1667 60.6811C34.8252 59.1047 37.1219 57.7431 37.8879 53.7854C38.5313 50.4678 38.9488 42.6983 38.9666 42.3687C38.9765 42.1844 38.9414 42.0004 38.8643 41.8326C38.7873 41.6648 38.6706 41.5183 38.5244 41.4055C38.3782 41.2928 38.2068 41.2173 38.0249 41.1856C37.843 41.1538 37.6562 41.1667 37.4804 41.2231C35.9657 41.6284 34.3621 41.5498 32.8943 40.9984C31.4265 40.4469 30.1679 39.4502 29.2947 38.1478V26.2038H53.3816V57.9735H38.743C38.4407 57.9735 38.1507 58.0936 37.9369 58.3074C37.7231 58.5212 37.603 58.8112 37.603 59.1135C37.603 59.4159 37.7231 59.7058 37.9369 59.9196C38.1507 60.1334 38.4407 60.2535 38.743 60.2535H54.5216C54.6713 60.2536 54.8196 60.2242 54.9579 60.1669C55.0963 60.1097 55.222 60.0257 55.3279 59.9198C55.4337 59.8139 55.5177 59.6882 55.575 59.5499C55.6322 59.4115 55.6616 59.2633 55.6616 59.1135V25.0638C55.6616 24.9141 55.6322 24.7658 55.5749 24.6275C55.5177 24.4891 55.4337 24.3634 55.3278 24.2575C55.222 24.1517 55.0963 24.0677 54.9579 24.0104C54.8196 23.9532 54.6713 23.9237 54.5216 23.9238ZM33.9303 32.3302H48.747C49.0493 32.3302 49.3393 32.2101 49.5531 31.9963C49.7668 31.7825 49.887 31.4925 49.887 31.1902C49.887 30.8878 49.7668 30.5979 49.5531 30.3841C49.3393 30.1703 49.0493 30.0502 48.747 30.0502H33.9303C33.628 30.0502 33.338 30.1703 33.1242 30.3841C32.9104 30.5979 32.7903 30.8878 32.7903 31.1902C32.7903 31.4925 32.9104 31.7825 33.1242 31.9963C33.338 32.2101 33.628 32.3302 33.9303 32.3302ZM33.9303 37.7797H48.747C49.0493 37.7797 49.3393 37.6596 49.5531 37.4458C49.7668 37.232 49.887 36.9421 49.887 36.6397C49.887 36.3374 49.7668 36.0474 49.5531 35.8336C49.3393 35.6198 49.0493 35.4997 48.747 35.4997H33.9303C33.628 35.4997 33.338 35.6198 33.1242 35.8336C32.9104 36.0474 32.7903 36.3374 32.7903 36.6397C32.7903 36.9421 32.9104 37.232 33.1242 37.4458C33.338 37.6596 33.628 37.7797 33.9303 37.7797ZM48.7459 40.9459H42.4068C42.1045 40.9459 41.8145 41.066 41.6007 41.2798C41.3869 41.4936 41.2668 41.7835 41.2668 42.0859C41.2668 42.3882 41.3869 42.6782 41.6007 42.892C41.8145 43.1058 42.1045 43.2259 42.4068 43.2259H48.7459C49.0482 43.2259 49.3382 43.1058 49.552 42.892C49.7657 42.6782 49.8859 42.3882 49.8859 42.0859C49.8859 41.7835 49.7657 41.4936 49.552 41.2798C49.3382 41.066 49.0482 40.9459 48.7459 40.9459ZM48.7459 46.3954H42.065C41.7627 46.3954 41.4727 46.5155 41.2589 46.7293C41.0451 46.9431 40.925 47.233 40.925 47.5354C40.925 47.8377 41.0451 48.1277 41.2589 48.3415C41.4727 48.5553 41.7627 48.6754 42.065 48.6754H48.7459C49.0482 48.6754 49.3382 48.5553 49.552 48.3415C49.7657 48.1277 49.8859 47.8377 49.8859 47.5354C49.8859 47.233 49.7657 46.9431 49.552 46.7293C49.3382 46.5155 49.0482 46.3954 48.7459 46.3954ZM41.495 54.1249H48.7459C49.0482 54.1249 49.3382 54.0048 49.552 53.791C49.7657 53.5772 49.8859 53.2873 49.8859 52.9849C49.8859 52.6826 49.7657 52.3926 49.552 52.1788C49.3382 51.965 49.0482 51.8449 48.7459 51.8449H41.495C41.1927 51.8449 40.9027 51.965 40.6889 52.1788C40.4751 52.3926 40.355 52.6826 40.355 52.9849C40.355 53.2873 40.4751 53.5772 40.6889 53.791C40.9027 54.0048 41.1927 54.1249 41.495 54.1249Z" fill="#51657D"/>
</svg>
