<svg width="21" height="23" viewBox="0 0 21 23" fill="none" xmlns="http://www.w3.org/2000/svg">
<path d="M11.3412 22.6109H9.66067C9.09627 22.6086 8.55377 22.3923 8.14262 22.0056C7.73148 21.619 7.48231 21.0907 7.44539 20.5276L7.33428 18.9859C6.71338 18.7217 6.12784 18.3811 5.59122 17.972L4.20233 18.6665C3.69643 18.9103 3.11712 18.9542 2.58024 18.7894C2.04335 18.6246 1.58845 18.2633 1.3065 17.7776L0.466221 16.3192C0.188418 15.8304 0.105611 15.2546 0.234393 14.7073C0.363175 14.16 0.694031 13.6815 1.16067 13.3678L2.43844 12.4998C2.35571 11.831 2.35571 11.1546 2.43844 10.4859L1.13983 9.62478C0.673198 9.3111 0.342341 8.83266 0.21356 8.28534C0.0847778 7.73801 0.167585 7.16224 0.445388 6.67339L1.29955 5.24978C1.57583 4.75802 2.02826 4.38928 2.56564 4.21789C3.10303 4.04649 3.6854 4.08519 4.19539 4.32617L5.58428 5.02062C6.1207 4.61122 6.70627 4.27061 7.32733 4.00673L7.43844 2.47201C7.47536 1.90882 7.72453 1.3806 8.13568 0.993943C8.54682 0.607287 9.08933 0.39098 9.65372 0.388672H11.3412C11.9056 0.39098 12.4481 0.607287 12.8593 0.993943C13.2704 1.3806 13.5196 1.90882 13.5565 2.47201L13.6676 4.01367C14.2886 4.27762 14.8742 4.61823 15.4107 5.02756L16.7996 4.33312C17.3055 4.08925 17.8848 4.04533 18.4216 4.21013C18.9585 4.37493 19.4134 4.7363 19.6954 5.22201L20.5357 6.68034C20.8135 7.16919 20.8963 7.74496 20.7675 8.29228C20.6387 8.8396 20.3079 9.31804 19.8412 9.63173L18.5634 10.4998C18.6462 11.1685 18.6462 11.8449 18.5634 12.5137L19.8412 13.3817C20.3079 13.6954 20.6387 14.1739 20.7675 14.7212C20.8963 15.2685 20.8135 15.8443 20.5357 16.3331L19.6954 17.7915C19.4134 18.2772 18.9585 18.6385 18.4216 18.8033C17.8848 18.9681 17.3055 18.9242 16.7996 18.6803L15.4107 17.9859C14.874 18.395 14.2885 18.7356 13.6676 18.9998L13.5634 20.5276C13.5264 21.0919 13.2763 21.6212 12.8637 22.008C12.451 22.3948 11.9068 22.6103 11.3412 22.6109ZM5.6815 16.3609C5.85768 16.3618 6.0277 16.4259 6.16067 16.5415C6.7851 17.0762 7.50325 17.4906 8.27872 17.7637C8.41474 17.8118 8.53379 17.8985 8.62134 18.0132C8.7089 18.1279 8.76117 18.2656 8.77178 18.4095L8.91761 20.4165C8.92989 20.6038 9.01262 20.7795 9.14917 20.9084C9.28573 21.0372 9.46599 21.1095 9.65372 21.1109H11.3412C11.5289 21.1095 11.7092 21.0372 11.8458 20.9084C11.9823 20.7795 12.0651 20.6038 12.0773 20.4165L12.2232 18.4442C12.2338 18.3003 12.286 18.1626 12.3736 18.0479C12.4612 17.9333 12.5802 17.8465 12.7162 17.7984C13.4917 17.5254 14.2098 17.111 14.8343 16.5762C14.944 16.4825 15.0785 16.4228 15.2216 16.4043C15.3646 16.3858 15.5099 16.4093 15.6398 16.472L17.4454 17.3401C17.6134 17.4244 17.8071 17.4419 17.9875 17.3891C18.1679 17.3362 18.3216 17.217 18.4176 17.0553L19.2579 15.597C19.3521 15.4349 19.3815 15.2432 19.3403 15.0603C19.2991 14.8775 19.1903 14.7169 19.0357 14.6109L17.369 13.479C17.2497 13.3978 17.1567 13.2836 17.1012 13.1504C17.0457 13.0173 17.0301 12.8708 17.0565 12.729C17.2063 11.9187 17.2063 11.0878 17.0565 10.2776C17.0301 10.1357 17.0457 9.98925 17.1012 9.85607C17.1567 9.72288 17.2497 9.60874 17.369 9.52756L19.0357 8.39562C19.1903 8.28959 19.2991 8.12905 19.3403 7.94617C19.3815 7.76329 19.3521 7.57159 19.2579 7.40951L18.4176 5.94423C18.3216 5.78259 18.1679 5.66334 17.9875 5.6105C17.8071 5.55767 17.6134 5.57518 17.4454 5.65951L15.6398 6.54145C15.5099 6.60414 15.3646 6.62768 15.2216 6.60918C15.0785 6.59068 14.944 6.53096 14.8343 6.43728C14.2102 5.90197 13.492 5.48751 12.7162 5.21506C12.5781 5.16597 12.4577 5.07715 12.3699 4.95976C12.2822 4.84238 12.2311 4.70167 12.2232 4.55534L12.0773 2.54839C12.0651 2.36106 11.9823 2.18532 11.8458 2.05649C11.7092 1.92766 11.5289 1.8553 11.3412 1.85395H9.66067C9.47294 1.8553 9.29268 1.92766 9.15612 2.05649C9.01956 2.18532 8.93683 2.36106 8.92455 2.54839L8.77872 4.55534C8.76899 4.6995 8.71705 4.8376 8.62937 4.95245C8.5417 5.06729 8.42216 5.15379 8.28567 5.20117C7.50967 5.4763 6.79149 5.89308 6.16761 6.43034C6.05793 6.52401 5.92337 6.58374 5.78032 6.60224C5.63728 6.62073 5.49195 6.5972 5.36205 6.53451L3.5565 5.65951C3.38849 5.57518 3.19476 5.55767 3.01435 5.6105C2.83394 5.66334 2.68026 5.78259 2.58428 5.94423L1.744 7.40256C1.65049 7.56546 1.62214 7.75773 1.66466 7.94068C1.70718 8.12364 1.8174 8.2837 1.97317 8.38867L3.63983 9.52062C3.75911 9.60179 3.85218 9.71594 3.90767 9.84912C3.96316 9.9823 3.97868 10.1288 3.95233 10.2706C3.80325 11.0786 3.80325 11.9071 3.95233 12.7151C3.97868 12.8569 3.96316 13.0034 3.90767 13.1366C3.85218 13.2697 3.75911 13.3839 3.63983 13.4651L1.97317 14.597C1.8174 14.702 1.70718 14.862 1.66466 15.045C1.62214 15.228 1.65049 15.4202 1.744 15.5831L2.58428 17.0553C2.68026 17.217 2.83394 17.3362 3.01435 17.3891C3.19476 17.4419 3.38849 17.4244 3.5565 17.3401L5.369 16.4581C5.46464 16.4029 5.5714 16.3697 5.6815 16.3609Z" fill="#158BD4"/>
<path d="M14.2016 15.9448H12.7224V15.2017C12.7224 15.0046 12.6442 14.8156 12.5048 14.6763C12.3655 14.5369 12.1765 14.4587 11.9794 14.4587H9.02105C8.82398 14.4587 8.63498 14.5369 8.49563 14.6763C8.35628 14.8156 8.27799 15.0046 8.27799 15.2017V15.9448H6.79883V15.2017C6.79883 14.6123 7.03295 14.0471 7.4497 13.6304C7.86645 13.2136 8.43168 12.9795 9.02105 12.9795H11.9863C12.5757 12.9795 13.1409 13.2136 13.5577 13.6304C13.9744 14.0471 14.2086 14.6123 14.2086 15.2017L14.2016 15.9448Z" fill="#158BD4"/>
<path d="M10.5004 6.3125C9.91396 6.3125 9.34065 6.48641 8.85302 6.81224C8.36538 7.13807 7.98531 7.60118 7.76088 8.14302C7.53644 8.68485 7.47772 9.28107 7.59213 9.85628C7.70655 10.4315 7.98897 10.9598 8.40367 11.3745C8.81837 11.7892 9.34673 12.0717 9.92194 12.1861C10.4971 12.3005 11.0934 12.2418 11.6352 12.0173C12.177 11.7929 12.6401 11.4128 12.966 10.9252C13.2918 10.4376 13.4657 9.86425 13.4657 9.27778C13.4657 8.49134 13.1533 7.73711 12.5972 7.18101C12.0411 6.62491 11.2869 6.3125 10.5004 6.3125ZM10.5004 10.7569C10.2079 10.7569 9.9219 10.6702 9.67865 10.5077C9.43541 10.3451 9.24582 10.1141 9.13386 9.84383C9.02191 9.57355 8.99262 9.27614 9.04969 8.98921C9.10676 8.70228 9.24764 8.43871 9.45451 8.23185C9.66137 8.02498 9.92493 7.88411 10.2119 7.82703C10.4988 7.76996 10.7962 7.79925 11.0665 7.91121C11.3368 8.02316 11.5678 8.21275 11.7303 8.456C11.8929 8.69924 11.9796 8.98523 11.9796 9.27778C11.9778 9.66951 11.8213 10.0447 11.5443 10.3217C11.2673 10.5987 10.8922 10.7551 10.5004 10.7569Z" fill="#158BD4"/>
</svg>
