<svg width="48" height="48" viewBox="0 0 48 48" fill="none" xmlns="http://www.w3.org/2000/svg">
<path fill-rule="evenodd" clip-rule="evenodd" d="M15.1819 27.4495C14.7455 27.4495 14.5002 27.4495 14.5002 27.4495L7.14355 37.017C6.9716 37.2406 6.67635 37.33 6.40925 37.2391C6.14214 37.1483 5.96247 36.8975 5.96247 36.6154V27.4495H4.2436C2.32558 27.4495 0.753906 25.8616 0.753906 23.9095V6.9549C0.753906 5.0029 2.32558 3.41504 4.2436 3.41504H34.4851C36.4032 3.41504 37.9748 5.0029 37.9748 6.9549V9.26069C38.5211 9.13551 39.0803 9.04902 39.6476 9.00375V8.01015C39.6476 7.75725 39.7924 7.52657 40.0203 7.41673C40.2481 7.3069 40.5187 7.33711 40.7166 7.49466L45.5738 11.3597C45.7308 11.4847 45.8223 11.6745 45.8223 11.8752C45.8223 12.0759 45.7308 12.2658 45.5738 12.3908L40.7166 16.2558C40.5187 16.4133 40.2481 16.4436 40.0203 16.3337C39.7924 16.2239 39.6476 15.9932 39.6476 15.7403V14.5922C39.0844 14.5605 38.5249 14.5749 37.9748 14.6329V23.6329C41.4619 25.7944 43.6686 29.1237 43.6686 32.8338C43.6686 33.7003 43.5484 34.5455 43.3198 35.3597L47.0715 39.3896C47.2494 39.5808 47.2976 39.8591 47.1944 40.099C47.091 40.339 46.8557 40.4952 46.5946 40.4973C46.5946 40.4973 39.9653 40.5514 39.9654 40.5514C37.2124 43.0133 33.1385 44.5846 28.5903 44.5846C20.2277 44.5846 13.512 39.2666 13.512 32.8338C13.512 30.8968 14.1119 29.066 15.1819 27.4495ZM36.6572 9.64666V6.9549C36.6572 5.73457 35.6842 4.73269 34.4851 4.73269H4.2436C3.04454 4.73269 2.07155 5.73457 2.07155 6.9549V23.9095C2.07155 25.1299 3.04454 26.1318 4.2436 26.1318H6.62129C6.98515 26.1318 7.28012 26.4268 7.28012 26.7907V34.6777L13.6534 26.3891C13.7781 26.2268 13.9711 26.1318 14.1756 26.1318H34.4851C35.66 26.1318 36.618 25.1698 36.6559 23.983C36.656 23.9827 36.656 23.9822 36.656 23.9818C36.6568 23.9578 36.6572 23.9337 36.6572 23.9095V14.8589C34.3784 15.4039 32.3632 16.7119 31.0824 18.5733C30.9142 18.8177 30.6034 18.9195 30.3232 18.822C30.0429 18.7245 29.8625 18.4517 29.8823 18.1557C29.936 17.3546 30.0988 16.5472 30.3798 15.749C31.3995 12.8529 33.7677 10.6846 36.6572 9.64666ZM37.7791 25.0771C37.3011 26.4572 36.0014 27.4495 34.4851 27.4495C34.4851 27.4495 22.0706 27.4495 16.8108 27.4495C15.5581 29.0175 14.8297 30.8601 14.8297 32.8338C14.8297 38.6449 21.036 43.2669 28.5903 43.2669C32.8803 43.2669 36.7212 41.7734 39.259 39.4123C39.3795 39.3002 39.5377 39.2373 39.7024 39.2358L45.0872 39.192L42.0974 35.9803C41.9343 35.8052 41.8791 35.5553 41.9532 35.3276C42.2129 34.5292 42.351 33.6938 42.351 32.8338C42.351 29.7427 40.57 26.9802 37.7791 25.0771ZM31.7245 15.9132C34.0023 13.9633 37.1669 12.9685 40.3805 13.3324C40.7136 13.3701 40.9652 13.6518 40.9652 13.987V14.3741L44.1054 11.8752L40.9652 9.37636V9.62888C40.9652 9.98643 40.68 10.2788 40.3226 10.2875C36.5441 10.3801 33.0554 12.5293 31.7245 15.9132ZM28.6887 31.5161C29.4159 31.5161 30.0063 32.1066 30.0063 32.8338C30.0063 33.561 29.4159 34.1514 28.6887 34.1514C27.9614 34.1514 27.371 33.561 27.371 32.8338C27.371 32.1066 27.9614 31.5161 28.6887 31.5161ZM22.5929 31.5161C23.32 31.5161 23.9105 32.1066 23.9105 32.8338C23.9105 33.561 23.32 34.1514 22.5929 34.1514C21.8656 34.1514 21.2752 33.561 21.2752 32.8338C21.2752 32.1066 21.8656 31.5161 22.5929 31.5161ZM34.7845 31.5161C35.5117 31.5161 36.1021 32.1066 36.1021 32.8338C36.1021 33.561 35.5117 34.1514 34.7845 34.1514C34.0573 34.1514 33.4669 33.561 33.4669 32.8338C33.4669 32.1066 34.0573 31.5161 34.7845 31.5161ZM9.63513 16.8315H7.78449C6.94562 16.8315 6.25922 16.1452 6.25922 15.3062V12.3336C6.25922 11.4947 6.94562 10.8083 7.78449 10.8083H9.63513V10.464C9.63513 9.14144 10.7143 8.06219 12.0369 8.06219H21.9014C23.2239 8.06219 24.3032 9.14144 24.3032 10.464V10.8083H26.1504C26.9894 10.8083 27.6757 11.4947 27.6757 12.3336V15.3062C27.6757 16.1393 26.9894 16.8315 26.1504 16.8315H24.3032V20.3318C24.3032 21.6548 23.2243 22.7302 21.9014 22.7302H12.0369C10.714 22.7302 9.63513 21.6548 9.63513 20.3318V16.8315ZM9.63513 12.1259H7.78449C7.67033 12.1259 7.57687 12.2194 7.57687 12.3336V15.3062C7.57687 15.4205 7.67033 15.5139 7.78449 15.5139H9.63513V12.1259ZM24.3032 12.1259V15.5139H26.1504C26.2647 15.5139 26.358 15.4197 26.358 15.3062V12.3336C26.358 12.2194 26.2647 12.1259 26.1504 12.1259H24.3032ZM12.0369 9.37984C11.4399 9.37984 10.9528 9.86699 10.9528 10.464V20.3318C10.9528 20.9285 11.4403 21.4126 12.0369 21.4126H21.9014C22.498 21.4126 22.9855 20.9285 22.9855 20.3318V10.464C22.9855 9.86699 22.4984 9.37984 21.9014 9.37984H12.0369ZM13.7198 12.6435C14.3674 12.6435 14.8963 13.1696 14.8963 13.8199C14.8963 14.4703 14.3674 14.9964 13.7198 14.9964C13.0695 14.9964 12.5434 14.4703 12.5434 13.8199C12.5434 13.1696 13.0695 12.6435 13.7198 12.6435ZM18.702 17.6734C19.0657 17.6734 19.3609 17.9686 19.3609 18.3322C19.3609 18.6959 19.0657 18.991 18.702 18.991H15.2362C14.8726 18.991 14.5773 18.6959 14.5773 18.3322C14.5773 17.9686 14.8726 17.6734 15.2362 17.6734H18.702ZM20.2182 12.6435C20.8657 12.6435 21.3917 13.1696 21.3917 13.8199C21.3917 14.4703 20.8657 14.9964 20.2182 14.9964C19.5678 14.9964 19.0417 14.4703 19.0417 13.8199C19.0417 13.1696 19.5678 12.6435 20.2182 12.6435Z" fill="#0C2544"/>
</svg>
