<svg width="62" height="62" viewBox="0 0 83 83" fill="none" xmlns="http://www.w3.org/2000/svg">
<circle cx="41.2779" cy="41.6197" r="40.7701" fill="#DBEFFB"/>
<path d="M62.9957 36.2748C62.4404 36.2748 61.9915 36.7237 61.9915 37.2791V54.3517C61.9915 54.906 61.5415 55.356 60.9872 55.356H18.8077C18.2534 55.356 17.8035 54.906 17.8035 54.3517V26.2321C17.8035 25.6777 18.2534 25.2278 18.8077 25.2278H33.8718C34.4272 25.2278 34.8761 24.7789 34.8761 24.2235C34.8761 23.6681 34.4272 23.2192 33.8718 23.2192H18.8077C17.1467 23.2192 15.7949 24.571 15.7949 26.2321V54.3517C15.7949 56.0128 17.1467 57.3645 18.8077 57.3645H60.9872C62.6483 57.3645 64 56.0128 64 54.3517V37.2791C64 36.7237 63.5511 36.2748 62.9957 36.2748Z" fill="#51657D" stroke="#51657D" stroke-width="0.344052"/>
<path d="M47.932 63.3918H45.9235V60.379C45.9235 59.8237 45.4746 59.3748 44.9192 59.3748C44.3638 59.3748 43.9149 59.8237 43.9149 60.379V63.3918H35.8807V60.379C35.8807 59.8237 35.4318 59.3748 34.8765 59.3748C34.3211 59.3748 33.8722 59.8237 33.8722 60.379V63.3918H31.8636C31.3083 63.3918 30.8594 63.8408 30.8594 64.3961C30.8594 64.9515 31.3083 65.4004 31.8636 65.4004H47.932C48.4874 65.4004 48.9363 64.9515 48.9363 64.3961C48.9363 63.8408 48.4874 63.3918 47.932 63.3918Z" fill="#51657D" stroke="#51657D" stroke-width="0.344052"/>
<path d="M30.8597 48.3264C30.3044 48.3264 29.8555 48.7753 29.8555 49.3307C29.8555 49.8861 30.3044 50.335 30.8597 50.335H56.9708C57.5262 50.335 57.9751 49.8861 57.9751 49.3307C57.9751 48.7753 57.5262 48.3264 56.9708 48.3264H30.8597Z" fill="#51657D" stroke="#51657D" stroke-width="0.344052"/>
<path d="M22.8285 48.3264C22.2731 48.3264 21.8242 48.7753 21.8242 49.3307C21.8242 49.8861 22.2731 50.335 22.8285 50.335H25.8413C26.3967 50.335 26.8456 49.8861 26.8456 49.3307C26.8456 48.7753 26.3967 48.3264 25.8413 48.3264H22.8285Z" fill="#51657D" stroke="#51657D" stroke-width="0.344052"/>
<path d="M37.5289 33.4977L39.1317 33.8181C39.2362 34.1043 39.3517 34.3845 39.4792 34.6576L38.5734 36.0164C38.0321 36.8279 38.1395 37.9175 38.8295 38.6064L40.5789 40.3549C41.2668 41.0438 42.3545 41.1543 43.1679 40.612L44.5337 39.7021C44.8089 39.8316 45.0871 39.9481 45.3653 40.0516L45.6856 41.6564C45.8764 42.6125 46.723 43.3054 47.6982 43.3054H50.1717C51.1469 43.3054 51.9925 42.6125 52.1843 41.6554L52.5046 40.0516C52.7909 39.9471 53.071 39.8316 53.3442 39.7051L54.704 40.612C55.5144 41.1503 56.6041 41.0428 57.292 40.3539L59.0414 38.6054C59.7314 37.9155 59.8388 36.8269 59.2975 36.0154L58.3877 34.6506C58.5182 34.3754 58.6347 34.0962 58.7382 33.8191L60.342 33.4977C61.297 33.3069 61.99 32.4613 61.99 31.4861V29.0116C61.99 28.0375 61.297 27.1919 60.34 27.0001L58.7372 26.6797C58.6327 26.3925 58.5172 26.1133 58.3907 25.8401L59.2955 24.4813C59.8368 23.6699 59.7294 22.5802 59.0394 21.8913L57.29 20.1429C56.6021 19.455 55.5144 19.3435 54.701 19.8858L53.3352 20.7957C53.06 20.6661 52.7818 20.5496 52.5036 20.4462L52.1833 18.8413C51.9925 17.8873 51.1459 17.1943 50.1707 17.1943H47.6972C46.722 17.1943 45.8764 17.8873 45.6846 18.8434L45.3643 20.4472C45.0841 20.5506 44.8039 20.6671 44.5297 20.7967L43.1659 19.8858C42.3545 19.3465 41.2648 19.455 40.5779 20.1439L38.8285 21.8923C38.1385 22.5823 38.0311 23.6709 38.5724 24.4823L39.4832 25.8471C39.3547 26.1213 39.2382 26.3995 39.1358 26.6787L37.5279 27.0001C36.5719 27.1919 35.8789 28.0385 35.8789 29.0126V31.4871C35.8789 32.4603 36.5719 33.3069 37.5289 33.4977ZM37.9226 28.9704L40.1009 28.5346C40.4644 28.4623 40.7597 28.1931 40.8661 27.8376C41.0258 27.3023 41.2488 26.7701 41.5259 26.2539C41.7027 25.9275 41.6836 25.5288 41.4777 25.2205L40.2475 23.3134L42.0522 21.5589L43.902 22.7932C44.2114 23 44.6101 23.0201 44.9374 22.8404C45.4516 22.5622 45.9849 22.3392 46.5212 22.1795C46.8777 22.0741 47.1468 21.7798 47.2192 21.4143L47.6982 19.2029L50.2149 19.237L50.6487 21.4123C50.7211 21.7768 50.9902 22.0711 51.3457 22.1775C51.8709 22.3342 52.4052 22.5582 52.9294 22.8404C53.2558 23.0171 53.6555 22.998 53.9628 22.7922L55.87 21.5629L57.6244 23.3676L56.3952 25.2114C56.1883 25.5218 56.1702 25.9195 56.348 26.2468C56.6151 26.7399 56.8361 27.2752 57.0038 27.8376C57.1102 28.1931 57.4045 28.4613 57.769 28.5336L59.9443 28.9694L59.9814 29.0126L59.9463 31.5293L57.772 31.9642C57.4075 32.0365 57.1132 32.3056 57.0068 32.6611C56.8501 33.1854 56.6272 33.7186 56.343 34.2439C56.1662 34.5713 56.1853 34.97 56.3912 35.2783L57.6214 37.1854L55.8167 38.9398L53.9729 37.7096C53.6646 37.5037 53.2659 37.4857 52.9385 37.6614C52.4434 37.9296 51.9081 38.1505 51.3467 38.3182C50.9912 38.4247 50.7231 38.7189 50.6508 39.0835L50.1707 41.2969L47.654 41.2617L47.2192 39.0865C47.1468 38.7219 46.8777 38.4277 46.5222 38.3212C45.997 38.1646 45.4627 37.9406 44.9384 37.6584C44.7898 37.5781 44.6251 37.5379 44.4614 37.5379C44.2666 37.5379 44.0718 37.5951 43.904 37.7066L41.9969 38.9358L40.2425 37.1312L41.4727 35.2873C41.6796 34.977 41.6977 34.5793 41.5199 34.2519C41.2508 33.7558 41.0308 33.2215 40.8631 32.6611C40.7567 32.3056 40.4624 32.0375 40.0979 31.9652L37.8875 31.4861L37.9226 28.9704Z" fill="#51657D" stroke="#51657D" stroke-width="0.344052"/>
<path d="M48.9358 36.2756C52.2589 36.2756 54.9614 33.5731 54.9614 30.25C54.9614 29.8443 54.9213 29.4385 54.8419 29.0459C54.7325 28.5026 54.2032 28.1511 53.6579 28.2605C53.1146 28.371 52.7621 28.9013 52.8725 29.4446C52.9268 29.7067 52.9529 29.9778 52.9529 30.25C52.9529 32.4654 51.1512 34.2671 48.9358 34.2671C46.7204 34.2671 44.9187 32.4654 44.9187 30.25C44.9187 28.0346 46.7204 26.2329 48.9358 26.2329C49.2079 26.2329 49.4781 26.259 49.7412 26.3133C50.2825 26.4237 50.8138 26.0712 50.9253 25.5279C51.0347 24.9846 50.6832 24.4553 50.1399 24.3439C49.7462 24.2645 49.3405 24.2244 48.9358 24.2244C45.6127 24.2244 42.9102 26.9269 42.9102 30.25C42.9102 33.5731 45.6127 36.2756 48.9358 36.2756Z" fill="#51657D" stroke="#51657D" stroke-width="0.344052"/>
</svg>
