<svg width="26" height="26" viewBox="0 0 26 26" fill="none" xmlns="http://www.w3.org/2000/svg">
<path d="M14.1777 2.23828C16.2469 2.46186 18.1408 3.26925 19.6923 4.4924" stroke="#158BD4" stroke-miterlimit="10" stroke-linecap="round" stroke-linejoin="round"/>
<path d="M21.373 19.8473C22.6682 18.2673 23.5248 16.314 23.7561 14.1729" stroke="#158BD4" stroke-miterlimit="10" stroke-linecap="round" stroke-linejoin="round"/>
<path d="M14.1777 23.7512C16.2469 23.5276 18.1408 22.7202 19.6923 21.4971" stroke="#158BD4" stroke-miterlimit="10" stroke-linecap="round" stroke-linejoin="round"/>
<path d="M6.30859 21.4971C7.86011 22.7202 9.754 23.5276 11.8232 23.7512" stroke="#158BD4" stroke-miterlimit="10" stroke-linecap="round" stroke-linejoin="round"/>
<path d="M2.24219 14.1729C2.47349 16.314 3.33013 18.2673 4.62524 19.8473" stroke="#158BD4" stroke-miterlimit="10" stroke-linecap="round" stroke-linejoin="round"/>
<path d="M6.30859 4.4924C7.86011 3.26925 9.754 2.46186 11.8232 2.23828" stroke="#158BD4" stroke-miterlimit="10" stroke-linecap="round" stroke-linejoin="round"/>
<path d="M4.62747 6.14258C4.27351 6.57476 3.95191 7.03447 3.66797 7.51833" stroke="#158BD4" stroke-miterlimit="10" stroke-linecap="round" stroke-linejoin="round"/>
<path d="M2.92741 9.03223C2.58166 9.90963 2.34697 10.844 2.24219 11.8166" stroke="#158BD4" stroke-miterlimit="10" stroke-linecap="round" stroke-linejoin="round"/>
<path d="M21.373 6.14258C22.6682 7.72259 23.5248 9.67587 23.7561 11.817" stroke="#158BD4" stroke-miterlimit="10" stroke-linecap="round" stroke-linejoin="round"/>
<path d="M19.6912 19.9399C19.3918 19.7038 19.0799 19.4831 18.7559 19.2793" stroke="#158BD4" stroke-miterlimit="10" stroke-linecap="round" stroke-linejoin="round"/>
<path d="M14.1777 17.6855C15.0315 17.7783 15.8548 17.9695 16.6371 18.2491" stroke="#158BD4" stroke-miterlimit="10" stroke-linecap="round" stroke-linejoin="round"/>
<path d="M9.35352 18.2525C10.1382 17.9709 10.9649 17.7783 11.822 17.6855" stroke="#158BD4" stroke-miterlimit="10" stroke-linecap="round" stroke-linejoin="round"/>
<path d="M7.2333 19.2852C6.91266 19.4875 6.60313 19.7062 6.30664 19.9404" stroke="#158BD4" stroke-miterlimit="10" stroke-linecap="round" stroke-linejoin="round"/>
<path d="M9.47852 7.7832C10.2255 8.0401 11.0102 8.2178 11.8215 8.30569" stroke="#158BD4" stroke-miterlimit="10" stroke-linecap="round" stroke-linejoin="round"/>
<path d="M19.6918 6.05096C19.3297 6.33683 18.9482 6.60001 18.5508 6.83759" stroke="#158BD4" stroke-miterlimit="10" stroke-linecap="round" stroke-linejoin="round"/>
<path d="M14.1777 8.30524C14.9851 8.21783 15.766 8.04158 16.5101 7.78613" stroke="#158BD4" stroke-miterlimit="10" stroke-linecap="round" stroke-linejoin="round"/>
<path d="M7.44046 6.83354C7.04546 6.59644 6.66688 6.33472 6.30664 6.05078" stroke="#158BD4" stroke-miterlimit="10" stroke-linecap="round" stroke-linejoin="round"/>
<path d="M17.9043 17.6434C18.1607 16.5723 18.3312 15.4042 18.3978 14.1738" stroke="#158BD4" stroke-miterlimit="10" stroke-linecap="round" stroke-linejoin="round"/>
<path d="M14.1523 23.5696C15.3654 23.0461 16.4272 21.7158 17.1897 19.874" stroke="#158BD4" stroke-miterlimit="10" stroke-linecap="round" stroke-linejoin="round"/>
<path d="M18 8.76465C18.2033 9.71883 18.34 10.7435 18.3984 11.8155" stroke="#158BD4" stroke-miterlimit="10" stroke-linecap="round" stroke-linejoin="round"/>
<path d="M14.1523 2.41895C15.4479 2.97813 16.5711 4.45818 17.3413 6.49887" stroke="#158BD4" stroke-miterlimit="10" stroke-linecap="round" stroke-linejoin="round"/>
<path d="M7.60156 14.1738C7.6682 15.4033 7.83866 16.5709 8.09459 17.6414" stroke="#158BD4" stroke-miterlimit="10" stroke-linecap="round" stroke-linejoin="round"/>
<path d="M8.80664 19.8711C9.56912 21.7148 10.6315 23.047 11.8455 23.571" stroke="#158BD4" stroke-miterlimit="10" stroke-linecap="round" stroke-linejoin="round"/>
<path d="M7.60156 11.8156C7.65951 10.745 7.79617 9.72128 7.99946 8.76758" stroke="#158BD4" stroke-miterlimit="10" stroke-linecap="round" stroke-linejoin="round"/>
<path d="M8.6543 6.50176C9.42402 4.45963 10.5482 2.97813 11.8443 2.41895" stroke="#158BD4" stroke-miterlimit="10" stroke-linecap="round" stroke-linejoin="round"/>
<path d="M6.38899 12.9951H3.35742" stroke="#158BD4" stroke-miterlimit="10" stroke-linecap="round" stroke-linejoin="round"/>
<path d="M17.2484 12.9951H14.1777" stroke="#158BD4" stroke-miterlimit="10" stroke-linecap="round" stroke-linejoin="round"/>
<path d="M20.2062 12.9951H19.6094" stroke="#158BD4" stroke-miterlimit="10" stroke-linecap="round" stroke-linejoin="round"/>
<path d="M22.6391 12.9951H21.8945" stroke="#158BD4" stroke-miterlimit="10" stroke-linecap="round" stroke-linejoin="round"/>
<path d="M11.8187 12.9951H8.74805" stroke="#158BD4" stroke-miterlimit="10" stroke-linecap="round" stroke-linejoin="round"/>
<path d="M5.42164 6.4507C6.07304 6.4507 6.60109 5.92264 6.60109 5.27125C6.60109 4.61986 6.07304 4.0918 5.42164 4.0918C4.77025 4.0918 4.24219 4.61986 4.24219 5.27125C4.24219 5.92264 4.77025 6.4507 5.42164 6.4507Z" stroke="#158BD4" stroke-miterlimit="10" stroke-linecap="round" stroke-linejoin="round"/>
<path d="M8.30641 8.80813C8.9578 8.80813 9.48586 8.28007 9.48586 7.62867C9.48586 6.97728 8.9578 6.44922 8.30641 6.44922C7.65501 6.44922 7.12695 6.97728 7.12695 7.62867C7.12695 8.28007 7.65501 8.80813 8.30641 8.80813Z" stroke="#158BD4" stroke-miterlimit="10" stroke-linecap="round" stroke-linejoin="round"/>
<path d="M7.57008 14.1743C8.22147 14.1743 8.74953 13.6463 8.74953 12.9949C8.74953 12.3435 8.22147 11.8154 7.57008 11.8154C6.91868 11.8154 6.39062 12.3435 6.39062 12.9949C6.39062 13.6463 6.91868 14.1743 7.57008 14.1743Z" stroke="#158BD4" stroke-miterlimit="10" stroke-linecap="round" stroke-linejoin="round"/>
<path d="M18.4255 14.1743C19.0769 14.1743 19.605 13.6463 19.605 12.9949C19.605 12.3435 19.0769 11.8154 18.4255 11.8154C17.7742 11.8154 17.2461 12.3435 17.2461 12.9949C17.2461 13.6463 17.7742 14.1743 18.4255 14.1743Z" stroke="#158BD4" stroke-miterlimit="10" stroke-linecap="round" stroke-linejoin="round"/>
<path d="M23.8201 14.1743C24.4715 14.1743 24.9995 13.6463 24.9995 12.9949C24.9995 12.3435 24.4715 11.8154 23.8201 11.8154C23.1687 11.8154 22.6406 12.3435 22.6406 12.9949C22.6406 13.6463 23.1687 14.1743 23.8201 14.1743Z" stroke="#158BD4" stroke-miterlimit="10" stroke-linecap="round" stroke-linejoin="round"/>
<path d="M2.17945 14.1743C2.83085 14.1743 3.35891 13.6463 3.35891 12.9949C3.35891 12.3435 2.83085 11.8154 2.17945 11.8154C1.52806 11.8154 1 12.3435 1 12.9949C1 13.6463 1.52806 14.1743 2.17945 14.1743Z" stroke="#158BD4" stroke-miterlimit="10" stroke-linecap="round" stroke-linejoin="round"/>
<path d="M5.42164 21.898C6.07304 21.898 6.60109 21.3699 6.60109 20.7185C6.60109 20.0671 6.07304 19.5391 5.42164 19.5391C4.77025 19.5391 4.24219 20.0671 4.24219 20.7185C4.24219 21.3699 4.77025 21.898 5.42164 21.898Z" stroke="#158BD4" stroke-miterlimit="10" stroke-linecap="round" stroke-linejoin="round"/>
<path d="M20.5759 6.4507C21.2273 6.4507 21.7554 5.92264 21.7554 5.27125C21.7554 4.61986 21.2273 4.0918 20.5759 4.0918C19.9245 4.0918 19.3965 4.61986 19.3965 5.27125C19.3965 5.92264 19.9245 6.4507 20.5759 6.4507Z" stroke="#158BD4" stroke-miterlimit="10" stroke-linecap="round" stroke-linejoin="round"/>
<path d="M20.5759 21.898C21.2273 21.898 21.7554 21.3699 21.7554 20.7185C21.7554 20.0671 21.2273 19.5391 20.5759 19.5391C19.9245 19.5391 19.3965 20.0671 19.3965 20.7185C19.3965 21.3699 19.9245 21.898 20.5759 21.898Z" stroke="#158BD4" stroke-miterlimit="10" stroke-linecap="round" stroke-linejoin="round"/>
<path d="M8.30641 19.981C8.9578 19.981 9.48586 19.4529 9.48586 18.8015C9.48586 18.1501 8.9578 17.6221 8.30641 17.6221C7.65501 17.6221 7.12695 18.1501 7.12695 18.8015C7.12695 19.4529 7.65501 19.981 8.30641 19.981Z" stroke="#158BD4" stroke-miterlimit="10" stroke-linecap="round" stroke-linejoin="round"/>
<path d="M17.6775 8.80813C18.3289 8.80813 18.857 8.28007 18.857 7.62867C18.857 6.97728 18.3289 6.44922 17.6775 6.44922C17.0261 6.44922 16.498 6.97728 16.498 7.62867C16.498 8.28007 17.0261 8.80813 17.6775 8.80813Z" stroke="#158BD4" stroke-miterlimit="10" stroke-linecap="round" stroke-linejoin="round"/>
<path d="M17.6775 19.981C18.3289 19.981 18.857 19.4529 18.857 18.8015C18.857 18.1501 18.3289 17.6221 17.6775 17.6221C17.0261 17.6221 16.498 18.1501 16.498 18.8015C16.498 19.4529 17.0261 19.981 17.6775 19.981Z" stroke="#158BD4" stroke-miterlimit="10" stroke-linecap="round" stroke-linejoin="round"/>
<path d="M13 11.815V9.54785" stroke="#158BD4" stroke-miterlimit="10" stroke-linecap="round" stroke-linejoin="round"/>
<path d="M13 7.18861V3.35352" stroke="#158BD4" stroke-miterlimit="10" stroke-linecap="round" stroke-linejoin="round"/>
<path d="M13 16.441V14.1738" stroke="#158BD4" stroke-miterlimit="10" stroke-linecap="round" stroke-linejoin="round"/>
<path d="M13 22.6359V18.8008" stroke="#158BD4" stroke-miterlimit="10" stroke-linecap="round" stroke-linejoin="round"/>
<path d="M12.9998 14.1743C13.6512 14.1743 14.1792 13.6463 14.1792 12.9949C14.1792 12.3435 13.6512 11.8154 12.9998 11.8154C12.3484 11.8154 11.8203 12.3435 11.8203 12.9949C11.8203 13.6463 12.3484 14.1743 12.9998 14.1743Z" stroke="#158BD4" stroke-miterlimit="10" stroke-linecap="round" stroke-linejoin="round"/>
<path d="M12.9998 9.54732C13.6512 9.54732 14.1792 9.01926 14.1792 8.36787C14.1792 7.71648 13.6512 7.18842 12.9998 7.18842C12.3484 7.18842 11.8203 7.71648 11.8203 8.36787C11.8203 9.01926 12.3484 9.54732 12.9998 9.54732Z" stroke="#158BD4" stroke-miterlimit="10" stroke-linecap="round" stroke-linejoin="round"/>
<path d="M12.9998 3.35402C13.6512 3.35402 14.1792 2.82597 14.1792 2.17457C14.1792 1.52318 13.6512 0.995117 12.9998 0.995117C12.3484 0.995117 11.8203 1.52318 11.8203 2.17457C11.8203 2.82597 12.3484 3.35402 12.9998 3.35402Z" stroke="#158BD4" stroke-miterlimit="10" stroke-linecap="round" stroke-linejoin="round"/>
<path d="M13.5367 24.8657C14.0803 24.5894 14.3276 23.9357 14.0898 23.363C13.8401 22.7614 13.1498 22.4764 12.5482 22.7262C11.9465 22.9759 11.661 23.6659 11.9107 24.2675C11.9255 24.3032 11.9419 24.3377 11.9599 24.371" stroke="#158BD4" stroke-miterlimit="10" stroke-linecap="round" stroke-linejoin="round"/>
<path d="M12.9998 18.7995C13.6512 18.7995 14.1792 18.2714 14.1792 17.62C14.1792 16.9686 13.6512 16.4406 12.9998 16.4406C12.3484 16.4406 11.8203 16.9686 11.8203 17.62C11.8203 18.2714 12.3484 18.7995 12.9998 18.7995Z" stroke="#158BD4" stroke-miterlimit="10" stroke-linecap="round" stroke-linejoin="round"/>
</svg>
