<svg width="43" height="42" viewBox="0 0 43 42" fill="none" xmlns="http://www.w3.org/2000/svg">
<path fill-rule="evenodd" clip-rule="evenodd" d="M24.2029 34.918L12.4485 35.0687L9.837 39.5499C9.72224 39.7468 9.87744 39.9627 10.0742 39.9627H26.6649C26.8617 39.9627 27.0168 39.7468 26.9021 39.5499L24.2029 34.918Z" fill="#003748"/>
<path fill-rule="evenodd" clip-rule="evenodd" d="M24.2045 34.918L22.8447 34.9354L25.5338 39.55C25.6486 39.7469 25.4934 39.9627 25.2966 39.9627H26.6665C26.8633 39.9627 27.0184 39.7469 26.9037 39.55L24.2045 34.918Z" fill="#00242F"/>
<path fill-rule="evenodd" clip-rule="evenodd" d="M33.5239 11.0508C34.4954 11.0508 35.2903 11.8457 35.2903 12.8172V33.3963C35.2903 34.3678 34.4953 35.1628 33.5239 35.1628H3.22056C2.24915 35.1628 1.4541 34.368 1.4541 33.3963V12.8172C1.4541 11.8456 2.24907 11.0508 3.22056 11.0508H33.5239Z" fill="#E6F8FF"/>
<path fill-rule="evenodd" clip-rule="evenodd" d="M33.5245 11.0508C34.496 11.0508 35.291 11.8457 35.291 12.8172V33.3963C35.291 34.3678 34.4959 35.1628 33.5245 35.1628H31.4697C32.4411 35.1628 33.2362 34.3678 33.2362 33.3963V12.8172C33.2362 11.8457 32.4412 11.0508 31.4697 11.0508H33.5245Z" fill="#D0F1FF"/>
<path fill-rule="evenodd" clip-rule="evenodd" d="M35.2903 32.8906H1.4541V34.0819C1.4541 35.0535 2.24907 35.8483 3.22048 35.8483H33.5239C34.4954 35.8483 35.2903 35.0535 35.2903 34.0819L35.2903 32.8906Z" fill="#004960"/>
<path fill-rule="evenodd" clip-rule="evenodd" d="M35.2909 32.8906H33.2361V34.0819C33.2361 35.0535 32.4411 35.8483 31.4697 35.8483H33.5245C34.496 35.8483 35.2909 35.0535 35.2909 34.0819V32.8906Z" fill="#003748"/>
<path fill-rule="evenodd" clip-rule="evenodd" d="M8.87598 28.3326V9.66974C8.87598 8.51507 9.82073 7.57031 10.9754 7.57031H26.9376C27.4503 7.57031 27.8685 7.98867 27.8685 8.5012V28.1876L8.87598 28.3326Z" fill="#64B5F6"/>
<path fill-rule="evenodd" clip-rule="evenodd" d="M8.87598 28.3327V28.3231L26.6071 28.1876V8.5012C26.6071 7.98867 26.1889 7.57031 25.6762 7.57031H26.9376C27.4503 7.57031 27.8685 7.98867 27.8685 8.5012V28.1876L8.87598 28.3327Z" fill="#42A5F5"/>
<path fill-rule="evenodd" clip-rule="evenodd" d="M11.2063 28.3149V7.57031H10.9754C9.82065 7.57031 8.87598 8.51507 8.87598 9.66974V28.3326L11.2063 28.3149Z" fill="#42A5F5"/>
<path fill-rule="evenodd" clip-rule="evenodd" d="M14.0869 20.998H24.992C25.1725 20.998 25.3201 21.1457 25.3201 21.3262V22.7387C25.3201 22.9191 25.1725 23.0668 24.992 23.0668H14.0869C13.9064 23.0668 13.7588 22.9191 13.7588 22.7387V21.3262C13.7587 21.1456 13.9064 20.998 14.0869 20.998Z" fill="#EFF4F7"/>
<path fill-rule="evenodd" clip-rule="evenodd" d="M14.0869 20.998H24.992C25.1725 20.998 25.3201 21.1457 25.3201 21.3262V21.599H14.6974C14.5169 21.599 14.3693 21.7467 14.3693 21.9271V23.0668H14.0869C13.9064 23.0668 13.7588 22.9191 13.7588 22.7387V21.3262C13.7587 21.1456 13.9064 20.998 14.0869 20.998Z" fill="#E2E3E3"/>
<path fill-rule="evenodd" clip-rule="evenodd" d="M14.0869 10.1211H24.992C25.1725 10.1211 25.3201 10.2687 25.3201 10.4492V17.4808C25.3201 17.6612 25.1725 17.8089 24.992 17.8089H14.0869C13.9064 17.8089 13.7588 17.6612 13.7588 17.4808V10.4492C13.7587 10.2687 13.9064 10.1211 14.0869 10.1211Z" fill="#FC685B"/>
<path fill-rule="evenodd" clip-rule="evenodd" d="M14.0869 10.1211H24.992C25.1725 10.1211 25.3201 10.2687 25.3201 10.4492V10.9414H14.9072C14.7268 10.9414 14.5791 11.0891 14.5791 11.2695V17.8089H14.0869C13.9064 17.8089 13.7588 17.6612 13.7588 17.4808V10.4492C13.7587 10.2687 13.9064 10.1211 14.0869 10.1211Z" fill="#F35244"/>
<path fill-rule="evenodd" clip-rule="evenodd" d="M10.9521 26.2578H27.8685V30.4101H10.9521C9.81031 30.4101 8.87598 29.4758 8.87598 28.3339C8.87598 27.1921 9.81023 26.2578 10.9521 26.2578Z" fill="#2D90F1"/>
<path fill-rule="evenodd" clip-rule="evenodd" d="M26.6064 26.2578H27.8678V30.4101H26.6064V26.2578Z" fill="#1D83D4"/>
<path fill-rule="evenodd" clip-rule="evenodd" d="M27.8685 29.5898V27.0781H10.9521C10.263 27.0781 9.69629 27.6449 9.69629 28.3339C9.69629 29.023 10.263 29.5898 10.9521 29.5898H27.8685Z" fill="#EFF4F7"/>
<path fill-rule="evenodd" clip-rule="evenodd" d="M26.6064 27.0781H27.8678V29.5898H26.6064V27.0781Z" fill="#E2E3E3"/>
<path fill-rule="evenodd" clip-rule="evenodd" d="M38.5427 13.2428L34.8789 19.5886C34.7496 19.8126 34.5181 19.9348 34.2602 19.9148L26.9117 19.3487C25.2027 19.2171 23.7862 18.3992 22.8176 16.985L18.6533 10.9043C18.5071 10.6908 18.4972 10.4292 18.6265 10.2053L21.9813 4.39453L38.5427 13.2428Z" fill="#0ED2B3"/>
<path fill-rule="evenodd" clip-rule="evenodd" d="M38.5425 13.2411L34.8787 19.587C34.7494 19.8109 34.5179 19.9331 34.26 19.9132L26.9116 19.3471C25.2026 19.2154 23.786 18.3976 22.8175 16.9834L22.126 15.9736C23.0945 17.3878 24.511 18.2056 26.2201 18.3373L33.5685 18.9034C33.8264 18.9232 34.058 18.8011 34.1873 18.5772L37.5685 12.7207L38.5425 13.2411Z" fill="#688D97"/>
<path fill-rule="evenodd" clip-rule="evenodd" d="M18.6108 2.03976L33.265 3.16876C33.4008 3.17926 33.5926 3.30575 33.6914 3.44988L41.917 15.4606C42.0158 15.6049 41.9854 15.7142 41.8496 15.7038L27.1954 14.5748C27.0597 14.5643 26.8678 14.4378 26.769 14.2937L18.5434 2.28282C18.4446 2.13869 18.475 2.02926 18.6108 2.03976Z" fill="#83E4D5"/>
<path fill-rule="evenodd" clip-rule="evenodd" d="M18.6107 2.03976L19.8413 2.13459L27.4092 13.1849C27.508 13.3291 27.6997 13.4556 27.8354 13.466L41.2592 14.5001L41.9169 15.4606C42.0157 15.6048 41.9853 15.7141 41.8496 15.7037L27.1953 14.5747C27.0597 14.5642 26.8678 14.4378 26.769 14.2936L18.5434 2.28282C18.4447 2.13869 18.475 2.02926 18.6107 2.03976Z" fill="#0BAF95"/>
<path fill-rule="evenodd" clip-rule="evenodd" d="M29.953 9.30091C29.7162 9.14759 29.6485 8.83136 29.8018 8.59454C29.9551 8.35779 30.2714 8.29012 30.5082 8.44335L40.9174 15.1821C41.1468 15.3306 41.2174 15.6322 41.0822 15.8662L41.0833 15.8669L36.4393 23.9105C36.2979 24.1555 35.9847 24.2394 35.7398 24.098C35.4949 23.9565 35.4109 23.6433 35.5524 23.3985L39.9538 15.7751L29.953 9.30091Z" fill="#0ED2B3"/>
<path fill-rule="evenodd" clip-rule="evenodd" d="M37.6657 21.1946L38.2752 23.1719C38.3023 23.2602 38.2926 23.3463 38.2465 23.4262L36.7715 25.9808C36.6834 26.1335 36.487 26.186 36.3344 26.0979L33.7077 24.5814C33.5551 24.4933 33.5024 24.2969 33.5906 24.1443L35.0655 21.5897C35.1116 21.5098 35.1814 21.4583 35.2714 21.4377L37.2886 20.9769C37.4522 20.9395 37.6162 21.0342 37.6657 21.1946Z" fill="#FFDA2D"/>
<path fill-rule="evenodd" clip-rule="evenodd" d="M37.6679 21.1927L38.2774 23.17C38.3045 23.2583 38.2948 23.3444 38.2487 23.4243L36.7737 25.9788C36.6856 26.1315 36.4893 26.1841 36.3366 26.096L35.7822 25.7759C35.9349 25.8641 36.1313 25.8114 36.2194 25.6587L37.6943 23.1041C37.7405 23.0242 37.7502 22.938 37.723 22.8498L37.1547 21.006L37.2908 20.9749C37.4544 20.9376 37.6184 21.0323 37.6679 21.1927Z" fill="#FFC700"/>
</svg>
