<svg width="22" height="27" viewBox="0 0 22 27" fill="none" xmlns="http://www.w3.org/2000/svg">
<path d="M21.0385 9.0461C20.861 8.71295 20.5164 8.50602 20.139 8.50602H17.2442C17.0025 7.14677 15.813 6.11109 14.3854 6.11109C12.9577 6.11109 11.7682 7.14677 11.5265 8.50602H8.59375C8.82376 8.15402 8.95808 7.73404 8.95808 7.28308C8.95808 6.04678 7.95231 5.04102 6.71602 5.04102C5.47973 5.04102 4.47396 6.04678 4.47396 7.28308C4.47396 7.73404 4.60828 8.15402 4.83829 8.50602H2.44713C2.0697 8.50602 1.72509 8.71295 1.54766 9.0461C1.37028 9.3792 1.39087 9.78068 1.60147 10.0939L8.43955 20.2624V26.0349C8.43955 26.2067 8.52613 26.367 8.66988 26.4611C8.75411 26.5163 8.85138 26.5444 8.94917 26.5444C9.01816 26.5444 9.08741 26.5304 9.15258 26.502L13.8405 24.4606C14.0264 24.3796 14.1466 24.1962 14.1466 23.9934V20.2624L20.9847 10.0938C21.1953 9.78068 21.2159 9.3792 21.0385 9.0461ZM14.3854 7.13021C15.2484 7.13021 15.9773 7.7133 16.2002 8.50602H12.5706C12.7934 7.7133 13.5224 7.13021 14.3854 7.13021ZM6.71607 6.06013C7.39037 6.06013 7.93901 6.60878 7.93901 7.28308C7.93901 7.95738 7.39037 8.50602 6.71607 8.50602C6.04177 8.50602 5.49313 7.95738 5.49313 7.28308C5.49313 6.60878 6.04177 6.06013 6.71607 6.06013ZM13.2142 19.8226C13.1577 19.9067 13.1275 20.0057 13.1275 20.107V23.6596L9.45862 25.2572V20.6165H11.2995C11.5809 20.6165 11.8091 20.3884 11.8091 20.107C11.8091 19.8255 11.5809 19.5974 11.2995 19.5974H9.22045L4.09209 11.971H14.3854C14.6668 11.971 14.8949 11.7429 14.8949 11.4615C14.8949 11.18 14.6668 10.9519 14.3854 10.9519H3.40679L2.44734 9.52514H20.1389L13.2142 19.8226Z" fill="#158BD4" stroke="#158BD4" stroke-width="0.3"/>
<path d="M13.0311 0.455078C11.7948 0.455078 10.7891 1.46085 10.7891 2.69714C10.7891 3.93343 11.7949 4.9392 13.0311 4.9392C14.2674 4.9392 15.2732 3.93343 15.2732 2.69714C15.2732 1.46085 14.2674 0.455078 13.0311 0.455078ZM13.0311 3.92008C12.3568 3.92008 11.8082 3.37144 11.8082 2.69714C11.8082 2.02284 12.3568 1.4742 13.0311 1.4742C13.7054 1.4742 14.2541 2.02284 14.2541 2.69714C14.2541 3.37144 13.7054 3.92008 13.0311 3.92008Z" fill="#158BD4" stroke="#158BD4" stroke-width="0.3"/>
<path d="M18.4783 2.91797C18.1969 2.91797 17.9688 3.1461 17.9688 3.42753V6.32356C17.9688 6.60504 18.1969 6.83317 18.4783 6.83317C18.7597 6.83317 18.9879 6.60504 18.9879 6.32361V3.42753C18.9879 3.1461 18.7597 2.91797 18.4783 2.91797Z" fill="#158BD4" stroke="#158BD4" stroke-width="0.3"/>
<path d="M18.8386 1.39442C18.7438 1.29964 18.6123 1.24512 18.4783 1.24512C18.3443 1.24512 18.2128 1.29964 18.1181 1.39442C18.0233 1.4892 17.9688 1.62066 17.9688 1.75468C17.9688 1.88869 18.0233 2.02016 18.1181 2.11494C18.2128 2.20971 18.3443 2.26424 18.4783 2.26424C18.6123 2.26424 18.7438 2.20971 18.8386 2.11494C18.9333 2.02016 18.9879 1.88869 18.9879 1.75468C18.9879 1.62066 18.9333 1.4892 18.8386 1.39442Z" fill="#158BD4" stroke="#158BD4" stroke-width="0.3"/>
<path d="M8.44706 1.10547C8.16563 1.10547 7.9375 1.3336 7.9375 1.61503V3.70422C7.9375 3.98565 8.16563 4.21378 8.44706 4.21378C8.72849 4.21378 8.95662 3.98565 8.95662 3.70422V1.61503C8.95662 1.3336 8.72849 1.10547 8.44706 1.10547Z" fill="#158BD4" stroke="#158BD4" stroke-width="0.3"/>
<path d="M1.50956 0.455078C1.22813 0.455078 1 0.683208 1 0.964638V4.28534C1 4.56677 1.22813 4.7949 1.50956 4.7949C1.79099 4.7949 2.01912 4.56677 2.01912 4.28534V0.964638C2.01912 0.683208 1.79099 0.455078 1.50956 0.455078Z" fill="#158BD4" stroke="#158BD4" stroke-width="0.3"/>
<path d="M1.86982 5.8368C1.77504 5.74151 1.64357 5.6875 1.50956 5.6875C1.37555 5.6875 1.24408 5.74151 1.1493 5.8368C1.05452 5.93158 1 6.06254 1 6.19706C1 6.33107 1.05452 6.46254 1.1493 6.55732C1.24408 6.6521 1.37555 6.70662 1.50956 6.70662C1.64357 6.70662 1.77504 6.6521 1.86982 6.55732C1.9646 6.46254 2.01912 6.33107 2.01912 6.19706C2.01912 6.06254 1.9646 5.93158 1.86982 5.8368Z" fill="#158BD4" stroke="#158BD4" stroke-width="0.3"/>
<path d="M17.0124 11.1014C16.9176 11.0067 16.7862 10.9521 16.6521 10.9521C16.5176 10.9521 16.3861 11.0067 16.2919 11.1014C16.1966 11.1962 16.1426 11.3277 16.1426 11.4617C16.1426 11.5957 16.1966 11.7272 16.2919 11.822C16.3867 11.9167 16.5176 11.9713 16.6521 11.9713C16.7862 11.9713 16.9171 11.9167 17.0124 11.822C17.1072 11.7272 17.1617 11.5957 17.1617 11.4617C17.1617 11.3277 17.1072 11.1962 17.0124 11.1014Z" fill="#158BD4" stroke="#158BD4" stroke-width="0.3"/>
</svg>
