<svg width="280" height="120" viewBox="0 0 280 120" fill="none" xmlns="http://www.w3.org/2000/svg">
<path d="M135.794 51.7773H131.004V56.0377H135.794V51.7773ZM131.003 58.941H135.793V75.5861H131.003V58.941ZM185.043 63.8405C184.345 62.9116 183.418 62.4337 182.268 62.4337C181.468 62.4337 180.513 62.8133 180.513 63.8041C180.513 66.2673 188.591 64.1789 188.591 70.5143C188.591 74.765 184.763 75.9996 181.433 75.9996C179.263 75.9996 176.869 75.4187 175.334 73.7366L178.239 70.2766C179.133 71.4396 180.19 72.0909 181.625 72.0909C182.713 72.0909 183.798 71.7853 183.798 70.8975C183.798 68.2222 175.719 70.4864 175.719 64.1461C175.719 60.2423 178.974 58.5299 182.231 58.5299C184.281 58.5299 186.546 59.0793 187.989 60.7213L185.043 63.8405ZM165.623 71.4748C168.015 71.4748 169.456 69.7636 169.456 67.2629C169.456 64.7622 168.015 63.0462 165.623 63.0462C163.227 63.0462 161.786 64.7622 161.786 67.2629C161.786 69.7636 163.227 71.4748 165.623 71.4748ZM165.623 58.5299C170.415 58.5299 174.246 61.9535 174.246 67.2629C174.246 72.5711 170.415 75.9996 165.623 75.9996C160.828 75.9996 156.997 72.5711 156.997 67.2629C156.997 61.9535 160.828 58.5299 165.623 58.5299ZM146.745 63.0462C144.351 63.0462 142.916 64.7622 142.916 67.2629C142.916 69.7636 144.351 71.4748 146.745 71.4748C149.142 71.4748 150.581 69.7636 150.581 67.2629C150.581 64.7622 149.142 63.0462 146.745 63.0462ZM154.988 75.5861H150.581V73.3934H150.517C149.783 74.5952 147.923 75.9996 145.753 75.9996C141.157 75.9996 138.121 72.4317 138.121 67.3988C138.121 62.7757 140.804 58.5299 145.213 58.5299C147.189 58.5299 149.044 59.112 150.132 60.7213H150.199V51.7506L154.988 50.5645V75.5861ZM123.619 65.3819C123.654 63.6695 122.411 62.23 120.682 62.23C118.575 62.23 117.424 63.775 117.295 65.3819H123.619ZM127.679 72.7118C126.145 74.799 123.619 75.9996 121.13 75.9996C116.339 75.9996 112.502 72.5711 112.502 67.2629C112.502 61.9535 116.339 58.5299 121.13 58.5299C125.606 58.5299 128.414 61.9535 128.414 67.2629V68.8722H117.295C117.683 70.8272 119.055 72.0909 120.906 72.0909C122.47 72.0909 123.526 71.2371 124.325 70.0741L127.679 72.7118ZM105.355 51.7506L110.152 50.5645V75.5861H105.355V51.7506Z" fill="#0C2544"/>
<path d="M65.4844 49.9873L70.5075 53.9785L71.7948 50.1571L65.4844 49.9873ZM81.8241 62.9638L76.5996 58.8089L101.233 50.9551L81.8241 62.9638Z" fill="#A2A2A2"/>
<path d="M67.9531 61.5644L76.6003 58.809L70.5083 53.9774L67.9531 61.5644ZM73.8665 44L71.7943 50.156L101.232 50.9552L73.8665 44Z" fill="#B9B9B9"/>
<path d="M71.7939 50.1562L70.5078 53.9776L76.5999 58.8092L101.232 50.9554L71.7939 50.1562Z" fill="#0C2544"/>
</svg>
