<svg width="19" height="19" viewBox="0 0 19 19" fill="none" xmlns="http://www.w3.org/2000/svg">
<path d="M18.634 11.7059V18.5386H14.6727V12.1652C14.6727 10.5655 14.1024 9.47045 12.6643 9.47045C11.5692 9.47045 10.9183 10.2072 10.6306 10.9187C10.5247 11.1761 10.4994 11.5293 10.4994 11.8826V18.5386H6.53811C6.53811 18.5386 6.59362 7.73958 6.53811 6.62436H10.4994V8.31486C10.4994 8.31486 10.4792 8.34009 10.4742 8.35523H10.4994V8.31486C11.0242 7.50746 11.9628 6.34682 14.0722 6.34682C16.676 6.34682 18.634 8.05245 18.634 11.711V11.7059ZM0.386719 18.5386H4.34803V6.61931H0.386719V18.5335V18.5386ZM4.4641 2.57726C4.4641 3.70258 3.55072 4.61595 2.42541 4.61595C1.30009 4.61595 0.386719 3.70258 0.386719 2.57726C0.386719 1.45195 1.30009 0.538574 2.42541 0.538574C3.55072 0.538574 4.4641 1.45195 4.4641 2.57726Z" fill="white"/>
</svg>
