<svg width="249" height="56" viewBox="0 0 249 56" fill="none" xmlns="http://www.w3.org/2000/svg">
<path d="M56.3602 41.4155C49.4915 41.4155 46.5021 38.2481 46.5021 33.6571V33.0521H50.2745V33.4436C50.2745 36.3974 51.5201 37.8922 56.5025 37.8922C60.0258 37.8922 61.307 36.9313 61.307 34.7248C61.307 32.5539 60.5952 31.7709 56.9296 31.0236L52.8725 30.205C48.7798 29.4221 46.5733 27.4291 46.5733 23.6567C46.5733 20.1334 49.3136 16.8592 55.4704 16.8592C62.0544 16.8592 64.6879 20.5605 64.6879 24.7955V25.2226H60.9155V24.8311C60.9155 21.9128 59.6343 20.3825 55.3637 20.3825C51.8404 20.3825 50.4169 21.379 50.4169 23.4787C50.4169 25.6497 51.3777 26.2547 54.6519 26.9664L58.709 27.8206C63.1932 28.7459 65.1506 30.988 65.1506 34.5824C65.1506 38.3192 62.4458 41.4155 56.3602 41.4155ZM71.9308 41.0596H68.0872V23.372H71.6105V26.6817H71.7528C72.5714 24.7955 74.422 23.0161 77.8029 23.0161C80.8991 23.0161 82.8209 24.4396 83.6751 26.6817H83.7818C84.6004 24.8311 86.4154 23.0161 89.9031 23.0161C94.4584 23.0161 96.487 25.9344 96.487 29.9559V41.0596H92.6434V30.81C92.6434 27.6426 91.6825 26.3258 88.4795 26.3258C85.5613 26.3258 84.2089 27.5359 84.2089 30.7744V41.0596H80.3653V30.81C80.3653 27.6426 79.4044 26.3258 76.2014 26.3258C73.2832 26.3258 71.9308 27.5359 71.9308 30.7388V41.0596ZM104.936 41.4155C101.769 41.4155 99.3132 39.7784 99.3132 36.6822C99.3132 33.7639 101.449 32.2336 105.221 31.6997L111.413 30.7744V29.8135C111.413 27.18 110.203 26.397 107.427 26.397C104.616 26.397 103.513 27.2867 103.513 29.6356V30.1694H99.8115V29.8135C99.8115 25.8632 102.908 23.0161 107.641 23.0161C112.588 23.0161 115.079 26.0055 115.079 30.3118V41.0596H111.52V38.2837H111.342C110.31 39.9563 108.282 41.4155 104.936 41.4155ZM103.05 36.3974C103.05 37.7854 103.94 38.3548 106.182 38.3548C108.673 38.3548 111.413 37.3583 111.413 33.7995V33.4792L105.79 34.3333C103.762 34.618 103.05 35.0807 103.05 36.3974ZM122.603 41.0596H118.759V23.2652H122.283V26.0767H122.461C123.172 24.4396 124.81 23.0161 127.407 23.0161C131.109 23.0161 132.532 25.7208 132.532 29.0306V30.205H128.689V29.4932C128.689 27.1444 128.012 26.2903 125.77 26.2903C123.457 26.2903 122.603 27.18 122.603 29.5288V41.0596ZM142.705 41.0596C138.755 41.0596 136.691 39.6004 136.691 35.6145V26.575H133.737V23.372H136.762L137.58 18.9946H140.534V23.372H145.872V26.575H140.534V35.4366C140.534 37.2872 141.317 37.6075 143.702 37.6075H145.872V40.7393C145.125 40.9172 143.915 41.0596 142.705 41.0596ZM159.044 41.4155C152.104 41.4155 147.904 36.5754 147.904 29.1373C147.904 21.6993 152.104 16.8592 159.044 16.8592C165.45 16.8592 169.329 20.4181 169.329 26.1479V26.3614H165.236V26.1479C165.236 22.2331 163.421 20.5605 158.937 20.5605C153.99 20.5605 151.997 22.9449 151.997 29.1373C151.997 35.3298 153.99 37.7142 158.937 37.7142C163.421 37.7142 165.236 36.0416 165.236 32.1268V31.9133H169.329V32.1268C169.329 37.8566 165.45 41.4155 159.044 41.4155ZM180.604 41.4155C175.159 41.4155 171.778 37.7142 171.778 32.198C171.778 26.7173 175.159 23.0161 180.604 23.0161C186.014 23.0161 189.288 26.7173 189.288 32.198C189.288 37.7142 186.014 41.4155 180.604 41.4155ZM180.604 37.9989C184.306 37.9989 185.587 36.1839 185.587 32.198C185.587 28.2476 184.306 26.4326 180.604 26.4326C176.867 26.4326 175.551 28.2476 175.551 32.198C175.551 36.1839 176.867 37.9989 180.604 37.9989ZM196.005 41.0596H192.161V23.372H195.684V26.6817H195.827C196.645 24.7955 198.532 23.0161 201.984 23.0161C206.575 23.0161 208.639 25.9344 208.639 29.9559V41.0596H204.795V30.81C204.795 27.6426 203.799 26.3258 200.56 26.3258C197.428 26.3258 196.005 27.5359 196.005 30.8456V41.0596ZM221.908 41.0596H217.068L209.986 23.372H214.256L219.417 37.3939H219.666L224.862 23.372H229.026L221.908 41.0596ZM238.262 41.4155C232.817 41.4155 229.436 37.7142 229.436 32.198C229.436 26.7173 232.817 23.0161 238.262 23.0161C243.672 23.0161 246.946 26.7173 246.946 32.198C246.946 37.7142 243.672 41.4155 238.262 41.4155ZM238.262 37.9989C241.963 37.9989 243.245 36.1839 243.245 32.198C243.245 28.2476 241.963 26.4326 238.262 26.4326C234.525 26.4326 233.209 28.2476 233.209 32.198C233.209 36.1839 234.525 37.9989 238.262 37.9989Z" fill="#0C2544"/>
<path d="M41.8299 3.90439L42.2562 7.89473C42.514 10.3223 44.329 12.2353 46.6291 12.5102L50.4097 12.9601L46.6291 13.4101C44.329 13.6822 42.5166 15.5979 42.2562 18.0255L41.8299 22.0159L41.4036 18.0255C41.1457 15.5979 39.3307 13.6849 37.0307 13.4101L33.25 12.9601L37.0307 12.5102C39.3307 12.238 41.1432 10.3223 41.4036 7.89473L41.8299 3.90439Z" fill="#158BD4"/>
<path d="M34.6705 0L34.9329 2.4556C35.0916 3.94951 36.2085 5.12674 37.6239 5.29586L39.9505 5.57276L37.6239 5.84966C36.2085 6.01712 35.0931 7.19601 34.9329 8.68993L34.6705 11.1455L34.4082 8.68993C34.2495 7.19601 33.1326 6.01878 31.7172 5.84966L29.3906 5.57276L31.7172 5.29586C33.1326 5.1284 34.248 3.94951 34.4082 2.4556L34.6705 0Z" fill="#FFB921"/>
<path d="M0.0693422 33.2627C0.687644 33.6946 1.88408 36.2528 2.51145 37.0713C3.33834 38.1501 4.48458 39.1338 5.54855 39.9396C9.93755 43.2651 15.8051 44.4627 21.1181 43.5251C20.5944 43.8762 20.0205 44.1065 19.4485 44.3535C16.9374 45.3511 14.2922 45.9431 11.5975 45.8052C8.05771 45.6241 4.01818 44.0652 1.61267 41.2296C-0.203695 39.0894 -0.0605367 35.969 0.0693422 33.2627Z" fill="#158BD4"/>
<path d="M16.6235 10.7705L16.7612 10.7568L16.8172 10.8305C12.0836 13.4699 8.77088 17.0472 7.155 22.5461C5.83678 27.0326 6.36342 31.6679 8.44958 35.7962C10.5354 39.9235 13.5155 42.1657 17.7034 43.4994C16.0765 43.2995 14.5063 43.1016 12.9069 42.726C10.6776 42.0265 8.60861 41.1207 6.74075 39.6253C3.69977 37.1913 1.63175 33.7901 1.11709 29.7778C0.580086 25.5901 1.93005 21.4505 4.34884 18.137C7.26286 14.1438 11.8889 11.4006 16.6235 10.7705Z" fill="#0C2544"/>
<path d="M28.7156 28.3955C30.1792 30.1758 31.1104 34.5068 31.2037 36.8364C31.3864 41.3935 29.8615 46.0398 26.9018 49.3932C24.2051 52.4482 20.5993 54.2251 16.6287 54.3462C12.3453 54.4768 8.4943 52.4417 5.43356 49.4079C3.74028 47.5352 2.55226 45.558 1.55469 43.2018C1.94886 43.6139 2.34627 44.0264 2.7874 44.3837C5.97737 46.9681 10.5257 47.6761 14.4286 47.1332C18.9611 46.5027 23.3954 44.1759 26.1938 40.3075C28.7904 36.7183 29.2733 32.7463 28.7153 28.3958L28.7156 28.3955Z" fill="#158BD4"/>
<path d="M22.3822 11.2433C24.2339 11.0697 26.3612 11.4917 28.1047 12.1338C33.03 13.9475 35.934 17.9748 38.1355 22.7231C37.8553 22.3846 37.5622 22.0588 37.2564 21.7459C34.5662 19.0363 30.6264 18.0294 26.9983 18.1622C21.5336 18.3621 17.0782 20.997 13.427 25.152C12.9898 25.72 12.5704 26.2936 12.2053 26.9166C9.88307 30.8825 10.0353 34.8538 11.0274 39.2056C9.24987 36.4188 7.874 33.5665 7.55756 30.1721C7.13618 25.6552 8.55384 20.6784 11.3108 17.1799C14.102 13.6381 18.0697 11.6425 22.3822 11.2433Z" fill="#FFB921"/>
<path d="M25.8021 19.7908C27.0258 19.6571 28.3333 19.7178 29.5495 19.9044C32.8185 20.4056 36.1791 22.1146 38.174 24.957C40.2047 27.8509 40.5575 31.9328 40.0554 35.3903C39.4945 32.9587 38.5306 30.7741 37.0332 28.8199C33.8919 24.7206 29.6518 22.5315 24.7359 21.9979L24.8437 22.1214C25.3043 22.203 25.7607 22.3057 26.2128 22.4292C26.665 22.5523 27.1113 22.6963 27.5514 22.8604C27.9916 23.0245 28.4246 23.2084 28.8496 23.4121C29.2748 23.6158 29.6907 23.8386 30.0975 24.0802C33.772 26.2569 37.1586 30.0897 38.2903 34.4384C39.3484 38.5043 38.3557 42.3501 36.4396 45.9274C35.9291 46.736 35.3996 47.5163 34.8036 48.258C31.2337 52.6995 26.1775 54.7159 20.7968 55.1776C24.7576 53.7947 28.1879 50.5996 30.2565 46.8077C32.3741 42.9271 33.0349 38.345 31.9045 34.0113C30.9024 30.1682 28.6776 26.4967 25.3192 24.5271C22.0081 22.5854 19.1284 22.7117 15.6094 23.7594C18.6248 21.3108 22.0408 20.1132 25.8018 19.7912L25.8021 19.7908Z" fill="#0C2544"/>
</svg>
