<svg width="528" height="192" viewBox="0 0 528 192" fill="none" xmlns="http://www.w3.org/2000/svg">
<path d="M0 191L209 191" stroke="#0C2544"/>
<path d="M221 191H508.5C516.784 191 523.5 184.284 523.5 176V100" stroke="#0C2544" stroke-dasharray="2 2"/>
<path d="M211 191H219.5" stroke="#0C2544" stroke-dasharray="2 2"/>
<path d="M523.146 0.646447C523.342 0.451184 523.658 0.451184 523.854 0.646447L527.036 3.82843C527.231 4.02369 527.231 4.34027 527.036 4.53553C526.84 4.7308 526.524 4.7308 526.328 4.53553L523.5 1.70711L520.672 4.53553C520.476 4.7308 520.16 4.7308 519.964 4.53553C519.769 4.34027 519.769 4.02369 519.964 3.82843L523.146 0.646447ZM524 1L524 99L523 99L523 1L524 1Z" fill="#0C2544"/>
</svg>
