<svg width="528" height="192" viewBox="0 0 528 192" fill="none" xmlns="http://www.w3.org/2000/svg">
<path d="M527.5 191L318.5 191" stroke="#0C2544"/>
<path d="M306.5 191H19C10.7157 191 4 184.284 4 176V100" stroke="#0C2544" stroke-dasharray="2 2"/>
<path d="M316.5 191H308" stroke="#0C2544" stroke-dasharray="2 2"/>
<path d="M4.35355 0.646447C4.15829 0.451184 3.84171 0.451184 3.64645 0.646447L0.464466 3.82843C0.269204 4.02369 0.269204 4.34027 0.464466 4.53553C0.659728 4.7308 0.976311 4.7308 1.17157 4.53553L4 1.70711L6.82843 4.53553C7.02369 4.7308 7.34027 4.7308 7.53553 4.53553C7.7308 4.34027 7.7308 4.02369 7.53553 3.82843L4.35355 0.646447ZM3.5 1L3.5 99L4.5 99L4.5 1L3.5 1Z" fill="#0C2544"/>
</svg>
