<svg width="62" height="62" viewBox="0 0 83 83" fill="none" xmlns="http://www.w3.org/2000/svg">
<circle cx="41.274" cy="41.6197" r="40.7701" fill="#DBEFFB"/>
<g clip-path="url(#clip0_3022_12)">
<path d="M40.9843 58.9271C40.8068 58.7497 40.5606 58.6475 40.3097 58.6475C40.0587 58.6475 39.8125 58.7496 39.635 58.9271C39.4576 59.1045 39.3555 59.3507 39.3555 59.6016C39.3555 59.8536 39.4576 60.0988 39.635 60.2763C39.8125 60.4547 40.0587 60.5558 40.3097 60.5558C40.5606 60.5558 40.8068 60.4547 40.9843 60.2763C41.1617 60.0988 41.2638 59.8527 41.2638 59.6016C41.2638 59.3507 41.1617 59.1045 40.9843 58.9271Z" fill="#51657D"/>
<path d="M45.5246 50.1254V43.1043C45.5246 42.7873 45.3671 42.4909 45.1045 42.3135C44.8418 42.1362 44.5081 42.1008 44.2139 42.2192L27.772 48.8409H22.4763C19.4546 48.8409 16.9961 51.2994 16.9961 54.3213C16.9961 57.3432 19.4546 59.8017 22.4765 59.8017H23.1071V65.5318C23.1071 66.0587 23.5343 66.486 24.0613 66.486H27.9567C28.4837 66.486 28.9108 66.0587 28.9108 65.5318V60.262L44.2144 66.4171C44.3292 66.4633 44.4501 66.4861 44.5703 66.4861C44.7581 66.4861 44.9445 66.4306 45.1046 66.3225C45.3672 66.1451 45.5246 65.8488 45.5246 65.5319V58.5109C47.4381 58.0755 48.8711 56.3616 48.8711 54.3182C48.8711 52.2748 47.4381 50.5608 45.5246 50.1254ZM27.0024 64.5776H25.0155V59.8016H27.0025V64.5776H27.0024ZM27.0026 57.8932H22.4765C20.5068 57.8932 18.9045 56.2909 18.9045 54.3213C18.9045 52.3517 20.5068 50.7493 22.4765 50.7493H27.0029L27.0026 57.8932ZM43.6163 64.1195H43.6162L28.9113 58.2051V50.4394L39.3527 46.2343V55.7036C39.3527 56.2305 39.7799 56.6578 40.3069 56.6578C40.8339 56.6578 41.2611 56.2305 41.2611 55.7036V45.4657L43.6163 44.5171V64.1195ZM45.5246 56.5113V52.1249C46.3701 52.4941 46.9627 53.338 46.9627 54.3181C46.9627 55.2981 46.3702 56.142 45.5246 56.5113Z" fill="#51657D"/>
<path d="M57.9777 53.3916H52.5753C52.0483 53.3916 51.6211 53.8189 51.6211 54.3458C51.6211 54.8727 52.0483 55.3 52.5753 55.3H57.9777C58.5047 55.3 58.9319 54.8727 58.9319 54.3458C58.9319 53.8189 58.5047 53.3916 57.9777 53.3916Z" fill="#51657D"/>
<path d="M53.5433 46.3985C53.1707 46.026 52.5665 46.026 52.1938 46.3985L50.3302 48.2621C49.9576 48.6347 49.9576 49.2389 50.3302 49.6116C50.5167 49.7978 50.7609 49.891 51.005 49.891C51.2492 49.891 51.4935 49.7978 51.6797 49.6116L53.5433 47.748C53.9159 47.3754 53.9159 46.7712 53.5433 46.3985Z" fill="#51657D"/>
<path d="M53.6095 60.8538L51.6837 58.9278C51.311 58.5553 50.7069 58.5553 50.3341 58.9278C49.9615 59.3004 49.9615 59.9046 50.3341 60.2773L52.2601 62.2033C52.4464 62.3895 52.6906 62.4827 52.9348 62.4827C53.179 62.4827 53.4232 62.3895 53.6095 62.2033C53.9821 61.8307 53.9821 61.2265 53.6095 60.8538Z" fill="#51657D"/>
<path d="M62.0335 17.6299H44.2856C42.181 17.6299 40.4688 19.3421 40.4688 21.4466V21.8283H24.4385C23.1757 21.8283 22.1484 22.8557 22.1484 24.1184V39.1945C22.1484 40.4572 23.1757 41.4846 24.4385 41.4846H25.4244V44.4108C25.4244 44.7967 25.657 45.1446 26.0135 45.2924C26.1315 45.3412 26.2555 45.365 26.3784 45.365C26.6267 45.365 26.8708 45.268 27.0533 45.0855L30.6543 41.4846H49.608C50.8708 41.4846 51.8981 40.4572 51.8981 39.1945V36.332H62.0335C64.138 36.332 65.8502 34.6198 65.8502 32.5152V21.4466C65.8501 19.3421 64.138 17.6299 62.0335 17.6299ZM49.9897 39.1945C49.9897 39.405 49.8185 39.5762 49.608 39.5762H30.259C30.006 39.5762 29.7632 39.6768 29.5843 39.8557L27.3329 42.1072V40.5304C27.3329 40.0035 26.9057 39.5762 26.3787 39.5762H24.4385C24.228 39.5762 24.0568 39.405 24.0568 39.1945V24.1184C24.0568 23.9079 24.228 23.7367 24.4385 23.7367H40.4688V32.5152C40.4688 34.6198 42.181 36.332 44.2856 36.332H49.9897V39.1945ZM63.9418 32.5152C63.9418 33.5675 63.0858 34.4236 62.0335 34.4236H44.2856C43.2333 34.4236 42.3772 33.5675 42.3772 32.5152V21.4466C42.3772 20.3944 43.2333 19.5383 44.2856 19.5383H62.0335C63.0858 19.5383 63.9418 20.3944 63.9418 21.4466V32.5152Z" fill="#51657D"/>
<path d="M56.993 26.1573L50.4625 22.3869C50.1673 22.2164 49.8036 22.2164 49.5083 22.3869C49.2131 22.5573 49.0312 22.8724 49.0312 23.2132V30.7539C49.0312 31.0947 49.2131 31.4098 49.5083 31.5802C49.656 31.6655 49.8206 31.7081 49.9854 31.7081C50.1502 31.7081 50.3149 31.6655 50.4625 31.5802L56.993 27.8099C57.2882 27.6394 57.4701 27.3244 57.4701 26.9835C57.4701 26.6427 57.2883 26.3277 56.993 26.1573ZM50.9396 29.1012V24.866L54.6075 26.9836L50.9396 29.1012Z" fill="#51657D"/>
<path d="M37.4726 27.6494H27.9308C27.4038 27.6494 26.9766 28.0767 26.9766 28.6036C26.9766 29.1305 27.4038 29.5578 27.9308 29.5578H37.4726C37.9996 29.5578 38.4268 29.1305 38.4268 28.6036C38.4268 28.0767 37.9996 27.6494 37.4726 27.6494Z" fill="#51657D"/>
<path d="M38.1405 33.2718C37.963 33.0942 37.7169 32.9922 37.4659 32.9922C37.215 32.9922 36.9688 33.0942 36.7913 33.2718C36.6138 33.4492 36.5117 33.6954 36.5117 33.9464C36.5117 34.1973 36.6138 34.4435 36.7913 34.6209C36.9688 34.7984 37.215 34.9006 37.4659 34.9006C37.7178 34.9006 37.963 34.7985 38.1405 34.6209C38.318 34.4435 38.4201 34.1973 38.4201 33.9464C38.4201 33.6954 38.318 33.4492 38.1405 33.2718Z" fill="#51657D"/>
<path d="M33.8934 32.9912H27.9307C27.4038 32.9912 26.9766 33.4185 26.9766 33.9454C26.9766 34.4723 27.4038 34.8996 27.9307 34.8996H33.8934C34.4204 34.8996 34.8476 34.4723 34.8476 33.9454C34.8476 33.4185 34.4204 32.9912 33.8934 32.9912Z" fill="#51657D"/>
</g>
<defs>
<clipPath id="clip0_3022_12">
<rect width="48.8545" height="48.8545" fill="white" transform="translate(17 17.6318)"/>
</clipPath>
</defs>
</svg>
