<svg width="26" height="26" viewBox="0 0 26 26" fill="none" xmlns="http://www.w3.org/2000/svg">
<g clip-path="url(#clip0_1130_98)">
<path d="M16.7625 8.26822C14.2339 4.54822 10.8568 2.57107 9.08822 3.7825C8.89348 3.91964 8.72425 4.08983 8.58822 4.28536C8.58822 4.29964 4.49393 12.5854 4.49393 12.5854L2.20822 14.1339C1.85733 14.3721 1.55681 14.6771 1.32382 15.0315C1.09083 15.3859 0.929942 15.7826 0.850344 16.1992C0.770746 16.6158 0.773999 17.0439 0.859916 17.4592C0.945834 17.8745 1.11273 18.2689 1.35108 18.6196L1.45393 18.7711C1.93571 19.4729 2.67474 19.9564 3.51073 20.1169C4.34673 20.2774 5.21228 20.1018 5.91965 19.6282L9.59108 25.0368C10.1311 25.7025 11.1682 26.3654 12.4482 25.5854C12.675 25.4383 12.8684 25.2454 13.016 25.019C13.1637 24.7927 13.2622 24.5379 13.3054 24.2711C13.3571 24.0057 13.3557 23.7327 13.3012 23.4679C13.2468 23.2031 13.1404 22.9517 12.9882 22.7282L9.75393 17.9568C9.75393 17.9568 17.3997 17.3482 17.4282 17.3368C17.6669 17.2868 17.8933 17.1897 18.0939 17.0511C19.0025 16.4339 19.3282 15.1396 19.0139 13.4054C18.7311 11.8082 17.9282 9.99964 16.7625 8.26822ZM2.28536 18.2082L2.18251 18.0568C2.01806 17.8147 1.90298 17.5425 1.84384 17.2559C1.7847 16.9693 1.78268 16.6738 1.83788 16.3864C1.89308 16.099 2.00442 15.8253 2.16553 15.5809C2.32664 15.3366 2.53436 15.1265 2.77679 14.9625L4.75108 13.6196L7.35679 17.4568L5.38251 18.7996C5.14036 18.9643 4.86813 19.0796 4.58138 19.139C4.29464 19.1984 3.999 19.2007 3.71137 19.1458C3.42373 19.0909 3.14975 18.9798 2.90506 18.8189C2.66038 18.658 2.4498 18.4505 2.28536 18.2082ZM12.1654 23.2911C12.3215 23.5234 12.3791 23.8082 12.3256 24.083C12.272 24.3578 12.1116 24.6001 11.8797 24.7568C11.6468 24.9131 11.3616 24.9708 11.0864 24.9172C10.8111 24.8637 10.5683 24.7033 10.4111 24.4711L6.75108 19.0796L8.22251 18.0796L8.61108 18.0482L12.1654 23.2911ZM8.30251 17.0682L5.46251 12.8854L8.17108 7.3625C8.43394 8.91393 9.20251 10.7568 10.4311 12.5654C11.6596 14.3739 13.0882 15.7682 14.4311 16.5854L8.30251 17.0682ZM16.7311 16.4025C15.3654 16.3139 13.1425 14.7739 11.2596 11.9996C9.37679 9.22536 8.76536 6.59964 9.18536 5.29393C9.26121 5.04884 9.41257 4.83399 9.61781 4.68005C9.82306 4.52612 10.0717 4.44098 10.3282 4.43679C11.6825 4.43679 13.9882 5.98536 15.9254 8.83964C17.0168 10.4454 17.8111 12.1254 18.0282 13.5939C18.4539 16.4025 16.7311 16.4025 16.7311 16.4025Z" fill="#158BD4" stroke="#158BD4" stroke-width="0.3"/>
<path d="M13.1901 8.37352C12.8401 8.3048 12.48 8.30654 12.1307 8.37866C11.7814 8.45077 11.45 8.59181 11.1558 8.79352C11.1016 8.83104 11.0553 8.87888 11.0196 8.93429C10.9838 8.9897 10.9594 9.05161 10.9476 9.11648C10.9358 9.18135 10.9368 9.2479 10.9508 9.31235C10.9647 9.3768 10.9912 9.43788 11.0287 9.49209C11.0662 9.54631 11.114 9.59261 11.1694 9.62834C11.2249 9.66407 11.2868 9.68854 11.3516 9.70035C11.4165 9.71215 11.4831 9.71106 11.5475 9.69715C11.612 9.68323 11.673 9.65676 11.7272 9.61924C11.9135 9.49279 12.1229 9.40428 12.3434 9.35875C12.5639 9.31322 12.7912 9.31157 13.0123 9.35388C13.2335 9.3962 13.4441 9.48166 13.6322 9.60538C13.8203 9.7291 13.9822 9.88866 14.1087 10.075C14.2351 10.2612 14.3236 10.4706 14.3692 10.6911C14.4147 10.9116 14.4163 11.1389 14.374 11.36C14.3317 11.5812 14.2463 11.7918 14.1225 11.9799C13.9988 12.168 13.8393 12.3299 13.653 12.4564C13.5651 12.517 13.499 12.6042 13.4643 12.7052C13.4295 12.8061 13.428 12.9155 13.46 13.0174C13.4919 13.1192 13.5556 13.2082 13.6417 13.2713C13.7279 13.3343 13.8319 13.3681 13.9387 13.3678C14.0405 13.3697 14.1404 13.3398 14.2244 13.2821C14.6688 12.9811 15.0138 12.5549 15.2158 12.0576C15.4178 11.5603 15.4677 11.0142 15.359 10.4886C15.2504 9.9629 14.9882 9.48131 14.6057 9.10479C14.2231 8.72827 13.7374 8.47377 13.2101 8.37352H13.1901Z" fill="#158BD4" stroke="#158BD4" stroke-width="0.3"/>
<path d="M17.38 4.7911H17.4286C17.5522 4.79105 17.6715 4.74517 17.7633 4.66232C17.8551 4.57948 17.913 4.46554 17.9257 4.34253L18.3114 0.593959C18.3202 0.527674 18.3156 0.460302 18.2979 0.395829C18.2802 0.331356 18.2497 0.271091 18.2083 0.2186C18.1668 0.16611 18.1153 0.122459 18.0567 0.090232C17.9982 0.0580045 17.9337 0.0378546 17.8672 0.0309744C17.8007 0.0240943 17.7335 0.0306236 17.6695 0.0501761C17.6056 0.0697285 17.5462 0.101907 17.4949 0.144808C17.4437 0.187708 17.4015 0.24046 17.371 0.299941C17.3404 0.359422 17.3221 0.424424 17.3171 0.491102L16.9343 4.24253C16.9207 4.37437 16.96 4.50621 17.0436 4.60907C17.1272 4.71194 17.2482 4.77741 17.38 4.7911Z" fill="#158BD4" stroke="#158BD4" stroke-width="0.3"/>
<path d="M23.843 4.0198C23.7696 3.90914 23.6554 3.83201 23.5253 3.80524C23.3953 3.77848 23.2599 3.80425 23.1488 3.87694L19.6659 6.16266C19.5755 6.22237 19.5069 6.30986 19.4705 6.41193C19.4341 6.51401 19.4318 6.62515 19.464 6.72862C19.4963 6.83209 19.5612 6.92228 19.6492 6.98562C19.7371 7.04896 19.8433 7.08201 19.9516 7.0798C20.0527 7.08213 20.1522 7.05427 20.2373 6.9998L23.7202 4.71409C23.8282 4.63807 23.9018 4.52237 23.9248 4.39229C23.9478 4.2622 23.9184 4.12828 23.843 4.0198Z" fill="#158BD4" stroke="#158BD4" stroke-width="0.3"/>
<path d="M24.9083 10.1222L20.8569 9.39364C20.7262 9.37015 20.5915 9.39955 20.4825 9.47536C20.3734 9.55118 20.299 9.66721 20.2755 9.79792C20.252 9.92864 20.2814 10.0633 20.3572 10.1724C20.433 10.2814 20.549 10.3559 20.6798 10.3794L24.7283 11.1079H24.8169C24.9443 11.1116 25.0683 11.0666 25.1636 10.9819C25.2589 10.8973 25.3182 10.7795 25.3295 10.6525C25.3409 10.5256 25.3033 10.3991 25.2244 10.2989C25.1456 10.1988 25.0315 10.1325 24.9055 10.1136L24.9083 10.1222Z" fill="#158BD4" stroke="#158BD4" stroke-width="0.3"/>
</g>
<defs>
<clipPath id="clip0_1130_98">
<rect width="26" height="26" fill="white"/>
</clipPath>
</defs>
</svg>
