<svg width="288" height="161" viewBox="0 0 288 161" fill="none" xmlns="http://www.w3.org/2000/svg">
<path d="M4 71V145C4 153.284 10.7157 160 19 160H71.5H77" stroke="#0C2544" stroke-dasharray="2 2"/>
<path d="M287.5 160L78.5 160" stroke="#0C2544"/>
<path d="M4 70L4 49.75" stroke="#0C2544"/>
<path d="M4.35355 0.646446C4.15829 0.451183 3.84171 0.451183 3.64645 0.646446L0.464466 3.82843C0.269204 4.02369 0.269204 4.34027 0.464466 4.53553C0.659728 4.7308 0.976311 4.7308 1.17157 4.53553L4 1.70711L6.82843 4.53553C7.02369 4.7308 7.34027 4.7308 7.53553 4.53553C7.7308 4.34027 7.7308 4.02369 7.53553 3.82843L4.35355 0.646446ZM4.5 50.5L4.5 1L3.5 1L3.5 50.5H4.5Z" fill="#0C2544"/>
</svg>
