<svg width="288" height="161" viewBox="0 0 288 161" fill="none" xmlns="http://www.w3.org/2000/svg">
<path d="M283.5 71V145C283.5 153.284 276.784 160 268.5 160H216H210.5" stroke="#0C2544" stroke-dasharray="2 2"/>
<path d="M0 160L209 160" stroke="#0C2544"/>
<path d="M283.5 70L283.5 49.75" stroke="#0C2544"/>
<path d="M283.146 0.646446C283.342 0.451183 283.658 0.451183 283.854 0.646446L287.036 3.82843C287.231 4.02369 287.231 4.34027 287.036 4.53553C286.84 4.7308 286.524 4.7308 286.328 4.53553L283.5 1.70711L280.672 4.53553C280.476 4.7308 280.16 4.7308 279.964 4.53553C279.769 4.34027 279.769 4.02369 279.964 3.82843L283.146 0.646446ZM283 50.5L283 1L284 1L284 50.5H283Z" fill="#0C2544"/>
</svg>
