<svg width="41" height="29" viewBox="0 0 41 29" fill="none" xmlns="http://www.w3.org/2000/svg">
<path d="M39.7437 24.042L38.9326 3.73291H13.1168C12.4531 3.73291 11.915 4.27093 11.915 4.93472V23.2845L39.7437 24.042Z" fill="#5DE1C4"/>
<path d="M39.3332 3.73291H38.9326V22.8838C38.9326 23.1051 38.7533 23.2844 38.532 23.2844H11.915V23.685C11.915 24.3487 12.4531 24.8868 13.1168 24.8868H29.0549C29.2368 24.8868 29.4134 24.9487 29.5554 25.0623L34.256 28.8228C34.7806 29.2425 35.5577 28.869 35.5577 28.1972V25.688C35.5577 25.2455 35.9164 24.8868 36.3589 24.8868H39.3333C39.997 24.8868 40.5351 24.3488 40.5351 23.685V4.93472C40.535 4.27101 39.9969 3.73291 39.3332 3.73291Z" fill="#0ED2B3"/>
<path d="M28.3592 20.3395L27.7334 0H1.91763C1.25384 0 0.71582 0.538024 0.71582 1.20181V19.5516L28.3592 20.3395Z" fill="#60B7FF"/>
<path d="M28.134 0H27.7334V19.1509C27.7334 19.3721 27.554 19.5515 27.3328 19.5515H0.71582V19.9521C0.71582 20.6159 1.25384 21.1539 1.91763 21.1539H4.892C5.33452 21.1539 5.69321 21.5126 5.69321 21.9551V24.4643C5.69321 25.1361 6.4703 25.5096 6.99487 25.0899L11.6955 21.3294C11.8376 21.2158 12.014 21.1539 12.1959 21.1539H28.134C28.7977 21.1539 29.3358 20.6159 29.3358 19.9521V1.20181C29.3358 0.538102 28.7977 0 28.134 0Z" fill="#26A6FE"/>
<path d="M6.52316 12.6513C7.66856 12.6513 8.59709 11.7228 8.59709 10.5774C8.59709 9.43195 7.66856 8.50342 6.52316 8.50342C5.37775 8.50342 4.44922 9.43195 4.44922 10.5774C4.44922 11.7228 5.37775 12.6513 6.52316 12.6513Z" fill="white"/>
<path d="M15.0261 12.6513C16.1715 12.6513 17.1 11.7228 17.1 10.5774C17.1 9.43195 16.1715 8.50342 15.0261 8.50342C13.8807 8.50342 12.9521 9.43195 12.9521 10.5774C12.9521 11.7228 13.8807 12.6513 15.0261 12.6513Z" fill="white"/>
<path d="M23.529 12.6513C24.6744 12.6513 25.603 11.7228 25.603 10.5774C25.603 9.43195 24.6744 8.50342 23.529 8.50342C22.3836 8.50342 21.4551 9.43195 21.4551 10.5774C21.4551 11.7228 22.3836 12.6513 23.529 12.6513Z" fill="white"/>
</svg>
