<svg width="56" height="56" viewBox="0 0 56 56" fill="none" xmlns="http://www.w3.org/2000/svg">
<path fill-rule="evenodd" clip-rule="evenodd" d="M14.7695 13.8705L19.9964 13.8704L17.3835 8.75804L14.7695 13.8705ZM11.5882 18.4086C11.2111 18.2166 11.061 17.7533 11.2545 17.3762L16.7005 6.72166C16.9846 6.16457 17.7829 6.16536 18.0673 6.72166L21.7956 14.0147C21.989 14.1538 22.1158 14.3815 22.1158 14.6383L23.5132 17.3759C23.7782 17.8927 23.3909 18.4938 22.8308 18.4938C22.5513 18.4938 22.2822 18.3398 22.1457 18.0745L20.782 15.4061L13.9857 15.4063L12.6209 18.0748C12.4286 18.4525 11.966 18.6019 11.5882 18.4086ZM12.3658 20.5434C10.4762 20.5434 8.84803 21.2285 7.5271 22.5805L4.80505 25.3661L4.8046 8.0287C4.8046 5.91661 6.52268 4.19841 8.63478 4.1983L26.1321 4.19785C28.2435 4.19785 29.9624 5.91593 29.9625 8.02803L29.9627 16.7133C29.9627 18.8247 28.244 20.5429 26.1325 20.543L12.3658 20.5434ZM12.3658 22.0784C10.9051 22.0784 9.64625 22.609 8.62548 23.653L4.58632 27.7862C4.10785 28.2765 3.26987 27.9391 3.26987 27.2499L3.26953 8.0287C3.26942 5.06977 5.67585 2.66267 8.63478 2.66256L26.1321 2.66211C29.0903 2.662 31.4981 5.0691 31.4982 8.02803L31.4985 16.7133C31.4986 19.6715 29.0908 22.0781 26.1325 22.0781L12.3658 22.0784ZM40.642 35.7428L36.5918 35.7429L38.6173 38.0471L40.642 35.7428ZM44.5495 42.7318C44.4714 43.1528 44.0679 43.4247 43.6548 43.347C42.8669 43.2015 42.1009 42.937 41.3803 42.5617C40.168 41.9303 39.4014 41.1521 38.6174 40.3248C37.8327 41.1523 37.0662 41.9304 35.8539 42.5619C35.1333 42.9371 34.3687 43.2017 33.5794 43.3472C33.1628 43.4242 32.7611 43.15 32.6848 42.732C32.6078 42.3154 32.8833 41.915 33.3 41.8374C33.9385 41.7196 34.5601 41.5048 35.1455 41.1995C36.1702 40.6658 36.799 40.0131 37.5771 39.1896L34.3181 35.4829C33.8838 34.987 34.2367 34.2072 34.8956 34.2072L37.8487 34.2071L37.8486 31.9385C37.8486 31.5141 38.1928 31.1713 38.6172 31.1713C39.0409 31.1713 39.3844 31.5141 39.3844 31.9385V34.2071L42.3387 34.207C42.9967 34.207 43.3497 34.9878 42.9157 35.4827L39.6568 39.1895C40.4363 40.013 41.0638 40.6656 42.0885 41.1993C42.6753 41.5046 43.2956 41.7194 43.9342 41.8371C44.3521 41.9147 44.6278 42.3151 44.5495 42.7318ZM51.1954 33.3471L51.1959 50.6839L48.4737 47.8991C47.1534 46.5472 45.5251 45.8627 43.6356 45.8629L29.8683 45.8632C27.7569 45.8632 26.0386 44.1451 26.0386 42.033L26.0383 33.3478C26.0383 31.2357 27.7564 29.518 29.8679 29.518L47.3657 29.5176C49.4779 29.5175 51.1954 31.235 51.1954 33.3471ZM52.7312 33.3471C52.7311 30.3888 50.324 27.9817 47.3657 27.9818L29.8679 27.9823C26.9096 27.9824 24.5026 30.3895 24.5026 33.3478L24.5028 42.033C24.5029 44.9919 26.91 47.3983 29.8683 47.3983L43.6356 47.3979C45.0963 47.3979 46.3545 47.927 47.3759 48.9724L51.4152 53.1053C51.8962 53.5972 52.7316 53.2543 52.7316 52.5684L52.7312 33.3471ZM17.5382 40.98C17.2393 40.6798 16.7535 40.6798 16.4534 40.98C16.1532 41.2795 16.1532 41.766 16.4534 42.0662L18.6096 44.2223L14.4015 44.2224C13.1271 44.2224 12.0914 43.1862 12.0914 41.9117L12.0912 30.5555C12.0912 30.1318 11.747 29.7876 11.3233 29.7876C10.8996 29.7876 10.5555 30.1318 10.5555 30.5555L10.5557 41.9117C10.5557 44.0329 12.2804 45.7575 14.4015 45.7575L18.6096 45.7574L16.4535 47.9148C15.9682 48.3998 16.319 49.2248 16.9963 49.2248C17.1923 49.2248 17.3889 49.1504 17.5383 48.9996L21.0056 45.5335C21.3051 45.2341 21.3061 44.7478 21.0056 44.4473L17.5382 40.98ZM34.9941 11.5522C34.6952 11.2506 34.6966 10.7649 34.9941 10.466L38.4621 6.99864C38.7615 6.69971 39.2481 6.69971 39.5476 6.99864C39.8477 7.2988 39.8477 7.78533 39.5476 8.08481L37.3909 10.2423L41.5996 10.2422C43.7195 10.2422 45.4462 11.9667 45.4462 14.0879L45.4464 25.4441C45.4464 25.8678 45.1022 26.212 44.6785 26.212C44.2541 26.212 43.9106 25.8679 43.9106 25.4441L43.9104 14.0879C43.9104 12.8136 42.8734 11.7772 41.5996 11.7772L37.3909 11.7773L39.5477 13.9335C39.8478 14.2336 39.8478 14.7195 39.5477 15.0196C39.2482 15.3198 38.7617 15.3198 38.4622 15.0196L34.9941 11.5522Z" fill="#0C2544"/>
</svg>
