<svg width="26" height="25" viewBox="0 0 26 25" fill="none" xmlns="http://www.w3.org/2000/svg">
<g clip-path="url(#clip0_1130_340)">
<path d="M2.36388 1.75284L15.7145 0.766731C17.3545 0.626065 17.7758 0.720888 18.807 1.47054L23.0687 4.47277C23.7716 4.9891 24.0056 5.12977 24.0056 5.69195V22.1575C24.0056 23.1895 23.6309 23.7999 22.3191 23.893L6.81547 24.8321C5.83105 24.8787 5.36225 24.738 4.84664 24.081L1.70833 20C1.14543 19.2489 0.912109 18.6867 0.912109 18.0295V3.39353C0.912109 2.54978 1.28681 1.84621 2.36388 1.75284Z" fill="white"/>
<path fill-rule="evenodd" clip-rule="evenodd" d="M15.7145 0.766972L2.36388 1.75308C1.28681 1.84621 0.912109 2.55002 0.912109 3.39353V18.0295C0.912109 18.6865 1.14543 19.2487 1.70833 20L4.84664 24.0807C5.36225 24.7377 5.83105 24.8787 6.81547 24.8318L22.3193 23.8933C23.6302 23.7999 24.0058 23.1895 24.0058 22.1578V5.69219C24.0058 5.15896 23.7952 5.00527 23.1751 4.55022L18.807 1.47054C17.776 0.720888 17.3545 0.626065 15.7145 0.766731V0.766972ZM7.16605 5.42268C5.90006 5.50785 5.61294 5.52716 4.89393 4.94254L3.066 3.48859C2.88022 3.3004 2.97359 3.06563 3.44167 3.01882L16.276 2.08097C17.3538 1.98688 17.915 2.36255 18.3365 2.69069L20.5377 4.28554C20.6318 4.33307 20.8658 4.61367 20.5843 4.61367L7.33012 5.41158L7.16605 5.42268ZM5.69015 22.0171V8.03911C5.69015 7.42867 5.87762 7.1471 6.43883 7.09981L21.6621 6.20853C22.1784 6.16196 22.4117 6.4901 22.4117 7.09957V20.9844C22.4117 21.5949 22.3176 22.1112 21.4748 22.1578L6.90716 23.0022C6.06437 23.0488 5.69039 22.7682 5.69039 22.0171H5.69015ZM20.0703 8.78852C20.1637 9.21075 20.0703 9.63299 19.6481 9.68125L18.946 9.82047V20.1407C18.3363 20.4688 17.7751 20.6563 17.306 20.6563C16.5564 20.6563 16.3691 20.4215 15.8077 19.7184L11.2161 12.4946V19.4837L12.6686 19.8125C12.6686 19.8125 12.6686 20.657 11.4968 20.657L8.26604 20.8445C8.17194 20.6563 8.26604 20.1875 8.59345 20.0941L9.4372 19.8601V10.6191L8.26628 10.5243C8.17218 10.102 8.40622 9.49233 9.0625 9.44504L12.5289 9.21172L17.3063 16.529V10.0555L16.0885 9.91553C15.9944 9.39847 16.3691 9.0228 16.8372 8.97696L20.0703 8.78852Z" fill="black"/>
</g>
<defs>
<clipPath id="clip0_1130_340">
<rect width="24.1278" height="24.1278" fill="white" transform="translate(0.912109 0.712891)"/>
</clipPath>
</defs>
</svg>
