<svg width="281" height="120" viewBox="0 0 281 120" fill="none" xmlns="http://www.w3.org/2000/svg">
<path d="M101.235 102.9H93.4004C93.5869 102.7 93.7735 102.7 93.96 102.7H101.142V102.9H101.235Z" fill="#0C2544"/>
<path d="M91.2559 102.9C91.7222 102.7 92.1885 102.7 92.6549 102.9H91.2559Z" fill="#0C2544"/>
<path d="M105.058 102.8H103.846C104.312 102.6 104.778 102.4 105.058 102.8Z" fill="#0C2544"/>
<path d="M92.748 102.9C92.9346 102.7 93.2144 102.7 93.4009 102.9H92.748Z" fill="#0C2544"/>
<path d="M103.753 102.8H103.287C103.474 102.6 103.66 102.6 103.753 102.8Z" fill="#0C2544"/>
<path d="M103.753 102.8H91.2552C88.8303 102.8 86.4986 102.8 83.9804 102.6C81.2757 102.6 78.5709 102.2 75.7729 102C72.9749 101.8 70.1769 101.4 67.3789 101C62.0627 100.1 56.8398 99.2001 51.7101 97.3001C48.7256 96.2001 45.9276 95.0001 43.4094 93.0001C41.9171 91.9001 40.7047 90.6001 39.8653 88.7001C38.7461 86.4001 38.8393 84.1001 39.6787 81.6001C40.5181 79.1001 41.9171 77.1001 43.5027 75.1001C46.767 71.2001 50.6842 67.9001 54.7879 65.0001C59.4513 61.6001 64.3011 58.5001 69.2443 55.7001C69.8039 55.3001 70.4567 55.0001 71.0163 54.6001C71.4827 54.4001 71.5759 54.4001 71.5759 55.0001V60.8001C71.5759 61.0001 71.5759 61.2001 71.3894 61.3001C70.1769 62.2001 68.9645 63.0001 67.8453 64.0001C65.0473 66.3001 62.156 68.8001 59.5445 71.4001C57.7725 73.3001 56.0004 75.5001 54.7879 78.0001C54.1351 79.3001 53.6687 80.7001 53.3889 82.1001C53.2024 84.4001 53.8553 86.4001 55.161 87.9001C56.56 89.5001 58.2388 90.6001 60.0109 91.4001C62.5291 92.6001 65.1405 93.5001 67.752 94.1001C70.2702 94.7001 72.8817 95.2001 75.4931 95.6001C77.6383 96.0001 79.9699 96.1001 82.1151 96.3001C85.5659 96.5001 88.8303 96.8001 92.2811 96.9001H104.033C107.857 96.9001 110.188 96.9001 113.266 96.7001C116.064 96.7001 118.862 96.5001 121.66 96.3001C123.619 96.3001 125.671 96.1001 127.536 95.9001C129.961 95.9001 132.386 95.5001 134.811 95.4001C136.396 95.4001 137.889 95.2001 139.474 95.0001C141.246 95.0001 143.111 94.6001 144.884 94.5001C147.122 94.3001 149.454 94.0001 151.692 93.8001C154.77 93.4001 157.848 93.2001 160.925 92.8001C163.444 92.4001 165.962 92.2001 168.387 91.9001C170.905 91.5001 173.423 91.3001 175.848 90.9001C177.993 90.5001 180.138 90.3001 182.283 90.0001C184.988 89.6001 187.693 89.1001 190.491 88.8001C193.289 88.5001 196.087 87.9001 198.792 87.5001C201.496 87.0001 204.108 86.6001 206.719 86.2001C210.263 85.6001 213.808 85.0001 217.165 84.3001C219.777 83.8001 222.388 83.2001 225 82.7001C229.29 81.8001 233.673 80.8001 237.964 79.7001C239.083 79.5001 240.109 79.1001 241.228 79.0001H241.601C241.135 79.4001 240.482 79.5001 239.922 79.7001C235.352 81.2001 230.689 82.6001 226.026 84.0001C221.549 85.2001 217.165 86.4001 212.688 87.5001C208.212 88.6001 203.921 89.7001 199.538 90.7001C195.9 91.4001 192.356 92.3001 188.719 93.0001C186.48 93.5001 184.149 93.9001 182.004 94.3001C179.019 94.9001 176.221 95.4001 173.237 95.9001C169.786 96.5001 166.428 97.0001 162.977 97.5001C159.247 98.1001 155.329 98.6001 151.599 99.1001C148.801 99.5001 145.909 99.7001 143.111 100.1C140.407 100.3 137.702 100.7 134.997 101C132.945 101.2 130.8 101.4 128.748 101.5C126.137 101.7 123.525 101.9 120.821 102.1C118.396 102.1 116.064 102.3 113.639 102.5C110.561 102.5 107.577 102.7 104.499 102.7C104.313 102.5 103.846 102.5 103.38 102.5H103.473C103.473 102.6 103.473 102.6 103.473 102.6L103.753 102.8Z" fill="#0C2544"/>
<path d="M114.478 77.2002V78.9002C114.385 78.3002 114.385 77.8002 114.478 77.2002Z" fill="#0C2544"/>
<path d="M136.398 46.1004H135.186C135.652 46.0004 136.118 46.0004 136.398 46.1004Z" fill="#0C2544"/>
<path d="M95.1738 45.9002C95.3604 45.8002 95.6402 45.8002 96.0132 45.9002H95.1738Z" fill="#0C2544"/>
<path d="M74.2803 45.8999H73.7207C73.9072 45.7999 74.0938 45.8999 74.2803 45.8999Z" fill="#0C2544"/>
<path d="M132.852 22.3004C132.852 22.3004 132.852 22.2004 132.666 22.2004C132.666 22.2004 132.293 22.3004 132.199 22.3004C131.08 22.7004 129.961 22.9004 128.748 23.3004C125.764 24.2004 122.873 25.1004 119.888 26.0004C119.515 26.2004 119.235 26.0004 119.049 25.6004C117.93 23.4004 116.904 21.1004 115.784 18.9004C115.598 18.3004 115.225 17.7004 114.852 17.1004C114.852 17.1004 114.758 16.9004 114.665 16.9004C114.572 16.9004 114.479 17.1004 114.479 17.3004V17.5004L111.028 27.7004C110.748 28.8004 110.095 29.4004 109.069 29.8004C105.525 31.1004 101.888 32.4004 98.3436 33.6004C98.2503 33.7004 97.8772 33.7004 97.8772 34.0004C97.8772 34.0004 98.2503 34.2004 98.4368 34.2004C100.675 34.8004 103.1 35.4004 105.339 36.0004C106.178 36.1004 106.831 36.4004 107.577 36.6004C107.39 36.7004 107.204 36.8004 107.111 36.8004C102.354 39.0004 97.5974 41.1004 92.7476 43.4004C89.6698 44.9004 86.6852 46.4004 83.6074 47.8004C83.6074 47.9004 83.7007 48.0004 83.7007 48.2004C84.0738 49.4004 84.3536 50.5004 84.8199 51.7004C84.8199 51.7004 84.8199 51.9004 85.0064 51.9004C85.193 51.9004 85.3795 51.8004 85.4728 51.7004C86.965 50.8004 88.2708 50.0004 89.763 49.1004C89.9496 48.9004 90.1361 49.1004 90.1361 49.3004V59.1004C90.1361 59.3004 90.0428 59.6004 90.1361 59.7004V46.5004C90.1361 46.1004 90.3226 45.9004 90.6957 45.8004H94.7994C94.986 45.8004 95.2658 45.8004 95.1725 45.3004C95.359 45.3004 95.7321 44.9004 96.0119 44.8004C99.8358 42.6004 103.66 40.5004 107.484 38.5004C107.484 38.5004 107.484 38.4004 107.67 38.5004V39.1004C107.111 41.0004 106.458 43.1004 105.898 45.2004C105.059 47.8004 104.313 50.4004 103.473 53.0004V53.6004C103.846 53.4004 104.033 53.0004 104.313 52.7004C107.95 48.3004 111.494 43.9004 115.038 39.5004H115.505C118.209 41.4004 121.101 43.4004 123.805 45.3004C123.992 45.3004 124.178 45.7004 124.365 45.5004C124.551 45.4004 124.458 45.0004 124.365 44.8004C123.432 41.4004 122.593 37.9004 121.567 34.4004C121.567 33.8004 121.567 33.5004 121.94 33.2004C124.925 30.0004 128.002 27.0004 131.08 23.9004C131.64 23.4004 132.199 22.8004 132.666 22.3004C133.132 21.8004 132.852 22.3004 132.666 22.1004H132.759L132.852 22.3004ZM129.401 24.5004C126.417 27.3004 123.619 30.1004 120.634 32.8004C120.448 33.0004 120.261 33.3004 120.448 33.7004C120.914 35.9004 121.474 38.1004 121.94 40.4004C122.033 40.6004 122.033 40.9004 122.033 41.3004C120.914 40.7004 119.795 40.2004 118.582 39.7004C117.65 39.2004 116.624 38.8004 115.784 38.4004C115.598 38.4004 115.318 38.4004 115.225 38.5004C113.266 40.6004 111.494 42.6004 109.536 44.7004L107.577 46.8004C107.577 46.8004 107.577 47.0004 107.204 47.0004C108.137 43.3004 108.976 39.7004 109.909 35.9004C109.909 35.6004 109.909 35.4004 109.536 35.3004C106.831 34.9004 104.126 34.6004 101.328 34.1004C100.955 34.3004 100.768 34.3004 100.302 34.2004C100.675 34.0004 100.862 34.0004 101.235 33.8004C104.779 32.8004 108.137 31.7004 111.681 30.8004C112.147 30.8004 112.334 30.4004 112.52 29.9004C112.986 27.8004 113.453 25.8004 113.919 23.6004C114.106 22.6004 114.292 21.5004 114.479 20.4004C114.479 20.4004 114.479 20.2004 114.572 19.9004C114.758 19.9004 114.758 20.3004 114.945 20.4004C115.878 22.8004 116.624 25.4004 117.556 27.8004C117.743 28.1004 117.93 28.2004 118.209 28.2004C121.847 27.0004 125.577 25.6004 129.215 24.4004C129.308 24.4004 129.401 24.3004 129.588 24.3004C129.588 24.4004 129.588 24.5004 129.401 24.5004Z" fill="#0C2544"/>
<path d="M81.6485 45.9004H82.7677C82.9542 45.9004 83.0475 45.9004 83.1408 46.1004C83.3273 46.7004 83.5138 47.3004 83.7004 47.9004C83.7004 48.0004 83.7004 48.1004 83.8869 48.3004C84.26 49.5004 84.5398 50.7004 85.0061 52.0004V52.2004C85.9388 55.1004 86.7782 57.9004 87.7108 60.9004C88.5502 63.5004 89.2964 66.1004 90.229 68.7004V69.2004V47.0004C90.229 46.1004 90.229 45.9004 91.255 45.9004H94.9856C95.1722 45.9004 95.5452 45.9004 95.825 46.0004H98.0634C98.4365 46.0004 98.623 46.2004 98.623 46.7004V79.1004C98.623 79.5004 98.623 79.6004 98.1567 79.6004H87.8974C87.5243 79.6004 87.431 79.6004 87.3378 79.1004C84.9128 71.5004 82.4879 64.1004 79.9697 56.5004V56.3004V79.1004C79.9697 86.7004 79.9697 79.6004 79.5034 79.6004H71.8555C71.669 79.6004 71.4824 79.6004 71.4824 79.2004V46.2004C71.4824 46.0004 71.4824 46.0004 71.669 46.0004H80.9024C80.9956 45.9004 81.2754 45.9004 81.3687 45.9004H81.462H81.6485Z" fill="#0C2544"/>
<path d="M139.849 56.6007H138.636C138.45 56.6007 138.45 56.6007 138.45 56.4007V53.8007C138.45 52.9007 137.89 52.5007 137.237 52.3007C136.398 52.1007 135.652 52.1007 134.813 52.4007C134.16 52.8007 133.88 53.4007 133.787 54.1007C133.6 55.9007 134.346 57.1007 135.559 58.1007C136.771 59.1007 138.263 59.9007 139.662 60.7007C140.782 61.4007 142.087 62.2007 143.113 63.0007C144.512 64.1007 145.725 65.4007 146.378 67.3007C146.937 68.6007 147.217 70.1007 147.03 71.6007C147.03 72.8007 147.03 74.0007 146.657 75.3007C146.005 77.6007 144.512 79.0007 142.46 79.6007C141.061 80.1007 139.756 80.2007 138.263 80.3007H132.574C131.175 80.3007 129.869 79.9007 128.564 79.3007C126.512 78.4007 125.393 76.7007 125.02 74.4007C124.833 72.8007 125.02 71.2007 125.02 69.6007C125.02 68.0007 125.206 69.4007 125.393 69.4007H133.6C133.787 69.6007 133.6 70.1007 133.6 70.5007V72.2007C133.6 73.2007 134.16 74.0007 135.186 74.1007H136.864C137.797 73.9007 138.263 73.2007 138.357 72.4007C138.543 70.7007 138.17 69.4007 136.958 68.3007C135.745 67.1007 134.253 66.2007 132.854 65.4007C131.735 64.7007 130.429 64.1007 129.403 63.2007C127.911 62.1007 126.698 60.8007 125.859 58.9007C125.206 57.3007 124.833 55.6007 124.926 53.9007C124.926 52.8007 125.113 51.6007 125.579 50.6007C126.232 48.9007 127.538 47.8007 129.217 47.2007C130.895 46.6007 132.761 46.3007 134.626 46.2007H135.279C135.745 46.1007 136.212 46.2007 136.491 46.2007C137.984 46.2007 139.476 46.3007 140.968 46.7007C142.367 47.1007 143.673 47.6007 144.792 48.6007C146.005 49.8007 146.564 51.3007 146.751 53.0007C146.844 54.1007 146.844 55.3007 146.844 56.4007C146.844 57.5007 146.751 56.8007 146.471 56.8007H142.367C141.155 56.6007 140.315 56.6007 139.569 56.6007H139.849Z" fill="#0C2544"/>
<path d="M114.477 77.2V76.7C114.104 77.3 113.637 77.8 113.264 78.3C111.772 79.6 110 80.1 108.041 80.1C106.083 80.1 105.337 79.9 104.217 79C102.818 78.1 102.166 76.8 102.072 75.1V56.1C102.072 49.8 102.072 55.7 102.445 55.7H110.186C110.373 55.7 110.56 55.8 110.56 56.1V73.3C110.56 74.3 111.212 74.9 112.052 74.9H112.984C113.917 74.7 114.383 74 114.383 73V56.1C114.383 55.9 114.383 55.7 114.757 55.7H122.498C122.684 55.7 122.871 55.8 122.871 56.1V79.1C122.871 79.3 122.871 79.5 122.498 79.5H115.316C114.943 79.5 114.757 79.3 114.757 78.9V77.3L114.477 77.2Z" fill="#0C2544"/>
<path d="M159.153 66.1002C159.153 68.5002 159.153 70.2002 159.246 71.9002C159.246 72.3002 159.339 72.6002 159.619 73.0002C159.899 73.4002 160.179 73.5002 160.552 73.5002H163.536C164.562 73.5002 163.91 73.5002 163.91 73.9002V79.1002C163.91 79.3002 163.91 79.3002 163.723 79.3002H154.769C153.743 79.3002 152.811 78.9002 152.158 78.2002C151.505 77.6002 151.132 76.7002 151.132 75.8002C151.132 71.5002 151.039 67.3002 151.039 63.0002V61.4002C151.039 61.0002 150.945 61.0002 150.666 61.0002H148.707C148.521 61.0002 148.334 61.0002 148.334 60.8002V56.0002C148.334 55.8002 148.427 55.6002 148.707 55.6002H150.759C150.945 55.6002 151.132 55.6002 151.132 55.2002V49.6002C151.132 49.4002 151.225 49.2002 151.505 49.2002H159.246C159.619 49.2002 159.619 49.3002 159.619 49.6002V55.2002C159.619 55.4002 159.713 55.6002 159.992 55.6002H164.003C164.189 55.6002 164.376 55.6002 164.376 56.0002V60.6002C164.376 60.8002 164.283 61.0002 164.003 61.0002H160.179C159.992 61.0002 159.806 61.1002 159.806 61.4002C159.433 63.1002 159.433 64.9002 159.433 66.0002L159.153 66.1002Z" fill="#0C2544"/>
<path d="M198.42 60.4006C198.887 59.7006 199.446 58.9006 199.913 58.3006C201.125 56.6006 202.711 55.7006 204.669 55.6006C205.229 55.6006 205.509 55.8006 205.509 56.3006V63.0006C205.509 63.4006 205.415 63.4006 205.136 63.4006H201.964C200.472 63.8006 199.353 64.7006 198.793 66.3006C198.7 66.3006 198.7 66.7006 198.7 66.8006V79.0006C198.7 79.4006 198.607 79.4006 198.327 79.4006H190.586C190.399 79.4006 190.213 79.4006 190.213 79.0006V56.0006C190.213 55.8006 190.306 55.6006 190.586 55.6006H197.954C198.141 55.6006 198.327 55.6006 198.327 56.0006V59.7006C198.327 59.9006 198.327 60.1006 198.42 60.3006C198.42 60.4006 198.42 60.4006 198.42 60.4006Z" fill="#0C2544"/>
<path d="M71.5762 87.1008V82.7008C71.5762 82.5008 71.5762 82.3008 71.9492 82.3008H78.1981C78.3846 82.3008 78.3846 82.3008 78.3846 82.5008V84.4008C78.3846 84.6008 78.3846 84.6008 78.1981 84.6008H74.5607C74.3742 84.6008 74.1876 84.6008 74.1876 85.0008C74.1876 85.4008 74.3742 85.7008 74.8405 85.7008H77.6385C77.825 85.7008 78.0116 85.7008 77.825 86.1008V87.9008C77.825 88.1008 77.7318 88.1008 77.452 88.1008H74.2809C74.0944 88.1008 73.9078 88.1008 73.9078 88.5008C73.9078 89.1008 74.1876 89.4008 74.7472 89.4008H77.825C78.0116 89.4008 78.1981 89.4008 78.1981 89.6008V91.4008C78.1981 91.6008 78.1981 91.6008 78.0116 91.6008H71.856C71.6694 91.6008 71.6694 91.5008 71.6694 91.2008V86.8008H71.5762V87.1008Z" fill="#0C2544"/>
<path d="M81.8356 85.6002C82.3952 85.1002 83.048 84.7002 83.7942 84.7002C84.9134 84.7002 85.473 85.2002 85.7528 86.4002C86.0326 87.6002 85.7528 87.5002 85.7528 88.1002V91.5002C85.7528 91.7002 85.7528 91.7002 85.5662 91.7002H83.7942C83.6076 91.7002 83.6076 91.7002 83.6076 91.5002V87.5002C83.4211 87.0002 83.1413 86.8002 82.675 86.9002C82.3019 86.9002 82.1154 87.4002 82.1154 87.8002V91.5002C82.1154 92.7002 82.1154 91.9002 81.7423 91.9002H80.0635C79.877 91.9002 79.877 91.9002 79.877 91.7002V85.4002C79.877 85.2002 79.877 85.2002 80.0635 85.2002H81.7423C82.1154 85.2002 82.2086 85.4002 82.1154 85.8002H82.0221L81.8356 85.6002Z" fill="#0C2544"/>
<path d="M108.138 85.1008H110.283C110.936 85.1008 110.47 85.1008 110.656 85.3008C111.029 86.3008 111.216 87.4008 111.589 88.3008V88.5008C111.776 87.6008 112.055 86.9008 112.242 86.3008C112.242 85.9008 112.428 85.6008 112.615 85.2008C112.615 85.0008 112.708 84.9008 112.988 84.8008H114.667C115.226 84.8008 115.04 84.8008 114.853 85.3008C113.921 88.2008 113.081 91.0008 112.149 94.0008C112.149 94.2008 111.962 94.4008 111.682 94.4008H110.097C109.817 94.4008 109.724 94.2008 109.724 93.9008C109.91 93.3008 110.097 92.6008 110.283 92.0008V91.3008C109.444 89.4008 108.698 87.3008 108.045 85.2008H108.138V85.1008Z" fill="#0C2544"/>
<path d="M124.179 91.5008C124.179 91.7008 124.179 91.9008 123.805 91.9008H118.676C118.489 91.9008 118.303 91.9008 118.303 91.5008V82.7008C118.303 82.5008 118.303 82.3008 118.676 82.3008H120.728C120.914 82.3008 120.728 82.3008 120.728 82.5008V89.0008C120.728 89.2008 120.821 89.4008 121.101 89.4008H123.712C124.085 89.4008 124.179 89.4008 124.085 89.8008V91.5008H124.179Z" fill="#0C2544"/>
<path d="M97.4127 85.6004C97.4127 85.6004 97.5992 85.6004 97.7858 85.4004C98.2521 85.0004 98.7184 84.9004 99.278 84.9004C99.8376 84.9004 99.4646 84.9004 99.4646 85.1004V86.8004C99.4646 86.8004 99.4646 87.0004 99.278 87.0004H98.6252C97.9723 87.0004 97.6925 87.6004 97.5992 88.3004V91.5004C97.5992 91.7004 97.5992 91.9004 97.2262 91.9004H95.4541C95.2676 91.9004 95.2676 91.9004 95.2676 91.7004V85.5004C95.2676 85.3004 95.2676 85.2004 95.4541 85.1004H97.1329C97.6925 85.1004 97.506 85.2004 97.5992 85.5004H97.506L97.4127 85.6004Z" fill="#0C2544"/>
<path d="M186.761 79.2006C186.108 77.5006 185.921 75.8006 185.921 74.0006V63.8006C185.921 62.8006 185.921 61.7006 185.828 60.8006C185.735 59.9006 185.455 59.1006 184.895 58.4006C183.776 57.1006 182.377 56.3006 180.792 56.0006C178.087 55.4006 175.475 55.3006 172.677 55.8006C171.185 56.0006 169.879 56.4006 168.574 57.3006C167.268 58.2006 166.522 59.1006 166.335 60.7006C166.242 61.7006 166.242 62.6006 166.242 63.6006C166.242 64.6006 166.335 63.6006 166.429 63.6006H173.237C173.424 63.6006 173.61 63.6006 173.61 63.2006C173.61 62.8006 173.61 62.5006 173.703 62.1006C173.797 61.0006 174.263 60.4006 175.102 60.2006H176.688C177.527 60.2006 178.087 61.2006 177.9 62.0006C177.807 63.0006 177.247 63.6006 176.408 63.9006C175.382 64.4006 174.263 64.6006 173.144 64.9006C171.651 65.3006 170.159 65.5006 168.667 66.1006C166.708 67.0006 165.496 68.4006 165.216 70.6006C165.03 72.2006 165.03 73.9006 165.216 75.5006C165.589 77.8006 166.802 79.3006 168.947 79.8006C170.346 80.2006 171.651 80.3006 173.144 80.2006C175.102 80.2006 176.781 79.2006 177.807 77.4006C177.9 77.4006 177.9 77.2006 178.18 77.2006C178.18 77.9006 178.273 78.7006 178.553 79.4006C178.646 79.6006 178.74 79.8006 179.02 79.8006H186.667C186.761 79.8006 186.761 79.6006 186.667 79.6006L186.761 79.2006ZM177.714 71.1006C177.714 71.8006 177.621 72.6006 177.714 73.3006C177.714 74.2006 177.247 74.6006 176.595 74.8006C175.942 74.8006 175.382 74.8006 174.636 74.6006C174.17 74.4006 173.797 73.9006 173.797 73.3006C173.703 72.6006 173.797 71.8006 173.983 71.1006C174.17 70.5006 174.543 70.0006 175.102 69.6006C175.942 69.1006 176.688 68.7006 177.527 68.3006C177.714 68.3006 177.9 68.3006 177.9 68.5006C177.714 69.5006 177.714 70.3006 177.714 71.2006V71.1006Z" fill="#0C2544"/>
<path d="M106.831 85.1002H105.152C105.152 85.1002 104.686 85.1002 104.686 85.5002C104.686 85.9002 104.686 85.5002 104.499 85.5002C104.313 85.5002 104.313 85.5002 104.126 85.3002C103.007 84.7002 101.422 85.1002 100.675 86.2002C99.9293 87.3002 99.836 88.5002 100.116 89.7002C100.396 90.9002 100.489 90.9002 100.955 91.3002C101.888 92.2002 102.914 92.3002 104.033 91.8002C104.22 91.8002 104.499 91.4002 104.593 91.6002C104.779 91.8002 104.593 92.1002 104.593 92.5002C104.593 92.9002 104.22 93.1002 103.94 93.2002C103.567 93.2002 103.1 93.2002 102.914 93.0002C102.727 92.6002 102.447 92.6002 102.074 92.6002H101.048C100.582 92.6002 100.489 92.6002 100.582 93.2002C100.955 94.1002 101.515 94.5002 102.261 94.8002C103.194 95.0002 103.94 95.0002 104.872 94.8002C106.085 94.6002 107.111 93.3002 107.018 91.9002V89.1002V85.8002C107.018 85.5002 106.924 85.3002 106.644 85.3002H106.738L106.831 85.1002ZM104.499 89.4002C104.313 89.8002 103.94 89.9002 103.473 89.9002C103.007 89.9002 102.634 89.5002 102.541 89.0002V88.4002C102.541 87.3002 103.194 86.7002 104.033 86.9002C104.406 86.9002 104.499 87.1002 104.593 87.5002C104.966 88.1002 104.966 88.7002 104.593 89.3002H104.499V89.4002Z" fill="#0C2544"/>
<path d="M132.759 85.5C132.759 83.8 131.826 82.7 130.241 82.5C128.749 82.3 127.256 82.5 125.764 82.5C124.272 82.5 125.578 82.5 125.578 82.9V91.7C125.578 91.9 125.578 92.1 125.951 92.1H127.909C128.096 92.1 128.096 92.1 128.096 91.9V89.6C128.096 89.4 128.096 89.4 128.282 89.4H130.427C131.267 89.4 131.36 89.2 131.64 88.9C132.479 88 132.759 87 132.666 85.9C132.666 85.8 132.666 85.8 132.666 85.8L132.759 85.5ZM129.868 86.5C129.402 86.7 128.842 86.7 128.282 86.7C127.723 86.7 128.282 86.7 128.282 86.5V85.8V85.6C128.282 85 128.562 84.8 129.122 84.9H129.775C130.148 84.9 130.241 85.4 130.241 85.6C130.241 86 130.241 86.2 130.054 86.5H129.961H129.868Z" fill="#0C2544"/>
<path d="M93.5877 86.5007C92.6551 84.8007 91.0695 84.4007 89.3907 84.9007C88.2715 85.3007 87.4322 86.1007 87.2456 87.5007C87.0591 89.0007 87.2456 90.2007 88.2715 91.3007C89.1109 92.0007 89.9504 92.2007 90.9763 92.2007C92.0022 92.2007 93.4012 91.3007 93.7743 89.9007H92.0955C91.7224 89.9007 91.4426 89.9007 91.1628 90.1007C90.6032 90.6007 89.9504 90.3007 89.5773 89.7007C89.3908 89.3007 89.3907 89.2007 89.7638 89.2007H93.7743C93.9608 88.3007 93.7743 87.6007 93.5877 86.8007V86.6007V86.5007ZM89.484 87.3007C89.8571 86.8007 89.9504 86.4007 90.51 86.4007C91.0696 86.4007 91.3493 86.6007 91.5359 87.1007C90.883 87.3007 90.3234 87.2007 89.484 87.2007V87.3007Z" fill="#0C2544"/>
</svg>
