<svg width="48" height="48" viewBox="0 0 48 48" fill="none" xmlns="http://www.w3.org/2000/svg">
<g clip-path="url(#clip0_1130_1500)">
<path d="M24 23.25C22.8065 23.25 21.6619 23.7241 20.818 24.568C19.9741 25.4119 19.5 26.5565 19.5 27.75C19.5 27.9489 19.579 28.1397 19.7197 28.2803C19.8603 28.421 20.0511 28.5 20.25 28.5H27.75C27.9489 28.5 28.1397 28.421 28.2803 28.2803C28.421 28.1397 28.5 27.9489 28.5 27.75C28.5 26.5565 28.0259 25.4119 27.182 24.568C26.3381 23.7241 25.1935 23.25 24 23.25ZM21.0975 27C21.2653 26.358 21.6412 25.7898 22.1664 25.3842C22.6916 24.9786 23.3364 24.7586 24 24.7586C24.6636 24.7586 25.3084 24.9786 25.8336 25.3842C26.3588 25.7898 26.7347 26.358 26.9025 27H21.0975Z" fill="#0C2544"/>
<path d="M24 22.5C24.445 22.5 24.88 22.368 25.25 22.1208C25.62 21.8736 25.9084 21.5222 26.0787 21.111C26.249 20.6999 26.2936 20.2475 26.2068 19.811C26.12 19.3746 25.9057 18.9737 25.591 18.659C25.2763 18.3443 24.8754 18.1301 24.439 18.0432C24.0025 17.9564 23.5501 18.001 23.139 18.1713C22.7278 18.3416 22.3764 18.63 22.1292 19C21.882 19.37 21.75 19.805 21.75 20.25C21.75 20.8467 21.9871 21.419 22.409 21.841C22.831 22.2629 23.4033 22.5 24 22.5ZM24 19.5C24.1483 19.5 24.2933 19.544 24.4167 19.6264C24.54 19.7088 24.6361 19.8259 24.6929 19.963C24.7497 20.1 24.7645 20.2508 24.7356 20.3963C24.7067 20.5418 24.6352 20.6754 24.5303 20.7803C24.4254 20.8852 24.2918 20.9567 24.1463 20.9856C24.0008 21.0145 23.85 20.9997 23.713 20.9429C23.5759 20.8861 23.4588 20.79 23.3764 20.6667C23.294 20.5433 23.25 20.3983 23.25 20.25C23.25 20.0511 23.329 19.8603 23.4697 19.7197C23.6103 19.579 23.8011 19.5 24 19.5Z" fill="#0C2544"/>
<path d="M42.7508 9.75C43.6408 9.75 44.5108 9.48608 45.2508 8.99162C45.9909 8.49715 46.5676 7.79434 46.9082 6.97208C47.2488 6.14981 47.3379 5.24501 47.1643 4.3721C46.9907 3.49918 46.5621 2.69736 45.9328 2.06802C45.3034 1.43869 44.5016 1.0101 43.6287 0.836468C42.7558 0.662835 41.851 0.75195 41.0287 1.09254C40.2064 1.43314 39.5036 2.00991 39.0092 2.74994C38.5147 3.48996 38.2508 4.35999 38.2508 5.25C38.2508 6.20624 38.5584 7.13711 39.1283 7.905L30.1283 17.4525C28.661 16.0617 26.7651 15.2102 24.7508 15.0375V10.395C25.4578 10.2125 26.0739 9.77833 26.4837 9.174C26.8935 8.56966 27.0689 7.83661 26.9769 7.11225C26.8849 6.38789 26.5318 5.72195 25.9839 5.23926C25.4361 4.75657 24.731 4.49026 24.0008 4.49026C23.2706 4.49026 22.5655 4.75657 22.0176 5.23926C21.4697 5.72195 21.1167 6.38789 21.0247 7.11225C20.9327 7.83661 21.108 8.56966 21.5178 9.174C21.9276 9.77833 22.5438 10.2125 23.2508 10.395V15.0375C21.2083 15.2067 19.286 16.0725 17.8058 17.49L11.1383 10.83C12.1758 9.711 12.7479 8.23873 12.7383 6.71279C12.7287 5.18686 12.138 3.72192 11.0865 2.61609C10.0349 1.51026 8.60158 0.846633 7.07807 0.760251C5.55455 0.673869 4.05536 1.17123 2.88557 2.15111C1.71579 3.13099 0.963311 4.51978 0.781267 6.03484C0.599222 7.54991 1.00129 9.07742 1.90565 10.3065C2.81001 11.5356 4.14871 12.374 5.64933 12.651C7.14994 12.9279 8.69971 12.6228 9.98327 11.7975L16.8083 18.615C15.7902 19.9607 15.1763 21.5683 15.0383 23.25H10.3958C10.2132 22.543 9.7791 21.9269 9.17477 21.517C8.57043 21.1072 7.83738 20.9319 7.11302 21.0239C6.38866 21.1159 5.72272 21.4689 5.24003 22.0168C4.75734 22.5647 4.49104 23.2698 4.49104 24C4.49104 24.7302 4.75734 25.4353 5.24003 25.9832C5.72272 26.5311 6.38866 26.8841 7.11302 26.9761C7.83738 27.0681 8.57043 26.8928 9.17477 26.483C9.7791 26.0731 10.2132 25.457 10.3958 24.75H15.0383C15.1787 26.45 15.8034 28.0741 16.8383 29.43L7.83827 39.045C6.90008 38.39 5.74993 38.1117 4.61607 38.2652C3.48221 38.4188 2.44751 38.993 1.7173 39.8739C0.987082 40.7548 0.614727 41.878 0.674121 43.0207C0.733515 44.1633 1.22032 45.2419 2.03793 46.0424C2.85554 46.8428 3.94419 47.3067 5.08786 47.3418C6.23153 47.377 7.34662 46.9809 8.21185 46.2322C9.07708 45.4835 9.62922 44.4368 9.75869 43.2999C9.88816 42.1631 9.5855 41.0191 8.91077 40.095L17.9108 30.5475C19.3629 31.9443 21.245 32.8087 23.2508 33V37.6425C22.5438 37.825 21.9276 38.2592 21.5178 38.8635C21.108 39.4678 20.9327 40.2009 21.0247 40.9253C21.1167 41.6496 21.4697 42.3156 22.0176 42.7982C22.5655 43.2809 23.2706 43.5472 24.0008 43.5472C24.731 43.5472 25.4361 43.2809 25.9839 42.7982C26.5318 42.3156 26.8849 41.6496 26.9769 40.9253C27.0689 40.2009 26.8935 39.4678 26.4837 38.8635C26.0739 38.2592 25.4578 37.825 24.7508 37.6425V33C26.6141 32.8468 28.3823 32.1122 29.8058 30.9L36.5183 37.65C35.7113 38.6779 35.2658 39.9432 35.2508 41.25C35.2508 42.4367 35.6027 43.5967 36.262 44.5834C36.9212 45.5701 37.8583 46.3392 38.9547 46.7933C40.051 47.2474 41.2574 47.3662 42.4213 47.1347C43.5852 46.9032 44.6543 46.3318 45.4934 45.4926C46.3325 44.6535 46.904 43.5844 47.1355 42.4205C47.367 41.2567 47.2482 40.0503 46.7941 38.9539C46.3399 37.8575 45.5709 36.9205 44.5842 36.2612C43.5975 35.6019 42.4375 35.25 41.2508 35.25C39.9183 35.2483 38.6239 35.6948 37.5758 36.5175L30.8258 29.805C32.0651 28.3912 32.8263 26.622 33.0008 24.75H37.6433C37.8258 25.457 38.2599 26.0731 38.8643 26.483C39.4686 26.8928 40.2017 27.0681 40.926 26.9761C41.6504 26.8841 42.3163 26.5311 42.799 25.9832C43.2817 25.4353 43.548 24.7302 43.548 24C43.548 23.2698 43.2817 22.5647 42.799 22.0168C42.3163 21.4689 41.6504 21.1159 40.926 21.0239C40.2017 20.9319 39.4686 21.1072 38.8643 21.517C38.2599 21.9269 37.8258 22.543 37.6433 23.25H33.0008C32.8603 21.55 32.2357 19.9259 31.2008 18.57L40.2008 8.955C40.9507 9.47197 41.8399 9.74919 42.7508 9.75ZM6.75077 11.25C5.86076 11.25 4.99073 10.9861 4.25071 10.4916C3.51069 9.99715 2.93391 9.29434 2.59331 8.47208C2.25272 7.64981 2.16361 6.74501 2.33724 5.8721C2.51087 4.99918 2.93946 4.19736 3.56879 3.56802C4.19813 2.93869 4.99995 2.5101 5.87287 2.33647C6.74578 2.16283 7.65058 2.25195 8.47285 2.59254C9.29512 2.93314 9.99792 3.50992 10.4924 4.24994C10.9869 4.98996 11.2508 5.85999 11.2508 6.75C11.2508 7.94348 10.7767 9.08807 9.93275 9.93198C9.08884 10.7759 7.94425 11.25 6.75077 11.25ZM7.50077 25.5C7.2041 25.5 6.91409 25.412 6.66742 25.2472C6.42074 25.0824 6.22848 24.8481 6.11495 24.574C6.00142 24.2999 5.97172 23.9983 6.02959 23.7074C6.08747 23.4164 6.23033 23.1491 6.44011 22.9393C6.64989 22.7296 6.91717 22.5867 7.20814 22.5288C7.49911 22.4709 7.80071 22.5007 8.0748 22.6142C8.34889 22.7277 8.58315 22.92 8.74798 23.1666C8.9128 23.4133 9.00077 23.7033 9.00077 24C9.00077 24.3978 8.84274 24.7794 8.56143 25.0607C8.28013 25.342 7.8986 25.5 7.50077 25.5ZM5.25077 45.75C4.65743 45.75 4.07741 45.5741 3.58406 45.2444C3.09071 44.9148 2.7062 44.4462 2.47913 43.8981C2.25207 43.3499 2.19266 42.7467 2.30842 42.1647C2.42417 41.5828 2.70989 41.0482 3.12945 40.6287C3.54901 40.2091 4.08356 39.9234 4.6655 39.8076C5.24745 39.6919 5.85065 39.7513 6.39882 39.9784C6.947 40.2054 7.41554 40.5899 7.74518 41.0833C8.07483 41.5766 8.25077 42.1567 8.25077 42.75C8.25077 43.5457 7.9347 44.3087 7.37209 44.8713C6.80948 45.4339 6.04642 45.75 5.25077 45.75ZM41.2508 36.75C42.1408 36.75 43.0108 37.0139 43.7508 37.5084C44.4909 38.0029 45.0676 38.7057 45.4082 39.5279C45.7488 40.3502 45.8379 41.255 45.6643 42.1279C45.4907 43.0008 45.0621 43.8026 44.4328 44.432C43.8034 45.0613 43.0016 45.4899 42.1287 45.6635C41.2558 45.8372 40.351 45.7481 39.5287 45.4075C38.7064 45.0669 38.0036 44.4901 37.5092 43.7501C37.0147 43.01 36.7508 42.14 36.7508 41.25C36.7508 40.0565 37.2249 38.9119 38.0688 38.068C38.9127 37.2241 40.0573 36.75 41.2508 36.75ZM40.5008 22.5C40.7974 22.5 41.0875 22.588 41.3341 22.7528C41.5808 22.9176 41.7731 23.1519 41.8866 23.426C42.0001 23.7001 42.0298 24.0017 41.972 24.2926C41.9141 24.5836 41.7712 24.8509 41.5614 25.0607C41.3517 25.2704 41.0844 25.4133 40.7934 25.4712C40.5024 25.5291 40.2008 25.4994 39.9268 25.3858C39.6527 25.2723 39.4184 25.08 39.2536 24.8334C39.0887 24.5867 39.0008 24.2967 39.0008 24C39.0008 23.6022 39.1588 23.2206 39.4401 22.9393C39.7214 22.658 40.1029 22.5 40.5008 22.5ZM22.5008 7.5C22.5008 7.20333 22.5887 6.91332 22.7536 6.66665C22.9184 6.41997 23.1527 6.22771 23.4267 6.11418C23.7008 6.00065 24.0024 5.97095 24.2934 6.02882C24.5844 6.0867 24.8517 6.22956 25.0614 6.43934C25.2712 6.64912 25.4141 6.9164 25.472 7.20737C25.5298 7.49834 25.5001 7.79994 25.3866 8.07403C25.2731 8.34812 25.0808 8.58238 24.8341 8.74721C24.5875 8.91203 24.2974 9 24.0008 9C23.6029 9 23.2214 8.84197 22.9401 8.56066C22.6588 8.27936 22.5008 7.89783 22.5008 7.5ZM25.5008 40.5C25.5008 40.7967 25.4128 41.0867 25.248 41.3334C25.0832 41.58 24.8489 41.7723 24.5748 41.8858C24.3007 41.9994 23.9991 42.0291 23.7081 41.9712C23.4172 41.9133 23.1499 41.7704 22.9401 41.5607C22.7303 41.3509 22.5875 41.0836 22.5296 40.7926C22.4717 40.5017 22.5014 40.2001 22.615 39.926C22.7285 39.6519 22.9207 39.4176 23.1674 39.2528C23.4141 39.088 23.7041 39 24.0008 39C24.3986 39 24.7801 39.158 25.0614 39.4393C25.3427 39.7206 25.5008 40.1022 25.5008 40.5ZM31.5008 24C31.5008 25.4834 31.0609 26.9334 30.2368 28.1668C29.4127 29.4001 28.2413 30.3614 26.8709 30.9291C25.5005 31.4968 23.9925 31.6453 22.5376 31.3559C21.0827 31.0665 19.7464 30.3522 18.6975 29.3033C17.6486 28.2544 16.9343 26.918 16.6449 25.4632C16.3555 24.0083 16.504 22.5003 17.0717 21.1299C17.6393 19.7594 18.6006 18.5881 19.834 17.764C21.0674 16.9399 22.5174 16.5 24.0008 16.5C25.9899 16.5 27.8976 17.2902 29.3041 18.6967C30.7106 20.1032 31.5008 22.0109 31.5008 24ZM42.7508 2.25C43.3441 2.25 43.9241 2.42595 44.4175 2.75559C44.9108 3.08524 45.2953 3.55377 45.5224 4.10195C45.7495 4.65013 45.8089 5.25333 45.6931 5.83527C45.5774 6.41722 45.2916 6.95177 44.8721 7.37132C44.4525 7.79088 43.918 8.0766 43.336 8.19236C42.7541 8.30811 42.1509 8.2487 41.6027 8.02164C41.0545 7.79458 40.586 7.41006 40.2564 6.91671C39.9267 6.42337 39.7508 5.84335 39.7508 5.25C39.7508 4.45435 40.0668 3.69129 40.6295 3.12868C41.1921 2.56607 41.9551 2.25 42.7508 2.25Z" fill="#0C2544"/>
</g>
<defs>
<clipPath id="clip0_1130_1500">
<rect width="48" height="48" fill="white"/>
</clipPath>
</defs>
</svg>
