<svg width="37" height="36" viewBox="0 0 37 36" fill="none" xmlns="http://www.w3.org/2000/svg">
<g clip-path="url(#clip0_1229_2144)">
<path d="M33.5518 19.125H23.0049C21.2601 19.125 19.8408 20.5443 19.8408 22.2891V32.8359C19.8408 34.5807 21.2601 36 23.0049 36H33.5518C35.2965 36 36.7158 34.5807 36.7158 32.8359V22.2891C36.7158 20.5443 35.2965 19.125 33.5518 19.125ZM14.4268 0H3.87988C2.13515 0 0.71582 1.41933 0.71582 3.16406V13.7109C0.71582 15.4557 2.13515 16.875 3.87988 16.875H14.4268C16.1715 16.875 17.5908 15.4557 17.5908 13.7109V3.16406C17.5908 1.41933 16.1715 0 14.4268 0Z" fill="url(#paint0_linear_1229_2144)"/>
<path d="M7.35297 12.3472C7.55898 12.5532 7.82884 12.6562 8.09863 12.6562C8.36842 12.6562 8.63835 12.5532 8.8443 12.3472L13.063 8.12848C13.475 7.71652 13.475 7.04904 13.063 6.63708C12.6511 6.22512 11.9836 6.22512 11.5716 6.63708L8.09863 10.1102L6.73492 8.74645C6.32296 8.33449 5.65548 8.33449 5.24352 8.74645C4.83156 9.15841 4.83156 9.82589 5.24352 10.2379L7.35297 12.3472ZM14.4268 19.125H3.87988C2.13515 19.125 0.71582 20.5443 0.71582 22.2891V32.8359C0.71582 34.5807 2.13515 36 3.87988 36H14.4268C16.1715 36 17.5908 34.5807 17.5908 32.8359V22.2891C17.5908 20.5443 16.1715 19.125 14.4268 19.125ZM33.5518 0H23.0049C21.2601 0 19.8408 1.41933 19.8408 3.16406V13.7109C19.8408 15.4557 21.2601 16.875 23.0049 16.875H33.5518C35.2965 16.875 36.7158 15.4557 36.7158 13.7109V3.16406C36.7158 1.41933 35.2965 0 33.5518 0ZM30.6967 25.7621L27.2236 29.2352L25.8599 27.8715C25.448 27.4595 24.7805 27.4595 24.3685 27.8715C23.9566 28.2834 23.9566 28.9509 24.3685 29.3629L26.4779 31.4722C26.6839 31.6782 26.9538 31.7812 27.2236 31.7812C27.4934 31.7812 27.7633 31.6782 27.9692 31.4722L32.188 27.2535C32.5999 26.8415 32.5999 26.174 32.188 25.7621C31.776 25.3501 31.1087 25.3501 30.6967 25.7621Z" fill="url(#paint1_linear_1229_2144)"/>
</g>
<defs>
<linearGradient id="paint0_linear_1229_2144" x1="18.7158" y1="36" x2="18.7158" y2="0" gradientUnits="userSpaceOnUse">
<stop stop-color="#42ACED"/>
<stop offset="1" stop-color="#00C0FF"/>
</linearGradient>
<linearGradient id="paint1_linear_1229_2144" x1="18.7158" y1="36" x2="18.7158" y2="0" gradientUnits="userSpaceOnUse">
<stop stop-color="#ADDCFF"/>
<stop offset="0.5028" stop-color="#EAF6FF"/>
<stop offset="1" stop-color="#EAF6FF"/>
</linearGradient>
<clipPath id="clip0_1229_2144">
<rect width="36" height="36" fill="white" transform="translate(0.71582)"/>
</clipPath>
</defs>
</svg>
