<svg width="35" height="55" viewBox="0 0 35 55" fill="none" xmlns="http://www.w3.org/2000/svg">
<path d="M5.12174 52.068C5.1991 51.9987 5.24211 51.9511 5.29368 51.9155C9.37092 49.0901 12.6934 45.5207 15.527 41.4754C17.3603 38.8579 18.9186 36.0878 20.0543 33.0917C20.8746 30.928 21.471 28.7105 21.6318 26.3899C21.7171 25.1619 21.6782 23.941 21.4367 22.7324C21.3871 22.4832 21.4081 22.3175 21.6316 22.1462C24.3043 20.0975 26.4589 17.5713 28.3443 14.801C30.3367 11.8727 31.9816 8.76227 33.209 5.43587C33.6507 4.2386 34.0108 3.01762 34.1781 1.74708C34.2385 1.28844 34.226 0.834449 34.1134 0.385344C34.0904 0.293044 34.0667 0.18188 33.9381 0.190182C33.8327 0.197089 33.8255 0.297798 33.8161 0.374109C33.3907 3.80622 31.8587 6.82353 30.2388 9.79585C28.481 13.0211 26.3786 16.007 23.8109 18.6487C23.013 19.4696 22.1656 20.2361 21.2628 20.9404C21.201 20.9887 21.1295 21.0253 21.0657 21.0656C20.8965 20.9575 20.8823 20.7811 20.8231 20.6356C18.9808 16.0807 14.1497 14.4721 10.5963 15.2381C9.42681 15.4901 8.35719 15.9574 7.45995 16.7608C6.2521 17.8424 5.63469 19.1718 5.87814 20.8202C6.00584 21.6848 6.40417 22.4326 6.97915 23.0801C8.28749 24.5536 9.95658 25.3254 11.8919 25.5504C13.4268 25.7287 14.9169 25.4918 16.3767 25.0171C17.5465 24.6367 18.6466 24.1048 19.7031 23.4776C19.8379 23.3978 19.9537 23.2681 20.1547 23.2724C20.2843 23.7291 20.299 24.2012 20.318 24.6703C20.3984 26.6683 20.055 28.6103 19.4901 30.5158C18.2295 34.7707 16.0453 38.5443 13.4021 42.0686C11.2358 44.9573 8.75236 47.5429 5.90419 49.7686C5.57226 50.028 5.21186 50.2509 4.82398 50.4659C4.92412 50.3292 5.02045 50.1896 5.12441 50.056C7.11982 47.4859 8.96186 44.8137 10.5272 41.9558C10.7158 41.6114 10.8789 41.2559 11.0144 40.8878C11.0549 40.7777 11.0978 40.6531 10.9774 40.5777C10.854 40.5004 10.7649 40.6057 10.6866 40.6863C10.4003 40.9798 10.1679 41.3159 9.93902 41.6541C8.51111 43.7648 7.01519 45.8257 5.44395 47.8316C4.03199 49.6344 2.50324 51.3317 0.886571 52.9517C0.771262 53.067 0.653308 53.181 0.54928 53.3064C0.345511 53.5516 0.269871 53.8289 0.425609 54.1236C0.580959 54.4179 0.855172 54.5238 1.16865 54.4868C1.45916 54.4522 1.74875 54.3915 2.03165 54.3162C3.73431 53.8619 5.43362 53.396 7.1362 52.9422C9.40615 52.3372 11.6785 51.7407 13.9486 51.1375C14.248 51.0583 14.5437 50.964 14.8388 50.8705C14.9949 50.8211 15.1434 50.7488 15.2646 50.6354C15.5917 50.3301 15.4964 49.892 15.0691 49.7514C14.8302 49.6725 14.5856 49.7027 14.3424 49.7385C13.6632 49.8375 12.9968 49.9986 12.3352 50.1765C10.1133 50.7728 7.89438 51.3796 5.67341 51.979C5.50747 52.0238 5.34407 52.1109 5.1215 52.0694L5.12174 52.068ZM13.6181 16.4601C13.9759 16.5083 14.3209 16.6074 14.6638 16.7128C17.1753 17.486 18.8781 19.1047 19.7643 21.5865C19.8572 21.8467 19.8266 21.9897 19.5789 22.1415C18.5183 22.793 17.4184 23.3581 16.2384 23.7594C14.9433 24.1996 13.6179 24.4448 12.2468 24.3175C10.5235 24.1573 9.02094 23.5123 7.89157 22.163C6.76135 20.813 6.85983 19.1815 8.10222 17.9306C8.67783 17.3509 9.3708 16.9624 10.1392 16.7058C11.2773 16.3259 12.4404 16.2814 13.6181 16.4596L13.6181 16.4601Z" fill="#0C2544"/>
</svg>
