<svg width="281" height="120" viewBox="0 0 281 120" fill="none" xmlns="http://www.w3.org/2000/svg">
<path d="M51.5104 59.6997V48.9997H55.894C58.692 48.9997 60.6506 51.1997 60.6506 54.2997C60.6506 57.3997 58.692 59.5997 55.894 59.5997H51.5104V59.6997ZM38.8262 38.3997V80.5997H51.5104V70.3997H59.4381C67.3658 70.3997 73.7079 63.2997 73.7079 54.3997C73.7079 45.4997 67.2725 38.3997 59.4381 38.3997H38.8262Z" fill="#0C2544"/>
<path d="M85.2736 38.2004L64.5684 80.4004H78.5584L83.688 70.2004H95.6262V80.4004H107.937V38.2004H85.2736ZM95.6262 59.5004H88.911L95.6262 46.2004V59.5004Z" fill="#0C2544"/>
<path d="M181.15 38.2001L168.839 63.5C167.72 66.2001 164.829 68 162.124 68C157.74 68 154.569 64 154.569 59.5C154.569 55 158.113 51 162.124 51C166.134 51 168.093 53.2 169.305 56.8L176.021 43.5C172.476 39.5 167.627 37.3 162.031 37.3C156.435 37.3 149.719 40.8001 146.082 46.2001C145.243 47.1 144.963 48 144.123 49.3L138.527 60.5L136.569 64.5C135.45 67.2001 132.558 69 129.854 69C125.47 69 122.299 65 122.299 60.5C122.299 56 125.843 52 129.854 52C133.864 52 135.823 54.2 137.035 57.8L143.75 44.5C140.206 40.5 135.356 38.3 129.76 38.3C118.662 38.3 109.521 48.5 109.521 61C109.521 73.5 118.662 83.7 129.76 83.7C140.859 83.7 142.072 80.2001 145.709 74.8001C149.253 80.1001 155.222 83.7 161.658 83.7C168.093 83.7 175.927 78.8 179.565 71.7H191.13V81.9001H203.441V39.6H181.15V38.3V38.2001ZM191.41 59.5H184.694L191.41 46.2001V59.5Z" fill="#0C2544"/>
<path d="M220.044 59.7001V49H224.427C227.225 49 229.184 51.2 229.184 54.3C229.184 57.4 227.225 59.6 224.427 59.6H220.044V59.7001ZM243.547 80.7L236.365 66C239.909 63.3 241.961 58.9 241.961 53.5C241.961 45 235.992 38.3 228.438 38.3H207.732V80.5H220.417V70.3001H224.427L229.557 80.5H243.547V80.7Z" fill="#0C2544"/>
</svg>
