<svg width="22" height="28" viewBox="0 0 22 28" fill="none" xmlns="http://www.w3.org/2000/svg">
<path d="M21.1097 8.6607L21.1097 24.1879C21.1097 24.6385 21.0184 25.0847 20.841 25.501C20.6636 25.9173 20.4037 26.2956 20.0759 26.6142C19.7481 26.9329 19.359 27.1856 18.9308 27.3581C18.5026 27.5305 18.0436 27.6193 17.5801 27.6193H4.3558C3.89228 27.6193 3.4333 27.5305 3.00507 27.3581C2.57683 27.1856 2.18773 26.9329 1.85997 26.6142C1.53222 26.2956 1.27223 25.9173 1.09485 25.501C0.917468 25.0847 0.826172 24.6385 0.826172 24.1879V3.93721C0.826172 3.4866 0.917469 3.0404 1.09485 2.62409C1.27223 2.20778 1.53222 1.82951 1.85998 1.51088C2.18773 1.19224 2.57684 0.939493 3.00507 0.767053C3.4333 0.594612 3.89228 0.505858 4.3558 0.505859L12.7631 0.505886L21.1097 8.6607Z" fill="#FF0000"/>
<path d="M13.129 0.865234C12.4522 2.60749 10.8858 5.27858 12.4652 7.52376C12.8756 8.14649 15.3753 9.10913 16.9441 9.66462C17.9454 10.0192 18.7691 11.1369 18.7691 12.2013L18.9004 22.5654C18.9004 24.4605 17.3212 25.9959 15.3719 25.9959H2.14765C1.85355 25.9959 1.56808 25.9599 1.29492 25.894C1.92304 26.961 3.09036 27.6198 4.35496 27.621H17.5792C19.5294 27.6215 21.1104 26.0844 21.1097 24.1885V8.66095L13.129 0.865234Z" fill="#D40000"/>
<path d="M2.65071 2.61426C2.78321 2.61373 2.91054 2.66563 3.00493 2.75862C3.09931 2.85162 3.15309 2.97817 3.15452 3.11067V4.51838C3.15478 4.58462 3.14193 4.65025 3.1167 4.71149C3.09148 4.77274 3.05438 4.82838 3.00754 4.87522C2.9607 4.92205 2.90506 4.95915 2.84382 4.98438C2.78257 5.00961 2.71694 5.02246 2.65071 5.0222C2.51821 5.02076 2.39166 4.96699 2.29866 4.8726C2.20567 4.77822 2.15377 4.65089 2.1543 4.51838V3.11067C2.15571 2.97945 2.20847 2.85401 2.30126 2.76122C2.39405 2.66843 2.51949 2.61567 2.65071 2.61426Z" fill="white"/>
<path d="M2.65071 5.35547C2.71694 5.35521 2.78257 5.36806 2.84382 5.39329C2.90506 5.41852 2.9607 5.45562 3.00754 5.50245C3.05438 5.54929 3.09148 5.60493 3.1167 5.66618C3.14193 5.72742 3.15478 5.79305 3.15452 5.85929V6.06674C3.15309 6.19923 3.09931 6.32578 3.00493 6.41878C2.91054 6.51178 2.78321 6.56368 2.65071 6.56315C2.51949 6.56173 2.39405 6.50898 2.30126 6.41619C2.20847 6.3234 2.15571 6.19796 2.1543 6.06674V5.85929C2.15377 5.72679 2.20567 5.59945 2.29866 5.50507C2.39166 5.41068 2.51821 5.35691 2.65071 5.35547Z" fill="white"/>
<path d="M12.7635 0.505859L11.6666 4.79234C11.5937 5.07747 11.5819 5.37427 11.6321 5.66406C11.6823 5.95384 11.7934 6.23033 11.9583 6.47612C12.1233 6.7219 12.3385 6.93166 12.5905 7.09219C12.8425 7.25272 13.1258 7.36053 13.4225 7.40885L21.1101 8.66067L12.7635 0.505859Z" fill="#FF8080"/>
<path d="M10.9882 11.2949C10.404 11.3033 9.99756 11.6749 9.8003 11.8967C9.34286 12.4113 9.32192 13.1165 9.47489 13.8002C9.62786 14.4838 9.95543 15.2115 10.3551 15.9487C10.3999 16.0314 10.4496 16.0873 10.4962 16.1702C9.69259 17.6327 8.58717 19.2248 7.6224 20.4946C6.36982 20.7924 5.17095 20.9385 4.45062 21.7492C3.84749 22.429 3.80557 23.4616 4.45062 24.0624C4.73123 24.3088 5.1238 24.4335 5.46607 24.4388C5.78751 24.4351 6.06184 24.3436 6.28156 24.2094C7.12367 23.6953 7.67205 22.6035 8.27912 21.3415L13.2014 20.1947C13.9399 21.1102 14.7084 22.0074 15.6244 22.2903C16.0491 22.4215 16.4975 22.4059 16.8986 22.2609C17.2997 22.1159 17.6745 21.8289 17.8454 21.3866C18.1437 20.583 17.8148 19.6927 17.0456 19.2908C16.4485 18.9687 15.7043 18.9138 14.8755 18.9497C14.452 18.9681 14.0046 19.0134 13.5504 19.0791C13.0135 18.261 12.2909 17.1797 11.6606 16.1269C12.0304 15.3931 12.3515 14.6708 12.4898 14.0078C12.6443 13.2676 12.6135 12.5386 12.1938 11.9769C11.8928 11.5012 11.4335 11.298 10.9882 11.2949ZM11.392 12.5632C11.5747 12.7989 11.6367 13.2011 11.5116 13.8002C11.4422 14.1331 11.2069 14.58 11.0373 14.9862C10.7939 14.4847 10.5388 13.9707 10.4511 13.5787C10.3334 13.0526 10.4143 12.761 10.5491 12.5632C10.6439 12.4085 10.7723 12.3137 10.9564 12.3031C11.1503 12.2922 11.279 12.4173 11.392 12.5632ZM11.0882 17.0974C11.5599 17.849 12.0621 18.6308 12.4722 19.2655L9.17888 20.0653C9.84315 19.0576 10.5401 18.0294 11.0882 17.0974ZM16.5653 20.1712C16.9274 20.3666 17.0363 20.6761 16.9045 21.0239C16.7805 21.3444 16.1836 21.4307 15.9204 21.3356C15.563 21.2252 14.9869 20.5627 14.4599 20.0163C14.6057 19.9802 14.7829 19.9556 14.9206 19.9497C15.4505 19.9264 16.0709 19.9388 16.5653 20.1712ZM6.72458 21.8825C6.37606 22.4491 5.98354 23.2187 5.75423 23.3587C5.52749 23.5146 5.26572 23.4565 5.13281 23.3214C4.94908 23.1443 4.91743 22.7444 5.2073 22.4177C5.5027 22.1335 5.92474 22.0147 6.72458 21.8825Z" fill="white"/>
</svg>
