<svg width="70" height="74" viewBox="0 0 70 74" fill="none" xmlns="http://www.w3.org/2000/svg">
<path d="M57.4402 5.17969L58.0232 10.4728C58.3757 13.6929 60.8578 16.2304 64.0032 16.595L69.1733 17.1918L64.0032 17.7887C60.8578 18.1497 58.3792 20.6908 58.0232 23.9109L57.4402 29.204L56.8572 23.9109C56.5046 20.6908 54.0225 18.1532 50.8772 17.7887L45.707 17.1918L50.8772 16.595C54.0225 16.234 56.5011 13.6929 56.8572 10.4728L57.4402 5.17969Z" fill="#158BD4"/>
<path d="M47.652 0L48.0108 3.25727C48.2278 5.23891 49.7552 6.80046 51.6908 7.0248L54.8724 7.3921L51.6908 7.75939C49.7552 7.98153 48.2299 9.54528 48.0108 11.5269L47.652 14.7842L47.2933 11.5269C47.0763 9.54528 45.5489 7.98373 43.6133 7.75939L40.4316 7.3921L43.6133 7.0248C45.5489 6.80266 47.0741 5.23891 47.2933 3.25727L47.652 0Z" fill="#FFB921"/>
<path d="M0.331155 44.1219C1.17669 44.6949 2.81285 48.0883 3.67079 49.174C4.80157 50.605 6.36907 51.9097 7.82407 52.9787C13.8261 57.3899 21.8501 58.9784 29.1158 57.7347C28.3996 58.2004 27.6147 58.5059 26.8325 58.8336C23.3985 60.1569 19.7812 60.9421 16.0961 60.7592C11.2554 60.5189 5.73126 58.4512 2.44168 54.6899C-0.0422286 51.8509 0.153543 47.7117 0.331155 44.1219Z" fill="#158BD4"/>
<path d="M22.967 14.2863L23.1553 14.2682L23.2319 14.3659C16.7586 17.867 12.2284 22.6122 10.0186 29.9062C8.21595 35.8575 8.93614 42.0061 11.789 47.4821C14.6414 52.9569 18.7167 55.9311 24.4437 57.7002C22.2189 57.435 20.0716 57.1725 17.8845 56.6743C14.8359 55.7465 12.0065 54.5449 9.45214 52.5613C5.29355 49.3327 2.46549 44.821 1.76169 39.4988C1.02732 33.944 2.87342 28.453 6.18117 24.0577C10.1661 18.7608 16.4924 15.1222 22.967 14.2863Z" fill="#0C2544"/>
<path d="M39.5063 37.6651C41.5079 40.0266 42.7813 45.7715 42.9088 48.8616C43.1586 54.9066 41.0733 61.0697 37.0259 65.5179C33.3382 69.5702 28.4071 71.9272 22.9773 72.0879C17.1197 72.2612 11.8533 69.5616 7.66772 65.5374C5.35212 63.0533 3.72748 60.4306 2.36328 57.3052C2.90232 57.8519 3.44578 58.399 4.04904 58.8729C8.41138 62.3011 14.6313 63.2402 19.9685 62.5201C26.1668 61.6838 32.2308 58.5973 36.0577 53.4661C39.6086 48.705 40.269 43.4362 39.5058 37.6656L39.5063 37.6651Z" fill="#158BD4"/>
<path d="M30.8418 14.9132C33.374 14.6829 36.2831 15.2427 38.6674 16.0944C45.4029 18.5003 49.3741 23.8424 52.3847 30.1408C52.0015 29.6918 51.6007 29.2596 51.1826 28.8446C47.5037 25.2503 42.116 23.9148 37.1543 24.0909C29.6814 24.3561 23.5885 27.8512 18.5955 33.3626C17.9975 34.1161 17.4239 34.8769 16.9248 35.7033C13.749 40.9639 13.9572 46.2318 15.3139 52.0043C12.8831 48.3078 11.0016 44.5243 10.5688 40.0217C9.99259 34.0301 11.9313 27.4285 15.7014 22.7879C19.5185 18.0898 24.9443 15.4427 30.8418 14.9132Z" fill="#FFB921"/>
<path d="M35.5227 26.2517C37.1961 26.0743 38.9842 26.1549 40.6474 26.4024C45.1178 27.0672 49.7135 29.3342 52.4415 33.1045C55.2186 36.9432 55.701 42.3577 55.0144 46.944C54.2473 43.7186 52.9291 40.8208 50.8815 38.2285C46.5856 32.7909 40.7873 29.8872 34.0646 29.1794L34.2121 29.3432C34.842 29.4514 35.4661 29.5876 36.0844 29.7514C36.7027 29.9148 37.313 30.1058 37.915 30.3235C38.5169 30.5412 39.1091 30.7851 39.6902 31.0553C40.2718 31.3255 40.8405 31.621 41.3968 31.9414C46.4217 34.8288 51.0529 39.9129 52.6005 45.6814C54.0475 51.0746 52.69 56.1759 50.0696 60.9211C49.3716 61.9937 48.6474 63.0287 47.8324 64.0126C42.9505 69.9041 36.0361 72.5788 28.6778 73.1911C34.0943 71.3569 38.7853 67.1186 41.6143 62.0887C44.5101 56.9412 45.4136 50.8633 43.8678 45.1147C42.4974 40.017 39.455 35.1469 34.8623 32.5343C30.3344 29.9587 26.3963 30.1261 21.584 31.516C25.7076 28.2679 30.3791 26.6794 35.5223 26.2522L35.5227 26.2517Z" fill="#0C2544"/>
</svg>
