<svg width="62" height="62" viewBox="0 0 83 83" fill="none" xmlns="http://www.w3.org/2000/svg">
<circle cx="41.2779" cy="41.6188" r="40.7701" fill="#DBEFFB"/>
<g clip-path="url(#clip0_3020_8)">
<path d="M31.4169 51.7569C31.28 51.7569 31.1409 51.7309 31.0062 51.6789C23.8401 48.8665 19.207 42.1542 19.207 34.5817C19.207 24.4265 27.6274 16.165 37.9779 16.165C48.3283 16.165 56.7487 24.4265 56.7487 34.5817C56.7487 40.6679 53.6791 46.3684 48.5403 49.835C48.0346 50.1774 47.35 50.0495 47.0055 49.5555C46.661 49.0615 46.7869 48.3877 47.2904 48.0497C51.8285 44.9904 54.5404 39.9529 54.5404 34.5817C54.5404 25.6204 47.1115 18.3317 37.9779 18.3317C28.8442 18.3317 21.4154 25.6204 21.4154 34.5817C21.4154 41.2637 25.503 47.183 31.8277 49.6682C32.3952 49.8914 32.669 50.5219 32.4416 51.0744C32.2693 51.499 31.8564 51.7569 31.4169 51.7569Z" fill="#51657D"/>
<path d="M39.084 42.1647H33.5632C32.9537 42.1647 32.459 41.6794 32.459 41.0814C32.459 40.4834 32.9537 39.998 33.5632 39.998H39.084C40.303 39.998 41.2923 39.0252 41.2923 37.8314C41.2923 36.6375 40.303 35.6647 39.084 35.6647H36.8757C34.4399 35.6647 32.459 33.7212 32.459 31.3314C32.459 28.9415 34.4399 26.998 36.8757 26.998H42.3965C43.006 26.998 43.5007 27.4834 43.5007 28.0814C43.5007 28.6794 43.006 29.1647 42.3965 29.1647H36.8757C35.6567 29.1647 34.6673 30.1375 34.6673 31.3314C34.6673 32.5252 35.6567 33.498 36.8757 33.498H39.084C41.5198 33.498 43.5007 35.4415 43.5007 37.8314C43.5007 40.2212 41.5198 42.1647 39.084 42.1647Z" fill="#51657D"/>
<path d="M37.9792 29.1641C37.3697 29.1641 36.875 28.6787 36.875 28.0807V23.7474C36.875 23.1494 37.3697 22.6641 37.9792 22.6641C38.5887 22.6641 39.0833 23.1494 39.0833 23.7474V28.0807C39.0833 28.6787 38.5887 29.1641 37.9792 29.1641Z" fill="#51657D"/>
<path d="M37.9792 46.498C37.3697 46.498 36.875 46.0127 36.875 45.4147V41.0814C36.875 40.4834 37.3697 39.998 37.9792 39.998C38.5887 39.998 39.0833 40.4834 39.0833 41.0814V45.4147C39.0833 46.0127 38.5887 46.498 37.9792 46.498Z" fill="#51657D"/>
<path d="M18.1042 65.9984C17.7398 65.9984 17.3842 65.8207 17.1722 65.4979C16.8454 64.993 16.9978 64.3235 17.5101 64.0029L41.8018 48.8362C42.239 48.5632 42.8088 48.6239 43.1754 48.9835L51.2269 56.8832L68.1119 40.3169C68.5425 39.8944 69.2425 39.8944 69.6732 40.3169C70.1038 40.7394 70.1038 41.4262 69.6732 41.8487L52.0065 59.182C51.5759 59.6045 50.8758 59.6045 50.4452 59.182L42.2368 51.1285L18.6982 65.8294C18.5149 65.9442 18.3095 65.9984 18.1042 65.9984Z" fill="#51657D"/>
<path d="M68.8945 50.8316C68.285 50.8316 67.7904 50.3463 67.7904 49.7483V42.165H60.0612C59.4517 42.165 58.957 41.6796 58.957 41.0816C58.957 40.4836 59.4517 39.9983 60.0612 39.9983H68.8945C69.504 39.9983 69.9987 40.4836 69.9987 41.0816V49.7483C69.9987 50.3463 69.504 50.8316 68.8945 50.8316Z" fill="#51657D"/>
</g>
<defs>
<clipPath id="clip0_3020_8">
<rect width="53" height="52" fill="white" transform="translate(17 13.999)"/>
</clipPath>
</defs>
</svg>
