<svg width="23" height="23" viewBox="0 0 23 23" fill="none" xmlns="http://www.w3.org/2000/svg">
<path fill-rule="evenodd" clip-rule="evenodd" d="M18.6875 21.5625H4.3125C3.51828 21.5625 2.875 20.9192 2.875 20.125V13.6563C2.875 12.8621 3.51828 12.2188 4.3125 12.2188H8.14559V11.5C8.14559 10.7058 8.78959 10.0625 9.58309 10.0625H13.4169V8.62503C13.4169 7.83081 14.0602 7.18753 14.8544 7.18753H18.6875C19.4817 7.18753 20.125 7.83081 20.125 8.62503V20.125C20.125 20.9192 19.4817 21.5625 18.6875 21.5625ZM8.14559 13.6563H4.3125V20.125H8.14559V13.6563ZM13.4169 11.5H9.58309V20.125H13.4169V11.5ZM14.8544 20.125H18.6875V8.62503H14.8544V10.7813V20.125ZM13.6462 4.04084C10.9415 8.02847 5.92825 9.3215 5.92825 9.3215C5.54372 9.41997 5.152 9.18781 5.05353 8.80328C4.95506 8.41875 5.18722 8.02703 5.57175 7.92856C5.57175 7.92856 10.3457 6.7189 12.6795 2.88725L11.2657 2.87503C10.8689 2.87144 10.5498 2.54656 10.5534 2.14981C10.557 1.75306 10.8819 1.43394 11.2786 1.43753L14.3549 1.46484C14.7473 1.46772 15.0643 1.78469 15.0672 2.17712L15.0938 5.18222C15.0973 5.57897 14.7782 5.90384 14.3815 5.90744C13.9847 5.91103 13.6598 5.59191 13.6562 5.19516L13.6462 4.04084Z" fill="#158BD4"/>
</svg>
