<svg width="37" height="26" viewBox="0 0 37 26" fill="none" xmlns="http://www.w3.org/2000/svg">
<mask id="mask0_1130_325" style="mask-type:luminance" maskUnits="userSpaceOnUse" x="0" y="0" width="37" height="26">
<path d="M0.621094 0.1875H36.2759V25.0393H0.621094V0.1875Z" fill="white"/>
</mask>
<g mask="url(#mask0_1130_325)">
<path fill-rule="evenodd" clip-rule="evenodd" d="M15.424 2.90815C16.5749 1.71265 18.1768 0.972328 19.9464 0.972328C22.3059 0.972328 24.3508 2.28032 25.4519 4.22922C26.4293 3.79323 27.488 3.56815 28.5586 3.56869C32.8057 3.56869 36.2532 7.03486 36.2532 11.312C36.2532 15.5891 32.8057 19.0553 28.5586 19.0553C28.0395 19.0553 27.5335 19.0032 27.038 18.9049C26.0746 20.6183 24.2328 21.7824 22.1355 21.7824C21.2816 21.7841 20.4386 21.5908 19.6711 21.2174C18.6945 23.5064 16.4202 25.1152 13.7723 25.1152C11.0065 25.1152 8.66008 23.3756 7.7556 20.9296C7.35304 21.0144 6.94271 21.057 6.53128 21.0568C3.24108 21.0568 0.580078 18.3623 0.580078 15.0531C0.580078 12.8295 1.77818 10.8937 3.55568 9.84729C3.17858 8.98049 2.98448 8.04547 2.98547 7.10052C2.98547 3.28119 6.09215 0.194336 9.9198 0.194336C12.1613 0.194336 14.1669 1.26035 15.4253 2.91495" fill="#00A1E0"/>
</g>
<path fill-rule="evenodd" clip-rule="evenodd" d="M4.823 13.5997C4.79937 13.6611 4.83143 13.674 4.83903 13.6849C4.90963 13.7359 4.98134 13.7728 5.05319 13.8143C5.43731 14.017 5.79931 14.0763 6.1779 14.0763C6.9489 14.0763 7.42835 13.6668 7.42835 13.0078V12.9948C7.42835 12.3854 6.88672 12.1635 6.38101 12.0049L6.31483 11.9835C5.9321 11.8597 5.60187 11.7519 5.60187 11.501V11.4882C5.60187 11.2731 5.79531 11.1145 6.09376 11.1145C6.42537 11.1145 6.82054 11.2247 7.07339 11.3641C7.07339 11.3641 7.14828 11.4123 7.1755 11.3402C7.19028 11.3012 7.31919 10.957 7.33301 10.9183C7.34766 10.878 7.32196 10.8475 7.29557 10.8318C7.00541 10.6553 6.60471 10.5353 6.1902 10.5353L6.11324 10.5356C5.40718 10.5356 4.91391 10.9616 4.91391 11.571V11.5841C4.91391 12.2266 5.45831 12.4362 5.96678 12.5809L6.04857 12.6063C6.41887 12.7199 6.73943 12.8186 6.73943 13.0778V13.0908C6.73943 13.3293 6.53079 13.5071 6.19642 13.5071C6.0664 13.5071 5.65202 13.5049 5.20297 13.2218C5.14867 13.1902 5.11772 13.1674 5.07585 13.1419C5.05374 13.1286 4.99848 13.1044 4.97443 13.1767L4.82245 13.5986M16.111 13.5986C16.0874 13.66 16.1194 13.6729 16.1273 13.6838C16.1976 13.7348 16.2696 13.7717 16.3415 13.8132C16.7256 14.0159 17.0876 14.0752 17.4662 14.0752C18.2372 14.0752 18.7166 13.6657 18.7166 13.0067V12.9937C18.7166 12.3843 18.1764 12.1624 17.6693 12.0038L17.6031 11.9824C17.2204 11.8586 16.8902 11.7508 16.8902 11.4999V11.4871C16.8902 11.272 17.0836 11.1134 17.382 11.1134C17.7137 11.1134 18.1074 11.2236 18.3617 11.363C18.3617 11.363 18.4366 11.4112 18.4639 11.3391C18.4786 11.3001 18.6076 10.9558 18.6201 10.9172C18.6348 10.8768 18.609 10.8464 18.5827 10.8307C18.2926 10.6542 17.8919 10.5342 17.4774 10.5342L17.4003 10.5345C16.6942 10.5345 16.201 10.9605 16.201 11.5699V11.583C16.201 12.2255 16.7454 12.4351 17.2538 12.5798L17.3355 12.6052C17.7072 12.7188 18.0263 12.8175 18.0263 13.0767V13.0897C18.0263 13.3282 17.8177 13.506 17.4833 13.506C17.353 13.506 16.9375 13.5038 16.4899 13.2206C16.4356 13.1891 16.4038 13.1673 16.3626 13.1408C16.3487 13.132 16.2836 13.1066 16.2613 13.1756L16.1093 13.5974M23.8193 12.307C23.8193 12.6792 23.7496 12.9729 23.6134 13.1811C23.4775 13.3865 23.2721 13.4872 22.9861 13.4872C22.7001 13.4872 22.4956 13.3873 22.3616 13.1825C22.2266 12.9757 22.1585 12.6806 22.1585 12.3084C22.1585 11.9361 22.227 11.6438 22.3616 11.4384C22.4953 11.2343 22.6987 11.1365 22.9861 11.1365C23.2735 11.1365 23.478 11.2353 23.6134 11.4384C23.7505 11.6438 23.8193 11.9361 23.8193 12.3084M24.4632 11.6176C24.3997 11.4039 24.3015 11.2164 24.1702 11.0593C24.0388 10.9021 23.8732 10.7752 23.6756 10.6842C23.4794 10.5926 23.2473 10.5464 22.9847 10.5464C22.7222 10.5464 22.4915 10.5928 22.2939 10.6842C22.0977 10.7758 21.9305 10.9021 21.7992 11.0593C21.6682 11.2164 21.5699 11.4039 21.5063 11.6176C21.4434 11.8299 21.4115 12.0616 21.4115 12.3084C21.4115 12.5551 21.4434 12.7868 21.5063 12.9991C21.5694 13.2128 21.668 13.4003 21.7992 13.5575C21.9306 13.7146 22.0977 13.8401 22.2939 13.9297C22.4915 14.0191 22.7236 14.0646 22.9847 14.0646C23.2459 14.0646 23.478 14.0191 23.6742 13.9297C23.8704 13.8404 24.0376 13.7146 24.1689 13.5575C24.3 13.4003 24.3982 13.2128 24.4618 12.9991C24.5245 12.7868 24.5564 12.5551 24.5564 12.3084C24.5564 12.0629 24.5245 11.8299 24.4618 11.6176M29.7537 13.3824C29.7326 13.3199 29.6715 13.3435 29.6715 13.3435C29.578 13.3792 29.4781 13.4123 29.3717 13.4288C29.2645 13.4457 29.1451 13.4541 29.0193 13.4541C28.7085 13.4541 28.4598 13.3616 28.2829 13.1783C28.1047 12.995 28.0052 12.6999 28.0066 12.3001C28.0075 11.9361 28.0957 11.6631 28.2539 11.4536C28.41 11.2468 28.6504 11.1392 28.9682 11.1392C29.2335 11.1392 29.4366 11.17 29.6494 11.2364C29.6494 11.2364 29.6998 11.2583 29.724 11.192C29.7805 11.0362 29.8223 10.9246 29.8829 10.7536C29.9 10.7046 29.858 10.684 29.8427 10.678C29.7593 10.6455 29.5622 10.5921 29.413 10.5697C29.2734 10.5484 29.1118 10.5374 28.9294 10.5374C28.6586 10.5374 28.4182 10.5836 28.2123 10.6751C28.0064 10.7666 27.8323 10.893 27.6942 11.0502C27.556 11.2073 27.451 11.3948 27.3805 11.6085C27.3107 11.8208 27.2755 12.0539 27.2755 12.3006C27.2755 12.8328 27.4192 13.2644 27.7038 13.5801C27.9885 13.8972 28.4168 14.0571 28.975 14.0571C29.3052 14.0571 29.6437 13.9905 29.8869 13.8944C29.8869 13.8944 29.9333 13.8721 29.9132 13.818L29.7543 13.3824M30.8804 11.9485C30.9112 11.7417 30.968 11.5694 31.0572 11.4356C31.1908 11.2316 31.3944 11.1199 31.6804 11.1199C31.9664 11.1199 32.1557 11.2321 32.2911 11.4356C32.3809 11.5701 32.4201 11.7486 32.4348 11.9485L30.8735 11.9482L30.8804 11.9485ZM33.0497 11.4935C32.9948 11.2881 32.859 11.0799 32.7705 10.9848C32.6296 10.8345 32.4928 10.7284 32.356 10.6705C32.1586 10.5867 31.9461 10.5437 31.7315 10.544C31.4593 10.544 31.212 10.5899 31.0116 10.6833C30.8113 10.7773 30.6427 10.9053 30.5101 11.0652C30.3776 11.2251 30.2779 11.414 30.2144 11.6304C30.1508 11.8441 30.1188 12.0785 30.1188 12.3239C30.1188 12.5749 30.1521 12.8079 30.2176 13.0188C30.2837 13.2311 30.3903 13.4173 30.534 13.5717C30.6777 13.7275 30.8614 13.8488 31.0825 13.9343C31.3022 14.0191 31.5689 14.063 31.8742 14.0621C32.5043 14.06 32.8359 13.9201 32.9713 13.8442C32.9955 13.8307 33.0183 13.8074 32.9898 13.7403L32.8475 13.3418C32.8257 13.2824 32.7654 13.3039 32.7654 13.3039C32.6093 13.3621 32.3882 13.4666 31.8701 13.4652C31.5316 13.4647 31.2815 13.365 31.124 13.2088C30.9637 13.0489 30.8836 12.8159 30.8711 12.485L33.0542 12.4866C33.0542 12.4866 33.1117 12.4861 33.1176 12.4301C33.12 12.4069 33.1924 11.9834 33.0526 11.494L33.0497 11.4935ZM13.4294 11.9485C13.4602 11.7417 13.5171 11.5694 13.6062 11.4356C13.74 11.2316 13.9434 11.1199 14.2294 11.1199C14.5154 11.1199 14.7047 11.2321 14.8401 11.4356C14.9298 11.5701 14.969 11.7486 14.9838 11.9485L13.4225 11.9482L13.4294 11.9485ZM15.5987 11.4935C15.544 11.2881 15.408 11.0799 15.3196 10.9848C15.1786 10.8345 15.0418 10.7284 14.9051 10.6705C14.7076 10.5867 14.4951 10.5437 14.2805 10.544C14.0083 10.544 13.761 10.5899 13.5606 10.6833C13.3603 10.7773 13.1917 10.9053 13.0591 11.0652C12.9269 11.2251 12.827 11.414 12.7634 11.6304C12.7 11.8441 12.6681 12.0785 12.6681 12.3239C12.6681 12.5749 12.7011 12.8079 12.767 13.0188C12.833 13.2311 12.9397 13.4173 13.082 13.5717C13.2257 13.7275 13.4095 13.8488 13.6306 13.9343C13.8503 14.0191 14.1155 14.063 14.4223 14.0621C15.0523 14.06 15.384 13.9201 15.5194 13.8442C15.5434 13.8307 15.5663 13.8074 15.5377 13.7403L15.3954 13.3418C15.3735 13.2824 15.3132 13.3039 15.3132 13.3039C15.1571 13.3621 14.936 13.4666 14.4179 13.4652C14.0807 13.4647 13.8293 13.365 13.6717 13.2088C13.5115 13.0489 13.4313 12.8159 13.4189 12.485L15.602 12.4866C15.602 12.4866 15.6595 12.4861 15.6654 12.4301C15.6678 12.4069 15.7402 11.9834 15.6002 11.494L15.5987 11.4935ZM8.71776 13.3686C8.63223 13.3005 8.62035 13.2838 8.59202 13.2395C8.54878 13.1729 8.52667 13.0782 8.52667 12.9569C8.52667 12.7666 8.59023 12.6288 8.72149 12.5364C8.72011 12.5367 8.9094 12.3737 9.35431 12.3792C9.55234 12.3828 9.74991 12.3996 9.94568 12.4295V13.4181H9.94596C9.94596 13.4181 9.66962 13.4775 9.35735 13.4963C8.91382 13.5229 8.71762 13.3689 8.719 13.3693L8.71776 13.3686ZM9.58547 11.8382C9.49704 11.8317 9.38236 11.8286 9.24557 11.8286C9.05904 11.8286 8.87804 11.8517 8.70947 11.8972C8.53952 11.943 8.38615 12.0139 8.25489 12.1082C8.12326 12.2019 8.015 12.3245 7.93848 12.4666C7.86124 12.61 7.82186 12.7782 7.82186 12.9685C7.82186 13.1615 7.85544 13.3283 7.92176 13.4648C7.98675 13.6002 8.08458 13.7173 8.20639 13.8054C8.32757 13.8933 8.4772 13.9584 8.64992 13.997C8.82125 14.036 9.01469 14.0557 9.22747 14.0557C9.45131 14.0557 9.67376 14.037 9.88931 14.0007C10.0729 13.9691 10.2558 13.9336 10.4378 13.8943C10.5105 13.8776 10.5912 13.8557 10.5912 13.8557C10.6451 13.842 10.641 13.7845 10.641 13.7845L10.6397 11.7992C10.6397 11.3635 10.5231 11.0395 10.2929 10.8396C10.0635 10.6397 9.72779 10.5391 9.29255 10.5391C9.12951 10.5391 8.8656 10.5611 8.70809 10.5927C8.70809 10.5927 8.23278 10.6848 8.03658 10.8381C8.03658 10.8381 7.99347 10.8646 8.01696 10.9246L8.17171 11.3382C8.19091 11.3918 8.24328 11.3735 8.24328 11.3735C8.24328 11.3735 8.25972 11.367 8.27907 11.3555C8.69773 11.128 9.2283 11.1349 9.2283 11.1349C9.46319 11.1349 9.64558 11.1825 9.76717 11.2756C9.88613 11.3667 9.94679 11.5044 9.94679 11.794V11.8859C9.76026 11.8589 9.58755 11.8433 9.58755 11.8433L9.58547 11.8382ZM27.1332 10.7173C27.1363 10.7101 27.138 10.7022 27.138 10.6943C27.1381 10.6864 27.1365 10.6786 27.1334 10.6712C27.1304 10.6639 27.1259 10.6573 27.1202 10.6518C27.1146 10.6462 27.1078 10.6419 27.1004 10.639C27.0633 10.625 26.878 10.5859 26.7357 10.5771C26.4621 10.56 26.3101 10.6061 26.1733 10.6673C26.0382 10.7281 25.8887 10.8258 25.8058 10.9389L25.8055 10.6742C25.8055 10.6378 25.7797 10.6084 25.7429 10.6084H25.1847C25.1485 10.6084 25.1222 10.6378 25.1222 10.6742V13.9141C25.1223 13.9316 25.1293 13.9484 25.1417 13.9608C25.1541 13.9732 25.1709 13.9801 25.1884 13.9802H25.7605C25.778 13.9801 25.7948 13.9732 25.8072 13.9608C25.8195 13.9484 25.8265 13.9316 25.8265 13.9141V12.2873C25.8265 12.0694 25.8505 11.853 25.8985 11.7165C25.9457 11.5815 26.01 11.4738 26.0892 11.3966C26.1647 11.322 26.2571 11.2667 26.3586 11.2353C26.4538 11.208 26.5524 11.1942 26.6515 11.1942C26.7655 11.1942 26.8905 11.2235 26.8905 11.2235C26.9326 11.2281 26.9559 11.2025 26.9701 11.1647C27.0076 11.0653 27.1138 10.7677 27.1346 10.7084" fill="#FFFFFE"/>
<path fill-rule="evenodd" clip-rule="evenodd" d="M21.7881 9.22243C21.7174 9.20111 21.6455 9.18408 21.5727 9.17142C21.4748 9.15512 21.3757 9.14746 21.2765 9.14854C20.8823 9.14854 20.5715 9.25966 20.3534 9.47915C20.1367 9.69699 19.9893 10.0288 19.9154 10.4655L19.8887 10.6129H19.3939C19.3939 10.6129 19.3335 10.6104 19.3208 10.6761L19.2396 11.1284C19.2339 11.1717 19.2526 11.1987 19.3106 11.1984H19.7922L19.3035 13.9204C19.2653 14.1396 19.2215 14.3199 19.173 14.4566C19.1252 14.5914 19.0785 14.6925 19.021 14.7658C18.9653 14.8368 18.9125 14.8891 18.8215 14.9195C18.7463 14.9448 18.6598 14.9563 18.565 14.9563C18.5122 14.9563 18.442 14.9475 18.3902 14.9372C18.3384 14.927 18.3115 14.9154 18.2726 14.8991C18.2726 14.8991 18.2161 14.8776 18.1939 14.9341C18.1758 14.9803 18.0474 15.3326 18.0322 15.3762C18.0168 15.4192 18.0384 15.4531 18.0658 15.4629C18.1299 15.4858 18.1776 15.5004 18.2649 15.5209C18.3862 15.5495 18.4885 15.5512 18.5842 15.5512C18.7848 15.5512 18.9676 15.5231 19.1192 15.4685C19.2718 15.4135 19.4045 15.3177 19.522 15.188C19.649 15.048 19.7288 14.9015 19.8052 14.7016C19.8808 14.5034 19.9452 14.2575 19.9967 13.9708L20.4878 11.1984H21.2057C21.2057 11.1984 21.2663 11.2006 21.2788 11.1351L21.3601 10.6829C21.3657 10.6396 21.3472 10.6126 21.2889 10.6129H20.5921C20.5956 10.5971 20.6272 10.3526 20.7072 10.1223C20.7413 10.024 20.8056 9.94474 20.86 9.89028C20.9109 9.83841 20.9735 9.79954 21.0426 9.77695C21.1183 9.75359 21.1972 9.74224 21.2765 9.74331C21.3421 9.74331 21.4065 9.75117 21.4556 9.76137C21.5231 9.77571 21.5494 9.78329 21.5671 9.78853C21.6381 9.81018 21.6476 9.78922 21.6616 9.75489L21.8282 9.29826C21.8453 9.24918 21.8036 9.2285 21.7881 9.22243ZM12.0507 13.9262C12.0507 13.9626 12.0247 13.9922 11.9882 13.9922H11.4102C11.3736 13.9922 11.3477 13.9626 11.3477 13.9262V9.28434C11.3477 9.24808 11.3736 9.21871 11.4102 9.21871H11.9882C12.0247 9.21871 12.0507 9.24808 12.0507 9.28434V13.9262Z" fill="#FFFFFE"/>
</svg>
