<svg width="49" height="49" viewBox="0 0 49 49" fill="none" xmlns="http://www.w3.org/2000/svg">
<g clip-path="url(#clip0_1130_1467)">
<path fill-rule="evenodd" clip-rule="evenodd" d="M44.4372 20.7048C46.5318 20.7048 48.2323 22.4053 48.2323 24.4999C48.2323 26.5945 46.5318 28.295 44.4372 28.295C42.3426 28.295 40.6421 26.5945 40.6421 24.4999C40.6421 22.4053 42.3426 20.7048 44.4372 20.7048ZM44.4372 22.0499C43.085 22.0499 41.9872 23.1477 41.9872 24.4999C41.9872 25.8521 43.085 26.9499 44.4372 26.9499C45.7894 26.9499 46.8872 25.8521 46.8872 24.4999C46.8872 23.1477 45.7894 22.0499 44.4372 22.0499ZM24.5009 40.6411C26.5955 40.6411 28.296 42.3416 28.296 44.4362C28.296 46.5308 26.5955 48.2313 24.5009 48.2313C22.4063 48.2313 20.7058 46.5308 20.7058 44.4362C20.7058 42.3416 22.4063 40.6411 24.5009 40.6411ZM24.5009 41.9862C23.1487 41.9862 22.0509 43.084 22.0509 44.4362C22.0509 45.7884 23.1487 46.8862 24.5009 46.8862C25.8531 46.8862 26.9509 45.7884 26.9509 44.4362C26.9509 43.084 25.8531 41.9862 24.5009 41.9862ZM5.58681 19.1655C5.48612 19.5228 5.11429 19.7311 4.75698 19.6304C4.39976 19.5297 4.19146 19.1579 4.29215 18.8006C6.26781 11.7909 11.7962 6.26376 18.8065 4.28973C19.1638 4.18914 19.5356 4.39753 19.6363 4.75485C19.7369 5.11207 19.5285 5.48389 19.1711 5.58449C12.6099 7.43198 7.43593 12.6049 5.58681 19.1655ZM29.8307 5.58449C29.4733 5.48389 29.265 5.11207 29.3655 4.75485C29.4662 4.39753 29.838 4.18914 30.1953 4.28973C37.2074 6.26424 42.7366 11.7935 44.7111 18.8056C44.8117 19.1629 44.6033 19.5346 44.246 19.6353C43.8888 19.7359 43.5169 19.5275 43.4163 19.1702C41.5684 12.6074 36.3934 7.43246 29.8307 5.58449ZM43.4163 29.8297C43.5169 29.4724 43.8888 29.264 44.246 29.3646C44.6033 29.4653 44.8117 29.837 44.7111 30.1943C42.7366 37.2064 37.2074 42.7356 30.1953 44.7101C29.838 44.8107 29.4662 44.6023 29.3655 44.245C29.265 43.8878 29.4733 43.516 29.8307 43.4154C36.3934 41.5674 41.5684 36.3924 43.4163 29.8297ZM19.1711 43.4154C19.5285 43.516 19.7369 43.8878 19.6363 44.245C19.5356 44.6023 19.1638 44.8107 18.8065 44.7101C11.7962 42.7361 6.26781 37.209 4.29215 30.1993C4.19146 29.842 4.39976 29.4702 4.75698 29.3695C5.11429 29.2688 5.48612 29.4771 5.58681 29.8344C7.43593 36.3949 12.6099 41.5679 19.1711 43.4154ZM24.5009 14.3156C30.1218 14.3156 34.6852 18.8791 34.6852 24.4999C34.6852 30.1208 30.1218 34.6842 24.5009 34.6842C18.88 34.6842 14.3166 30.1208 14.3166 24.4999C14.3166 18.8791 18.88 14.3156 24.5009 14.3156ZM24.5009 15.6607C19.6224 15.6607 15.6617 19.6215 15.6617 24.4999C15.6617 29.3784 19.6224 33.3391 24.5009 33.3391C29.3794 33.3391 33.3401 29.3784 33.3401 24.4999C33.3401 19.6215 29.3794 15.6607 24.5009 15.6607ZM24.5912 23.2642C27.7067 23.3122 30.2172 25.8533 30.2172 28.9802C30.2172 29.7653 29.7146 30.4434 28.8047 30.9144C27.7607 31.455 26.1323 31.7418 24.5009 31.7418C22.8695 31.7418 21.2412 31.455 20.1971 30.9144C19.2872 30.4434 18.7846 29.7653 18.7846 28.9802C18.7846 25.8533 21.2959 23.3122 24.4114 23.2642C22.7935 23.2166 21.4972 21.8908 21.4972 20.2613C21.4972 18.6028 22.8417 17.258 24.5013 17.258C26.1599 17.258 27.5046 18.6027 27.5046 20.2613C27.5046 21.8908 26.2082 23.2166 24.5912 23.2642ZM28.8721 28.9802C28.8721 26.5661 26.9154 24.6086 24.5013 24.6086C22.0872 24.6086 20.1297 26.5661 20.1297 28.9802C20.1297 29.3109 20.4323 29.5216 20.8155 29.72C21.7082 30.1822 23.106 30.3967 24.5009 30.3967C25.8958 30.3967 27.2936 30.1822 28.1863 29.72C28.5695 29.5216 28.8721 29.3109 28.8721 28.9802ZM22.8423 20.2613C22.8423 21.1778 23.5848 21.9204 24.5013 21.9204C25.4171 21.9204 26.1595 21.1778 26.1595 20.2613C26.1595 19.3456 25.4171 18.6031 24.5013 18.6031C23.5849 18.6031 22.8423 19.3455 22.8423 20.2613ZM4.56463 20.7048C6.65924 20.7048 8.35973 22.4053 8.35973 24.4999C8.35973 26.5945 6.65924 28.295 4.56463 28.295C2.47002 28.295 0.769531 26.5945 0.769531 24.4999C0.769531 22.4053 2.47002 20.7048 4.56463 20.7048ZM4.56463 22.0499C3.21242 22.0499 2.11463 23.1477 2.11463 24.4999C2.11463 25.8521 3.21242 26.9499 4.56463 26.9499C5.91684 26.9499 7.01463 25.8521 7.01463 24.4999C7.01463 23.1477 5.91684 22.0499 4.56463 22.0499ZM24.5009 0.768555C26.5955 0.768555 28.296 2.46905 28.296 4.56365C28.296 6.65826 26.5955 8.35875 24.5009 8.35875C22.4063 8.35875 20.7058 6.65826 20.7058 4.56365C20.7058 2.46905 22.4063 0.768555 24.5009 0.768555ZM24.5009 2.11365C23.1487 2.11365 22.0509 3.21145 22.0509 4.56365C22.0509 5.91586 23.1487 7.01365 24.5009 7.01365C25.8531 7.01365 26.9509 5.91586 26.9509 4.56365C26.9509 3.21145 25.8531 2.11365 24.5009 2.11365Z" fill="#0C2544"/>
</g>
<defs>
<clipPath id="clip0_1130_1467">
<rect width="49" height="49" fill="white"/>
</clipPath>
</defs>
</svg>
