<svg width="29" height="29" viewBox="0 0 29 29" fill="none" xmlns="http://www.w3.org/2000/svg">
<g clip-path="url(#clip0_1130_316)">
<path d="M23.5356 6.19074C23.4378 6.18145 21.3493 6.02655 21.3493 6.02655C21.3493 6.02655 19.8977 4.57893 19.7388 4.41961C19.5795 4.2594 19.2684 4.3072 19.1471 4.34393C19.1299 4.3488 18.8307 4.44218 18.3355 4.59486C17.8504 3.19327 16.9958 1.90541 15.4916 1.90541C15.45 1.90541 15.407 1.90718 15.3637 1.90984C14.9361 1.34203 14.406 1.09375 13.9479 1.09375C10.4432 1.09375 8.76859 5.49769 8.24371 7.73573C6.88151 8.15882 5.91318 8.46064 5.79103 8.50047C5.02938 8.74034 5.00593 8.76424 4.90724 9.48385C4.83111 10.0286 2.8418 25.4887 2.8418 25.4887L18.3412 28.4069L26.7402 26.5805C26.7402 26.5805 23.7923 6.54966 23.7737 6.41202C23.7551 6.27483 23.6347 6.19871 23.5356 6.19074ZM15.2486 5.40342C15.2486 5.45609 15.2477 5.50565 15.2477 5.55566C14.3944 5.82164 13.4686 6.10931 12.5388 6.39919C13.0606 4.37668 14.0377 3.39861 14.8932 3.02996C15.1079 3.57254 15.2486 4.35234 15.2486 5.40342ZM13.851 2.03906C14.0041 2.03906 14.1555 2.0904 14.3015 2.19175C13.1778 2.72238 11.9745 4.06113 11.4656 6.73288C10.7225 6.9639 9.9967 7.19049 9.32445 7.39938C9.92014 5.36049 11.3337 2.03906 13.851 2.03906ZM14.4551 13.9493C14.4551 13.9493 13.5478 13.4629 12.4365 13.4629C10.8053 13.4629 10.7229 14.4914 10.7229 14.7499C10.7229 16.1639 14.3905 16.706 14.3905 20.0177C14.3905 22.6235 12.7468 24.3008 10.5287 24.3008C7.86798 24.3008 6.50666 22.6364 6.50666 22.6364L7.21874 20.2709C7.21874 20.2709 8.61724 21.4786 9.79888 21.4786C10.5689 21.4786 10.8827 20.8679 10.8827 20.4222C10.8827 18.5776 7.87373 18.4953 7.87373 15.4642C7.87373 12.9146 9.69532 10.4451 13.3739 10.4451C14.7897 10.4451 15.4907 10.8536 15.4907 10.8536L14.4551 13.9493ZM16.1673 5.26977C16.1673 5.17639 16.1682 5.08522 16.1682 4.98476C16.1682 4.11468 16.0474 3.41322 15.8545 2.85736C16.6298 2.95428 17.1463 3.84118 17.4787 4.86128C17.0897 4.98343 16.6471 5.12063 16.1673 5.26977Z" fill="#95C675"/>
<path d="M23.5356 6.19074C23.4378 6.18145 21.3493 6.02655 21.3493 6.02655C21.3493 6.02655 19.8977 4.57893 19.7388 4.41961C19.5795 4.2594 19.2684 4.3072 19.1471 4.34393C19.1299 4.3488 18.8307 4.44218 18.3355 4.59486C17.8504 3.19327 16.9958 1.90541 15.4916 1.90541C15.45 1.90541 15.407 1.90718 15.3637 1.90984C14.9361 1.34203 14.406 1.09375 13.9479 1.09375C10.4432 1.09375 9.57848 5.49769 9.0536 7.73573C7.69139 8.15882 6.64606 10.488 6.52259 10.527C5.76182 10.7668 5.73837 10.7907 5.63923 11.5108C5.56267 12.0551 2.8418 25.4887 2.8418 25.4887L18.3412 28.4069L26.7402 26.5805C26.7402 26.5805 23.7923 6.54966 23.7737 6.41202C23.7551 6.27483 23.6347 6.19871 23.5356 6.19074ZM15.2486 5.40342C15.2486 5.45609 15.2477 5.50565 15.2477 5.55566C14.3944 5.82164 13.4686 6.10931 12.5388 6.39919C13.0606 4.37668 14.0377 3.39861 14.8932 3.02996C15.1079 3.57254 15.2486 4.35234 15.2486 5.40342ZM13.851 2.03906C14.0041 2.03906 14.1555 2.0904 14.3015 2.19175C13.1778 2.72238 11.9745 4.06113 11.4656 6.73288C10.7225 6.9639 9.9967 7.19049 9.32445 7.39938C9.92014 5.36049 11.3337 2.03906 13.851 2.03906ZM14.4551 13.9493C14.4551 13.9493 13.5478 13.4629 12.4365 13.4629C10.8053 13.4629 10.7229 14.4914 10.7229 14.7499C10.7229 16.1639 14.3905 16.706 14.3905 20.0177C14.3905 22.6235 12.7468 24.3008 10.5287 24.3008C7.86798 24.3008 6.50666 22.6364 6.50666 22.6364L7.21874 20.2709C7.21874 20.2709 8.61724 21.4786 9.79888 21.4786C10.5689 21.4786 10.8827 20.8679 10.8827 20.4222C10.8827 18.5776 7.87373 18.4953 7.87373 15.4642C7.87373 12.9146 9.69532 10.4451 13.3739 10.4451C14.7897 10.4451 15.4907 10.8536 15.4907 10.8536L14.4551 13.9493ZM16.1673 5.26977C16.1673 5.17639 16.1682 5.08522 16.1682 4.98476C16.1682 4.11468 16.0474 3.41322 15.8545 2.85736C16.6298 2.95428 17.1463 3.84118 17.4787 4.86128C17.0897 4.98343 16.6471 5.12063 16.1673 5.26977Z" fill="#79B259"/>
<path d="M18.3428 28.4056L26.7417 26.5796C26.7417 26.5796 23.7938 6.54875 23.7752 6.41112C23.7566 6.27348 23.6367 6.1978 23.5371 6.18984C23.4393 6.18054 21.3509 6.02564 21.3509 6.02564C21.3509 6.02564 19.8993 4.57802 19.7404 4.4187C19.6554 4.33284 19.5284 4.3085 19.4085 4.30762C19.0898 4.84754 19.1558 5.87296 19.1558 5.87296L18.168 28.3724L18.3428 28.4056Z" fill="#55932C"/>
<path d="M15.4897 1.90642C15.4481 1.90642 15.4052 1.90819 15.3618 1.91084C14.9343 1.34303 14.4041 1.09476 13.946 1.09476C10.4555 1.09476 8.77956 5.46418 8.24805 7.70974L9.331 7.37383C9.93023 5.33406 11.3424 2.03963 13.8491 2.03963C14.0022 2.03963 14.1536 2.09097 14.2996 2.19231C13.1791 2.72117 11.9788 4.05506 11.4681 6.7122L12.5436 6.38028C13.0667 4.3706 14.0399 3.39785 14.8922 3.03053C15.1064 3.57355 15.2476 4.3529 15.2476 5.40399C15.2476 5.45178 15.2476 5.49737 15.2467 5.54295L16.1664 5.25838C16.1664 5.16987 16.1673 5.08136 16.1673 4.98532C16.1673 4.11525 16.0464 3.41378 15.8535 2.85793C16.6262 2.9544 17.1422 3.83732 17.4741 4.853L18.3318 4.58702C17.8455 3.1894 16.9913 1.90642 15.4897 1.90642Z" fill="#4A7A2B"/>
<path d="M21.6979 6.0522C21.4881 6.03582 21.347 6.02564 21.347 6.02564C21.347 6.02564 19.8954 4.57802 19.7365 4.4187C19.6515 4.33284 19.5245 4.3085 19.4046 4.30762C19.0859 4.84754 19.1519 5.87296 19.1519 5.87296L18.1641 28.3724L18.3393 28.4056L22.8083 27.4337L21.6979 6.0522Z" fill="#4C822A"/>
</g>
<defs>
<clipPath id="clip0_1130_316">
<rect width="28.324" height="28.324" fill="white" transform="translate(0.628906 0.589844)"/>
</clipPath>
</defs>
</svg>
