<svg width="73" height="136" viewBox="0 0 73 136" fill="none" xmlns="http://www.w3.org/2000/svg">
<path d="M28.5 80H16C7.71573 80 1 86.7157 1 95V136" stroke="#0C2544"/>
<path d="M68.5 35V65C68.5 73.2843 61.7843 80 53.5 80H16C7.71573 80 1 86.7157 1 95V136" stroke="#0C2544" stroke-dasharray="2 2"/>
<path d="M68.1464 0.646446C68.3417 0.451183 68.6583 0.451183 68.8536 0.646446L72.0355 3.82843C72.2308 4.02369 72.2308 4.34027 72.0355 4.53553C71.8403 4.7308 71.5237 4.7308 71.3284 4.53553L68.5 1.70711L65.6716 4.53553C65.4763 4.7308 65.1597 4.7308 64.9645 4.53553C64.7692 4.34027 64.7692 4.02369 64.9645 3.82843L68.1464 0.646446ZM68 36L68 1L69 1L69 36L68 36Z" fill="#0C2544"/>
</svg>
