<svg width="72" height="136" viewBox="0 0 72 136" fill="none" xmlns="http://www.w3.org/2000/svg">
<path d="M44 80H56.5C64.7843 80 71.5 86.7157 71.5 95V136" stroke="#0C2544"/>
<path d="M4 35V65C4 73.2843 10.7157 80 19 80H56.5C64.7843 80 71.5 86.7157 71.5 95V136" stroke="#0C2544" stroke-dasharray="2 2"/>
<path d="M4.35355 0.646446C4.15829 0.451183 3.84171 0.451183 3.64645 0.646446L0.464466 3.82843C0.269204 4.02369 0.269204 4.34027 0.464466 4.53553C0.659728 4.7308 0.976311 4.7308 1.17157 4.53553L4 1.70711L6.82843 4.53553C7.02369 4.7308 7.34027 4.7308 7.53553 4.53553C7.7308 4.34027 7.7308 4.02369 7.53553 3.82843L4.35355 0.646446ZM4.5 36L4.5 1L3.5 1L3.5 36L4.5 36Z" fill="#0C2544"/>
</svg>
