<svg width="20" height="20" viewBox="0 0 20 20" fill="none" xmlns="http://www.w3.org/2000/svg">
<path d="M19.1599 11.4463C19.2363 10.9737 19.2745 10.4916 19.2745 10C19.2745 4.87351 15.1217 0.720764 10 0.720764C9.50835 0.720764 9.02625 0.75895 8.5537 0.835322C7.69928 0.305489 6.69212 0 5.60859 0C2.51074 0 0 2.51074 0 5.60859C0 6.68735 0.305489 7.69451 0.835322 8.5537C0.763723 9.02625 0.720764 9.50835 0.720764 10C0.720764 15.1265 4.87351 19.2792 9.99523 19.2792C10.4869 19.2792 10.969 19.2411 11.4415 19.1647C12.2959 19.6945 13.3031 20 14.3866 20C17.4845 20 19.9952 17.4893 19.9952 14.3914C19.9952 13.3126 19.6897 12.3007 19.1599 11.4463ZM14.401 14.2196C14.0095 14.7828 13.432 15.2267 12.6778 15.5418C11.9236 15.8616 11.031 16.0191 10 16.0191C8.76372 16.0191 7.74224 15.8043 6.93556 15.3652C6.36277 15.0549 5.89976 14.6348 5.54177 14.1098C5.18377 13.5847 5.00239 13.074 5.00239 12.5728C5.00239 12.2816 5.11695 12.0239 5.33174 11.8138C5.55131 11.6038 5.83771 11.4988 6.17184 11.4988C6.44869 11.4988 6.68258 11.58 6.87828 11.747C7.06921 11.9093 7.2315 12.148 7.36038 12.463C7.5179 12.8305 7.68974 13.1313 7.87112 13.3747C8.05251 13.6134 8.30549 13.8186 8.63484 13.9714C8.95943 14.1289 9.39379 14.2053 9.93317 14.2053C10.673 14.2053 11.2745 14.0477 11.7327 13.7279C12.1957 13.4081 12.4153 13.0215 12.4153 12.5537C12.4153 12.1766 12.2959 11.8807 12.0525 11.6516C11.8043 11.4177 11.4845 11.2363 11.0883 11.1122C10.6921 10.9881 10.1575 10.8544 9.48926 10.7112C8.59188 10.5155 7.84248 10.2864 7.2315 10.0239C6.6253 9.76134 6.13842 9.40334 5.78043 8.94988C5.41766 8.49165 5.24105 7.92363 5.24105 7.24582C5.24105 6.56802 5.43198 6.02387 5.80907 5.52745C6.19093 5.02625 6.73986 4.63962 7.45107 4.37231C8.16229 4.10501 9.00239 3.97136 9.96659 3.97136C10.7351 3.97136 11.3986 4.06205 11.9618 4.23866C12.5251 4.41527 12.9928 4.65394 13.3652 4.94988C13.7375 5.24582 14.0095 5.55609 14.1862 5.88067C14.358 6.20525 14.4487 6.52983 14.4487 6.8401C14.4487 7.13126 14.3341 7.39379 14.1146 7.62291C13.895 7.8568 13.6181 7.97136 13.2888 7.97136C12.9928 7.97136 12.7637 7.90453 12.6014 7.76134C12.4439 7.62291 12.2816 7.39857 12.105 7.08831C11.8807 6.65871 11.6134 6.31981 11.2983 6.08115C10.9928 5.84726 10.4916 5.72315 9.79475 5.72315C9.14559 5.72315 8.63007 5.8568 8.23866 6.11456C7.84726 6.37709 7.65632 6.68258 7.65632 7.0358C7.65632 7.26014 7.72315 7.4463 7.85203 7.60859C7.98091 7.77088 8.16706 7.91408 8.40095 8.03341C8.63484 8.15274 8.87351 8.24821 9.11695 8.31504C9.36038 8.38186 9.76134 8.4821 10.3246 8.61575C11.0263 8.7685 11.6659 8.93556 12.2387 9.12172C12.8115 9.30788 13.2983 9.53222 13.6993 9.79952C14.105 10.0668 14.4248 10.401 14.6492 10.8115C14.8783 11.222 14.9881 11.7184 14.9881 12.3103C14.9881 13.0167 14.7924 13.6563 14.3962 14.2196H14.401Z" fill="white"/>
</svg>
