<svg width="27" height="28" viewBox="0 0 27 28" fill="none" xmlns="http://www.w3.org/2000/svg">
<g clip-path="url(#clip0_1130_333)">
<path d="M13.1524 0.97168C13.8932 0.973041 14.6217 1.03564 15.3299 1.15403V8.78823L20.7422 3.38986C21.34 3.81443 21.8993 4.28663 22.4163 4.80239C22.9336 5.31815 23.4084 5.87745 23.834 6.47349L18.4215 11.8719H26.0756C26.1944 12.5781 26.2572 13.3021 26.2572 14.0424V14.0601C26.2572 14.8003 26.1944 15.5257 26.0756 16.2319H18.4202L23.834 21.6289C23.4084 22.225 22.9336 22.7843 22.4178 23.3H22.4163C21.8993 23.8158 21.34 24.2894 20.7438 24.7126L15.3299 19.3142V26.9484C14.623 27.0668 13.8945 27.1293 13.1537 27.1309H13.1347C12.3937 27.1293 11.668 27.0668 10.9598 26.9484V19.3142L5.54748 24.7126C4.35218 23.8648 3.30718 22.821 2.4557 21.6289L7.86826 16.2319H0.2141C0.0940232 15.5243 0.03125 14.7963 0.03125 14.056V14.018C0.0324942 13.8259 0.0450739 13.5912 0.0631423 13.3484L0.0687216 13.2753C0.122221 12.5919 0.2141 11.8719 0.2141 11.8719H7.86826L2.4557 6.47349C2.88001 5.87745 3.35354 5.3195 3.87057 4.80513L3.87318 4.80239C4.38917 4.28663 4.9497 3.81443 5.54748 3.38986L10.9598 8.78823V1.15403C11.668 1.03564 12.3952 0.973041 13.1373 0.97168H13.1524ZM13.1511 10.7818H13.1386C12.1645 10.7818 11.2315 10.9601 10.369 11.284C10.0458 12.1427 9.86685 13.0735 9.86555 14.0451V14.0573C9.86685 15.029 10.0458 15.9598 10.3703 16.8184C11.2315 17.1423 12.1645 17.3206 13.1386 17.3206H13.1511C14.1253 17.3206 15.0583 17.1423 15.9194 16.8184C16.2439 15.9584 16.4229 15.029 16.4229 14.0573V14.0451C16.4229 13.0735 16.2439 12.1427 15.9194 11.284C15.0583 10.9601 14.1253 10.7818 13.1511 10.7818Z" fill="#FF4A00"/>
</g>
<defs>
<clipPath id="clip0_1130_333">
<rect width="26.2259" height="26.2259" fill="white" transform="translate(0.03125 0.972656)"/>
</clipPath>
</defs>
</svg>
