<svg width="62" height="62" viewBox="0 0 83 83" fill="none" xmlns="http://www.w3.org/2000/svg">
<circle cx="41.2799" cy="41.6195" r="40.7701" fill="#DBEFFB"/>
<path d="M39.7931 56.4907C38.0382 56.3671 36.3442 55.9286 34.7578 55.1874C34.471 55.0536 34.1425 55.038 33.8439 55.1467C33.5464 55.2555 33.3039 55.4777 33.1695 55.765L31.6702 58.9797C28.4472 57.22 25.7879 54.5608 24.0288 51.3377L27.243 49.839C27.5303 49.7052 27.7531 49.4627 27.8612 49.1647C27.9693 48.8666 27.9544 48.5375 27.8206 48.2508C27.0799 46.6643 26.6409 44.9703 26.5172 43.2142C26.4288 41.9712 25.3841 40.997 24.1387 40.997H15.7298C15.0703 40.997 14.5352 41.5322 14.5352 42.1916C14.5352 56.6836 26.3249 68.4734 40.8169 68.4734C41.4763 68.4734 42.0115 67.9382 42.0115 67.2788V58.8698C42.0115 57.6244 41.0373 56.5797 39.7931 56.4907ZM39.6223 66.0543C27.3959 65.4498 17.5588 55.6121 16.9543 43.3857L24.1346 43.3833C24.2504 45.0313 24.6046 46.6327 25.1894 48.1606L21.9024 49.6933C21.6151 49.8271 21.3923 50.0696 21.2842 50.3677C21.1761 50.6657 21.1904 50.9942 21.3242 51.2815C23.4602 55.8534 27.1552 59.5483 31.727 61.6843C32.0131 61.8181 32.3416 61.8331 32.6409 61.7243C32.9389 61.6156 33.1814 61.3934 33.3152 61.1061L34.8479 57.8191C36.3759 58.4039 37.9767 58.7569 39.6223 58.8692V66.0543ZM38.4276 39.8024V38.6078C38.4276 37.9489 37.8919 37.4131 37.233 37.4131H33.6491C32.9897 37.4131 32.4545 36.878 32.4545 36.2185C32.4545 35.5591 32.9897 35.0239 33.6491 35.0239H37.233C39.2095 35.0239 40.8169 36.6313 40.8169 38.6078V39.8024C40.8169 41.7789 39.2095 43.3863 37.233 43.3863H36.0384C35.3796 43.3863 34.8438 43.9221 34.8438 44.5809V46.9701H39.6223C40.2817 46.9701 40.8169 47.5053 40.8169 48.1648C40.8169 48.8242 40.2817 49.3594 39.6223 49.3594H33.6491C32.9897 49.3594 32.4545 48.8242 32.4545 48.1648V44.5809C32.4545 42.6044 34.0619 40.997 36.0384 40.997H37.233C37.8919 40.997 38.4276 40.4612 38.4276 39.8024ZM49.1793 43.3863H44.4008C43.7413 43.3863 43.2061 42.8511 43.2061 42.1916V36.2185C43.2061 35.5591 43.7413 35.0239 44.4008 35.0239C45.0602 35.0239 45.5954 35.5591 45.5954 36.2185V40.997H49.1793V36.2185C49.1793 35.5591 49.7145 35.0239 50.3739 35.0239C51.0333 35.0239 51.5685 35.5591 51.5685 36.2185V48.1648C51.5685 48.8242 51.0333 49.3594 50.3739 49.3594C49.7145 49.3594 49.1793 48.8242 49.1793 48.1648V43.3863ZM67.0986 42.1916C67.0986 54.077 59.0887 64.5192 47.6203 67.5846C47.5169 67.6121 47.413 67.6252 47.3109 67.6252C46.7828 67.6252 46.3002 67.2722 46.1569 66.7388C45.9866 66.1015 46.3653 65.4468 47.0027 65.276C50.7556 64.2731 54.0981 62.3975 56.8434 59.9079L54.3329 57.3974C53.8664 56.9309 53.8664 56.1747 54.3329 55.7082C54.7994 55.2417 55.5556 55.2417 56.0221 55.7082L58.5344 58.2205C62.1505 54.2155 64.3958 49.01 64.6765 43.3869H61.1255C60.4661 43.3869 59.9309 42.8517 59.9309 42.1922C59.9309 41.5328 60.4661 40.9976 61.1255 40.9976H64.6789C64.3976 35.3088 62.1164 30.1373 58.526 26.1723L56.0215 28.6769C55.7879 28.9104 55.4827 29.0269 55.1769 29.0269C54.871 29.0269 54.5658 28.9104 54.3323 28.6769C53.8658 28.2104 53.8658 27.4542 54.3323 26.9877L56.8368 24.4831C52.8718 20.8921 47.7003 18.611 42.0115 18.3296V21.883C42.0115 22.5425 41.4763 23.0777 40.8169 23.0777C40.1575 23.0777 39.6223 22.5425 39.6223 21.883V18.332C33.9998 18.6127 28.7936 20.858 24.7886 24.4742L27.3009 26.9865C27.7674 27.453 27.7674 28.2092 27.3009 28.6757C27.0674 28.9092 26.7621 29.0257 26.4563 29.0257C26.1505 29.0257 25.8453 28.9092 25.6117 28.6757L23.1012 26.1652C20.6116 28.9104 18.7361 32.2524 17.7332 36.0053C17.5623 36.6426 16.9071 37.0213 16.2703 36.8511C15.633 36.6808 15.2543 36.0262 15.4246 35.3883C18.4894 23.9199 28.9316 15.9099 40.8169 15.9099C55.3089 15.9099 67.0986 27.6997 67.0986 42.1916Z" fill="#51657D"/>
</svg>
