<svg width="280" height="120" viewBox="0 0 280 120" fill="none" xmlns="http://www.w3.org/2000/svg">
<path fill-rule="evenodd" clip-rule="evenodd" d="M58.944 38.4004C51.8557 38.4004 46.1664 44.5004 46.0732 52.0004C41.5031 54.1004 38.332 59.0004 38.332 64.6004C38.332 70.2004 44.1146 78.4004 51.2028 78.4004C58.2911 78.4004 56.7988 77.3004 58.944 75.6004C61.0891 77.4004 63.7938 78.4004 66.6851 78.4004C73.7734 78.4004 79.5559 72.2004 79.5559 64.6004C79.5559 57.0004 76.3848 54.1004 71.8148 52.0004C71.8148 44.4004 66.0322 38.4004 58.944 38.4004ZM64.0736 63.3004C63.7006 59.8004 62.3016 56.7004 59.9699 54.4004C61.2756 53.3004 62.8612 52.6004 64.54 52.3004C65.6592 54.6004 66.7784 57.4004 67.6178 60.3004C66.5918 61.5004 65.3794 62.5004 63.9804 63.3004H64.0736ZM58.944 73.9004C56.7056 71.8004 55.2133 68.8004 55.12 65.4004C56.3325 65.8004 57.6382 66.0004 58.944 66.0004C60.2497 66.0004 61.5554 65.8004 62.7679 65.4004C62.5814 68.7004 61.0891 71.8004 58.944 73.9004ZM50.2702 60.3004C51.2028 57.4004 52.2288 54.6004 53.348 52.3004C55.0268 52.7004 56.519 53.4004 57.918 54.4004C55.5864 56.7004 54.1874 59.8004 53.8143 63.3004C52.4153 62.6004 51.2028 61.5004 50.1769 60.3004H50.2702ZM49.3375 59.0004C48.2183 57.2004 47.5654 55.0004 47.3789 52.9004C48.5914 52.5004 49.8971 52.2004 51.2028 52.2004C52.5086 52.2004 51.6692 52.2004 52.0422 52.2004C51.1096 54.1004 50.2702 56.4004 49.3375 59.0004ZM54.0941 51.1004C55.6796 48.4004 57.2652 46.6004 59.0372 46.6004C60.8093 46.6004 62.3948 48.4004 63.9804 51.1004C62.2083 51.5004 60.5295 52.4004 59.0372 53.6004C57.545 52.5004 55.9594 51.6004 54.0941 51.1004ZM58.944 64.5004C57.6382 64.5004 56.3325 64.2004 55.12 63.8004C55.3066 60.4004 56.7988 57.4004 58.944 55.3004C61.1824 57.4004 62.6746 60.5004 62.7679 63.8004C61.5554 64.2004 60.343 64.5004 58.944 64.5004ZM65.939 52.2004H66.7784C68.1774 52.2004 69.3898 52.5004 70.6023 52.9004C70.4158 55.2004 69.7629 57.3004 68.6437 59.0004C67.711 56.4004 66.8716 54.1004 65.939 52.2004ZM58.944 39.7004C65.0996 39.7004 70.136 44.9004 70.509 51.4004C69.2966 51.0004 67.9908 50.8004 66.6851 50.8004C65.3794 50.8004 65.6592 50.8004 65.1928 50.8004C63.141 47.1004 61.0891 45.2004 58.8507 45.2004C56.6123 45.2004 54.5604 47.0004 52.5086 50.8004C52.0422 50.8004 51.4826 50.8004 51.0163 50.8004C49.7106 50.8004 48.4048 51.0004 47.1924 51.4004C47.5654 44.9004 52.6018 39.7004 58.7574 39.7004H58.944ZM39.6378 64.5004C39.6378 59.6004 42.2492 55.4004 46.0732 53.3004C46.353 56.0004 47.2856 58.5004 48.7779 60.5004V60.8004C46.9126 66.9004 45.7001 72.9004 45.2338 75.1004C41.8762 72.9004 39.6378 69.0004 39.6378 64.5004ZM51.2961 77.0004C49.6173 77.0004 47.9385 76.6004 46.4462 75.9004C47.0991 72.5004 48.2183 67.1004 49.8038 61.9004C50.923 63.1004 52.322 64.2004 53.8143 64.9004C53.8143 68.9004 55.4931 72.4004 57.918 74.8004C56.0527 76.3004 53.721 77.1004 51.2028 77.1004L51.2961 77.0004ZM59.9699 74.7004C62.3948 72.2004 64.0736 68.7004 64.0736 64.8004C65.5659 64.1004 66.9649 63.0004 68.0841 61.8004C69.6696 67.0004 70.8821 72.4004 71.4417 75.8004C69.9494 76.5004 68.3639 76.9004 66.5918 76.9004C64.1669 76.9004 61.742 76.0004 59.8766 74.6004L59.9699 74.7004ZM72.7474 75.2004C72.3744 73.0004 71.0686 66.9004 69.2033 60.9004V60.6004C70.6956 58.6004 71.6282 56.1004 71.908 53.4004C75.732 55.4004 78.3434 59.6004 78.3434 64.6004C78.3434 69.6004 76.105 73.0004 72.7474 75.2004Z" fill="#0C2544"/>
<path fill-rule="evenodd" clip-rule="evenodd" d="M234.286 67.7006C233.913 67.5006 233.633 67.3006 233.26 67.0006C232.98 66.6006 232.794 66.3006 232.607 65.9006C232.42 65.5006 232.327 64.9006 232.327 64.4006V60.8006C232.327 60.2006 232.327 59.7006 232.607 59.2006C232.887 58.7006 232.98 58.3006 233.26 58.1006C233.54 57.9006 233.819 57.6006 234.286 57.4006C234.659 57.2006 235.032 57.1006 235.405 57.1006C235.778 57.1006 236.244 57.1006 236.524 57.4006C236.804 57.7006 237.177 57.8006 237.457 58.2006C237.737 58.6006 237.83 59.0006 238.016 59.5006C238.016 59.9006 238.203 60.4006 238.203 60.9006V64.1006C238.203 64.6006 238.203 65.2006 238.016 65.5006C237.83 66.3006 237.55 67.0006 237.084 67.4006C236.617 67.8006 236.058 68.1006 235.218 68.1006C234.379 68.1006 234.379 68.1006 234.006 67.8006H234.286V67.7006ZM232.514 74.9006V68.7006C232.7 69.0006 232.98 69.3006 233.353 69.6006C233.726 69.9006 234.099 70.1006 234.566 70.3006C235.032 70.5006 235.592 70.6006 236.244 70.6006C236.897 70.6006 237.364 70.6006 237.923 70.3006C238.483 70.0006 238.949 69.8006 239.509 69.2006C240.068 68.6006 240.348 68.1006 240.535 67.4006C240.721 66.8006 240.908 66.2006 241.001 65.4006C241.094 64.6006 241.188 63.7006 241.188 62.7006C241.188 61.7006 241.188 60.5006 241.001 59.6006C241.001 58.7006 240.628 57.9006 240.348 57.2006C239.602 55.6006 238.203 54.7006 236.338 54.7006C234.472 54.7006 234.659 54.9006 234.006 55.3006C233.353 55.7006 232.887 56.3006 232.42 57.0006V55.2006H229.809V75.0006H232.514V74.8006V74.9006ZM220.762 67.7006C220.389 67.5006 220.109 67.3006 219.736 67.0006C219.456 66.6006 219.27 66.3006 219.083 65.9006C218.897 65.5006 218.804 64.9006 218.804 64.4006V60.8006C218.804 60.2006 218.804 59.7006 219.083 59.2006C219.363 58.7006 219.456 58.3006 219.736 58.1006C220.016 57.9006 220.296 57.6006 220.762 57.4006C221.135 57.2006 221.508 57.1006 221.881 57.1006C222.254 57.1006 222.721 57.1006 223.001 57.4006C223.28 57.7006 223.653 57.8006 223.933 58.2006C224.213 58.6006 224.306 59.0006 224.493 59.5006C224.493 59.9006 224.679 60.4006 224.679 60.9006V64.1006C224.679 64.6006 224.679 65.2006 224.493 65.5006C224.306 66.3006 224.026 67.0006 223.56 67.4006C223.094 67.8006 222.534 68.1006 221.695 68.1006C220.855 68.1006 220.855 68.1006 220.482 67.8006H220.762V67.7006ZM218.897 74.9006V68.7006C219.083 69.0006 219.363 69.3006 219.736 69.6006C220.109 69.9006 220.482 70.1006 220.949 70.3006C221.415 70.5006 221.975 70.6006 222.627 70.6006C223.28 70.6006 223.747 70.6006 224.306 70.3006C224.866 70.0006 225.332 69.8006 225.892 69.2006C226.451 68.6006 226.731 68.1006 226.918 67.4006C227.104 66.8006 227.291 66.2006 227.384 65.4006C227.477 64.6006 227.571 63.7006 227.571 62.7006C227.571 61.7006 227.571 60.5006 227.384 59.6006C227.198 58.7006 227.011 57.9006 226.731 57.2006C225.985 55.6006 224.586 54.7006 222.721 54.7006C220.855 54.7006 221.042 54.9006 220.389 55.3006C219.736 55.7006 219.27 56.3006 218.804 57.0006V55.2006H216.192V75.0006H218.897V74.8006V74.9006ZM209.29 69.8006C209.943 69.4006 210.503 68.7006 210.969 68.0006V69.9006H213.487V55.0006H210.783V63.9006C210.783 64.4006 210.783 65.0006 210.41 65.6006C210.036 66.2006 209.85 66.7006 209.384 67.2006C208.917 67.7006 208.264 67.9006 207.705 67.9006C207.145 67.9006 206.306 67.7006 205.933 67.3006C205.56 66.9006 205.373 66.2006 205.373 65.3006V55.2006H202.668V66.1006C202.668 67.0006 202.668 67.7006 203.041 68.3006C203.415 68.9006 203.601 69.4006 203.974 69.7006C204.347 70.1006 204.814 70.3006 205.28 70.4006C205.746 70.6006 206.306 70.6006 206.772 70.6006C207.798 70.6006 208.544 70.4006 209.29 70.0006V69.8006ZM196.606 70.0006V63.2006C196.606 62.6006 196.606 61.9006 196.886 61.0006C197.072 60.2006 197.352 59.4006 197.912 58.8006C198.471 58.2006 199.311 57.8006 200.243 57.8006C201.176 57.8006 200.803 57.8006 200.99 57.8006V54.9006H200.617C199.684 54.9006 198.938 55.2006 198.192 55.8006C197.445 56.4006 196.886 57.1006 196.513 58.2006V55.0006H193.995V69.9006H196.699L196.606 70.0006ZM183.642 70.0006V64.0006L185.414 62.0006L189.145 70.0006H192.129L187.373 59.9006L191.756 55.1006H188.585L183.549 60.6006V49.8006H180.844V70.1006H183.642V70.0006ZM169.745 70.0006V61.1006C169.745 60.6006 169.745 60.0006 170.118 59.4006C170.305 58.8006 170.678 58.3006 171.144 57.8006C171.611 57.3006 172.263 57.1006 172.916 57.1006C173.569 57.1006 174.315 57.3006 174.595 57.7006C174.968 58.1006 175.155 58.8006 175.155 59.7006V69.8006H177.859V58.9006C177.859 58.0006 177.673 57.2006 177.393 56.5006C177.02 55.8006 176.647 55.3006 175.994 54.9006C175.341 54.5006 174.688 54.4006 173.849 54.4006C173.01 54.4006 172.077 54.6006 171.331 55.0006C170.585 55.4006 170.025 56.0006 169.652 56.8006V54.9006H167.134V69.8006H169.839L169.745 70.0006ZM156.222 59.2006C156.408 58.6006 156.595 58.1006 156.874 57.8006C157.154 57.4006 157.434 57.2006 157.807 57.1006C158.18 56.9006 158.553 56.9006 158.926 56.9006C159.299 56.9006 159.859 56.9006 160.232 57.2006C160.698 57.4006 161.071 57.8006 161.258 58.5006C161.445 59.2006 161.631 60.2006 161.631 61.3006H155.849C155.849 60.4006 155.849 59.7006 156.128 59.1006L156.222 59.2006ZM161.165 70.2006C161.818 70.0006 162.377 69.7006 162.844 69.1006C163.31 68.5006 163.776 68.0006 164.056 67.4006L161.911 66.3006C161.911 66.5006 161.538 66.7006 161.445 67.0006C161.165 67.3006 160.885 67.5006 160.419 67.7006C159.952 67.9006 159.486 68.0006 159.02 68.0006C158.553 68.0006 158.087 68.0006 157.714 67.8006C157.341 67.6006 156.968 67.4006 156.688 67.1006C156.408 66.8006 156.222 66.3006 156.035 65.8006C155.849 65.3006 155.755 64.6006 155.755 63.8006V63.4006H164.149V61.8006C164.149 61.1006 164.149 60.4006 164.149 59.7006C164.149 59.0006 163.963 58.3006 163.776 57.6006C163.496 57.0006 163.217 56.4006 162.75 55.9006C162.284 55.4006 161.818 55.1006 161.258 54.9006C160.698 54.6006 159.952 54.5006 159.02 54.5006C158.087 54.5006 157.341 54.5006 156.595 54.9006C155.942 55.2006 155.382 55.5006 154.916 56.0006C154.543 56.4006 154.263 56.8006 153.983 57.4006C153.703 58.0006 153.517 58.7006 153.33 59.6006C153.144 60.5006 153.051 61.5006 153.051 62.7006C153.051 63.9006 153.051 64.4006 153.237 65.1006C153.424 65.8006 153.517 66.4006 153.703 67.0006C154.076 68.1006 154.729 68.8006 155.475 69.5006C156.222 70.2006 157.434 70.4006 158.833 70.4006C160.232 70.4006 160.419 70.4006 161.071 70.0006L161.165 70.2006ZM147.548 70.3006C148.014 70.3006 148.387 70.0006 148.76 69.9006C149.133 69.7006 149.413 69.5006 149.693 69.4006C149.973 69.3006 150.159 69.0006 150.253 68.8006C150.532 68.4006 150.719 68.0006 150.905 67.6006C151.092 67.2006 151.185 66.6006 151.185 66.0006C151.185 65.4006 151.185 64.9006 150.999 64.6006C150.999 64.2006 150.719 63.9006 150.626 63.6006C150.346 63.2006 150.159 62.9006 149.693 62.5006C149.227 62.1006 148.574 61.8006 147.361 61.4006C146.802 61.2006 146.242 61.0006 145.776 60.9006C145.309 60.7006 144.936 60.5006 144.657 60.3006C144.283 60.1006 144.097 59.9006 143.91 59.6006C143.724 59.3006 143.631 59.1006 143.631 58.8006C143.631 58.2006 143.817 57.7006 144.19 57.3006C144.47 57.1006 144.657 56.9006 145.03 56.9006C145.403 56.9006 145.776 56.9006 146.149 56.9006C146.802 56.9006 147.361 57.1006 147.828 57.3006C148.294 57.5006 148.667 58.1006 148.854 58.7006L150.999 57.6006C150.626 56.6006 149.973 55.8006 149.227 55.4006C148.48 55.0006 147.455 54.7006 146.242 54.7006C145.03 54.7006 144.936 54.7006 144.283 55.0006C143.631 55.2006 143.164 55.4006 142.698 55.8006C142.232 56.2006 141.952 56.6006 141.672 57.0006C141.485 57.4006 141.299 57.8006 141.299 58.1006C141.299 58.4006 141.299 58.9006 141.299 59.2006C141.299 59.5006 141.299 60.0006 141.485 60.4006C141.485 60.8006 141.765 61.2006 142.045 61.5006C142.232 61.8006 142.511 62.0006 142.978 62.4006C143.351 62.7006 143.817 62.9006 144.377 63.2006L146.429 64.0006C146.802 64.2006 147.175 64.3006 147.548 64.4006C147.921 64.6006 148.201 64.8006 148.48 65.1006C148.76 65.4006 148.854 65.8006 148.854 66.2006C148.854 66.6006 148.854 66.8006 148.574 67.1006C148.387 67.4006 148.201 67.5006 148.014 67.6006C147.734 67.8006 147.548 67.9006 147.175 67.9006H146.149C145.776 67.9006 145.403 67.9006 145.123 67.7006C144.843 67.5006 144.563 67.4006 144.283 67.3006C144.004 67.2006 143.817 66.9006 143.631 66.7006C143.444 66.5006 143.258 66.2006 143.164 65.9006L140.926 67.0006C141.112 67.5006 141.299 68.0006 141.672 68.4006C142.045 68.8006 142.325 69.2006 142.791 69.5006C143.258 69.8006 143.817 70.0006 144.283 70.2006C144.75 70.4006 145.496 70.5006 146.335 70.5006C147.175 70.5006 147.361 70.5006 147.828 70.3006V70.5006L147.548 70.3006ZM135.33 70.3006C135.796 70.3006 136.169 70.0006 136.542 69.9006C136.915 69.7006 137.195 69.5006 137.475 69.4006C137.755 69.3006 137.941 69.0006 138.035 68.8006C138.314 68.4006 138.501 68.0006 138.687 67.6006C138.874 67.2006 138.967 66.6006 138.967 66.0006C138.967 65.4006 138.967 64.9006 138.781 64.6006C138.781 64.2006 138.501 63.9006 138.408 63.6006C138.128 63.2006 137.941 62.9006 137.475 62.5006C137.009 62.1006 136.356 61.8006 135.143 61.4006C134.584 61.2006 134.117 61.0006 133.558 60.9006C133.091 60.7006 132.718 60.5006 132.439 60.3006C132.066 60.1006 131.879 59.9006 131.692 59.6006C131.506 59.3006 131.413 59.1006 131.413 58.8006C131.413 58.2006 131.599 57.7006 131.972 57.3006C132.252 57.1006 132.439 56.9006 132.812 56.9006C133.185 56.9006 133.558 56.9006 133.931 56.9006C134.584 56.9006 135.143 57.1006 135.61 57.3006C136.076 57.5006 136.449 58.1006 136.636 58.7006L138.781 57.6006C138.408 56.6006 137.755 55.8006 137.009 55.4006C136.263 55.0006 135.237 54.7006 134.024 54.7006C132.812 54.7006 132.718 54.7006 132.066 55.0006C131.413 55.2006 130.946 55.4006 130.48 55.8006C130.014 56.2006 129.734 56.6006 129.454 57.0006C129.268 57.4006 129.081 57.8006 129.081 58.1006C129.081 58.4006 129.081 58.9006 129.081 59.2006C129.081 59.5006 129.081 60.0006 129.268 60.4006C129.268 60.8006 129.547 61.2006 129.827 61.5006C130.014 61.8006 130.293 62.0006 130.76 62.4006C131.133 62.7006 131.599 62.9006 132.159 63.2006L134.211 64.0006C134.584 64.2006 134.957 64.3006 135.237 64.4006C135.516 64.5006 135.889 64.8006 136.169 65.1006C136.449 65.4006 136.542 65.8006 136.542 66.2006C136.542 66.6006 136.542 66.8006 136.263 67.1006C136.076 67.4006 135.889 67.5006 135.703 67.6006C135.423 67.8006 135.237 67.9006 134.864 67.9006H133.838C133.465 67.9006 133.091 67.9006 132.812 67.7006C132.532 67.5006 132.252 67.4006 131.972 67.3006C131.692 67.2006 131.506 66.9006 131.319 66.7006C131.133 66.5006 130.946 66.2006 130.853 65.9006L128.615 67.0006C128.801 67.5006 128.988 68.0006 129.361 68.4006C129.734 68.8006 130.014 69.2006 130.387 69.5006C130.853 69.8006 131.413 70.0006 131.879 70.2006C132.345 70.4006 133.091 70.5006 133.931 70.5006C134.77 70.5006 134.957 70.5006 135.423 70.3006V70.5006L135.33 70.3006ZM119.101 75.0006C119.568 74.8006 120.127 74.5006 120.594 73.9006C121.06 73.3006 121.526 72.5006 121.899 71.4006L127.775 55.1006H125.164L121.526 65.5006L118.076 55.1006H115.371L120.221 69.3006L119.568 70.7006C119.381 71.2006 119.195 71.7006 118.822 72.1006C118.449 72.5006 117.982 72.7006 117.423 72.7006H116.77V75.2006H117.796C118.169 75.2006 118.822 75.2006 119.288 74.9006H119.101V75.0006ZM105.858 70.0006V61.1006C105.858 60.6006 105.858 60.0006 106.231 59.4006C106.417 58.8006 106.79 58.3006 107.257 57.8006C107.723 57.4006 108.283 57.1006 109.029 57.1006C109.775 57.1006 110.428 57.3006 110.707 57.7006C110.987 58.1006 111.267 58.8006 111.267 59.7006V69.8006H113.972V58.9006C113.972 58.0006 113.785 57.2006 113.599 56.5006C113.226 55.8006 112.853 55.3006 112.2 54.9006C111.547 54.5006 110.894 54.4006 110.055 54.4006C109.215 54.4006 108.283 54.6006 107.63 55.0006C106.977 55.4006 106.417 55.9006 105.951 56.6006V49.6006H103.246V69.9006H105.858V70.0006ZM100.914 70.0006V67.6006H99.8885C99.5155 67.6006 99.1424 67.6006 98.8626 67.4006C98.5828 67.4006 98.3963 67.1006 98.2097 66.9006C98.0232 66.6006 97.9299 66.4006 97.8367 66.0006C97.7434 65.6006 97.8367 65.3006 97.8367 64.9006V57.2006H100.728V54.9006H97.8367V49.6006H95.2252V54.9006H93.4531V57.2006H95.2252V64.9006C95.2252 65.7006 95.2252 66.4006 95.4117 67.0006C95.5983 67.6006 95.7848 68.1006 96.0646 68.6006C96.3444 69.1006 96.8107 69.4006 97.3703 69.7006C97.9299 70.0006 98.5828 70.1006 99.5155 70.1006H101.008H100.821L100.914 70.0006Z" fill="#0C2544"/>
</svg>
