<svg width="20" height="16" viewBox="0 0 20 16" fill="none" xmlns="http://www.w3.org/2000/svg">
<path d="M19.6881 1.89752C18.965 2.22061 18.1854 2.43601 17.37 2.53345C18.206 2.03599 18.8419 1.24108 19.1445 0.297449C18.3649 0.759009 17.4982 1.09749 16.5802 1.27698C15.8417 0.49233 14.7955 0 13.6314 0C11.4005 0 9.59018 1.81034 9.59018 4.04121C9.59018 4.35917 9.62608 4.66688 9.69275 4.9592C6.33362 4.78996 3.35913 3.18476 1.36929 0.738495C1.02056 1.33339 0.82055 2.03086 0.82055 2.76936C0.82055 4.16942 1.5334 5.40538 2.6155 6.13361C1.95394 6.1131 1.32827 5.9336 0.784651 5.6259C0.784651 5.64128 0.784651 5.6618 0.784651 5.67718C0.784651 7.63625 2.17959 9.26709 4.02583 9.63634C3.68735 9.72865 3.32836 9.77993 2.96424 9.77993C2.70269 9.77993 2.45139 9.75429 2.20523 9.70814C2.71807 11.3133 4.21045 12.4775 5.97976 12.5134C4.59508 13.5955 2.85654 14.2417 0.964147 14.2417C0.635927 14.2417 0.317963 14.2212 0 14.1853C1.7847 15.334 3.90787 16.0007 6.19003 16.0007C13.616 16.0007 17.6829 9.8466 17.6829 4.5079C17.6829 4.33353 17.6829 4.15916 17.6726 3.9848C18.4624 3.41554 19.1445 2.70269 19.6881 1.89239V1.89752Z" fill="white"/>
</svg>
