<svg width="31" height="30" viewBox="0 0 31 30" fill="none" xmlns="http://www.w3.org/2000/svg">
<path d="M2.81641 15.3434C2.81641 20.3001 5.71931 24.5837 9.92874 26.6136L3.90899 10.2471C3.18736 11.8506 2.81504 13.5872 2.81641 15.3434ZM23.9553 14.7115C23.9553 13.1638 23.3951 12.0921 22.9146 11.2578C22.2749 10.2263 21.6753 9.35279 21.6753 8.32127C21.6753 7.17014 22.5551 6.09859 23.7944 6.09859C23.8504 6.09859 23.9034 6.1055 23.9579 6.1086C21.7127 4.06749 18.7215 2.82129 15.4361 2.82129C11.0273 2.82129 7.14854 5.06589 4.89207 8.46567C5.18815 8.47449 5.46717 8.48068 5.70418 8.48068C7.02416 8.48068 9.0674 8.32175 9.0674 8.32175C9.74768 8.28196 9.82788 9.27344 9.14832 9.35326C9.14832 9.35326 8.46468 9.43309 7.70396 9.47264L12.2995 23.0367L15.0612 14.8177L13.0951 9.47216C12.4155 9.43261 11.7717 9.35279 11.7717 9.35279C11.0917 9.31323 11.1714 8.28148 11.8514 8.32127C11.8514 8.32127 13.9355 8.4802 15.1755 8.4802C16.4953 8.4802 18.5387 8.32127 18.5387 8.32127C19.2195 8.28148 19.2995 9.27296 18.6197 9.35279C18.6197 9.35279 17.9346 9.43261 17.1753 9.47216L21.7358 22.9336L22.9945 18.7596C23.5401 17.0276 23.9553 15.7835 23.9553 14.7115Z" fill="#309ED0"/>
<path d="M15.6613 16.4383L11.875 27.3561C13.0326 27.6944 14.2332 27.8662 15.4399 27.8662C16.9095 27.8662 18.3188 27.6141 19.6306 27.1564C19.5956 27.1016 19.5656 27.0439 19.5408 26.9839L15.6613 16.4383ZM26.5132 9.33496C26.5674 9.73384 26.5982 10.162 26.5982 10.6226C26.5982 11.8934 26.359 13.3219 25.6386 15.108L21.7839 26.1673C25.5356 23.9963 28.0591 19.963 28.0591 15.3432C28.0593 13.166 27.4989 11.1187 26.5132 9.33496Z" fill="#309ED0"/>
<path d="M15.4392 0.746094C7.32793 0.746094 0.728516 7.29427 0.728516 15.3431C0.728516 23.393 7.32793 29.9409 15.4392 29.9409C23.5502 29.9409 30.1506 23.393 30.1506 15.3431C30.1503 7.29427 23.5502 0.746094 15.4392 0.746094ZM15.4392 29.2718C7.69989 29.2718 1.40303 23.0234 1.40303 15.3431C1.40303 7.66337 7.69965 1.41542 15.4392 1.41542C23.1783 1.41542 29.4746 7.66337 29.4746 15.3431C29.4746 23.0234 23.1783 29.2718 15.4392 29.2718Z" fill="#309ED0"/>
</svg>
