<svg width="30" height="31" viewBox="0 0 30 31" fill="none" xmlns="http://www.w3.org/2000/svg">
<path fill-rule="evenodd" clip-rule="evenodd" d="M28.687 20.0696H1.80276C1.56318 20.0696 1.36914 19.8756 1.36914 19.636V11.6161C1.36914 11.3765 1.56318 11.1824 1.80276 11.1824H28.6867C28.9263 11.1824 29.1204 11.3765 29.1204 11.6161V19.6361C29.1204 19.751 29.0747 19.8613 28.9935 19.9426C28.9122 20.0239 28.802 20.0696 28.687 20.0696ZM24.3978 17.5335C24.3181 17.5335 24.2399 17.5116 24.1719 17.4701C24.1038 17.4286 24.0485 17.3691 24.0121 17.2982L22.8403 15.0183L21.6687 17.2982C21.6323 17.3691 21.577 17.4286 21.5089 17.4701C21.4409 17.5116 21.3627 17.5336 21.283 17.5336C21.1204 17.5336 20.9715 17.4427 20.8972 17.2982L19.3398 14.2681C19.2305 14.0552 19.3143 13.7936 19.5273 13.6844C19.5779 13.6582 19.6332 13.6424 19.69 13.6377C19.7468 13.633 19.804 13.6395 19.8582 13.6569C19.9124 13.6743 19.9627 13.7023 20.0062 13.7392C20.0496 13.776 20.0853 13.8211 20.1113 13.8718L21.283 16.1517L22.4546 13.8718C22.4911 13.8009 22.5464 13.7415 22.6144 13.6999C22.6825 13.6584 22.7606 13.6365 22.8403 13.6365C23.003 13.6365 23.1518 13.7273 23.2262 13.8718L24.3978 16.1517L25.5695 13.8718C25.5955 13.8211 25.6312 13.776 25.6747 13.7392C25.7181 13.7023 25.7684 13.6743 25.8226 13.6569C25.8769 13.6395 25.934 13.633 25.9908 13.6377C26.0476 13.6424 26.1029 13.6583 26.1535 13.6844C26.2557 13.737 26.3329 13.828 26.368 13.9375C26.4031 14.0469 26.3934 14.1658 26.3409 14.2681L24.7835 17.2985C24.747 17.3693 24.6917 17.4287 24.6237 17.4702C24.5556 17.5117 24.4775 17.5336 24.3978 17.5336V17.5335ZM16.8021 17.5335C16.7224 17.5335 16.6443 17.5116 16.5762 17.4701C16.5082 17.4286 16.4529 17.3691 16.4164 17.2982L15.2447 15.0186L14.0731 17.2985C14.0366 17.3694 13.9813 17.4288 13.9133 17.4704C13.8452 17.5119 13.767 17.5338 13.6873 17.5338C13.5247 17.5338 13.3758 17.4429 13.3016 17.2985L11.7442 14.2681C11.6347 14.0552 11.7187 13.7936 11.9317 13.6844C11.9823 13.6584 12.0375 13.6426 12.0943 13.6379C12.151 13.6332 12.2081 13.6398 12.2623 13.6572C12.3165 13.6746 12.3668 13.7025 12.4102 13.7393C12.4536 13.7762 12.4893 13.8212 12.5154 13.8718L13.6871 16.1517L14.8587 13.8718C14.8952 13.8009 14.9504 13.7415 15.0185 13.6999C15.0865 13.6584 15.1647 13.6365 15.2444 13.6365C15.407 13.6365 15.556 13.7273 15.6302 13.8718L16.8019 16.1517L17.9736 13.8718C17.9996 13.8211 18.0353 13.776 18.0787 13.7391C18.1221 13.7023 18.1724 13.6743 18.2267 13.6569C18.2809 13.6395 18.3381 13.633 18.3949 13.6377C18.4517 13.6424 18.5069 13.6583 18.5576 13.6844C18.7706 13.7937 18.8544 14.0552 18.745 14.2681L17.1876 17.2982C17.1512 17.3691 17.0959 17.4285 17.0279 17.47C16.96 17.5116 16.8818 17.5335 16.8022 17.5336L16.8021 17.5335ZM9.20626 17.5335C9.12656 17.5335 9.04839 17.5116 8.98035 17.4701C8.9123 17.4286 8.85702 17.3691 8.82056 17.2982L7.6491 15.0186L6.47741 17.2985C6.44095 17.3694 6.38565 17.4288 6.3176 17.4703C6.24954 17.5119 6.17137 17.5338 6.09165 17.5338C6.01195 17.5338 5.93378 17.5118 5.86574 17.4703C5.79769 17.4288 5.74241 17.3694 5.70595 17.2985L4.14851 14.2684C4.03902 14.0554 4.12304 13.7938 4.33594 13.6846C4.38658 13.6586 4.44185 13.6428 4.4986 13.6381C4.55535 13.6334 4.61247 13.64 4.66668 13.6574C4.7209 13.6748 4.77115 13.7027 4.81456 13.7396C4.85798 13.7764 4.8937 13.8214 4.9197 13.8721L6.09138 16.152L7.26312 13.8721C7.29956 13.8012 7.35483 13.7417 7.42288 13.7002C7.49093 13.6587 7.56911 13.6367 7.64882 13.6368C7.81143 13.6368 7.96027 13.7276 8.03453 13.8721L9.20626 16.152L10.378 13.8721C10.404 13.8215 10.4397 13.7764 10.4831 13.7396C10.5265 13.7028 10.5768 13.6748 10.631 13.6574C10.6852 13.64 10.7423 13.6335 10.7991 13.6381C10.8558 13.6428 10.9111 13.6586 10.9617 13.6846C11.1747 13.794 11.2585 14.0554 11.1491 14.2684L9.59197 17.2982C9.55552 17.3691 9.50023 17.4286 9.43219 17.4701C9.36415 17.5116 9.28598 17.5336 9.20626 17.5336V17.5335ZM11.639 17.6159H11.2551C11.0155 17.6159 10.8215 17.4219 10.8215 17.1823C10.8215 16.9427 11.0155 16.7487 11.2551 16.7487H11.639C11.8786 16.7487 12.0726 16.9427 12.0726 17.1823C12.0726 17.4219 11.8784 17.6159 11.639 17.6159ZM19.2347 17.6159H18.8508C18.6112 17.6159 18.4171 17.4219 18.4171 17.1823C18.4171 16.9427 18.6112 16.7487 18.8508 16.7487H19.2347C19.4743 16.7487 19.6683 16.9427 19.6683 17.1823C19.6683 17.4219 19.4743 17.6159 19.2347 17.6159ZM3.2132 10.3153C4.91271 6.45538 8.34288 3.68035 12.4002 2.78617C11.8378 3.28342 11.3577 3.89163 10.9638 4.51722C9.89767 6.21028 9.24122 8.3041 8.85867 10.3153H3.2132ZM17.9667 2.75989C22.0776 3.62495 25.5599 6.41673 27.2763 10.3153H21.5632C20.9746 7.95152 19.8832 4.52655 17.9667 2.75989ZM12.4013 28.4661C8.34348 27.5721 4.91287 24.7969 3.2132 20.9368H8.85937C9.2429 22.9477 9.89962 25.0415 10.9651 26.7345C11.359 27.3602 11.8389 27.9688 12.4013 28.4661ZM21.6308 20.9368H27.2766C25.5771 24.7966 22.1468 27.5718 18.0891 28.466C18.6515 27.9687 19.1315 27.3603 19.5254 26.7346C20.5913 25.0417 21.2479 22.9479 21.6308 20.9368Z" fill="#50B3F0"/>
<path fill-rule="evenodd" clip-rule="evenodd" d="M9.74414 10.3149C10.6824 5.57688 12.8235 2.47668 15.2463 2.47668C17.6692 2.47668 19.8102 5.57704 20.7484 10.3149H9.74414ZM15.2464 28.7747C12.8235 28.7747 10.6824 25.6746 9.7442 20.9365H20.7489C19.8106 25.6744 17.6696 28.7747 15.2465 28.7747H15.2464Z" fill="#50B3F0"/>
</svg>
