<svg width="25" height="26" viewBox="0 0 25 26" fill="none" xmlns="http://www.w3.org/2000/svg">
<g clip-path="url(#clip0_1130_362)">
<path d="M0.734375 12.6433L2.8913 10.4863V12.6433H0.734375ZM24.8622 12.6433L22.7053 10.4863V12.6433H24.8622Z" fill="#135431"/>
<path d="M17.824 0.935547H4.0189C3.31466 0.935547 2.74414 1.49803 2.74414 2.19221V23.8067C2.74414 24.5009 3.31466 25.0634 4.0189 25.0634H21.5759C22.2802 25.0634 22.8507 24.5009 22.8507 23.8067V5.96218L17.824 0.935547Z" fill="#35BD73"/>
<path d="M17.8242 0.935547L22.8509 5.96218H17.8242V0.935547Z" fill="#D9FFEB"/>
<path d="M0.734375 12.6417H24.8622V21.6897H0.734375V12.6417Z" fill="#229456"/>
<path d="M22.8509 5.96289V10.9895L17.8242 5.96289H22.8509Z" fill="#1B9754"/>
<path d="M11.2624 5.79688H5.25657C4.97896 5.79688 4.75391 6.02193 4.75391 6.29954C4.75391 6.57715 4.97896 6.8022 5.25657 6.8022H11.2624C11.54 6.8022 11.7651 6.57715 11.7651 6.29954C11.7651 6.02193 11.54 5.79688 11.2624 5.79688Z" fill="#D9FFEB"/>
<path d="M15.8125 7.71289H5.25657C4.97896 7.71289 4.75391 7.93794 4.75391 8.21555C4.75391 8.49317 4.97896 8.71822 5.25657 8.71822H15.8125C16.0901 8.71822 16.3152 8.49317 16.3152 8.21555C16.3152 7.93794 16.0901 7.71289 15.8125 7.71289Z" fill="#D9FFEB"/>
<path d="M15.8125 9.62897H5.25657C4.97896 9.62897 4.75391 9.85402 4.75391 10.1316C4.75391 10.4092 4.97896 10.6343 5.25657 10.6343H15.8125C16.0901 10.6343 16.3152 10.4092 16.3152 10.1316C16.3152 9.85402 16.0901 9.62897 15.8125 9.62897Z" fill="#D9FFEB"/>
<path d="M8.46092 16.2679L9.33706 14.486H10.8134L9.31495 17.1441L10.8541 19.8464H9.3632L8.46143 18.0313L7.55965 19.8464H6.07227L7.6074 17.1441L6.11248 14.486H7.58528L8.46092 16.2679ZM12.5662 18.8526H14.8156V19.8469H11.2738V14.4865H12.5662V18.8526ZM18.1251 18.4219C18.1251 18.2329 18.0583 18.0856 17.9246 17.98C17.7909 17.8745 17.5556 17.7654 17.2193 17.6523C16.883 17.5392 16.6081 17.4301 16.3945 17.3245C15.6998 16.9832 15.3524 16.5148 15.3524 15.9181C15.3524 15.621 15.4389 15.3591 15.6118 15.1319C15.7847 14.9047 16.0295 14.7283 16.3462 14.6016C16.6629 14.4754 17.0188 14.4121 17.4139 14.4121C17.809 14.4121 18.1447 14.481 18.4504 14.6182C18.756 14.7559 18.9932 14.9515 19.1626 15.2053C19.332 15.4592 19.4165 15.7497 19.4165 16.0759H18.1281C18.1281 15.8573 18.0613 15.6884 17.9276 15.5677C17.7939 15.4476 17.6129 15.3873 17.3847 15.3873C17.1565 15.3873 16.9715 15.438 16.8378 15.5401C16.7041 15.6421 16.6372 15.7713 16.6372 15.9286C16.6372 16.0664 16.7106 16.1905 16.8579 16.3021C17.0052 16.4137 17.2641 16.5293 17.6345 16.648C18.005 16.7671 18.3096 16.8953 18.5474 17.0325C19.1264 17.3663 19.4165 17.8267 19.4165 18.4133C19.4165 18.8823 19.2395 19.2502 18.8862 19.5177C18.5328 19.7851 18.0477 19.9188 17.432 19.9188C16.9977 19.9188 16.6041 19.8409 16.2522 19.6851C15.8998 19.5292 15.6349 19.3156 15.457 19.0447C15.279 18.7737 15.1901 18.4611 15.1901 18.1077H16.4859C16.4859 18.3947 16.5603 18.6063 16.7086 18.7426C16.8569 18.8788 17.0982 18.9471 17.432 18.9471C17.6456 18.9471 17.814 18.9009 17.9381 18.8089C18.0618 18.7169 18.1241 18.5872 18.1241 18.4203L18.1251 18.4219Z" fill="white"/>
</g>
<defs>
<clipPath id="clip0_1130_362">
<rect width="24.1278" height="24.1278" fill="white" transform="translate(0.736328 0.935547)"/>
</clipPath>
</defs>
</svg>
